%TF.GenerationSoftware,KiCad,Pcbnew,(6.0.7)*%
%TF.CreationDate,2023-03-31T21:07:47+02:00*%
%TF.ProjectId,airboy,61697262-6f79-42e6-9b69-6361645f7063,rev?*%
%TF.SameCoordinates,Original*%
%TF.FileFunction,Drillmap*%
%TF.FilePolarity,Positive*%
%FSLAX45Y45*%
G04 Gerber Fmt 4.5, Leading zero omitted, Abs format (unit mm)*
G04 Created by KiCad (PCBNEW (6.0.7)) date 2023-03-31 21:07:47*
%MOMM*%
%LPD*%
G01*
G04 APERTURE LIST*
%ADD10C,0.100000*%
%ADD11C,0.200000*%
%ADD12C,0.030000*%
%ADD13C,0.040000*%
%ADD14C,0.050000*%
%ADD15C,0.060000*%
%ADD16C,0.070000*%
%ADD17C,0.075000*%
%ADD18C,0.090000*%
%ADD19C,0.099000*%
%ADD20C,0.130000*%
%ADD21C,0.150000*%
%ADD22C,0.270000*%
G04 APERTURE END LIST*
D10*
X20825000Y-5850000D02*
X17955000Y-5850000D01*
X11555000Y-12850000D02*
X22200000Y-12850000D01*
X23614999Y-9350000D02*
G75*
G03*
X22825000Y-6650000I-4996729J3570D01*
G01*
X20825000Y-6650000D02*
X20825000Y-5850000D01*
X6615000Y-9350000D02*
G75*
G03*
X8030000Y-12850000I4995745J-16324D01*
G01*
X9405000Y-6650000D02*
X7405000Y-6650000D01*
X10255000Y-12850000D02*
X8030000Y-12850000D01*
X7405000Y-6650000D02*
G75*
G03*
X6615000Y-9350000I4206729J-2696432D01*
G01*
X22200000Y-12850000D02*
G75*
G03*
X23615000Y-9350000I-3580743J3483676D01*
G01*
X17955000Y-5850000D02*
X9405000Y-5850000D01*
X22825000Y-6650000D02*
X20825000Y-6650000D01*
X9405000Y-6650000D02*
X9405000Y-5850000D01*
D11*
D12*
X8236093Y-9422545D02*
X8266093Y-9452545D01*
X8266093Y-9422545D02*
X8236093Y-9452545D01*
X8240000Y-9306800D02*
X8270000Y-9336800D01*
X8270000Y-9306800D02*
X8240000Y-9336800D01*
X8341600Y-10297400D02*
X8371600Y-10327400D01*
X8371600Y-10297400D02*
X8341600Y-10327400D01*
X8341600Y-10551400D02*
X8371600Y-10581400D01*
X8371600Y-10551400D02*
X8341600Y-10581400D01*
X8392400Y-9428720D02*
X8422400Y-9458720D01*
X8422400Y-9428720D02*
X8392400Y-9458720D01*
X8443200Y-8814040D02*
X8473200Y-8844040D01*
X8473200Y-8814040D02*
X8443200Y-8844040D01*
X8448280Y-9189960D02*
X8478280Y-9219960D01*
X8478280Y-9189960D02*
X8448280Y-9219960D01*
X8621000Y-10297400D02*
X8651000Y-10327400D01*
X8651000Y-10297400D02*
X8621000Y-10327400D01*
X8986760Y-10028160D02*
X9016760Y-10058160D01*
X9016760Y-10028160D02*
X8986760Y-10058160D01*
X8986760Y-10612360D02*
X9016760Y-10642360D01*
X9016760Y-10612360D02*
X8986760Y-10642360D01*
X9062960Y-10094200D02*
X9092960Y-10124200D01*
X9092960Y-10094200D02*
X9062960Y-10124200D01*
X9119540Y-11084140D02*
X9149540Y-11114140D01*
X9149540Y-11084140D02*
X9119540Y-11114140D01*
X9119540Y-11185740D02*
X9149540Y-11215740D01*
X9149540Y-11185740D02*
X9119540Y-11215740D01*
X9119540Y-11287340D02*
X9149540Y-11317340D01*
X9149540Y-11287340D02*
X9119540Y-11317340D01*
X9123920Y-10612360D02*
X9153920Y-10642360D01*
X9153920Y-10612360D02*
X9123920Y-10642360D01*
X9134080Y-10028160D02*
X9164080Y-10058160D01*
X9164080Y-10028160D02*
X9134080Y-10058160D01*
X9221140Y-11084140D02*
X9251140Y-11114140D01*
X9251140Y-11084140D02*
X9221140Y-11114140D01*
X9221140Y-11185740D02*
X9251140Y-11215740D01*
X9251140Y-11185740D02*
X9221140Y-11215740D01*
X9221140Y-11287340D02*
X9251140Y-11317340D01*
X9251140Y-11287340D02*
X9221140Y-11317340D01*
X9238220Y-11615130D02*
X9268220Y-11645130D01*
X9268220Y-11615130D02*
X9238220Y-11645130D01*
X9281400Y-9367760D02*
X9311400Y-9397760D01*
X9311400Y-9367760D02*
X9281400Y-9397760D01*
X9335440Y-11084140D02*
X9365440Y-11114140D01*
X9365440Y-11084140D02*
X9335440Y-11114140D01*
X9335440Y-11185740D02*
X9365440Y-11215740D01*
X9365440Y-11185740D02*
X9335440Y-11215740D01*
X9335440Y-11287340D02*
X9365440Y-11317340D01*
X9365440Y-11287340D02*
X9335440Y-11317340D01*
X9342360Y-9499840D02*
X9372360Y-9529840D01*
X9372360Y-9499840D02*
X9342360Y-9529840D01*
X9367760Y-10754600D02*
X9397760Y-10784600D01*
X9397760Y-10754600D02*
X9367760Y-10784600D01*
X9408400Y-9306800D02*
X9438400Y-9336800D01*
X9438400Y-9306800D02*
X9408400Y-9336800D01*
X9433800Y-11615130D02*
X9463800Y-11645130D01*
X9463800Y-11615130D02*
X9433800Y-11645130D01*
X9449740Y-11084140D02*
X9479740Y-11114140D01*
X9479740Y-11084140D02*
X9449740Y-11114140D01*
X9449740Y-11185740D02*
X9479740Y-11215740D01*
X9479740Y-11185740D02*
X9449740Y-11215740D01*
X9449740Y-11287340D02*
X9479740Y-11317340D01*
X9479740Y-11287340D02*
X9449740Y-11317340D01*
X9550640Y-11084800D02*
X9580640Y-11114800D01*
X9580640Y-11084800D02*
X9550640Y-11114800D01*
X9551340Y-11185740D02*
X9581340Y-11215740D01*
X9581340Y-11185740D02*
X9551340Y-11215740D01*
X9551740Y-11287340D02*
X9581740Y-11317340D01*
X9581740Y-11287340D02*
X9551740Y-11317340D01*
X9560800Y-9586200D02*
X9590800Y-9616200D01*
X9590800Y-9586200D02*
X9560800Y-9616200D01*
X9591280Y-12050000D02*
X9621280Y-12080000D01*
X9621280Y-12050000D02*
X9591280Y-12080000D01*
X9611600Y-10358360D02*
X9641600Y-10388360D01*
X9641600Y-10358360D02*
X9611600Y-10388360D01*
X9982440Y-11352030D02*
X10012440Y-11382030D01*
X10012440Y-11352030D02*
X9982440Y-11382030D01*
X10170400Y-10068800D02*
X10200400Y-10098800D01*
X10200400Y-10068800D02*
X10170400Y-10098800D01*
X10170400Y-10246600D02*
X10200400Y-10276600D01*
X10200400Y-10246600D02*
X10170400Y-10276600D01*
X10221200Y-11364200D02*
X10251200Y-11394200D01*
X10251200Y-11364200D02*
X10221200Y-11394200D01*
X10233900Y-11059400D02*
X10263900Y-11089400D01*
X10263900Y-11059400D02*
X10233900Y-11089400D01*
X10373600Y-9586200D02*
X10403600Y-9616200D01*
X10403600Y-9586200D02*
X10373600Y-9616200D01*
X10462500Y-10716500D02*
X10492500Y-10746500D01*
X10492500Y-10716500D02*
X10462500Y-10746500D01*
X10526000Y-7147800D02*
X10556000Y-7177800D01*
X10556000Y-7147800D02*
X10526000Y-7177800D01*
X10526000Y-7249400D02*
X10556000Y-7279400D01*
X10556000Y-7249400D02*
X10526000Y-7279400D01*
X10526000Y-7351000D02*
X10556000Y-7381000D01*
X10556000Y-7351000D02*
X10526000Y-7381000D01*
X10576800Y-9586200D02*
X10606800Y-9616200D01*
X10606800Y-9586200D02*
X10576800Y-9616200D01*
X10627600Y-7147800D02*
X10657600Y-7177800D01*
X10657600Y-7147800D02*
X10627600Y-7177800D01*
X10627600Y-7249400D02*
X10657600Y-7279400D01*
X10657600Y-7249400D02*
X10627600Y-7279400D01*
X10627600Y-7351000D02*
X10657600Y-7381000D01*
X10657600Y-7351000D02*
X10627600Y-7381000D01*
X10703800Y-10907000D02*
X10733800Y-10937000D01*
X10733800Y-10907000D02*
X10703800Y-10937000D01*
X10881600Y-10907000D02*
X10911600Y-10937000D01*
X10911600Y-10907000D02*
X10881600Y-10937000D01*
X11243700Y-10138500D02*
X11273700Y-10168500D01*
X11273700Y-10138500D02*
X11243700Y-10168500D01*
X11313400Y-8778480D02*
X11343400Y-8808480D01*
X11343400Y-8778480D02*
X11313400Y-8808480D01*
X11389600Y-8508600D02*
X11419600Y-8538600D01*
X11419600Y-8508600D02*
X11389600Y-8538600D01*
X11389600Y-8572100D02*
X11419600Y-8602100D01*
X11419600Y-8572100D02*
X11389600Y-8602100D01*
X11453100Y-8508600D02*
X11483100Y-8538600D01*
X11483100Y-8508600D02*
X11453100Y-8538600D01*
X11453100Y-8572100D02*
X11483100Y-8602100D01*
X11483100Y-8572100D02*
X11453100Y-8602100D01*
X11691860Y-8598140D02*
X11721860Y-8628140D01*
X11721860Y-8598140D02*
X11691860Y-8628140D01*
X12161760Y-10236440D02*
X12191760Y-10266440D01*
X12191760Y-10236440D02*
X12161760Y-10266440D01*
X12227800Y-8966440D02*
X12257800Y-8996440D01*
X12257800Y-8966440D02*
X12227800Y-8996440D01*
X13264120Y-7935200D02*
X13294120Y-7965200D01*
X13294120Y-7935200D02*
X13264120Y-7965200D01*
X13391120Y-7935200D02*
X13421120Y-7965200D01*
X13421120Y-7935200D02*
X13391120Y-7965200D01*
X13518120Y-7132560D02*
X13548120Y-7162560D01*
X13548120Y-7132560D02*
X13518120Y-7162560D01*
X13645120Y-7132560D02*
X13675120Y-7162560D01*
X13675120Y-7132560D02*
X13645120Y-7162560D01*
X13772120Y-7132560D02*
X13802120Y-7162560D01*
X13802120Y-7132560D02*
X13772120Y-7162560D01*
X13812760Y-10912080D02*
X13842760Y-10942080D01*
X13842760Y-10912080D02*
X13812760Y-10942080D01*
X14152500Y-7131940D02*
X14182500Y-7161940D01*
X14182500Y-7131940D02*
X14152500Y-7161940D01*
X14280120Y-7132560D02*
X14310120Y-7162560D01*
X14310120Y-7132560D02*
X14280120Y-7162560D01*
X14407120Y-7132560D02*
X14437120Y-7162560D01*
X14437120Y-7132560D02*
X14407120Y-7162560D01*
X14904950Y-7463409D02*
X14934950Y-7493409D01*
X14934950Y-7463409D02*
X14904950Y-7493409D01*
X14904962Y-7543360D02*
X14934962Y-7573360D01*
X14934962Y-7543360D02*
X14904962Y-7573360D01*
X14940520Y-8509240D02*
X14970520Y-8539240D01*
X14970520Y-8509240D02*
X14940520Y-8539240D01*
X14940520Y-8610840D02*
X14970520Y-8640840D01*
X14970520Y-8610840D02*
X14940520Y-8640840D01*
X14940520Y-8712440D02*
X14970520Y-8742440D01*
X14970520Y-8712440D02*
X14940520Y-8742440D01*
X14940520Y-8808960D02*
X14970520Y-8838960D01*
X14970520Y-8808960D02*
X14940520Y-8838960D01*
X14955760Y-9510000D02*
X14985760Y-9540000D01*
X14985760Y-9510000D02*
X14955760Y-9540000D01*
X14955760Y-9611600D02*
X14985760Y-9641600D01*
X14985760Y-9611600D02*
X14955760Y-9641600D01*
X15039580Y-7559280D02*
X15069580Y-7589280D01*
X15069580Y-7559280D02*
X15039580Y-7589280D01*
X15184360Y-9560800D02*
X15214360Y-9590800D01*
X15214360Y-9560800D02*
X15184360Y-9590800D01*
X15199600Y-8560040D02*
X15229600Y-8590040D01*
X15229600Y-8560040D02*
X15199600Y-8590040D01*
X15199600Y-8656560D02*
X15229600Y-8686560D01*
X15229600Y-8656560D02*
X15199600Y-8686560D01*
X15199600Y-8758160D02*
X15229600Y-8788160D01*
X15229600Y-8758160D02*
X15199600Y-8788160D01*
X15321520Y-8453360D02*
X15351520Y-8483360D01*
X15351520Y-8453360D02*
X15321520Y-8483360D01*
X15346920Y-8554960D02*
X15376920Y-8584960D01*
X15376920Y-8554960D02*
X15346920Y-8584960D01*
X15362160Y-7142720D02*
X15392160Y-7172720D01*
X15392160Y-7142720D02*
X15362160Y-7172720D01*
X15418040Y-8377160D02*
X15448040Y-8407160D01*
X15448040Y-8377160D02*
X15418040Y-8407160D01*
X15435820Y-8483840D02*
X15465820Y-8513840D01*
X15465820Y-8483840D02*
X15435820Y-8513840D01*
X15435820Y-8590520D02*
X15465820Y-8620520D01*
X15465820Y-8590520D02*
X15435820Y-8620520D01*
X15522180Y-8295880D02*
X15552180Y-8325880D01*
X15552180Y-8295880D02*
X15522180Y-8325880D01*
X15542500Y-8412720D02*
X15572500Y-8442720D01*
X15572500Y-8412720D02*
X15542500Y-8442720D01*
X15542500Y-8519400D02*
X15572500Y-8549400D01*
X15572500Y-8519400D02*
X15542500Y-8549400D01*
X15626320Y-8224760D02*
X15656320Y-8254760D01*
X15656320Y-8224760D02*
X15626320Y-8254760D01*
X15649180Y-8341600D02*
X15679180Y-8371600D01*
X15679180Y-8341600D02*
X15649180Y-8371600D01*
X15649180Y-8448280D02*
X15679180Y-8478280D01*
X15679180Y-8448280D02*
X15649180Y-8478280D01*
X15755860Y-8270480D02*
X15785860Y-8300480D01*
X15785860Y-8270480D02*
X15755860Y-8300480D01*
X15755860Y-8377160D02*
X15785860Y-8407160D01*
X15785860Y-8377160D02*
X15755860Y-8407160D01*
X16192740Y-7559280D02*
X16222740Y-7589280D01*
X16222740Y-7559280D02*
X16192740Y-7589280D01*
X16253700Y-9977360D02*
X16283700Y-10007360D01*
X16283700Y-9977360D02*
X16253700Y-10007360D01*
X16253700Y-10084040D02*
X16283700Y-10114040D01*
X16283700Y-10084040D02*
X16253700Y-10114040D01*
X16395940Y-9906240D02*
X16425940Y-9936240D01*
X16425940Y-9906240D02*
X16395940Y-9936240D01*
X16395940Y-10012920D02*
X16425940Y-10042920D01*
X16425940Y-10012920D02*
X16395940Y-10042920D01*
X16434040Y-7559280D02*
X16464040Y-7589280D01*
X16464040Y-7559280D02*
X16434040Y-7589280D01*
X16538180Y-9835120D02*
X16568180Y-9865120D01*
X16568180Y-9835120D02*
X16538180Y-9865120D01*
X16538180Y-9941800D02*
X16568180Y-9971800D01*
X16568180Y-9941800D02*
X16538180Y-9971800D01*
X16662640Y-10835880D02*
X16692640Y-10865880D01*
X16692640Y-10835880D02*
X16662640Y-10865880D01*
X16680420Y-9764000D02*
X16710420Y-9794000D01*
X16710420Y-9764000D02*
X16680420Y-9794000D01*
X16680420Y-9870680D02*
X16710420Y-9900680D01*
X16710420Y-9870680D02*
X16680420Y-9900680D01*
X16809960Y-7559280D02*
X16839960Y-7589280D01*
X16839960Y-7559280D02*
X16809960Y-7589280D01*
X16822660Y-9692880D02*
X16852660Y-9722880D01*
X16852660Y-9692880D02*
X16822660Y-9722880D01*
X16822660Y-9799560D02*
X16852660Y-9829560D01*
X16852660Y-9799560D02*
X16822660Y-9829560D01*
X16964900Y-9621760D02*
X16994900Y-9651760D01*
X16994900Y-9621760D02*
X16964900Y-9651760D01*
X16964900Y-9728440D02*
X16994900Y-9758440D01*
X16994900Y-9728440D02*
X16964900Y-9758440D01*
X17107140Y-9550640D02*
X17137140Y-9580640D01*
X17137140Y-9550640D02*
X17107140Y-9580640D01*
X17107140Y-9657320D02*
X17137140Y-9687320D01*
X17137140Y-9657320D02*
X17107140Y-9687320D01*
X17249380Y-9586200D02*
X17279380Y-9616200D01*
X17279380Y-9586200D02*
X17249380Y-9616200D01*
X17693880Y-10172940D02*
X17723880Y-10202940D01*
X17723880Y-10172940D02*
X17693880Y-10202940D01*
X17810720Y-11277840D02*
X17840720Y-11307840D01*
X17840720Y-11277840D02*
X17810720Y-11307840D01*
X17963120Y-8478760D02*
X17993120Y-8508760D01*
X17993120Y-8478760D02*
X17963120Y-8508760D01*
X17963120Y-8661640D02*
X17993120Y-8691640D01*
X17993120Y-8661640D02*
X17963120Y-8691640D01*
X18046940Y-9121380D02*
X18076940Y-9151380D01*
X18076940Y-9121380D02*
X18046940Y-9151380D01*
X18138401Y-9118020D02*
X18168401Y-9148020D01*
X18168401Y-9118020D02*
X18138401Y-9148020D01*
X18176480Y-9047720D02*
X18206480Y-9077720D01*
X18206480Y-9047720D02*
X18176480Y-9077720D01*
X18476200Y-10155160D02*
X18506200Y-10185160D01*
X18506200Y-10155160D02*
X18476200Y-10185160D01*
X18501600Y-9129000D02*
X18531600Y-9159000D01*
X18531600Y-9129000D02*
X18501600Y-9159000D01*
X18501600Y-9256000D02*
X18531600Y-9286000D01*
X18531600Y-9256000D02*
X18501600Y-9286000D01*
X18501600Y-9383000D02*
X18531600Y-9413000D01*
X18531600Y-9383000D02*
X18501600Y-9413000D01*
X18501600Y-9510000D02*
X18531600Y-9540000D01*
X18531600Y-9510000D02*
X18501600Y-9540000D01*
X18552400Y-10272000D02*
X18582400Y-10302000D01*
X18582400Y-10272000D02*
X18552400Y-10302000D01*
X18628600Y-9129000D02*
X18658600Y-9159000D01*
X18658600Y-9129000D02*
X18628600Y-9159000D01*
X18628600Y-9256000D02*
X18658600Y-9286000D01*
X18658600Y-9256000D02*
X18628600Y-9286000D01*
X18628600Y-9383000D02*
X18658600Y-9413000D01*
X18658600Y-9383000D02*
X18628600Y-9413000D01*
X18628600Y-9510000D02*
X18658600Y-9540000D01*
X18658600Y-9510000D02*
X18628600Y-9540000D01*
X18680455Y-9932695D02*
X18710455Y-9962695D01*
X18710455Y-9932695D02*
X18680455Y-9962695D01*
X18720040Y-11511520D02*
X18750040Y-11541520D01*
X18750040Y-11511520D02*
X18720040Y-11541520D01*
X18735545Y-8760972D02*
X18765545Y-8790972D01*
X18765545Y-8760972D02*
X18735545Y-8790972D01*
X18755600Y-9129000D02*
X18785600Y-9159000D01*
X18785600Y-9129000D02*
X18755600Y-9159000D01*
X18755600Y-9256000D02*
X18785600Y-9286000D01*
X18785600Y-9256000D02*
X18755600Y-9286000D01*
X18755600Y-9383000D02*
X18785600Y-9413000D01*
X18785600Y-9383000D02*
X18755600Y-9413000D01*
X18755600Y-9510000D02*
X18785600Y-9540000D01*
X18785600Y-9510000D02*
X18755600Y-9540000D01*
X18814020Y-9934180D02*
X18844020Y-9964180D01*
X18844020Y-9934180D02*
X18814020Y-9964180D01*
X18814437Y-8748012D02*
X18844437Y-8778012D01*
X18844437Y-8748012D02*
X18814437Y-8778012D01*
X18882600Y-9129000D02*
X18912600Y-9159000D01*
X18912600Y-9129000D02*
X18882600Y-9159000D01*
X18882600Y-9256000D02*
X18912600Y-9286000D01*
X18912600Y-9256000D02*
X18882600Y-9286000D01*
X18882600Y-9383000D02*
X18912600Y-9413000D01*
X18912600Y-9383000D02*
X18882600Y-9413000D01*
X18882600Y-9510000D02*
X18912600Y-9540000D01*
X18912600Y-9510000D02*
X18882600Y-9540000D01*
X19057860Y-12235420D02*
X19087860Y-12265420D01*
X19087860Y-12235420D02*
X19057860Y-12265420D01*
X19234131Y-8936432D02*
X19264131Y-8966432D01*
X19264131Y-8936432D02*
X19234131Y-8966432D01*
X19309320Y-9009620D02*
X19339320Y-9039620D01*
X19339320Y-9009620D02*
X19309320Y-9039620D01*
X19347420Y-8121630D02*
X19377420Y-8151630D01*
X19377420Y-8121630D02*
X19347420Y-8151630D01*
X19347420Y-8199360D02*
X19377420Y-8229360D01*
X19377420Y-8199360D02*
X19347420Y-8229360D01*
X19347420Y-8341600D02*
X19377420Y-8371600D01*
X19377420Y-8341600D02*
X19347420Y-8371600D01*
X19347420Y-8430500D02*
X19377420Y-8460500D01*
X19377420Y-8430500D02*
X19347420Y-8460500D01*
X19347420Y-8519400D02*
X19377420Y-8549400D01*
X19377420Y-8519400D02*
X19347420Y-8549400D01*
X19416000Y-9313790D02*
X19446000Y-9343790D01*
X19446000Y-9313790D02*
X19416000Y-9343790D01*
X19458791Y-9098302D02*
X19488791Y-9128302D01*
X19488791Y-9098302D02*
X19458791Y-9128302D01*
X19474420Y-9217900D02*
X19504420Y-9247900D01*
X19504420Y-9217900D02*
X19474420Y-9247900D01*
X19477966Y-9018246D02*
X19507966Y-9048246D01*
X19507966Y-9018246D02*
X19477966Y-9048246D01*
X19497280Y-9340240D02*
X19527280Y-9370240D01*
X19527280Y-9340240D02*
X19497280Y-9370240D01*
X19533545Y-9153823D02*
X19563545Y-9183823D01*
X19563545Y-9153823D02*
X19533545Y-9183823D01*
X19560780Y-11516600D02*
X19590780Y-11546600D01*
X19590780Y-11516600D02*
X19560780Y-11546600D01*
X19560780Y-12075400D02*
X19590780Y-12105400D01*
X19590780Y-12075400D02*
X19560780Y-12105400D01*
X19842720Y-8430500D02*
X19872720Y-8460500D01*
X19872720Y-8430500D02*
X19842720Y-8460500D01*
X19845260Y-8341600D02*
X19875260Y-8371600D01*
X19875260Y-8341600D02*
X19845260Y-8371600D01*
X19845260Y-8554960D02*
X19875260Y-8584960D01*
X19875260Y-8554960D02*
X19845260Y-8584960D01*
X19845260Y-8643860D02*
X19875260Y-8673860D01*
X19875260Y-8643860D02*
X19845260Y-8673860D01*
X19873200Y-10246600D02*
X19903200Y-10276600D01*
X19903200Y-10246600D02*
X19873200Y-10276600D01*
X19974800Y-9916400D02*
X20004800Y-9946400D01*
X20004800Y-9916400D02*
X19974800Y-9946400D01*
X20019627Y-6618979D02*
X20049627Y-6648979D01*
X20049627Y-6618979D02*
X20019627Y-6648979D01*
X20096720Y-9022320D02*
X20126720Y-9052320D01*
X20126720Y-9022320D02*
X20096720Y-9052320D01*
X20190700Y-9022320D02*
X20220700Y-9052320D01*
X20220700Y-9022320D02*
X20190700Y-9052320D01*
X20289760Y-9713200D02*
X20319760Y-9743200D01*
X20319760Y-9713200D02*
X20289760Y-9743200D01*
X20355800Y-6970000D02*
X20385800Y-7000000D01*
X20385800Y-6970000D02*
X20355800Y-7000000D01*
X20391360Y-9845280D02*
X20421360Y-9875280D01*
X20421360Y-9845280D02*
X20391360Y-9875280D01*
X20533600Y-9388080D02*
X20563600Y-9418080D01*
X20563600Y-9388080D02*
X20533600Y-9418080D01*
X20533600Y-10663160D02*
X20563600Y-10693160D01*
X20563600Y-10663160D02*
X20533600Y-10693160D01*
X20609800Y-9301720D02*
X20639800Y-9331720D01*
X20639800Y-9301720D02*
X20609800Y-9331720D01*
X20645360Y-11628360D02*
X20675360Y-11658360D01*
X20675360Y-11628360D02*
X20645360Y-11658360D01*
X21702000Y-9845280D02*
X21732000Y-9875280D01*
X21732000Y-9845280D02*
X21702000Y-9875280D01*
X21879800Y-9443960D02*
X21909800Y-9473960D01*
X21909800Y-9443960D02*
X21879800Y-9473960D01*
X21956000Y-9377920D02*
X21986000Y-9407920D01*
X21986000Y-9377920D02*
X21956000Y-9407920D01*
D13*
X6920000Y-8500000D02*
G75*
G03*
X6920000Y-8500000I-20000J0D01*
G01*
X6920000Y-8800000D02*
G75*
G03*
X6920000Y-8800000I-20000J0D01*
G01*
X7120000Y-9900000D02*
G75*
G03*
X7120000Y-9900000I-20000J0D01*
G01*
X7120000Y-10200000D02*
G75*
G03*
X7120000Y-10200000I-20000J0D01*
G01*
X7120000Y-10500000D02*
G75*
G03*
X7120000Y-10500000I-20000J0D01*
G01*
X7120000Y-10800000D02*
G75*
G03*
X7120000Y-10800000I-20000J0D01*
G01*
X7220000Y-8200000D02*
G75*
G03*
X7220000Y-8200000I-20000J0D01*
G01*
X7220000Y-8500000D02*
G75*
G03*
X7220000Y-8500000I-20000J0D01*
G01*
X7220000Y-8800000D02*
G75*
G03*
X7220000Y-8800000I-20000J0D01*
G01*
X7320000Y-9300000D02*
G75*
G03*
X7320000Y-9300000I-20000J0D01*
G01*
X7420000Y-10500000D02*
G75*
G03*
X7420000Y-10500000I-20000J0D01*
G01*
X7420000Y-10800000D02*
G75*
G03*
X7420000Y-10800000I-20000J0D01*
G01*
X7420000Y-11100000D02*
G75*
G03*
X7420000Y-11100000I-20000J0D01*
G01*
X7502840Y-9839960D02*
G75*
G03*
X7502840Y-9839960I-20000J0D01*
G01*
X7520000Y-7200000D02*
G75*
G03*
X7520000Y-7200000I-20000J0D01*
G01*
X7520000Y-8200000D02*
G75*
G03*
X7520000Y-8200000I-20000J0D01*
G01*
X7520000Y-8500000D02*
G75*
G03*
X7520000Y-8500000I-20000J0D01*
G01*
X7520000Y-8800000D02*
G75*
G03*
X7520000Y-8800000I-20000J0D01*
G01*
X7620000Y-9300000D02*
G75*
G03*
X7620000Y-9300000I-20000J0D01*
G01*
X7640000Y-9692640D02*
G75*
G03*
X7640000Y-9692640I-20000J0D01*
G01*
X7640000Y-10256520D02*
G75*
G03*
X7640000Y-10256520I-20000J0D01*
G01*
X7720000Y-10500000D02*
G75*
G03*
X7720000Y-10500000I-20000J0D01*
G01*
X7720000Y-10800000D02*
G75*
G03*
X7720000Y-10800000I-20000J0D01*
G01*
X7720000Y-11100000D02*
G75*
G03*
X7720000Y-11100000I-20000J0D01*
G01*
X7720000Y-11400000D02*
G75*
G03*
X7720000Y-11400000I-20000J0D01*
G01*
X7820000Y-6900000D02*
G75*
G03*
X7820000Y-6900000I-20000J0D01*
G01*
X7820000Y-7200000D02*
G75*
G03*
X7820000Y-7200000I-20000J0D01*
G01*
X7820000Y-8200000D02*
G75*
G03*
X7820000Y-8200000I-20000J0D01*
G01*
X7820000Y-8500000D02*
G75*
G03*
X7820000Y-8500000I-20000J0D01*
G01*
X7820000Y-8800000D02*
G75*
G03*
X7820000Y-8800000I-20000J0D01*
G01*
X7868600Y-10099040D02*
G75*
G03*
X7868600Y-10099040I-20000J0D01*
G01*
X8020000Y-11100000D02*
G75*
G03*
X8020000Y-11100000I-20000J0D01*
G01*
X8020000Y-11400000D02*
G75*
G03*
X8020000Y-11400000I-20000J0D01*
G01*
X8020000Y-12300000D02*
G75*
G03*
X8020000Y-12300000I-20000J0D01*
G01*
X8020000Y-12600000D02*
G75*
G03*
X8020000Y-12600000I-20000J0D01*
G01*
X8249600Y-8818880D02*
G75*
G03*
X8249600Y-8818880I-20000J0D01*
G01*
X8320000Y-11100000D02*
G75*
G03*
X8320000Y-11100000I-20000J0D01*
G01*
X8320000Y-11400000D02*
G75*
G03*
X8320000Y-11400000I-20000J0D01*
G01*
X8320000Y-12300000D02*
G75*
G03*
X8320000Y-12300000I-20000J0D01*
G01*
X8320000Y-12600000D02*
G75*
G03*
X8320000Y-12600000I-20000J0D01*
G01*
X8356280Y-8661400D02*
G75*
G03*
X8356280Y-8661400I-20000J0D01*
G01*
X8356280Y-9199880D02*
G75*
G03*
X8356280Y-9199880I-20000J0D01*
G01*
X8529000Y-7828280D02*
G75*
G03*
X8529000Y-7828280I-20000J0D01*
G01*
X8579800Y-8686800D02*
G75*
G03*
X8579800Y-8686800I-20000J0D01*
G01*
X8579800Y-11033760D02*
G75*
G03*
X8579800Y-11033760I-20000J0D01*
G01*
X8579800Y-11318240D02*
G75*
G03*
X8579800Y-11318240I-20000J0D01*
G01*
X8620000Y-12300000D02*
G75*
G03*
X8620000Y-12300000I-20000J0D01*
G01*
X8620000Y-12600000D02*
G75*
G03*
X8620000Y-12600000I-20000J0D01*
G01*
X8666160Y-11775440D02*
G75*
G03*
X8666160Y-11775440I-20000J0D01*
G01*
X8666160Y-11948160D02*
G75*
G03*
X8666160Y-11948160I-20000J0D01*
G01*
X8727120Y-9972040D02*
G75*
G03*
X8727120Y-9972040I-20000J0D01*
G01*
X8833800Y-11033760D02*
G75*
G03*
X8833800Y-11033760I-20000J0D01*
G01*
X8836340Y-11488420D02*
G75*
G03*
X8836340Y-11488420I-20000J0D01*
G01*
X8838880Y-11318240D02*
G75*
G03*
X8838880Y-11318240I-20000J0D01*
G01*
X8843960Y-9885680D02*
G75*
G03*
X8843960Y-9885680I-20000J0D01*
G01*
X8920000Y-11200000D02*
G75*
G03*
X8920000Y-11200000I-20000J0D01*
G01*
X8920000Y-12600000D02*
G75*
G03*
X8920000Y-12600000I-20000J0D01*
G01*
X8925240Y-9768840D02*
G75*
G03*
X8925240Y-9768840I-20000J0D01*
G01*
X8935400Y-10281920D02*
G75*
G03*
X8935400Y-10281920I-20000J0D01*
G01*
X8935400Y-10408920D02*
G75*
G03*
X8935400Y-10408920I-20000J0D01*
G01*
X8945560Y-10749280D02*
G75*
G03*
X8945560Y-10749280I-20000J0D01*
G01*
X8960800Y-11808460D02*
G75*
G03*
X8960800Y-11808460I-20000J0D01*
G01*
X9020000Y-6900000D02*
G75*
G03*
X9020000Y-6900000I-20000J0D01*
G01*
X9020000Y-7200000D02*
G75*
G03*
X9020000Y-7200000I-20000J0D01*
G01*
X9020000Y-7500000D02*
G75*
G03*
X9020000Y-7500000I-20000J0D01*
G01*
X9020000Y-7800000D02*
G75*
G03*
X9020000Y-7800000I-20000J0D01*
G01*
X9220000Y-12600000D02*
G75*
G03*
X9220000Y-12600000I-20000J0D01*
G01*
X9235700Y-10129520D02*
G75*
G03*
X9235700Y-10129520I-20000J0D01*
G01*
X9240200Y-10358120D02*
G75*
G03*
X9240200Y-10358120I-20000J0D01*
G01*
X9316400Y-12070080D02*
G75*
G03*
X9316400Y-12070080I-20000J0D01*
G01*
X9320000Y-6900000D02*
G75*
G03*
X9320000Y-6900000I-20000J0D01*
G01*
X9320000Y-7200000D02*
G75*
G03*
X9320000Y-7200000I-20000J0D01*
G01*
X9320000Y-7500000D02*
G75*
G03*
X9320000Y-7500000I-20000J0D01*
G01*
X9320000Y-7800000D02*
G75*
G03*
X9320000Y-7800000I-20000J0D01*
G01*
X9320000Y-8100000D02*
G75*
G03*
X9320000Y-8100000I-20000J0D01*
G01*
X9620000Y-7800000D02*
G75*
G03*
X9620000Y-7800000I-20000J0D01*
G01*
X9620000Y-8100000D02*
G75*
G03*
X9620000Y-8100000I-20000J0D01*
G01*
X9620000Y-8800000D02*
G75*
G03*
X9620000Y-8800000I-20000J0D01*
G01*
X9793920Y-11181080D02*
G75*
G03*
X9793920Y-11181080I-20000J0D01*
G01*
X9793920Y-11866880D02*
G75*
G03*
X9793920Y-11866880I-20000J0D01*
G01*
X9875200Y-10764520D02*
G75*
G03*
X9875200Y-10764520I-20000J0D01*
G01*
X9910398Y-11658962D02*
G75*
G03*
X9910398Y-11658962I-20000J0D01*
G01*
X9920000Y-7800000D02*
G75*
G03*
X9920000Y-7800000I-20000J0D01*
G01*
X9920000Y-8100000D02*
G75*
G03*
X9920000Y-8100000I-20000J0D01*
G01*
X9920000Y-8800000D02*
G75*
G03*
X9920000Y-8800000I-20000J0D01*
G01*
X9926000Y-11523290D02*
G75*
G03*
X9926000Y-11523290I-20000J0D01*
G01*
X10078400Y-9118600D02*
G75*
G03*
X10078400Y-9118600I-20000J0D01*
G01*
X10103800Y-12588240D02*
G75*
G03*
X10103800Y-12588240I-20000J0D01*
G01*
X10180000Y-12369800D02*
G75*
G03*
X10180000Y-12369800I-20000J0D01*
G01*
X10320000Y-7800000D02*
G75*
G03*
X10320000Y-7800000I-20000J0D01*
G01*
X10320000Y-8100000D02*
G75*
G03*
X10320000Y-8100000I-20000J0D01*
G01*
X10357800Y-8940800D02*
G75*
G03*
X10357800Y-8940800I-20000J0D01*
G01*
X10444160Y-6797040D02*
G75*
G03*
X10444160Y-6797040I-20000J0D01*
G01*
X10620000Y-7800000D02*
G75*
G03*
X10620000Y-7800000I-20000J0D01*
G01*
X10620000Y-8100000D02*
G75*
G03*
X10620000Y-8100000I-20000J0D01*
G01*
X10620000Y-8400000D02*
G75*
G03*
X10620000Y-8400000I-20000J0D01*
G01*
X10860720Y-10287000D02*
G75*
G03*
X10860720Y-10287000I-20000J0D01*
G01*
X10920000Y-6100000D02*
G75*
G03*
X10920000Y-6100000I-20000J0D01*
G01*
X10920000Y-6400000D02*
G75*
G03*
X10920000Y-6400000I-20000J0D01*
G01*
X11033440Y-10739120D02*
G75*
G03*
X11033440Y-10739120I-20000J0D01*
G01*
X11038520Y-8204200D02*
G75*
G03*
X11038520Y-8204200I-20000J0D01*
G01*
X11109640Y-9169400D02*
G75*
G03*
X11109640Y-9169400I-20000J0D01*
G01*
X11129960Y-8336280D02*
G75*
G03*
X11129960Y-8336280I-20000J0D01*
G01*
X11155360Y-10642600D02*
G75*
G03*
X11155360Y-10642600I-20000J0D01*
G01*
X11160440Y-11064240D02*
G75*
G03*
X11160440Y-11064240I-20000J0D01*
G01*
X11160440Y-11236960D02*
G75*
G03*
X11160440Y-11236960I-20000J0D01*
G01*
X11211240Y-8427720D02*
G75*
G03*
X11211240Y-8427720I-20000J0D01*
G01*
X11220000Y-6100000D02*
G75*
G03*
X11220000Y-6100000I-20000J0D01*
G01*
X11220000Y-6400000D02*
G75*
G03*
X11220000Y-6400000I-20000J0D01*
G01*
X11220000Y-6700000D02*
G75*
G03*
X11220000Y-6700000I-20000J0D01*
G01*
X11226480Y-7853680D02*
G75*
G03*
X11226480Y-7853680I-20000J0D01*
G01*
X11272200Y-11353800D02*
G75*
G03*
X11272200Y-11353800I-20000J0D01*
G01*
X11277280Y-9601200D02*
G75*
G03*
X11277280Y-9601200I-20000J0D01*
G01*
X11312840Y-8341360D02*
G75*
G03*
X11312840Y-8341360I-20000J0D01*
G01*
X11343320Y-9499600D02*
G75*
G03*
X11343320Y-9499600I-20000J0D01*
G01*
X11399200Y-9093200D02*
G75*
G03*
X11399200Y-9093200I-20000J0D01*
G01*
X11450000Y-9667240D02*
G75*
G03*
X11450000Y-9667240I-20000J0D01*
G01*
X11462700Y-9182100D02*
G75*
G03*
X11462700Y-9182100I-20000J0D01*
G01*
X11485560Y-9362440D02*
G75*
G03*
X11485560Y-9362440I-20000J0D01*
G01*
X11520000Y-6100000D02*
G75*
G03*
X11520000Y-6100000I-20000J0D01*
G01*
X11520000Y-6400000D02*
G75*
G03*
X11520000Y-6400000I-20000J0D01*
G01*
X11526200Y-9093200D02*
G75*
G03*
X11526200Y-9093200I-20000J0D01*
G01*
X11653200Y-12369800D02*
G75*
G03*
X11653200Y-12369800I-20000J0D01*
G01*
X11663360Y-10398760D02*
G75*
G03*
X11663360Y-10398760I-20000J0D01*
G01*
X11714160Y-9144000D02*
G75*
G03*
X11714160Y-9144000I-20000J0D01*
G01*
X11720000Y-12600000D02*
G75*
G03*
X11720000Y-12600000I-20000J0D01*
G01*
X11759880Y-8940800D02*
G75*
G03*
X11759880Y-8940800I-20000J0D01*
G01*
X11820000Y-6100000D02*
G75*
G03*
X11820000Y-6100000I-20000J0D01*
G01*
X11836080Y-10368280D02*
G75*
G03*
X11836080Y-10368280I-20000J0D01*
G01*
X11912280Y-10215880D02*
G75*
G03*
X11912280Y-10215880I-20000J0D01*
G01*
X11932600Y-6781800D02*
G75*
G03*
X11932600Y-6781800I-20000J0D01*
G01*
X11958000Y-7569200D02*
G75*
G03*
X11958000Y-7569200I-20000J0D01*
G01*
X12008800Y-9029700D02*
G75*
G03*
X12008800Y-9029700I-20000J0D01*
G01*
X12020000Y-12600000D02*
G75*
G03*
X12020000Y-12600000I-20000J0D01*
G01*
X12034200Y-7670800D02*
G75*
G03*
X12034200Y-7670800I-20000J0D01*
G01*
X12049440Y-8351520D02*
G75*
G03*
X12049440Y-8351520I-20000J0D01*
G01*
X12090080Y-7975600D02*
G75*
G03*
X12090080Y-7975600I-20000J0D01*
G01*
X12095160Y-6913880D02*
G75*
G03*
X12095160Y-6913880I-20000J0D01*
G01*
X12110400Y-7569200D02*
G75*
G03*
X12110400Y-7569200I-20000J0D01*
G01*
X12120000Y-6100000D02*
G75*
G03*
X12120000Y-6100000I-20000J0D01*
G01*
X12120560Y-9144000D02*
G75*
G03*
X12120560Y-9144000I-20000J0D01*
G01*
X12140880Y-8534400D02*
G75*
G03*
X12140880Y-8534400I-20000J0D01*
G01*
X12140880Y-8712200D02*
G75*
G03*
X12140880Y-8712200I-20000J0D01*
G01*
X12196760Y-8204200D02*
G75*
G03*
X12196760Y-8204200I-20000J0D01*
G01*
X12201840Y-9845040D02*
G75*
G03*
X12201840Y-9845040I-20000J0D01*
G01*
X12237400Y-11348720D02*
G75*
G03*
X12237400Y-11348720I-20000J0D01*
G01*
X12252640Y-8442960D02*
G75*
G03*
X12252640Y-8442960I-20000J0D01*
G01*
X12320000Y-12600000D02*
G75*
G03*
X12320000Y-12600000I-20000J0D01*
G01*
X12344080Y-10642600D02*
G75*
G03*
X12344080Y-10642600I-20000J0D01*
G01*
X12349160Y-11064240D02*
G75*
G03*
X12349160Y-11064240I-20000J0D01*
G01*
X12349160Y-11236960D02*
G75*
G03*
X12349160Y-11236960I-20000J0D01*
G01*
X12369480Y-11480800D02*
G75*
G03*
X12369480Y-11480800I-20000J0D01*
G01*
X12440600Y-11409680D02*
G75*
G03*
X12440600Y-11409680I-20000J0D01*
G01*
X12481240Y-10744200D02*
G75*
G03*
X12481240Y-10744200I-20000J0D01*
G01*
X12486320Y-11521440D02*
G75*
G03*
X12486320Y-11521440I-20000J0D01*
G01*
X12501560Y-10454640D02*
G75*
G03*
X12501560Y-10454640I-20000J0D01*
G01*
X12557440Y-11450320D02*
G75*
G03*
X12557440Y-11450320I-20000J0D01*
G01*
X12620000Y-12600000D02*
G75*
G03*
X12620000Y-12600000I-20000J0D01*
G01*
X12720000Y-6100000D02*
G75*
G03*
X12720000Y-6100000I-20000J0D01*
G01*
X12820000Y-8300000D02*
G75*
G03*
X12820000Y-8300000I-20000J0D01*
G01*
X12820000Y-8600000D02*
G75*
G03*
X12820000Y-8600000I-20000J0D01*
G01*
X12820000Y-8900000D02*
G75*
G03*
X12820000Y-8900000I-20000J0D01*
G01*
X12820000Y-9200000D02*
G75*
G03*
X12820000Y-9200000I-20000J0D01*
G01*
X12820000Y-9800000D02*
G75*
G03*
X12820000Y-9800000I-20000J0D01*
G01*
X12920000Y-12600000D02*
G75*
G03*
X12920000Y-12600000I-20000J0D01*
G01*
X13020000Y-6100000D02*
G75*
G03*
X13020000Y-6100000I-20000J0D01*
G01*
X13020000Y-12000000D02*
G75*
G03*
X13020000Y-12000000I-20000J0D01*
G01*
X13020000Y-12350000D02*
G75*
G03*
X13020000Y-12350000I-20000J0D01*
G01*
X13045120Y-7188200D02*
G75*
G03*
X13045120Y-7188200I-20000J0D01*
G01*
X13120000Y-8000000D02*
G75*
G03*
X13120000Y-8000000I-20000J0D01*
G01*
X13120000Y-8300000D02*
G75*
G03*
X13120000Y-8300000I-20000J0D01*
G01*
X13120000Y-8600000D02*
G75*
G03*
X13120000Y-8600000I-20000J0D01*
G01*
X13120000Y-8900000D02*
G75*
G03*
X13120000Y-8900000I-20000J0D01*
G01*
X13120000Y-9200000D02*
G75*
G03*
X13120000Y-9200000I-20000J0D01*
G01*
X13120000Y-9800000D02*
G75*
G03*
X13120000Y-9800000I-20000J0D01*
G01*
X13172120Y-7188200D02*
G75*
G03*
X13172120Y-7188200I-20000J0D01*
G01*
X13220000Y-12600000D02*
G75*
G03*
X13220000Y-12600000I-20000J0D01*
G01*
X13253400Y-11887200D02*
G75*
G03*
X13253400Y-11887200I-20000J0D01*
G01*
X13320000Y-6100000D02*
G75*
G03*
X13320000Y-6100000I-20000J0D01*
G01*
X13320000Y-10800000D02*
G75*
G03*
X13320000Y-10800000I-20000J0D01*
G01*
X13532800Y-10993120D02*
G75*
G03*
X13532800Y-10993120I-20000J0D01*
G01*
X13583600Y-11104880D02*
G75*
G03*
X13583600Y-11104880I-20000J0D01*
G01*
X13620000Y-7300000D02*
G75*
G03*
X13620000Y-7300000I-20000J0D01*
G01*
X13620000Y-7500000D02*
G75*
G03*
X13620000Y-7500000I-20000J0D01*
G01*
X13620000Y-8000000D02*
G75*
G03*
X13620000Y-8000000I-20000J0D01*
G01*
X13620000Y-8300000D02*
G75*
G03*
X13620000Y-8300000I-20000J0D01*
G01*
X13620000Y-8600000D02*
G75*
G03*
X13620000Y-8600000I-20000J0D01*
G01*
X13620000Y-8900000D02*
G75*
G03*
X13620000Y-8900000I-20000J0D01*
G01*
X13620000Y-9200000D02*
G75*
G03*
X13620000Y-9200000I-20000J0D01*
G01*
X13634400Y-10993120D02*
G75*
G03*
X13634400Y-10993120I-20000J0D01*
G01*
X13670000Y-10000000D02*
G75*
G03*
X13670000Y-10000000I-20000J0D01*
G01*
X13685200Y-11104880D02*
G75*
G03*
X13685200Y-11104880I-20000J0D01*
G01*
X13920000Y-8000000D02*
G75*
G03*
X13920000Y-8000000I-20000J0D01*
G01*
X13920000Y-8300000D02*
G75*
G03*
X13920000Y-8300000I-20000J0D01*
G01*
X13920000Y-8600000D02*
G75*
G03*
X13920000Y-8600000I-20000J0D01*
G01*
X13920000Y-8900000D02*
G75*
G03*
X13920000Y-8900000I-20000J0D01*
G01*
X13920000Y-9200000D02*
G75*
G03*
X13920000Y-9200000I-20000J0D01*
G01*
X13920000Y-10150000D02*
G75*
G03*
X13920000Y-10150000I-20000J0D01*
G01*
X14020000Y-10600000D02*
G75*
G03*
X14020000Y-10600000I-20000J0D01*
G01*
X14120000Y-6200000D02*
G75*
G03*
X14120000Y-6200000I-20000J0D01*
G01*
X14167800Y-11887200D02*
G75*
G03*
X14167800Y-11887200I-20000J0D01*
G01*
X14220000Y-12600000D02*
G75*
G03*
X14220000Y-12600000I-20000J0D01*
G01*
X14320000Y-8000000D02*
G75*
G03*
X14320000Y-8000000I-20000J0D01*
G01*
X14320000Y-8300000D02*
G75*
G03*
X14320000Y-8300000I-20000J0D01*
G01*
X14320000Y-8600000D02*
G75*
G03*
X14320000Y-8600000I-20000J0D01*
G01*
X14320000Y-8900000D02*
G75*
G03*
X14320000Y-8900000I-20000J0D01*
G01*
X14320000Y-9200000D02*
G75*
G03*
X14320000Y-9200000I-20000J0D01*
G01*
X14370000Y-12000000D02*
G75*
G03*
X14370000Y-12000000I-20000J0D01*
G01*
X14370000Y-12350000D02*
G75*
G03*
X14370000Y-12350000I-20000J0D01*
G01*
X14420000Y-10600000D02*
G75*
G03*
X14420000Y-10600000I-20000J0D01*
G01*
X14520000Y-6400000D02*
G75*
G03*
X14520000Y-6400000I-20000J0D01*
G01*
X14520000Y-12600000D02*
G75*
G03*
X14520000Y-12600000I-20000J0D01*
G01*
X14569120Y-7162800D02*
G75*
G03*
X14569120Y-7162800I-20000J0D01*
G01*
X14599600Y-7564700D02*
G75*
G03*
X14599600Y-7564700I-20000J0D01*
G01*
X14620000Y-8000000D02*
G75*
G03*
X14620000Y-8000000I-20000J0D01*
G01*
X14620000Y-8300000D02*
G75*
G03*
X14620000Y-8300000I-20000J0D01*
G01*
X14620000Y-8600000D02*
G75*
G03*
X14620000Y-8600000I-20000J0D01*
G01*
X14620000Y-8900000D02*
G75*
G03*
X14620000Y-8900000I-20000J0D01*
G01*
X14620000Y-9200000D02*
G75*
G03*
X14620000Y-9200000I-20000J0D01*
G01*
X14820000Y-10600000D02*
G75*
G03*
X14820000Y-10600000I-20000J0D01*
G01*
X14920000Y-6200000D02*
G75*
G03*
X14920000Y-6200000I-20000J0D01*
G01*
X14920000Y-12600000D02*
G75*
G03*
X14920000Y-12600000I-20000J0D01*
G01*
X14950120Y-7157720D02*
G75*
G03*
X14950120Y-7157720I-20000J0D01*
G01*
X14955200Y-7924800D02*
G75*
G03*
X14955200Y-7924800I-20000J0D01*
G01*
X14955200Y-8026400D02*
G75*
G03*
X14955200Y-8026400I-20000J0D01*
G01*
X14975520Y-8422640D02*
G75*
G03*
X14975520Y-8422640I-20000J0D01*
G01*
X14975520Y-9326880D02*
G75*
G03*
X14975520Y-9326880I-20000J0D01*
G01*
X14975520Y-9423400D02*
G75*
G03*
X14975520Y-9423400I-20000J0D01*
G01*
X14980600Y-8275320D02*
G75*
G03*
X14980600Y-8275320I-20000J0D01*
G01*
X15204120Y-7162800D02*
G75*
G03*
X15204120Y-7162800I-20000J0D01*
G01*
X15220000Y-9800000D02*
G75*
G03*
X15220000Y-9800000I-20000J0D01*
G01*
X15220000Y-10000000D02*
G75*
G03*
X15220000Y-10000000I-20000J0D01*
G01*
X15220000Y-10600000D02*
G75*
G03*
X15220000Y-10600000I-20000J0D01*
G01*
X15234600Y-9474200D02*
G75*
G03*
X15234600Y-9474200I-20000J0D01*
G01*
X15244760Y-7876540D02*
G75*
G03*
X15244760Y-7876540I-20000J0D01*
G01*
X15320000Y-6200000D02*
G75*
G03*
X15320000Y-6200000I-20000J0D01*
G01*
X15320000Y-12600000D02*
G75*
G03*
X15320000Y-12600000I-20000J0D01*
G01*
X15520000Y-9800000D02*
G75*
G03*
X15520000Y-9800000I-20000J0D01*
G01*
X15520000Y-10000000D02*
G75*
G03*
X15520000Y-10000000I-20000J0D01*
G01*
X15585120Y-7162800D02*
G75*
G03*
X15585120Y-7162800I-20000J0D01*
G01*
X15620000Y-10600000D02*
G75*
G03*
X15620000Y-10600000I-20000J0D01*
G01*
X15720000Y-6400000D02*
G75*
G03*
X15720000Y-6400000I-20000J0D01*
G01*
X15720000Y-12600000D02*
G75*
G03*
X15720000Y-12600000I-20000J0D01*
G01*
X15839120Y-7162800D02*
G75*
G03*
X15839120Y-7162800I-20000J0D01*
G01*
X15870000Y-12000000D02*
G75*
G03*
X15870000Y-12000000I-20000J0D01*
G01*
X15870000Y-12350000D02*
G75*
G03*
X15870000Y-12350000I-20000J0D01*
G01*
X16020000Y-10600000D02*
G75*
G03*
X16020000Y-10600000I-20000J0D01*
G01*
X16020000Y-12600000D02*
G75*
G03*
X16020000Y-12600000I-20000J0D01*
G01*
X16093120Y-7162800D02*
G75*
G03*
X16093120Y-7162800I-20000J0D01*
G01*
X16110900Y-11887200D02*
G75*
G03*
X16110900Y-11887200I-20000J0D01*
G01*
X16120000Y-6200000D02*
G75*
G03*
X16120000Y-6200000I-20000J0D01*
G01*
X16420000Y-10600000D02*
G75*
G03*
X16420000Y-10600000I-20000J0D01*
G01*
X16479200Y-7162800D02*
G75*
G03*
X16479200Y-7162800I-20000J0D01*
G01*
X16636680Y-10662920D02*
G75*
G03*
X16636680Y-10662920I-20000J0D01*
G01*
X16720000Y-8400000D02*
G75*
G03*
X16720000Y-8400000I-20000J0D01*
G01*
X16820000Y-10600000D02*
G75*
G03*
X16820000Y-10600000I-20000J0D01*
G01*
X16860200Y-7162800D02*
G75*
G03*
X16860200Y-7162800I-20000J0D01*
G01*
X16920000Y-6100000D02*
G75*
G03*
X16920000Y-6100000I-20000J0D01*
G01*
X17012600Y-11887200D02*
G75*
G03*
X17012600Y-11887200I-20000J0D01*
G01*
X17020000Y-8400000D02*
G75*
G03*
X17020000Y-8400000I-20000J0D01*
G01*
X17020000Y-8700000D02*
G75*
G03*
X17020000Y-8700000I-20000J0D01*
G01*
X17220000Y-6100000D02*
G75*
G03*
X17220000Y-6100000I-20000J0D01*
G01*
X17220000Y-10600000D02*
G75*
G03*
X17220000Y-10600000I-20000J0D01*
G01*
X17220000Y-12000000D02*
G75*
G03*
X17220000Y-12000000I-20000J0D01*
G01*
X17220000Y-12300000D02*
G75*
G03*
X17220000Y-12300000I-20000J0D01*
G01*
X17220000Y-12600000D02*
G75*
G03*
X17220000Y-12600000I-20000J0D01*
G01*
X17271680Y-7218680D02*
G75*
G03*
X17271680Y-7218680I-20000J0D01*
G01*
X17320000Y-8400000D02*
G75*
G03*
X17320000Y-8400000I-20000J0D01*
G01*
X17320000Y-8700000D02*
G75*
G03*
X17320000Y-8700000I-20000J0D01*
G01*
X17398680Y-7218680D02*
G75*
G03*
X17398680Y-7218680I-20000J0D01*
G01*
X17520000Y-6100000D02*
G75*
G03*
X17520000Y-6100000I-20000J0D01*
G01*
X17520000Y-12600000D02*
G75*
G03*
X17520000Y-12600000I-20000J0D01*
G01*
X17620000Y-8400000D02*
G75*
G03*
X17620000Y-8400000I-20000J0D01*
G01*
X17620000Y-8700000D02*
G75*
G03*
X17620000Y-8700000I-20000J0D01*
G01*
X17620000Y-10600000D02*
G75*
G03*
X17620000Y-10600000I-20000J0D01*
G01*
X17698400Y-9458960D02*
G75*
G03*
X17698400Y-9458960I-20000J0D01*
G01*
X17820000Y-12600000D02*
G75*
G03*
X17820000Y-12600000I-20000J0D01*
G01*
X17920000Y-10600000D02*
G75*
G03*
X17920000Y-10600000I-20000J0D01*
G01*
X18104800Y-9461500D02*
G75*
G03*
X18104800Y-9461500I-20000J0D01*
G01*
X18120000Y-12600000D02*
G75*
G03*
X18120000Y-12600000I-20000J0D01*
G01*
X18130200Y-6873240D02*
G75*
G03*
X18130200Y-6873240I-20000J0D01*
G01*
X18272440Y-6273800D02*
G75*
G03*
X18272440Y-6273800I-20000J0D01*
G01*
X18272440Y-6426200D02*
G75*
G03*
X18272440Y-6426200I-20000J0D01*
G01*
X18277520Y-6619240D02*
G75*
G03*
X18277520Y-6619240I-20000J0D01*
G01*
X18333400Y-11272520D02*
G75*
G03*
X18333400Y-11272520I-20000J0D01*
G01*
X18379120Y-6070600D02*
G75*
G03*
X18379120Y-6070600I-20000J0D01*
G01*
X18420000Y-12600000D02*
G75*
G03*
X18420000Y-12600000I-20000J0D01*
G01*
X18490880Y-6877740D02*
G75*
G03*
X18490880Y-6877740I-20000J0D01*
G01*
X18720000Y-11800000D02*
G75*
G03*
X18720000Y-11800000I-20000J0D01*
G01*
X18720000Y-12100000D02*
G75*
G03*
X18720000Y-12100000I-20000J0D01*
G01*
X18820000Y-7100000D02*
G75*
G03*
X18820000Y-7100000I-20000J0D01*
G01*
X19020000Y-11800000D02*
G75*
G03*
X19020000Y-11800000I-20000J0D01*
G01*
X19020000Y-12100000D02*
G75*
G03*
X19020000Y-12100000I-20000J0D01*
G01*
X19120000Y-7200000D02*
G75*
G03*
X19120000Y-7200000I-20000J0D01*
G01*
X19202080Y-6764020D02*
G75*
G03*
X19202080Y-6764020I-20000J0D01*
G01*
X19202080Y-6875780D02*
G75*
G03*
X19202080Y-6875780I-20000J0D01*
G01*
X19273200Y-6819900D02*
G75*
G03*
X19273200Y-6819900I-20000J0D01*
G01*
X19359560Y-8742680D02*
G75*
G03*
X19359560Y-8742680I-20000J0D01*
G01*
X19359560Y-8915400D02*
G75*
G03*
X19359560Y-8915400I-20000J0D01*
G01*
X19552600Y-9448800D02*
G75*
G03*
X19552600Y-9448800I-20000J0D01*
G01*
X19620000Y-11800000D02*
G75*
G03*
X19620000Y-11800000I-20000J0D01*
G01*
X19735405Y-9095405D02*
G75*
G03*
X19735405Y-9095405I-20000J0D01*
G01*
X19770000Y-7350000D02*
G75*
G03*
X19770000Y-7350000I-20000J0D01*
G01*
X19920000Y-7150000D02*
G75*
G03*
X19920000Y-7150000I-20000J0D01*
G01*
X19920000Y-8800000D02*
G75*
G03*
X19920000Y-8800000I-20000J0D01*
G01*
X19920000Y-11500000D02*
G75*
G03*
X19920000Y-11500000I-20000J0D01*
G01*
X19920000Y-11800000D02*
G75*
G03*
X19920000Y-11800000I-20000J0D01*
G01*
X19920000Y-12100000D02*
G75*
G03*
X19920000Y-12100000I-20000J0D01*
G01*
X19923440Y-8001000D02*
G75*
G03*
X19923440Y-8001000I-20000J0D01*
G01*
X19959000Y-9636760D02*
G75*
G03*
X19959000Y-9636760I-20000J0D01*
G01*
X19959000Y-9829800D02*
G75*
G03*
X19959000Y-9829800I-20000J0D01*
G01*
X20020000Y-6000000D02*
G75*
G03*
X20020000Y-6000000I-20000J0D01*
G01*
X20020000Y-7350000D02*
G75*
G03*
X20020000Y-7350000I-20000J0D01*
G01*
X20020000Y-9000000D02*
G75*
G03*
X20020000Y-9000000I-20000J0D01*
G01*
X20020000Y-9400000D02*
G75*
G03*
X20020000Y-9400000I-20000J0D01*
G01*
X20220000Y-11200000D02*
G75*
G03*
X20220000Y-11200000I-20000J0D01*
G01*
X20220000Y-11500000D02*
G75*
G03*
X20220000Y-11500000I-20000J0D01*
G01*
X20220000Y-11800000D02*
G75*
G03*
X20220000Y-11800000I-20000J0D01*
G01*
X20220000Y-12100000D02*
G75*
G03*
X20220000Y-12100000I-20000J0D01*
G01*
X20320000Y-6000000D02*
G75*
G03*
X20320000Y-6000000I-20000J0D01*
G01*
X20320000Y-6300000D02*
G75*
G03*
X20320000Y-6300000I-20000J0D01*
G01*
X20355240Y-8001000D02*
G75*
G03*
X20355240Y-8001000I-20000J0D01*
G01*
X20411120Y-8575040D02*
G75*
G03*
X20411120Y-8575040I-20000J0D01*
G01*
X20520000Y-7200000D02*
G75*
G03*
X20520000Y-7200000I-20000J0D01*
G01*
X20520000Y-7500000D02*
G75*
G03*
X20520000Y-7500000I-20000J0D01*
G01*
X20520000Y-8800000D02*
G75*
G03*
X20520000Y-8800000I-20000J0D01*
G01*
X20520000Y-11200000D02*
G75*
G03*
X20520000Y-11200000I-20000J0D01*
G01*
X20520000Y-11500000D02*
G75*
G03*
X20520000Y-11500000I-20000J0D01*
G01*
X20520000Y-11800000D02*
G75*
G03*
X20520000Y-11800000I-20000J0D01*
G01*
X20520000Y-12100000D02*
G75*
G03*
X20520000Y-12100000I-20000J0D01*
G01*
X20530500Y-10947400D02*
G75*
G03*
X20530500Y-10947400I-20000J0D01*
G01*
X20746400Y-11267440D02*
G75*
G03*
X20746400Y-11267440I-20000J0D01*
G01*
X20820000Y-7200000D02*
G75*
G03*
X20820000Y-7200000I-20000J0D01*
G01*
X20820000Y-7500000D02*
G75*
G03*
X20820000Y-7500000I-20000J0D01*
G01*
X20820000Y-7800000D02*
G75*
G03*
X20820000Y-7800000I-20000J0D01*
G01*
X20820000Y-8800000D02*
G75*
G03*
X20820000Y-8800000I-20000J0D01*
G01*
X20820000Y-9000000D02*
G75*
G03*
X20820000Y-9000000I-20000J0D01*
G01*
X20820000Y-11800000D02*
G75*
G03*
X20820000Y-11800000I-20000J0D01*
G01*
X20820000Y-12100000D02*
G75*
G03*
X20820000Y-12100000I-20000J0D01*
G01*
X20858160Y-10668000D02*
G75*
G03*
X20858160Y-10668000I-20000J0D01*
G01*
X20975000Y-6959600D02*
G75*
G03*
X20975000Y-6959600I-20000J0D01*
G01*
X21117240Y-8051800D02*
G75*
G03*
X21117240Y-8051800I-20000J0D01*
G01*
X21117240Y-8331200D02*
G75*
G03*
X21117240Y-8331200I-20000J0D01*
G01*
X21117240Y-8610600D02*
G75*
G03*
X21117240Y-8610600I-20000J0D01*
G01*
X21120000Y-7200000D02*
G75*
G03*
X21120000Y-7200000I-20000J0D01*
G01*
X21120000Y-7500000D02*
G75*
G03*
X21120000Y-7500000I-20000J0D01*
G01*
X21120000Y-7800000D02*
G75*
G03*
X21120000Y-7800000I-20000J0D01*
G01*
X21120000Y-11800000D02*
G75*
G03*
X21120000Y-11800000I-20000J0D01*
G01*
X21120000Y-12100000D02*
G75*
G03*
X21120000Y-12100000I-20000J0D01*
G01*
X21140100Y-10769600D02*
G75*
G03*
X21140100Y-10769600I-20000J0D01*
G01*
X21247800Y-10845800D02*
G75*
G03*
X21247800Y-10845800I-20000J0D01*
G01*
X21420000Y-7500000D02*
G75*
G03*
X21420000Y-7500000I-20000J0D01*
G01*
X21420000Y-7800000D02*
G75*
G03*
X21420000Y-7800000I-20000J0D01*
G01*
X21420000Y-11500000D02*
G75*
G03*
X21420000Y-11500000I-20000J0D01*
G01*
X21420000Y-11800000D02*
G75*
G03*
X21420000Y-11800000I-20000J0D01*
G01*
X21420000Y-12100000D02*
G75*
G03*
X21420000Y-12100000I-20000J0D01*
G01*
X21620000Y-8300000D02*
G75*
G03*
X21620000Y-8300000I-20000J0D01*
G01*
X21720000Y-11200000D02*
G75*
G03*
X21720000Y-11200000I-20000J0D01*
G01*
X21720000Y-11500000D02*
G75*
G03*
X21720000Y-11500000I-20000J0D01*
G01*
X21737000Y-7823200D02*
G75*
G03*
X21737000Y-7823200I-20000J0D01*
G01*
X21820000Y-8750000D02*
G75*
G03*
X21820000Y-8750000I-20000J0D01*
G01*
X21870000Y-10350000D02*
G75*
G03*
X21870000Y-10350000I-20000J0D01*
G01*
X21902100Y-9880600D02*
G75*
G03*
X21902100Y-9880600I-20000J0D01*
G01*
X21920000Y-8300000D02*
G75*
G03*
X21920000Y-8300000I-20000J0D01*
G01*
X22020000Y-10900000D02*
G75*
G03*
X22020000Y-10900000I-20000J0D01*
G01*
X22020000Y-11200000D02*
G75*
G03*
X22020000Y-11200000I-20000J0D01*
G01*
X22320000Y-10900000D02*
G75*
G03*
X22320000Y-10900000I-20000J0D01*
G01*
X22320000Y-11200000D02*
G75*
G03*
X22320000Y-11200000I-20000J0D01*
G01*
X22397400Y-8615680D02*
G75*
G03*
X22397400Y-8615680I-20000J0D01*
G01*
X22420000Y-6800000D02*
G75*
G03*
X22420000Y-6800000I-20000J0D01*
G01*
X22420000Y-7100000D02*
G75*
G03*
X22420000Y-7100000I-20000J0D01*
G01*
X22420000Y-7400000D02*
G75*
G03*
X22420000Y-7400000I-20000J0D01*
G01*
X22620000Y-9300000D02*
G75*
G03*
X22620000Y-9300000I-20000J0D01*
G01*
X22620000Y-10000000D02*
G75*
G03*
X22620000Y-10000000I-20000J0D01*
G01*
X22620000Y-10300000D02*
G75*
G03*
X22620000Y-10300000I-20000J0D01*
G01*
X22620000Y-10600000D02*
G75*
G03*
X22620000Y-10600000I-20000J0D01*
G01*
X22620000Y-10900000D02*
G75*
G03*
X22620000Y-10900000I-20000J0D01*
G01*
X22620000Y-11200000D02*
G75*
G03*
X22620000Y-11200000I-20000J0D01*
G01*
X22626000Y-8453120D02*
G75*
G03*
X22626000Y-8453120I-20000J0D01*
G01*
X22626000Y-9022080D02*
G75*
G03*
X22626000Y-9022080I-20000J0D01*
G01*
X22720000Y-6800000D02*
G75*
G03*
X22720000Y-6800000I-20000J0D01*
G01*
X22768240Y-8595360D02*
G75*
G03*
X22768240Y-8595360I-20000J0D01*
G01*
X22778400Y-8879840D02*
G75*
G03*
X22778400Y-8879840I-20000J0D01*
G01*
X22920000Y-8100000D02*
G75*
G03*
X22920000Y-8100000I-20000J0D01*
G01*
X22920000Y-8400000D02*
G75*
G03*
X22920000Y-8400000I-20000J0D01*
G01*
X22920000Y-8700000D02*
G75*
G03*
X22920000Y-8700000I-20000J0D01*
G01*
X22920000Y-10000000D02*
G75*
G03*
X22920000Y-10000000I-20000J0D01*
G01*
X22920000Y-10300000D02*
G75*
G03*
X22920000Y-10300000I-20000J0D01*
G01*
X22920000Y-10600000D02*
G75*
G03*
X22920000Y-10600000I-20000J0D01*
G01*
X22920000Y-10900000D02*
G75*
G03*
X22920000Y-10900000I-20000J0D01*
G01*
X22920000Y-11200000D02*
G75*
G03*
X22920000Y-11200000I-20000J0D01*
G01*
X22920000Y-11500000D02*
G75*
G03*
X22920000Y-11500000I-20000J0D01*
G01*
X23020000Y-9300000D02*
G75*
G03*
X23020000Y-9300000I-20000J0D01*
G01*
X23220000Y-8100000D02*
G75*
G03*
X23220000Y-8100000I-20000J0D01*
G01*
X23220000Y-8400000D02*
G75*
G03*
X23220000Y-8400000I-20000J0D01*
G01*
X23220000Y-8700000D02*
G75*
G03*
X23220000Y-8700000I-20000J0D01*
G01*
X23220000Y-10000000D02*
G75*
G03*
X23220000Y-10000000I-20000J0D01*
G01*
X23220000Y-10300000D02*
G75*
G03*
X23220000Y-10300000I-20000J0D01*
G01*
X10405000Y-11880000D02*
X10405000Y-11920000D01*
X10385000Y-11900000D02*
X10425000Y-11900000D01*
D11*
X10385000Y-11850000D02*
X10385000Y-11950000D01*
X10425000Y-11850000D02*
X10425000Y-11950000D01*
X10385000Y-11950000D02*
G75*
G03*
X10425000Y-11950000I20000J0D01*
G01*
X10425000Y-11850000D02*
G75*
G03*
X10385000Y-11850000I-20000J0D01*
G01*
D13*
X10655000Y-11880000D02*
X10655000Y-11920000D01*
X10635000Y-11900000D02*
X10675000Y-11900000D01*
D11*
X10635000Y-11850000D02*
X10635000Y-11950000D01*
X10675000Y-11850000D02*
X10675000Y-11950000D01*
X10635000Y-11950000D02*
G75*
G03*
X10675000Y-11950000I20000J0D01*
G01*
X10675000Y-11850000D02*
G75*
G03*
X10635000Y-11850000I-20000J0D01*
G01*
D13*
X10905000Y-12380000D02*
X10905000Y-12420000D01*
X10885000Y-12400000D02*
X10925000Y-12400000D01*
D11*
X10955000Y-12380000D02*
X10855000Y-12380000D01*
X10955000Y-12420000D02*
X10855000Y-12420000D01*
X10855000Y-12380000D02*
G75*
G03*
X10855000Y-12420000I0J-20000D01*
G01*
X10955000Y-12420000D02*
G75*
G03*
X10955000Y-12380000I0J20000D01*
G01*
D13*
X11155000Y-11880000D02*
X11155000Y-11920000D01*
X11135000Y-11900000D02*
X11175000Y-11900000D01*
D11*
X11175000Y-11950000D02*
X11175000Y-11850000D01*
X11135000Y-11950000D02*
X11135000Y-11850000D01*
X11175000Y-11850000D02*
G75*
G03*
X11135000Y-11850000I-20000J0D01*
G01*
X11135000Y-11950000D02*
G75*
G03*
X11175000Y-11950000I20000J0D01*
G01*
D13*
X11405000Y-11880000D02*
X11405000Y-11920000D01*
X11385000Y-11900000D02*
X11425000Y-11900000D01*
D11*
X11425000Y-11950000D02*
X11425000Y-11850000D01*
X11385000Y-11950000D02*
X11385000Y-11850000D01*
X11425000Y-11850000D02*
G75*
G03*
X11385000Y-11850000I-20000J0D01*
G01*
X11385000Y-11950000D02*
G75*
G03*
X11425000Y-11950000I20000J0D01*
G01*
D14*
X12437678Y-6134678D02*
X12437678Y-6099322D01*
X12402322Y-6099322D01*
X12402322Y-6134678D01*
X12437678Y-6134678D01*
D11*
X12445000Y-6182000D02*
X12445000Y-6052000D01*
X12395000Y-6182000D02*
X12395000Y-6052000D01*
X12445000Y-6052000D02*
G75*
G03*
X12395000Y-6052000I-25000J0D01*
G01*
X12395000Y-6182000D02*
G75*
G03*
X12445000Y-6182000I25000J0D01*
G01*
D14*
X17837678Y-6134678D02*
X17837678Y-6099322D01*
X17802322Y-6099322D01*
X17802322Y-6134678D01*
X17837678Y-6134678D01*
D11*
X17845000Y-6182000D02*
X17845000Y-6052000D01*
X17795000Y-6182000D02*
X17795000Y-6052000D01*
X17845000Y-6052000D02*
G75*
G03*
X17795000Y-6052000I-25000J0D01*
G01*
X17795000Y-6182000D02*
G75*
G03*
X17845000Y-6182000I25000J0D01*
G01*
D15*
X9702800Y-6923560D02*
X9732800Y-6893560D01*
X9702800Y-6863560D01*
X9672800Y-6893560D01*
X9702800Y-6923560D01*
X9702800Y-7426480D02*
X9732800Y-7396480D01*
X9702800Y-7366480D01*
X9672800Y-7396480D01*
X9702800Y-7426480D01*
X9855200Y-7426480D02*
X9885200Y-7396480D01*
X9855200Y-7366480D01*
X9825200Y-7396480D01*
X9855200Y-7426480D01*
X9880600Y-6923560D02*
X9910600Y-6893560D01*
X9880600Y-6863560D01*
X9850600Y-6893560D01*
X9880600Y-6923560D01*
X10007600Y-7426480D02*
X10037600Y-7396480D01*
X10007600Y-7366480D01*
X9977600Y-7396480D01*
X10007600Y-7426480D01*
X10109200Y-6791480D02*
X10139200Y-6761480D01*
X10109200Y-6731480D01*
X10079200Y-6761480D01*
X10109200Y-6791480D01*
X10160000Y-7426480D02*
X10190000Y-7396480D01*
X10160000Y-7366480D01*
X10130000Y-7396480D01*
X10160000Y-7426480D01*
X10271760Y-6954040D02*
X10301760Y-6924040D01*
X10271760Y-6894040D01*
X10241760Y-6924040D01*
X10271760Y-6954040D01*
X10840720Y-6979440D02*
X10870720Y-6949440D01*
X10840720Y-6919440D01*
X10810720Y-6949440D01*
X10840720Y-6979440D01*
X10998200Y-7103900D02*
X11028200Y-7073900D01*
X10998200Y-7043900D01*
X10968200Y-7073900D01*
X10998200Y-7103900D01*
X11374120Y-7345200D02*
X11404120Y-7315200D01*
X11374120Y-7285200D01*
X11344120Y-7315200D01*
X11374120Y-7345200D01*
X11374120Y-7523000D02*
X11404120Y-7493000D01*
X11374120Y-7463000D01*
X11344120Y-7493000D01*
X11374120Y-7523000D01*
X11518900Y-7751600D02*
X11548900Y-7721600D01*
X11518900Y-7691600D01*
X11488900Y-7721600D01*
X11518900Y-7751600D01*
X11628120Y-7248680D02*
X11658120Y-7218680D01*
X11628120Y-7188680D01*
X11598120Y-7218680D01*
X11628120Y-7248680D01*
X11760200Y-7170200D02*
X11790200Y-7140200D01*
X11760200Y-7110200D01*
X11730200Y-7140200D01*
X11760200Y-7170200D01*
X11760200Y-7319800D02*
X11790200Y-7289800D01*
X11760200Y-7259800D01*
X11730200Y-7289800D01*
X11760200Y-7319800D01*
X14561820Y-9844560D02*
X14591820Y-9814560D01*
X14561820Y-9784560D01*
X14531820Y-9814560D01*
X14561820Y-9844560D01*
X14757400Y-10022360D02*
X14787400Y-9992360D01*
X14757400Y-9962360D01*
X14727400Y-9992360D01*
X14757400Y-10022360D01*
X14952980Y-9844560D02*
X14982980Y-9814560D01*
X14952980Y-9784560D01*
X14922980Y-9814560D01*
X14952980Y-9844560D01*
X17729200Y-9059640D02*
X17759200Y-9029640D01*
X17729200Y-8999640D01*
X17699200Y-9029640D01*
X17729200Y-9059640D01*
X18161000Y-10418600D02*
X18191000Y-10388600D01*
X18161000Y-10358600D01*
X18131000Y-10388600D01*
X18161000Y-10418600D01*
X18313400Y-10418600D02*
X18343400Y-10388600D01*
X18313400Y-10358600D01*
X18283400Y-10388600D01*
X18313400Y-10418600D01*
X18313400Y-10596400D02*
X18343400Y-10566400D01*
X18313400Y-10536400D01*
X18283400Y-10566400D01*
X18313400Y-10596400D01*
X18313400Y-10774200D02*
X18343400Y-10744200D01*
X18313400Y-10714200D01*
X18283400Y-10744200D01*
X18313400Y-10774200D01*
X18486120Y-7121680D02*
X18516120Y-7091680D01*
X18486120Y-7061680D01*
X18456120Y-7091680D01*
X18486120Y-7121680D01*
X18486120Y-7271280D02*
X18516120Y-7241280D01*
X18486120Y-7211280D01*
X18456120Y-7241280D01*
X18486120Y-7271280D01*
X18618200Y-7192800D02*
X18648200Y-7162800D01*
X18618200Y-7132800D01*
X18588200Y-7162800D01*
X18618200Y-7192800D01*
X18638520Y-11246640D02*
X18668520Y-11216640D01*
X18638520Y-11186640D01*
X18608520Y-11216640D01*
X18638520Y-11246640D01*
X18656360Y-10228100D02*
X18686360Y-10198100D01*
X18656360Y-10168100D01*
X18626360Y-10198100D01*
X18656360Y-10228100D01*
X18821400Y-10596400D02*
X18851400Y-10566400D01*
X18821400Y-10536400D01*
X18791400Y-10566400D01*
X18821400Y-10596400D01*
X18821400Y-10774200D02*
X18851400Y-10744200D01*
X18821400Y-10714200D01*
X18791400Y-10744200D01*
X18821400Y-10774200D01*
X18994120Y-11251720D02*
X19024120Y-11221720D01*
X18994120Y-11191720D01*
X18964120Y-11221720D01*
X18994120Y-11251720D01*
X19123660Y-10228100D02*
X19153660Y-10198100D01*
X19123660Y-10168100D01*
X19093660Y-10198100D01*
X19123660Y-10228100D01*
X19304000Y-10228100D02*
X19334000Y-10198100D01*
X19304000Y-10168100D01*
X19274000Y-10198100D01*
X19304000Y-10228100D01*
X19334480Y-10433840D02*
X19364480Y-10403840D01*
X19334480Y-10373840D01*
X19304480Y-10403840D01*
X19334480Y-10433840D01*
X19469100Y-9809000D02*
X19499100Y-9779000D01*
X19469100Y-9749000D01*
X19439100Y-9779000D01*
X19469100Y-9809000D01*
X19469100Y-9961400D02*
X19499100Y-9931400D01*
X19469100Y-9901400D01*
X19439100Y-9931400D01*
X19469100Y-9961400D01*
X19507200Y-7167400D02*
X19537200Y-7137400D01*
X19507200Y-7107400D01*
X19477200Y-7137400D01*
X19507200Y-7167400D01*
X19685000Y-6684800D02*
X19715000Y-6654800D01*
X19685000Y-6624800D01*
X19655000Y-6654800D01*
X19685000Y-6684800D01*
X19685000Y-7167400D02*
X19715000Y-7137400D01*
X19685000Y-7107400D01*
X19655000Y-7137400D01*
X19685000Y-7167400D01*
X19878040Y-6992140D02*
X19908040Y-6962140D01*
X19878040Y-6932140D01*
X19848040Y-6962140D01*
X19878040Y-6992140D01*
X19878150Y-6852550D02*
X19908150Y-6822550D01*
X19878150Y-6792550D01*
X19848150Y-6822550D01*
X19878150Y-6852550D01*
X20193000Y-6735600D02*
X20223000Y-6705600D01*
X20193000Y-6675600D01*
X20163000Y-6705600D01*
X20193000Y-6735600D01*
X20510500Y-6842280D02*
X20540500Y-6812280D01*
X20510500Y-6782280D01*
X20480500Y-6812280D01*
X20510500Y-6842280D01*
X20574000Y-6684800D02*
X20604000Y-6654800D01*
X20574000Y-6624800D01*
X20544000Y-6654800D01*
X20574000Y-6684800D01*
X20637500Y-6842280D02*
X20667500Y-6812280D01*
X20637500Y-6782280D01*
X20607500Y-6812280D01*
X20637500Y-6842280D01*
X21498560Y-10007120D02*
X21528560Y-9977120D01*
X21498560Y-9947120D01*
X21468560Y-9977120D01*
X21498560Y-10007120D01*
X19728000Y-6003500D02*
X19788000Y-6063500D01*
X19788000Y-6003500D02*
X19728000Y-6063500D01*
X19788000Y-6033500D02*
G75*
G03*
X19788000Y-6033500I-30000J0D01*
G01*
D11*
X19728000Y-5993500D02*
X19728000Y-6073500D01*
X19788000Y-5993500D02*
X19788000Y-6073500D01*
X19728000Y-6073500D02*
G75*
G03*
X19788000Y-6073500I30000J0D01*
G01*
X19788000Y-5993500D02*
G75*
G03*
X19728000Y-5993500I-30000J0D01*
G01*
D15*
X19728000Y-6420500D02*
X19788000Y-6480500D01*
X19788000Y-6420500D02*
X19728000Y-6480500D01*
X19788000Y-6450500D02*
G75*
G03*
X19788000Y-6450500I-30000J0D01*
G01*
D11*
X19728000Y-6395500D02*
X19728000Y-6505500D01*
X19788000Y-6395500D02*
X19788000Y-6505500D01*
X19728000Y-6505500D02*
G75*
G03*
X19788000Y-6505500I30000J0D01*
G01*
X19788000Y-6395500D02*
G75*
G03*
X19728000Y-6395500I-30000J0D01*
G01*
D15*
X20592000Y-6003500D02*
X20652000Y-6063500D01*
X20652000Y-6003500D02*
X20592000Y-6063500D01*
X20652000Y-6033500D02*
G75*
G03*
X20652000Y-6033500I-30000J0D01*
G01*
D11*
X20592000Y-5993500D02*
X20592000Y-6073500D01*
X20652000Y-5993500D02*
X20652000Y-6073500D01*
X20592000Y-6073500D02*
G75*
G03*
X20652000Y-6073500I30000J0D01*
G01*
X20652000Y-5993500D02*
G75*
G03*
X20592000Y-5993500I-30000J0D01*
G01*
D15*
X20592000Y-6420500D02*
X20652000Y-6480500D01*
X20652000Y-6420500D02*
X20592000Y-6480500D01*
X20652000Y-6450500D02*
G75*
G03*
X20652000Y-6450500I-30000J0D01*
G01*
D11*
X20592000Y-6395500D02*
X20592000Y-6505500D01*
X20652000Y-6395500D02*
X20652000Y-6505500D01*
X20592000Y-6505500D02*
G75*
G03*
X20652000Y-6505500I30000J0D01*
G01*
X20652000Y-6395500D02*
G75*
G03*
X20592000Y-6395500I-30000J0D01*
G01*
D16*
X12470700Y-9308000D02*
X12540700Y-9378000D01*
X12540700Y-9308000D02*
X12470700Y-9378000D01*
X12505700Y-9308000D02*
X12505700Y-9378000D01*
X12470700Y-9343000D02*
X12540700Y-9343000D01*
X12470700Y-9562000D02*
X12540700Y-9632000D01*
X12540700Y-9562000D02*
X12470700Y-9632000D01*
X12505700Y-9562000D02*
X12505700Y-9632000D01*
X12470700Y-9597000D02*
X12540700Y-9597000D01*
X20558000Y-10315000D02*
X20628000Y-10385000D01*
X20628000Y-10315000D02*
X20558000Y-10385000D01*
X20593000Y-10315000D02*
X20593000Y-10385000D01*
X20558000Y-10350000D02*
X20628000Y-10350000D01*
X20683000Y-10315000D02*
X20753000Y-10385000D01*
X20753000Y-10315000D02*
X20683000Y-10385000D01*
X20718000Y-10315000D02*
X20718000Y-10385000D01*
X20683000Y-10350000D02*
X20753000Y-10350000D01*
X20808000Y-10315000D02*
X20878000Y-10385000D01*
X20878000Y-10315000D02*
X20808000Y-10385000D01*
X20843000Y-10315000D02*
X20843000Y-10385000D01*
X20808000Y-10350000D02*
X20878000Y-10350000D01*
X20933000Y-10315000D02*
X21003000Y-10385000D01*
X21003000Y-10315000D02*
X20933000Y-10385000D01*
X20968000Y-10315000D02*
X20968000Y-10385000D01*
X20933000Y-10350000D02*
X21003000Y-10350000D01*
D17*
X10402500Y-10062500D02*
X10477500Y-10137500D01*
X10477500Y-10062500D02*
X10402500Y-10137500D01*
X10466517Y-10126517D02*
X10466517Y-10073483D01*
X10413483Y-10073483D01*
X10413483Y-10126517D01*
X10466517Y-10126517D01*
X10602500Y-10062500D02*
X10677500Y-10137500D01*
X10677500Y-10062500D02*
X10602500Y-10137500D01*
X10666517Y-10126517D02*
X10666517Y-10073483D01*
X10613483Y-10073483D01*
X10613483Y-10126517D01*
X10666517Y-10126517D01*
X19752500Y-10062500D02*
X19827500Y-10137500D01*
X19827500Y-10062500D02*
X19752500Y-10137500D01*
X19816517Y-10126517D02*
X19816517Y-10073483D01*
X19763483Y-10073483D01*
X19763483Y-10126517D01*
X19816517Y-10126517D01*
X19952500Y-10062500D02*
X20027500Y-10137500D01*
X20027500Y-10062500D02*
X19952500Y-10137500D01*
X20016517Y-10126517D02*
X20016517Y-10073483D01*
X19963483Y-10073483D01*
X19963483Y-10126517D01*
X20016517Y-10126517D01*
D18*
X9932500Y-6075000D02*
X10022500Y-6165000D01*
X10022500Y-6075000D02*
X9932500Y-6165000D01*
X9977500Y-6165000D02*
X10022500Y-6120000D01*
X9977500Y-6075000D01*
X9932500Y-6120000D01*
X9977500Y-6165000D01*
X10132500Y-6075000D02*
X10222500Y-6165000D01*
X10222500Y-6075000D02*
X10132500Y-6165000D01*
X10177500Y-6165000D02*
X10222500Y-6120000D01*
X10177500Y-6075000D01*
X10132500Y-6120000D01*
X10177500Y-6165000D01*
X10332500Y-6075000D02*
X10422500Y-6165000D01*
X10422500Y-6075000D02*
X10332500Y-6165000D01*
X10377500Y-6165000D02*
X10422500Y-6120000D01*
X10377500Y-6075000D01*
X10332500Y-6120000D01*
X10377500Y-6165000D01*
X18921000Y-6525000D02*
X19011000Y-6615000D01*
X19011000Y-6525000D02*
X18921000Y-6615000D01*
X18966000Y-6615000D02*
X19011000Y-6570000D01*
X18966000Y-6525000D01*
X18921000Y-6570000D01*
X18966000Y-6615000D01*
X19175000Y-6525000D02*
X19265000Y-6615000D01*
X19265000Y-6525000D02*
X19175000Y-6615000D01*
X19220000Y-6615000D02*
X19265000Y-6570000D01*
X19220000Y-6525000D01*
X19175000Y-6570000D01*
X19220000Y-6615000D01*
X19429000Y-6525000D02*
X19519000Y-6615000D01*
X19519000Y-6525000D02*
X19429000Y-6615000D01*
X19474000Y-6615000D02*
X19519000Y-6570000D01*
X19474000Y-6525000D01*
X19429000Y-6570000D01*
X19474000Y-6615000D01*
D19*
X8180000Y-6900500D02*
X8180000Y-6999500D01*
X8130500Y-6950000D02*
X8229500Y-6950000D01*
X8229500Y-6950000D02*
G75*
G03*
X8229500Y-6950000I-49500J0D01*
G01*
X8630000Y-6900500D02*
X8630000Y-6999500D01*
X8580500Y-6950000D02*
X8679500Y-6950000D01*
X8679500Y-6950000D02*
G75*
G03*
X8679500Y-6950000I-49500J0D01*
G01*
X13465000Y-12400500D02*
X13465000Y-12499500D01*
X13415500Y-12450000D02*
X13514500Y-12450000D01*
X13514500Y-12450000D02*
G75*
G03*
X13514500Y-12450000I-49500J0D01*
G01*
X13915000Y-12400500D02*
X13915000Y-12499500D01*
X13865500Y-12450000D02*
X13964500Y-12450000D01*
X13964500Y-12450000D02*
G75*
G03*
X13964500Y-12450000I-49500J0D01*
G01*
X16315000Y-12400500D02*
X16315000Y-12499500D01*
X16265500Y-12450000D02*
X16364500Y-12450000D01*
X16364500Y-12450000D02*
G75*
G03*
X16364500Y-12450000I-49500J0D01*
G01*
X16765000Y-12400500D02*
X16765000Y-12499500D01*
X16715500Y-12450000D02*
X16814500Y-12450000D01*
X16814500Y-12450000D02*
G75*
G03*
X16814500Y-12450000I-49500J0D01*
G01*
X21600000Y-6900500D02*
X21600000Y-6999500D01*
X21550500Y-6950000D02*
X21649500Y-6950000D01*
X21649500Y-6950000D02*
G75*
G03*
X21649500Y-6950000I-49500J0D01*
G01*
X22050000Y-6900500D02*
X22050000Y-6999500D01*
X22000500Y-6950000D02*
X22099500Y-6950000D01*
X22099500Y-6950000D02*
G75*
G03*
X22099500Y-6950000I-49500J0D01*
G01*
D10*
X7085356Y-9160356D02*
X7085356Y-9089644D01*
X7014644Y-9089644D01*
X7014644Y-9160356D01*
X7085356Y-9160356D01*
X7100000Y-9125000D02*
G75*
G03*
X7100000Y-9125000I-50000J0D01*
G01*
X7085356Y-9610356D02*
X7085356Y-9539644D01*
X7014644Y-9539644D01*
X7014644Y-9610356D01*
X7085356Y-9610356D01*
X7100000Y-9575000D02*
G75*
G03*
X7100000Y-9575000I-50000J0D01*
G01*
X7885356Y-9160356D02*
X7885356Y-9089644D01*
X7814644Y-9089644D01*
X7814644Y-9160356D01*
X7885356Y-9160356D01*
X7900000Y-9125000D02*
G75*
G03*
X7900000Y-9125000I-50000J0D01*
G01*
X7885356Y-9610356D02*
X7885356Y-9539644D01*
X7814644Y-9539644D01*
X7814644Y-9610356D01*
X7885356Y-9610356D01*
X7900000Y-9575000D02*
G75*
G03*
X7900000Y-9575000I-50000J0D01*
G01*
X8085356Y-8160356D02*
X8085356Y-8089644D01*
X8014644Y-8089644D01*
X8014644Y-8160356D01*
X8085356Y-8160356D01*
X8100000Y-8125000D02*
G75*
G03*
X8100000Y-8125000I-50000J0D01*
G01*
X8085356Y-8610356D02*
X8085356Y-8539644D01*
X8014644Y-8539644D01*
X8014644Y-8610356D01*
X8085356Y-8610356D01*
X8100000Y-8575000D02*
G75*
G03*
X8100000Y-8575000I-50000J0D01*
G01*
X8085356Y-10160356D02*
X8085356Y-10089644D01*
X8014644Y-10089644D01*
X8014644Y-10160356D01*
X8085356Y-10160356D01*
X8100000Y-10125000D02*
G75*
G03*
X8100000Y-10125000I-50000J0D01*
G01*
X8085356Y-10610356D02*
X8085356Y-10539644D01*
X8014644Y-10539644D01*
X8014644Y-10610356D01*
X8085356Y-10610356D01*
X8100000Y-10575000D02*
G75*
G03*
X8100000Y-10575000I-50000J0D01*
G01*
X8885356Y-8160356D02*
X8885356Y-8089644D01*
X8814644Y-8089644D01*
X8814644Y-8160356D01*
X8885356Y-8160356D01*
X8900000Y-8125000D02*
G75*
G03*
X8900000Y-8125000I-50000J0D01*
G01*
X8885356Y-8610356D02*
X8885356Y-8539644D01*
X8814644Y-8539644D01*
X8814644Y-8610356D01*
X8885356Y-8610356D01*
X8900000Y-8575000D02*
G75*
G03*
X8900000Y-8575000I-50000J0D01*
G01*
X8885356Y-10160356D02*
X8885356Y-10089644D01*
X8814644Y-10089644D01*
X8814644Y-10160356D01*
X8885356Y-10160356D01*
X8900000Y-10125000D02*
G75*
G03*
X8900000Y-10125000I-50000J0D01*
G01*
X8885356Y-10610356D02*
X8885356Y-10539644D01*
X8814644Y-10539644D01*
X8814644Y-10610356D01*
X8885356Y-10610356D01*
X8900000Y-10575000D02*
G75*
G03*
X8900000Y-10575000I-50000J0D01*
G01*
X9085356Y-9160356D02*
X9085356Y-9089644D01*
X9014644Y-9089644D01*
X9014644Y-9160356D01*
X9085356Y-9160356D01*
X9100000Y-9125000D02*
G75*
G03*
X9100000Y-9125000I-50000J0D01*
G01*
X9085356Y-9610356D02*
X9085356Y-9539644D01*
X9014644Y-9539644D01*
X9014644Y-9610356D01*
X9085356Y-9610356D01*
X9100000Y-9575000D02*
G75*
G03*
X9100000Y-9575000I-50000J0D01*
G01*
X9235356Y-8355356D02*
X9235356Y-8284644D01*
X9164644Y-8284644D01*
X9164644Y-8355356D01*
X9235356Y-8355356D01*
X9250000Y-8320000D02*
G75*
G03*
X9250000Y-8320000I-50000J0D01*
G01*
X9235356Y-8605356D02*
X9235356Y-8534644D01*
X9164644Y-8534644D01*
X9164644Y-8605356D01*
X9235356Y-8605356D01*
X9250000Y-8570000D02*
G75*
G03*
X9250000Y-8570000I-50000J0D01*
G01*
X9885356Y-9160356D02*
X9885356Y-9089644D01*
X9814644Y-9089644D01*
X9814644Y-9160356D01*
X9885356Y-9160356D01*
X9900000Y-9125000D02*
G75*
G03*
X9900000Y-9125000I-50000J0D01*
G01*
X9885356Y-9610356D02*
X9885356Y-9539644D01*
X9814644Y-9539644D01*
X9814644Y-9610356D01*
X9885356Y-9610356D01*
X9900000Y-9575000D02*
G75*
G03*
X9900000Y-9575000I-50000J0D01*
G01*
X11900356Y-11910356D02*
X11900356Y-11839644D01*
X11829644Y-11839644D01*
X11829644Y-11910356D01*
X11900356Y-11910356D01*
X11915000Y-11875000D02*
G75*
G03*
X11915000Y-11875000I-50000J0D01*
G01*
X11900356Y-12360356D02*
X11900356Y-12289644D01*
X11829644Y-12289644D01*
X11829644Y-12360356D01*
X11900356Y-12360356D01*
X11915000Y-12325000D02*
G75*
G03*
X11915000Y-12325000I-50000J0D01*
G01*
X12430556Y-7453156D02*
X12430556Y-7382444D01*
X12359844Y-7382444D01*
X12359844Y-7453156D01*
X12430556Y-7453156D01*
X12445200Y-7417800D02*
G75*
G03*
X12445200Y-7417800I-50000J0D01*
G01*
X12430556Y-7707156D02*
X12430556Y-7636444D01*
X12359844Y-7636444D01*
X12359844Y-7707156D01*
X12430556Y-7707156D01*
X12445200Y-7671800D02*
G75*
G03*
X12445200Y-7671800I-50000J0D01*
G01*
X12430556Y-7961156D02*
X12430556Y-7890444D01*
X12359844Y-7890444D01*
X12359844Y-7961156D01*
X12430556Y-7961156D01*
X12445200Y-7925800D02*
G75*
G03*
X12445200Y-7925800I-50000J0D01*
G01*
X12430556Y-8215156D02*
X12430556Y-8144444D01*
X12359844Y-8144444D01*
X12359844Y-8215156D01*
X12430556Y-8215156D01*
X12445200Y-8179800D02*
G75*
G03*
X12445200Y-8179800I-50000J0D01*
G01*
X12700356Y-11910356D02*
X12700356Y-11839644D01*
X12629644Y-11839644D01*
X12629644Y-11910356D01*
X12700356Y-11910356D01*
X12715000Y-11875000D02*
G75*
G03*
X12715000Y-11875000I-50000J0D01*
G01*
X12700356Y-12360356D02*
X12700356Y-12289644D01*
X12629644Y-12289644D01*
X12629644Y-12360356D01*
X12700356Y-12360356D01*
X12715000Y-12325000D02*
G75*
G03*
X12715000Y-12325000I-50000J0D01*
G01*
X14750356Y-11910356D02*
X14750356Y-11839644D01*
X14679644Y-11839644D01*
X14679644Y-11910356D01*
X14750356Y-11910356D01*
X14765000Y-11875000D02*
G75*
G03*
X14765000Y-11875000I-50000J0D01*
G01*
X14750356Y-12360356D02*
X14750356Y-12289644D01*
X14679644Y-12289644D01*
X14679644Y-12360356D01*
X14750356Y-12360356D01*
X14765000Y-12325000D02*
G75*
G03*
X14765000Y-12325000I-50000J0D01*
G01*
X15550356Y-11910356D02*
X15550356Y-11839644D01*
X15479644Y-11839644D01*
X15479644Y-11910356D01*
X15550356Y-11910356D01*
X15565000Y-11875000D02*
G75*
G03*
X15565000Y-11875000I-50000J0D01*
G01*
X15550356Y-12360356D02*
X15550356Y-12289644D01*
X15479644Y-12289644D01*
X15479644Y-12360356D01*
X15550356Y-12360356D01*
X15565000Y-12325000D02*
G75*
G03*
X15565000Y-12325000I-50000J0D01*
G01*
X17600356Y-11910356D02*
X17600356Y-11839644D01*
X17529644Y-11839644D01*
X17529644Y-11910356D01*
X17600356Y-11910356D01*
X17615000Y-11875000D02*
G75*
G03*
X17615000Y-11875000I-50000J0D01*
G01*
X17600356Y-12360356D02*
X17600356Y-12289644D01*
X17529644Y-12289644D01*
X17529644Y-12360356D01*
X17600356Y-12360356D01*
X17615000Y-12325000D02*
G75*
G03*
X17615000Y-12325000I-50000J0D01*
G01*
X18400356Y-11910356D02*
X18400356Y-11839644D01*
X18329644Y-11839644D01*
X18329644Y-11910356D01*
X18400356Y-11910356D01*
X18415000Y-11875000D02*
G75*
G03*
X18415000Y-11875000I-50000J0D01*
G01*
X18400356Y-12360356D02*
X18400356Y-12289644D01*
X18329644Y-12289644D01*
X18329644Y-12360356D01*
X18400356Y-12360356D01*
X18415000Y-12325000D02*
G75*
G03*
X18415000Y-12325000I-50000J0D01*
G01*
X20415356Y-9160356D02*
X20415356Y-9089644D01*
X20344644Y-9089644D01*
X20344644Y-9160356D01*
X20415356Y-9160356D01*
X20430000Y-9125000D02*
G75*
G03*
X20430000Y-9125000I-50000J0D01*
G01*
X20415356Y-9610356D02*
X20415356Y-9539644D01*
X20344644Y-9539644D01*
X20344644Y-9610356D01*
X20415356Y-9610356D01*
X20430000Y-9575000D02*
G75*
G03*
X20430000Y-9575000I-50000J0D01*
G01*
X21215356Y-9160356D02*
X21215356Y-9089644D01*
X21144644Y-9089644D01*
X21144644Y-9160356D01*
X21215356Y-9160356D01*
X21230000Y-9125000D02*
G75*
G03*
X21230000Y-9125000I-50000J0D01*
G01*
X21215356Y-9610356D02*
X21215356Y-9539644D01*
X21144644Y-9539644D01*
X21144644Y-9610356D01*
X21215356Y-9610356D01*
X21230000Y-9575000D02*
G75*
G03*
X21230000Y-9575000I-50000J0D01*
G01*
X21415356Y-8160356D02*
X21415356Y-8089644D01*
X21344644Y-8089644D01*
X21344644Y-8160356D01*
X21415356Y-8160356D01*
X21430000Y-8125000D02*
G75*
G03*
X21430000Y-8125000I-50000J0D01*
G01*
X21415356Y-8610356D02*
X21415356Y-8539644D01*
X21344644Y-8539644D01*
X21344644Y-8610356D01*
X21415356Y-8610356D01*
X21430000Y-8575000D02*
G75*
G03*
X21430000Y-8575000I-50000J0D01*
G01*
X21415356Y-10160356D02*
X21415356Y-10089644D01*
X21344644Y-10089644D01*
X21344644Y-10160356D01*
X21415356Y-10160356D01*
X21430000Y-10125000D02*
G75*
G03*
X21430000Y-10125000I-50000J0D01*
G01*
X21415356Y-10610356D02*
X21415356Y-10539644D01*
X21344644Y-10539644D01*
X21344644Y-10610356D01*
X21415356Y-10610356D01*
X21430000Y-10575000D02*
G75*
G03*
X21430000Y-10575000I-50000J0D01*
G01*
X22215356Y-8160356D02*
X22215356Y-8089644D01*
X22144644Y-8089644D01*
X22144644Y-8160356D01*
X22215356Y-8160356D01*
X22230000Y-8125000D02*
G75*
G03*
X22230000Y-8125000I-50000J0D01*
G01*
X22215356Y-8610356D02*
X22215356Y-8539644D01*
X22144644Y-8539644D01*
X22144644Y-8610356D01*
X22215356Y-8610356D01*
X22230000Y-8575000D02*
G75*
G03*
X22230000Y-8575000I-50000J0D01*
G01*
X22215356Y-10160356D02*
X22215356Y-10089644D01*
X22144644Y-10089644D01*
X22144644Y-10160356D01*
X22215356Y-10160356D01*
X22230000Y-10125000D02*
G75*
G03*
X22230000Y-10125000I-50000J0D01*
G01*
X22215356Y-10610356D02*
X22215356Y-10539644D01*
X22144644Y-10539644D01*
X22144644Y-10610356D01*
X22215356Y-10610356D01*
X22230000Y-10575000D02*
G75*
G03*
X22230000Y-10575000I-50000J0D01*
G01*
X22415356Y-9160356D02*
X22415356Y-9089644D01*
X22344644Y-9089644D01*
X22344644Y-9160356D01*
X22415356Y-9160356D01*
X22430000Y-9125000D02*
G75*
G03*
X22430000Y-9125000I-50000J0D01*
G01*
X22415356Y-9610356D02*
X22415356Y-9539644D01*
X22344644Y-9539644D01*
X22344644Y-9610356D01*
X22415356Y-9610356D01*
X22430000Y-9575000D02*
G75*
G03*
X22430000Y-9575000I-50000J0D01*
G01*
X23215356Y-9160356D02*
X23215356Y-9089644D01*
X23144644Y-9089644D01*
X23144644Y-9160356D01*
X23215356Y-9160356D01*
X23230000Y-9125000D02*
G75*
G03*
X23230000Y-9125000I-50000J0D01*
G01*
X23215356Y-9610356D02*
X23215356Y-9539644D01*
X23144644Y-9539644D01*
X23144644Y-9610356D01*
X23215356Y-9610356D01*
X23230000Y-9575000D02*
G75*
G03*
X23230000Y-9575000I-50000J0D01*
G01*
D20*
X8054000Y-7264000D02*
X8119000Y-7199000D01*
X8054000Y-7134000D01*
X7989000Y-7199000D01*
X8054000Y-7264000D01*
X8119000Y-7199000D02*
G75*
G03*
X8119000Y-7199000I-65000J0D01*
G01*
X8755000Y-7264000D02*
X8820000Y-7199000D01*
X8755000Y-7134000D01*
X8690000Y-7199000D01*
X8755000Y-7264000D01*
X8820000Y-7199000D02*
G75*
G03*
X8820000Y-7199000I-65000J0D01*
G01*
X13340000Y-12266000D02*
X13405000Y-12201000D01*
X13340000Y-12136000D01*
X13275000Y-12201000D01*
X13340000Y-12266000D01*
X13405000Y-12201000D02*
G75*
G03*
X13405000Y-12201000I-65000J0D01*
G01*
X14041000Y-12266000D02*
X14106000Y-12201000D01*
X14041000Y-12136000D01*
X13976000Y-12201000D01*
X14041000Y-12266000D01*
X14106000Y-12201000D02*
G75*
G03*
X14106000Y-12201000I-65000J0D01*
G01*
X16190000Y-12266000D02*
X16255000Y-12201000D01*
X16190000Y-12136000D01*
X16125000Y-12201000D01*
X16190000Y-12266000D01*
X16255000Y-12201000D02*
G75*
G03*
X16255000Y-12201000I-65000J0D01*
G01*
X16891000Y-12266000D02*
X16956000Y-12201000D01*
X16891000Y-12136000D01*
X16826000Y-12201000D01*
X16891000Y-12266000D01*
X16956000Y-12201000D02*
G75*
G03*
X16956000Y-12201000I-65000J0D01*
G01*
X21474000Y-7264000D02*
X21539000Y-7199000D01*
X21474000Y-7134000D01*
X21409000Y-7199000D01*
X21474000Y-7264000D01*
X21539000Y-7199000D02*
G75*
G03*
X21539000Y-7199000I-65000J0D01*
G01*
X22175000Y-7264000D02*
X22240000Y-7199000D01*
X22175000Y-7134000D01*
X22110000Y-7199000D01*
X22175000Y-7264000D01*
X22240000Y-7199000D02*
G75*
G03*
X22240000Y-7199000I-65000J0D01*
G01*
D21*
X9767500Y-6045000D02*
X9767500Y-6195000D01*
X9692500Y-6120000D02*
X9842500Y-6120000D01*
X9820534Y-6173033D02*
X9820534Y-6066966D01*
X9714467Y-6066966D01*
X9714467Y-6173033D01*
X9820534Y-6173033D01*
X10587500Y-6045000D02*
X10587500Y-6195000D01*
X10512500Y-6120000D02*
X10662500Y-6120000D01*
X10640534Y-6173033D02*
X10640534Y-6066966D01*
X10534467Y-6066966D01*
X10534467Y-6173033D01*
X10640534Y-6173033D01*
D22*
X7500000Y-7565000D02*
X7500000Y-7835000D01*
X7365000Y-7700000D02*
X7635000Y-7700000D01*
X7500000Y-7835000D02*
X7635000Y-7700000D01*
X7500000Y-7565000D01*
X7365000Y-7700000D01*
X7500000Y-7835000D01*
X8060000Y-11745000D02*
X8060000Y-12015000D01*
X7925000Y-11880000D02*
X8195000Y-11880000D01*
X8060000Y-12015000D02*
X8195000Y-11880000D01*
X8060000Y-11745000D01*
X7925000Y-11880000D01*
X8060000Y-12015000D01*
X22170000Y-11745000D02*
X22170000Y-12015000D01*
X22035000Y-11880000D02*
X22305000Y-11880000D01*
X22170000Y-12015000D02*
X22305000Y-11880000D01*
X22170000Y-11745000D01*
X22035000Y-11880000D01*
X22170000Y-12015000D01*
X22730000Y-7565000D02*
X22730000Y-7835000D01*
X22595000Y-7700000D02*
X22865000Y-7700000D01*
X22730000Y-7835000D02*
X22865000Y-7700000D01*
X22730000Y-7565000D01*
X22595000Y-7700000D01*
X22730000Y-7835000D01*
D11*
X6867618Y-13166476D02*
X6867618Y-12966476D01*
X6915237Y-12966476D01*
X6943808Y-12976000D01*
X6962856Y-12995048D01*
X6972380Y-13014095D01*
X6981903Y-13052190D01*
X6981903Y-13080762D01*
X6972380Y-13118857D01*
X6962856Y-13137905D01*
X6943808Y-13156952D01*
X6915237Y-13166476D01*
X6867618Y-13166476D01*
X7067618Y-13166476D02*
X7067618Y-13033143D01*
X7067618Y-13071238D02*
X7077141Y-13052190D01*
X7086665Y-13042667D01*
X7105713Y-13033143D01*
X7124761Y-13033143D01*
X7191427Y-13166476D02*
X7191427Y-13033143D01*
X7191427Y-12966476D02*
X7181903Y-12976000D01*
X7191427Y-12985524D01*
X7200951Y-12976000D01*
X7191427Y-12966476D01*
X7191427Y-12985524D01*
X7315237Y-13166476D02*
X7296189Y-13156952D01*
X7286665Y-13137905D01*
X7286665Y-12966476D01*
X7419999Y-13166476D02*
X7400951Y-13156952D01*
X7391427Y-13137905D01*
X7391427Y-12966476D01*
X7648570Y-13166476D02*
X7648570Y-12966476D01*
X7715237Y-13109333D01*
X7781903Y-12966476D01*
X7781903Y-13166476D01*
X7962856Y-13166476D02*
X7962856Y-13061714D01*
X7953332Y-13042667D01*
X7934284Y-13033143D01*
X7896189Y-13033143D01*
X7877141Y-13042667D01*
X7962856Y-13156952D02*
X7943808Y-13166476D01*
X7896189Y-13166476D01*
X7877141Y-13156952D01*
X7867618Y-13137905D01*
X7867618Y-13118857D01*
X7877141Y-13099809D01*
X7896189Y-13090286D01*
X7943808Y-13090286D01*
X7962856Y-13080762D01*
X8058094Y-13033143D02*
X8058094Y-13233143D01*
X8058094Y-13042667D02*
X8077141Y-13033143D01*
X8115237Y-13033143D01*
X8134284Y-13042667D01*
X8143808Y-13052190D01*
X8153332Y-13071238D01*
X8153332Y-13128381D01*
X8143808Y-13147428D01*
X8134284Y-13156952D01*
X8115237Y-13166476D01*
X8077141Y-13166476D01*
X8058094Y-13156952D01*
X8239046Y-13147428D02*
X8248570Y-13156952D01*
X8239046Y-13166476D01*
X8229522Y-13156952D01*
X8239046Y-13147428D01*
X8239046Y-13166476D01*
X8239046Y-13042667D02*
X8248570Y-13052190D01*
X8239046Y-13061714D01*
X8229522Y-13052190D01*
X8239046Y-13042667D01*
X8239046Y-13061714D01*
D12*
X6579999Y-13481000D02*
X6609999Y-13511000D01*
X6609999Y-13481000D02*
X6579999Y-13511000D01*
D11*
X6905713Y-13386476D02*
X6924761Y-13386476D01*
X6943808Y-13396000D01*
X6953332Y-13405524D01*
X6962856Y-13424571D01*
X6972380Y-13462667D01*
X6972380Y-13510286D01*
X6962856Y-13548381D01*
X6953332Y-13567428D01*
X6943808Y-13576952D01*
X6924761Y-13586476D01*
X6905713Y-13586476D01*
X6886665Y-13576952D01*
X6877141Y-13567428D01*
X6867618Y-13548381D01*
X6858094Y-13510286D01*
X6858094Y-13462667D01*
X6867618Y-13424571D01*
X6877141Y-13405524D01*
X6886665Y-13396000D01*
X6905713Y-13386476D01*
X7058094Y-13567428D02*
X7067618Y-13576952D01*
X7058094Y-13586476D01*
X7048570Y-13576952D01*
X7058094Y-13567428D01*
X7058094Y-13586476D01*
X7134284Y-13386476D02*
X7258094Y-13386476D01*
X7191427Y-13462667D01*
X7219999Y-13462667D01*
X7239046Y-13472190D01*
X7248570Y-13481714D01*
X7258094Y-13500762D01*
X7258094Y-13548381D01*
X7248570Y-13567428D01*
X7239046Y-13576952D01*
X7219999Y-13586476D01*
X7162856Y-13586476D01*
X7143808Y-13576952D01*
X7134284Y-13567428D01*
X7381903Y-13386476D02*
X7400951Y-13386476D01*
X7419999Y-13396000D01*
X7429522Y-13405524D01*
X7439046Y-13424571D01*
X7448570Y-13462667D01*
X7448570Y-13510286D01*
X7439046Y-13548381D01*
X7429522Y-13567428D01*
X7419999Y-13576952D01*
X7400951Y-13586476D01*
X7381903Y-13586476D01*
X7362856Y-13576952D01*
X7353332Y-13567428D01*
X7343808Y-13548381D01*
X7334284Y-13510286D01*
X7334284Y-13462667D01*
X7343808Y-13424571D01*
X7353332Y-13405524D01*
X7362856Y-13396000D01*
X7381903Y-13386476D01*
X7572380Y-13386476D02*
X7591427Y-13386476D01*
X7610475Y-13396000D01*
X7619999Y-13405524D01*
X7629522Y-13424571D01*
X7639046Y-13462667D01*
X7639046Y-13510286D01*
X7629522Y-13548381D01*
X7619999Y-13567428D01*
X7610475Y-13576952D01*
X7591427Y-13586476D01*
X7572380Y-13586476D01*
X7553332Y-13576952D01*
X7543808Y-13567428D01*
X7534284Y-13548381D01*
X7524761Y-13510286D01*
X7524761Y-13462667D01*
X7534284Y-13424571D01*
X7543808Y-13405524D01*
X7553332Y-13396000D01*
X7572380Y-13386476D01*
X7724761Y-13586476D02*
X7724761Y-13453143D01*
X7724761Y-13472190D02*
X7734284Y-13462667D01*
X7753332Y-13453143D01*
X7781903Y-13453143D01*
X7800951Y-13462667D01*
X7810475Y-13481714D01*
X7810475Y-13586476D01*
X7810475Y-13481714D02*
X7819999Y-13462667D01*
X7839046Y-13453143D01*
X7867618Y-13453143D01*
X7886665Y-13462667D01*
X7896189Y-13481714D01*
X7896189Y-13586476D01*
X7991427Y-13586476D02*
X7991427Y-13453143D01*
X7991427Y-13472190D02*
X8000951Y-13462667D01*
X8019999Y-13453143D01*
X8048570Y-13453143D01*
X8067618Y-13462667D01*
X8077141Y-13481714D01*
X8077141Y-13586476D01*
X8077141Y-13481714D02*
X8086665Y-13462667D01*
X8105713Y-13453143D01*
X8134284Y-13453143D01*
X8153332Y-13462667D01*
X8162856Y-13481714D01*
X8162856Y-13586476D01*
X8553332Y-13376952D02*
X8381903Y-13634095D01*
X8810475Y-13386476D02*
X8829523Y-13386476D01*
X8848570Y-13396000D01*
X8858094Y-13405524D01*
X8867618Y-13424571D01*
X8877142Y-13462667D01*
X8877142Y-13510286D01*
X8867618Y-13548381D01*
X8858094Y-13567428D01*
X8848570Y-13576952D01*
X8829523Y-13586476D01*
X8810475Y-13586476D01*
X8791427Y-13576952D01*
X8781903Y-13567428D01*
X8772380Y-13548381D01*
X8762856Y-13510286D01*
X8762856Y-13462667D01*
X8772380Y-13424571D01*
X8781903Y-13405524D01*
X8791427Y-13396000D01*
X8810475Y-13386476D01*
X8962856Y-13567428D02*
X8972380Y-13576952D01*
X8962856Y-13586476D01*
X8953332Y-13576952D01*
X8962856Y-13567428D01*
X8962856Y-13586476D01*
X9096189Y-13386476D02*
X9115237Y-13386476D01*
X9134284Y-13396000D01*
X9143808Y-13405524D01*
X9153332Y-13424571D01*
X9162856Y-13462667D01*
X9162856Y-13510286D01*
X9153332Y-13548381D01*
X9143808Y-13567428D01*
X9134284Y-13576952D01*
X9115237Y-13586476D01*
X9096189Y-13586476D01*
X9077142Y-13576952D01*
X9067618Y-13567428D01*
X9058094Y-13548381D01*
X9048570Y-13510286D01*
X9048570Y-13462667D01*
X9058094Y-13424571D01*
X9067618Y-13405524D01*
X9077142Y-13396000D01*
X9096189Y-13386476D01*
X9353332Y-13586476D02*
X9239046Y-13586476D01*
X9296189Y-13586476D02*
X9296189Y-13386476D01*
X9277142Y-13415048D01*
X9258094Y-13434095D01*
X9239046Y-13443619D01*
X9543808Y-13586476D02*
X9429523Y-13586476D01*
X9486665Y-13586476D02*
X9486665Y-13386476D01*
X9467618Y-13415048D01*
X9448570Y-13434095D01*
X9429523Y-13443619D01*
X9658094Y-13472190D02*
X9639046Y-13462667D01*
X9629523Y-13453143D01*
X9619999Y-13434095D01*
X9619999Y-13424571D01*
X9629523Y-13405524D01*
X9639046Y-13396000D01*
X9658094Y-13386476D01*
X9696189Y-13386476D01*
X9715237Y-13396000D01*
X9724761Y-13405524D01*
X9734284Y-13424571D01*
X9734284Y-13434095D01*
X9724761Y-13453143D01*
X9715237Y-13462667D01*
X9696189Y-13472190D01*
X9658094Y-13472190D01*
X9639046Y-13481714D01*
X9629523Y-13491238D01*
X9619999Y-13510286D01*
X9619999Y-13548381D01*
X9629523Y-13567428D01*
X9639046Y-13576952D01*
X9658094Y-13586476D01*
X9696189Y-13586476D01*
X9715237Y-13576952D01*
X9724761Y-13567428D01*
X9734284Y-13548381D01*
X9734284Y-13510286D01*
X9724761Y-13491238D01*
X9715237Y-13481714D01*
X9696189Y-13472190D01*
X9810475Y-13386476D02*
X9810475Y-13424571D01*
X9886665Y-13386476D02*
X9886665Y-13424571D01*
X10181903Y-13662667D02*
X10172380Y-13653143D01*
X10153332Y-13624571D01*
X10143808Y-13605524D01*
X10134284Y-13576952D01*
X10124761Y-13529333D01*
X10124761Y-13491238D01*
X10134284Y-13443619D01*
X10143808Y-13415048D01*
X10153332Y-13396000D01*
X10172380Y-13367428D01*
X10181903Y-13357905D01*
X10362856Y-13586476D02*
X10248570Y-13586476D01*
X10305713Y-13586476D02*
X10305713Y-13386476D01*
X10286665Y-13415048D01*
X10267618Y-13434095D01*
X10248570Y-13443619D01*
X10477142Y-13472190D02*
X10458094Y-13462667D01*
X10448570Y-13453143D01*
X10439046Y-13434095D01*
X10439046Y-13424571D01*
X10448570Y-13405524D01*
X10458094Y-13396000D01*
X10477142Y-13386476D01*
X10515237Y-13386476D01*
X10534284Y-13396000D01*
X10543808Y-13405524D01*
X10553332Y-13424571D01*
X10553332Y-13434095D01*
X10543808Y-13453143D01*
X10534284Y-13462667D01*
X10515237Y-13472190D01*
X10477142Y-13472190D01*
X10458094Y-13481714D01*
X10448570Y-13491238D01*
X10439046Y-13510286D01*
X10439046Y-13548381D01*
X10448570Y-13567428D01*
X10458094Y-13576952D01*
X10477142Y-13586476D01*
X10515237Y-13586476D01*
X10534284Y-13576952D01*
X10543808Y-13567428D01*
X10553332Y-13548381D01*
X10553332Y-13510286D01*
X10543808Y-13491238D01*
X10534284Y-13481714D01*
X10515237Y-13472190D01*
X10629523Y-13405524D02*
X10639046Y-13396000D01*
X10658094Y-13386476D01*
X10705713Y-13386476D01*
X10724761Y-13396000D01*
X10734284Y-13405524D01*
X10743808Y-13424571D01*
X10743808Y-13443619D01*
X10734284Y-13472190D01*
X10619999Y-13586476D01*
X10743808Y-13586476D01*
X10981903Y-13586476D02*
X10981903Y-13386476D01*
X11067618Y-13586476D02*
X11067618Y-13481714D01*
X11058094Y-13462667D01*
X11039046Y-13453143D01*
X11010475Y-13453143D01*
X10991427Y-13462667D01*
X10981903Y-13472190D01*
X11191427Y-13586476D02*
X11172380Y-13576952D01*
X11162856Y-13567428D01*
X11153332Y-13548381D01*
X11153332Y-13491238D01*
X11162856Y-13472190D01*
X11172380Y-13462667D01*
X11191427Y-13453143D01*
X11219999Y-13453143D01*
X11239046Y-13462667D01*
X11248570Y-13472190D01*
X11258094Y-13491238D01*
X11258094Y-13548381D01*
X11248570Y-13567428D01*
X11239046Y-13576952D01*
X11219999Y-13586476D01*
X11191427Y-13586476D01*
X11372380Y-13586476D02*
X11353332Y-13576952D01*
X11343808Y-13557905D01*
X11343808Y-13386476D01*
X11524761Y-13576952D02*
X11505713Y-13586476D01*
X11467618Y-13586476D01*
X11448570Y-13576952D01*
X11439046Y-13557905D01*
X11439046Y-13481714D01*
X11448570Y-13462667D01*
X11467618Y-13453143D01*
X11505713Y-13453143D01*
X11524761Y-13462667D01*
X11534284Y-13481714D01*
X11534284Y-13500762D01*
X11439046Y-13519809D01*
X11610475Y-13576952D02*
X11629522Y-13586476D01*
X11667618Y-13586476D01*
X11686665Y-13576952D01*
X11696189Y-13557905D01*
X11696189Y-13548381D01*
X11686665Y-13529333D01*
X11667618Y-13519809D01*
X11639046Y-13519809D01*
X11619999Y-13510286D01*
X11610475Y-13491238D01*
X11610475Y-13481714D01*
X11619999Y-13462667D01*
X11639046Y-13453143D01*
X11667618Y-13453143D01*
X11686665Y-13462667D01*
X11762856Y-13662667D02*
X11772380Y-13653143D01*
X11791427Y-13624571D01*
X11800951Y-13605524D01*
X11810475Y-13576952D01*
X11819999Y-13529333D01*
X11819999Y-13491238D01*
X11810475Y-13443619D01*
X11800951Y-13415048D01*
X11791427Y-13396000D01*
X11772380Y-13367428D01*
X11762856Y-13357905D01*
D13*
X6609999Y-13760000D02*
G75*
G03*
X6609999Y-13760000I-20000J0D01*
G01*
D11*
X6905713Y-13650476D02*
X6924761Y-13650476D01*
X6943808Y-13660000D01*
X6953332Y-13669524D01*
X6962856Y-13688571D01*
X6972380Y-13726667D01*
X6972380Y-13774286D01*
X6962856Y-13812381D01*
X6953332Y-13831428D01*
X6943808Y-13840952D01*
X6924761Y-13850476D01*
X6905713Y-13850476D01*
X6886665Y-13840952D01*
X6877141Y-13831428D01*
X6867618Y-13812381D01*
X6858094Y-13774286D01*
X6858094Y-13726667D01*
X6867618Y-13688571D01*
X6877141Y-13669524D01*
X6886665Y-13660000D01*
X6905713Y-13650476D01*
X7058094Y-13831428D02*
X7067618Y-13840952D01*
X7058094Y-13850476D01*
X7048570Y-13840952D01*
X7058094Y-13831428D01*
X7058094Y-13850476D01*
X7239046Y-13717143D02*
X7239046Y-13850476D01*
X7191427Y-13640952D02*
X7143808Y-13783809D01*
X7267618Y-13783809D01*
X7381903Y-13650476D02*
X7400951Y-13650476D01*
X7419999Y-13660000D01*
X7429522Y-13669524D01*
X7439046Y-13688571D01*
X7448570Y-13726667D01*
X7448570Y-13774286D01*
X7439046Y-13812381D01*
X7429522Y-13831428D01*
X7419999Y-13840952D01*
X7400951Y-13850476D01*
X7381903Y-13850476D01*
X7362856Y-13840952D01*
X7353332Y-13831428D01*
X7343808Y-13812381D01*
X7334284Y-13774286D01*
X7334284Y-13726667D01*
X7343808Y-13688571D01*
X7353332Y-13669524D01*
X7362856Y-13660000D01*
X7381903Y-13650476D01*
X7572380Y-13650476D02*
X7591427Y-13650476D01*
X7610475Y-13660000D01*
X7619999Y-13669524D01*
X7629522Y-13688571D01*
X7639046Y-13726667D01*
X7639046Y-13774286D01*
X7629522Y-13812381D01*
X7619999Y-13831428D01*
X7610475Y-13840952D01*
X7591427Y-13850476D01*
X7572380Y-13850476D01*
X7553332Y-13840952D01*
X7543808Y-13831428D01*
X7534284Y-13812381D01*
X7524761Y-13774286D01*
X7524761Y-13726667D01*
X7534284Y-13688571D01*
X7543808Y-13669524D01*
X7553332Y-13660000D01*
X7572380Y-13650476D01*
X7724761Y-13850476D02*
X7724761Y-13717143D01*
X7724761Y-13736190D02*
X7734284Y-13726667D01*
X7753332Y-13717143D01*
X7781903Y-13717143D01*
X7800951Y-13726667D01*
X7810475Y-13745714D01*
X7810475Y-13850476D01*
X7810475Y-13745714D02*
X7819999Y-13726667D01*
X7839046Y-13717143D01*
X7867618Y-13717143D01*
X7886665Y-13726667D01*
X7896189Y-13745714D01*
X7896189Y-13850476D01*
X7991427Y-13850476D02*
X7991427Y-13717143D01*
X7991427Y-13736190D02*
X8000951Y-13726667D01*
X8019999Y-13717143D01*
X8048570Y-13717143D01*
X8067618Y-13726667D01*
X8077141Y-13745714D01*
X8077141Y-13850476D01*
X8077141Y-13745714D02*
X8086665Y-13726667D01*
X8105713Y-13717143D01*
X8134284Y-13717143D01*
X8153332Y-13726667D01*
X8162856Y-13745714D01*
X8162856Y-13850476D01*
X8553332Y-13640952D02*
X8381903Y-13898095D01*
X8810475Y-13650476D02*
X8829523Y-13650476D01*
X8848570Y-13660000D01*
X8858094Y-13669524D01*
X8867618Y-13688571D01*
X8877142Y-13726667D01*
X8877142Y-13774286D01*
X8867618Y-13812381D01*
X8858094Y-13831428D01*
X8848570Y-13840952D01*
X8829523Y-13850476D01*
X8810475Y-13850476D01*
X8791427Y-13840952D01*
X8781903Y-13831428D01*
X8772380Y-13812381D01*
X8762856Y-13774286D01*
X8762856Y-13726667D01*
X8772380Y-13688571D01*
X8781903Y-13669524D01*
X8791427Y-13660000D01*
X8810475Y-13650476D01*
X8962856Y-13831428D02*
X8972380Y-13840952D01*
X8962856Y-13850476D01*
X8953332Y-13840952D01*
X8962856Y-13831428D01*
X8962856Y-13850476D01*
X9096189Y-13650476D02*
X9115237Y-13650476D01*
X9134284Y-13660000D01*
X9143808Y-13669524D01*
X9153332Y-13688571D01*
X9162856Y-13726667D01*
X9162856Y-13774286D01*
X9153332Y-13812381D01*
X9143808Y-13831428D01*
X9134284Y-13840952D01*
X9115237Y-13850476D01*
X9096189Y-13850476D01*
X9077142Y-13840952D01*
X9067618Y-13831428D01*
X9058094Y-13812381D01*
X9048570Y-13774286D01*
X9048570Y-13726667D01*
X9058094Y-13688571D01*
X9067618Y-13669524D01*
X9077142Y-13660000D01*
X9096189Y-13650476D01*
X9353332Y-13850476D02*
X9239046Y-13850476D01*
X9296189Y-13850476D02*
X9296189Y-13650476D01*
X9277142Y-13679048D01*
X9258094Y-13698095D01*
X9239046Y-13707619D01*
X9534284Y-13650476D02*
X9439046Y-13650476D01*
X9429523Y-13745714D01*
X9439046Y-13736190D01*
X9458094Y-13726667D01*
X9505713Y-13726667D01*
X9524761Y-13736190D01*
X9534284Y-13745714D01*
X9543808Y-13764762D01*
X9543808Y-13812381D01*
X9534284Y-13831428D01*
X9524761Y-13840952D01*
X9505713Y-13850476D01*
X9458094Y-13850476D01*
X9439046Y-13840952D01*
X9429523Y-13831428D01*
X9610475Y-13650476D02*
X9743808Y-13650476D01*
X9658094Y-13850476D01*
X9810475Y-13650476D02*
X9810475Y-13688571D01*
X9886665Y-13650476D02*
X9886665Y-13688571D01*
X10181903Y-13926667D02*
X10172380Y-13917143D01*
X10153332Y-13888571D01*
X10143808Y-13869524D01*
X10134284Y-13840952D01*
X10124761Y-13793333D01*
X10124761Y-13755238D01*
X10134284Y-13707619D01*
X10143808Y-13679048D01*
X10153332Y-13660000D01*
X10172380Y-13631428D01*
X10181903Y-13621905D01*
X10239046Y-13650476D02*
X10362856Y-13650476D01*
X10296189Y-13726667D01*
X10324761Y-13726667D01*
X10343808Y-13736190D01*
X10353332Y-13745714D01*
X10362856Y-13764762D01*
X10362856Y-13812381D01*
X10353332Y-13831428D01*
X10343808Y-13840952D01*
X10324761Y-13850476D01*
X10267618Y-13850476D01*
X10248570Y-13840952D01*
X10239046Y-13831428D01*
X10458094Y-13850476D02*
X10496189Y-13850476D01*
X10515237Y-13840952D01*
X10524761Y-13831428D01*
X10543808Y-13802857D01*
X10553332Y-13764762D01*
X10553332Y-13688571D01*
X10543808Y-13669524D01*
X10534284Y-13660000D01*
X10515237Y-13650476D01*
X10477142Y-13650476D01*
X10458094Y-13660000D01*
X10448570Y-13669524D01*
X10439046Y-13688571D01*
X10439046Y-13736190D01*
X10448570Y-13755238D01*
X10458094Y-13764762D01*
X10477142Y-13774286D01*
X10515237Y-13774286D01*
X10534284Y-13764762D01*
X10543808Y-13755238D01*
X10553332Y-13736190D01*
X10667618Y-13736190D02*
X10648570Y-13726667D01*
X10639046Y-13717143D01*
X10629523Y-13698095D01*
X10629523Y-13688571D01*
X10639046Y-13669524D01*
X10648570Y-13660000D01*
X10667618Y-13650476D01*
X10705713Y-13650476D01*
X10724761Y-13660000D01*
X10734284Y-13669524D01*
X10743808Y-13688571D01*
X10743808Y-13698095D01*
X10734284Y-13717143D01*
X10724761Y-13726667D01*
X10705713Y-13736190D01*
X10667618Y-13736190D01*
X10648570Y-13745714D01*
X10639046Y-13755238D01*
X10629523Y-13774286D01*
X10629523Y-13812381D01*
X10639046Y-13831428D01*
X10648570Y-13840952D01*
X10667618Y-13850476D01*
X10705713Y-13850476D01*
X10724761Y-13840952D01*
X10734284Y-13831428D01*
X10743808Y-13812381D01*
X10743808Y-13774286D01*
X10734284Y-13755238D01*
X10724761Y-13745714D01*
X10705713Y-13736190D01*
X10981903Y-13850476D02*
X10981903Y-13650476D01*
X11067618Y-13850476D02*
X11067618Y-13745714D01*
X11058094Y-13726667D01*
X11039046Y-13717143D01*
X11010475Y-13717143D01*
X10991427Y-13726667D01*
X10981903Y-13736190D01*
X11191427Y-13850476D02*
X11172380Y-13840952D01*
X11162856Y-13831428D01*
X11153332Y-13812381D01*
X11153332Y-13755238D01*
X11162856Y-13736190D01*
X11172380Y-13726667D01*
X11191427Y-13717143D01*
X11219999Y-13717143D01*
X11239046Y-13726667D01*
X11248570Y-13736190D01*
X11258094Y-13755238D01*
X11258094Y-13812381D01*
X11248570Y-13831428D01*
X11239046Y-13840952D01*
X11219999Y-13850476D01*
X11191427Y-13850476D01*
X11372380Y-13850476D02*
X11353332Y-13840952D01*
X11343808Y-13821905D01*
X11343808Y-13650476D01*
X11524761Y-13840952D02*
X11505713Y-13850476D01*
X11467618Y-13850476D01*
X11448570Y-13840952D01*
X11439046Y-13821905D01*
X11439046Y-13745714D01*
X11448570Y-13726667D01*
X11467618Y-13717143D01*
X11505713Y-13717143D01*
X11524761Y-13726667D01*
X11534284Y-13745714D01*
X11534284Y-13764762D01*
X11439046Y-13783809D01*
X11610475Y-13840952D02*
X11629522Y-13850476D01*
X11667618Y-13850476D01*
X11686665Y-13840952D01*
X11696189Y-13821905D01*
X11696189Y-13812381D01*
X11686665Y-13793333D01*
X11667618Y-13783809D01*
X11639046Y-13783809D01*
X11619999Y-13774286D01*
X11610475Y-13755238D01*
X11610475Y-13745714D01*
X11619999Y-13726667D01*
X11639046Y-13717143D01*
X11667618Y-13717143D01*
X11686665Y-13726667D01*
X11762856Y-13926667D02*
X11772380Y-13917143D01*
X11791427Y-13888571D01*
X11800951Y-13869524D01*
X11810475Y-13840952D01*
X11819999Y-13793333D01*
X11819999Y-13755238D01*
X11810475Y-13707619D01*
X11800951Y-13679048D01*
X11791427Y-13660000D01*
X11772380Y-13631428D01*
X11762856Y-13621905D01*
D13*
X6589999Y-14004000D02*
X6589999Y-14044000D01*
X6569999Y-14024000D02*
X6609999Y-14024000D01*
D11*
X6905713Y-13914476D02*
X6924761Y-13914476D01*
X6943808Y-13924000D01*
X6953332Y-13933524D01*
X6962856Y-13952571D01*
X6972380Y-13990667D01*
X6972380Y-14038286D01*
X6962856Y-14076381D01*
X6953332Y-14095428D01*
X6943808Y-14104952D01*
X6924761Y-14114476D01*
X6905713Y-14114476D01*
X6886665Y-14104952D01*
X6877141Y-14095428D01*
X6867618Y-14076381D01*
X6858094Y-14038286D01*
X6858094Y-13990667D01*
X6867618Y-13952571D01*
X6877141Y-13933524D01*
X6886665Y-13924000D01*
X6905713Y-13914476D01*
X7058094Y-14095428D02*
X7067618Y-14104952D01*
X7058094Y-14114476D01*
X7048570Y-14104952D01*
X7058094Y-14095428D01*
X7058094Y-14114476D01*
X7239046Y-13981143D02*
X7239046Y-14114476D01*
X7191427Y-13904952D02*
X7143808Y-14047809D01*
X7267618Y-14047809D01*
X7381903Y-13914476D02*
X7400951Y-13914476D01*
X7419999Y-13924000D01*
X7429522Y-13933524D01*
X7439046Y-13952571D01*
X7448570Y-13990667D01*
X7448570Y-14038286D01*
X7439046Y-14076381D01*
X7429522Y-14095428D01*
X7419999Y-14104952D01*
X7400951Y-14114476D01*
X7381903Y-14114476D01*
X7362856Y-14104952D01*
X7353332Y-14095428D01*
X7343808Y-14076381D01*
X7334284Y-14038286D01*
X7334284Y-13990667D01*
X7343808Y-13952571D01*
X7353332Y-13933524D01*
X7362856Y-13924000D01*
X7381903Y-13914476D01*
X7572380Y-13914476D02*
X7591427Y-13914476D01*
X7610475Y-13924000D01*
X7619999Y-13933524D01*
X7629522Y-13952571D01*
X7639046Y-13990667D01*
X7639046Y-14038286D01*
X7629522Y-14076381D01*
X7619999Y-14095428D01*
X7610475Y-14104952D01*
X7591427Y-14114476D01*
X7572380Y-14114476D01*
X7553332Y-14104952D01*
X7543808Y-14095428D01*
X7534284Y-14076381D01*
X7524761Y-14038286D01*
X7524761Y-13990667D01*
X7534284Y-13952571D01*
X7543808Y-13933524D01*
X7553332Y-13924000D01*
X7572380Y-13914476D01*
X7724761Y-14114476D02*
X7724761Y-13981143D01*
X7724761Y-14000190D02*
X7734284Y-13990667D01*
X7753332Y-13981143D01*
X7781903Y-13981143D01*
X7800951Y-13990667D01*
X7810475Y-14009714D01*
X7810475Y-14114476D01*
X7810475Y-14009714D02*
X7819999Y-13990667D01*
X7839046Y-13981143D01*
X7867618Y-13981143D01*
X7886665Y-13990667D01*
X7896189Y-14009714D01*
X7896189Y-14114476D01*
X7991427Y-14114476D02*
X7991427Y-13981143D01*
X7991427Y-14000190D02*
X8000951Y-13990667D01*
X8019999Y-13981143D01*
X8048570Y-13981143D01*
X8067618Y-13990667D01*
X8077141Y-14009714D01*
X8077141Y-14114476D01*
X8077141Y-14009714D02*
X8086665Y-13990667D01*
X8105713Y-13981143D01*
X8134284Y-13981143D01*
X8153332Y-13990667D01*
X8162856Y-14009714D01*
X8162856Y-14114476D01*
X8553332Y-13904952D02*
X8381903Y-14162095D01*
X8810475Y-13914476D02*
X8829523Y-13914476D01*
X8848570Y-13924000D01*
X8858094Y-13933524D01*
X8867618Y-13952571D01*
X8877142Y-13990667D01*
X8877142Y-14038286D01*
X8867618Y-14076381D01*
X8858094Y-14095428D01*
X8848570Y-14104952D01*
X8829523Y-14114476D01*
X8810475Y-14114476D01*
X8791427Y-14104952D01*
X8781903Y-14095428D01*
X8772380Y-14076381D01*
X8762856Y-14038286D01*
X8762856Y-13990667D01*
X8772380Y-13952571D01*
X8781903Y-13933524D01*
X8791427Y-13924000D01*
X8810475Y-13914476D01*
X8962856Y-14095428D02*
X8972380Y-14104952D01*
X8962856Y-14114476D01*
X8953332Y-14104952D01*
X8962856Y-14095428D01*
X8962856Y-14114476D01*
X9096189Y-13914476D02*
X9115237Y-13914476D01*
X9134284Y-13924000D01*
X9143808Y-13933524D01*
X9153332Y-13952571D01*
X9162856Y-13990667D01*
X9162856Y-14038286D01*
X9153332Y-14076381D01*
X9143808Y-14095428D01*
X9134284Y-14104952D01*
X9115237Y-14114476D01*
X9096189Y-14114476D01*
X9077142Y-14104952D01*
X9067618Y-14095428D01*
X9058094Y-14076381D01*
X9048570Y-14038286D01*
X9048570Y-13990667D01*
X9058094Y-13952571D01*
X9067618Y-13933524D01*
X9077142Y-13924000D01*
X9096189Y-13914476D01*
X9353332Y-14114476D02*
X9239046Y-14114476D01*
X9296189Y-14114476D02*
X9296189Y-13914476D01*
X9277142Y-13943048D01*
X9258094Y-13962095D01*
X9239046Y-13971619D01*
X9534284Y-13914476D02*
X9439046Y-13914476D01*
X9429523Y-14009714D01*
X9439046Y-14000190D01*
X9458094Y-13990667D01*
X9505713Y-13990667D01*
X9524761Y-14000190D01*
X9534284Y-14009714D01*
X9543808Y-14028762D01*
X9543808Y-14076381D01*
X9534284Y-14095428D01*
X9524761Y-14104952D01*
X9505713Y-14114476D01*
X9458094Y-14114476D01*
X9439046Y-14104952D01*
X9429523Y-14095428D01*
X9610475Y-13914476D02*
X9743808Y-13914476D01*
X9658094Y-14114476D01*
X9810475Y-13914476D02*
X9810475Y-13952571D01*
X9886665Y-13914476D02*
X9886665Y-13952571D01*
X10181903Y-14190667D02*
X10172380Y-14181143D01*
X10153332Y-14152571D01*
X10143808Y-14133524D01*
X10134284Y-14104952D01*
X10124761Y-14057333D01*
X10124761Y-14019238D01*
X10134284Y-13971619D01*
X10143808Y-13943048D01*
X10153332Y-13924000D01*
X10172380Y-13895428D01*
X10181903Y-13885905D01*
X10296189Y-13914476D02*
X10315237Y-13914476D01*
X10334284Y-13924000D01*
X10343808Y-13933524D01*
X10353332Y-13952571D01*
X10362856Y-13990667D01*
X10362856Y-14038286D01*
X10353332Y-14076381D01*
X10343808Y-14095428D01*
X10334284Y-14104952D01*
X10315237Y-14114476D01*
X10296189Y-14114476D01*
X10277142Y-14104952D01*
X10267618Y-14095428D01*
X10258094Y-14076381D01*
X10248570Y-14038286D01*
X10248570Y-13990667D01*
X10258094Y-13952571D01*
X10267618Y-13933524D01*
X10277142Y-13924000D01*
X10296189Y-13914476D01*
X10600951Y-14114476D02*
X10600951Y-13914476D01*
X10686665Y-14114476D02*
X10686665Y-14009714D01*
X10677142Y-13990667D01*
X10658094Y-13981143D01*
X10629523Y-13981143D01*
X10610475Y-13990667D01*
X10600951Y-14000190D01*
X10810475Y-14114476D02*
X10791427Y-14104952D01*
X10781903Y-14095428D01*
X10772380Y-14076381D01*
X10772380Y-14019238D01*
X10781903Y-14000190D01*
X10791427Y-13990667D01*
X10810475Y-13981143D01*
X10839046Y-13981143D01*
X10858094Y-13990667D01*
X10867618Y-14000190D01*
X10877142Y-14019238D01*
X10877142Y-14076381D01*
X10867618Y-14095428D01*
X10858094Y-14104952D01*
X10839046Y-14114476D01*
X10810475Y-14114476D01*
X10991427Y-14114476D02*
X10972380Y-14104952D01*
X10962856Y-14085905D01*
X10962856Y-13914476D01*
X11143808Y-14104952D02*
X11124761Y-14114476D01*
X11086665Y-14114476D01*
X11067618Y-14104952D01*
X11058094Y-14085905D01*
X11058094Y-14009714D01*
X11067618Y-13990667D01*
X11086665Y-13981143D01*
X11124761Y-13981143D01*
X11143808Y-13990667D01*
X11153332Y-14009714D01*
X11153332Y-14028762D01*
X11058094Y-14047809D01*
X11229522Y-14104952D02*
X11248570Y-14114476D01*
X11286665Y-14114476D01*
X11305713Y-14104952D01*
X11315237Y-14085905D01*
X11315237Y-14076381D01*
X11305713Y-14057333D01*
X11286665Y-14047809D01*
X11258094Y-14047809D01*
X11239046Y-14038286D01*
X11229522Y-14019238D01*
X11229522Y-14009714D01*
X11239046Y-13990667D01*
X11258094Y-13981143D01*
X11286665Y-13981143D01*
X11305713Y-13990667D01*
X11553332Y-14038286D02*
X11705713Y-14038286D01*
X11629522Y-14114476D02*
X11629522Y-13962095D01*
X12048570Y-13914476D02*
X11953332Y-13914476D01*
X11943808Y-14009714D01*
X11953332Y-14000190D01*
X11972380Y-13990667D01*
X12019999Y-13990667D01*
X12039046Y-14000190D01*
X12048570Y-14009714D01*
X12058094Y-14028762D01*
X12058094Y-14076381D01*
X12048570Y-14095428D01*
X12039046Y-14104952D01*
X12019999Y-14114476D01*
X11972380Y-14114476D01*
X11953332Y-14104952D01*
X11943808Y-14095428D01*
X12286665Y-14104952D02*
X12305713Y-14114476D01*
X12343808Y-14114476D01*
X12362856Y-14104952D01*
X12372380Y-14085905D01*
X12372380Y-14076381D01*
X12362856Y-14057333D01*
X12343808Y-14047809D01*
X12315237Y-14047809D01*
X12296189Y-14038286D01*
X12286665Y-14019238D01*
X12286665Y-14009714D01*
X12296189Y-13990667D01*
X12315237Y-13981143D01*
X12343808Y-13981143D01*
X12362856Y-13990667D01*
X12486665Y-14114476D02*
X12467618Y-14104952D01*
X12458094Y-14085905D01*
X12458094Y-13914476D01*
X12591427Y-14114476D02*
X12572380Y-14104952D01*
X12562856Y-14095428D01*
X12553332Y-14076381D01*
X12553332Y-14019238D01*
X12562856Y-14000190D01*
X12572380Y-13990667D01*
X12591427Y-13981143D01*
X12619999Y-13981143D01*
X12639046Y-13990667D01*
X12648570Y-14000190D01*
X12658094Y-14019238D01*
X12658094Y-14076381D01*
X12648570Y-14095428D01*
X12639046Y-14104952D01*
X12619999Y-14114476D01*
X12591427Y-14114476D01*
X12715237Y-13981143D02*
X12791427Y-13981143D01*
X12743808Y-13914476D02*
X12743808Y-14085905D01*
X12753332Y-14104952D01*
X12772380Y-14114476D01*
X12791427Y-14114476D01*
X12848570Y-14104952D02*
X12867618Y-14114476D01*
X12905713Y-14114476D01*
X12924761Y-14104952D01*
X12934284Y-14085905D01*
X12934284Y-14076381D01*
X12924761Y-14057333D01*
X12905713Y-14047809D01*
X12877141Y-14047809D01*
X12858094Y-14038286D01*
X12848570Y-14019238D01*
X12848570Y-14009714D01*
X12858094Y-13990667D01*
X12877141Y-13981143D01*
X12905713Y-13981143D01*
X12924761Y-13990667D01*
X13000951Y-14190667D02*
X13010475Y-14181143D01*
X13029522Y-14152571D01*
X13039046Y-14133524D01*
X13048570Y-14104952D01*
X13058094Y-14057333D01*
X13058094Y-14019238D01*
X13048570Y-13971619D01*
X13039046Y-13943048D01*
X13029522Y-13924000D01*
X13010475Y-13895428D01*
X13000951Y-13885905D01*
D14*
X6602676Y-14305678D02*
X6602676Y-14270322D01*
X6567321Y-14270322D01*
X6567321Y-14305678D01*
X6602676Y-14305678D01*
D11*
X6905713Y-14178476D02*
X6924761Y-14178476D01*
X6943808Y-14188000D01*
X6953332Y-14197524D01*
X6962856Y-14216571D01*
X6972380Y-14254667D01*
X6972380Y-14302286D01*
X6962856Y-14340381D01*
X6953332Y-14359428D01*
X6943808Y-14368952D01*
X6924761Y-14378476D01*
X6905713Y-14378476D01*
X6886665Y-14368952D01*
X6877141Y-14359428D01*
X6867618Y-14340381D01*
X6858094Y-14302286D01*
X6858094Y-14254667D01*
X6867618Y-14216571D01*
X6877141Y-14197524D01*
X6886665Y-14188000D01*
X6905713Y-14178476D01*
X7058094Y-14359428D02*
X7067618Y-14368952D01*
X7058094Y-14378476D01*
X7048570Y-14368952D01*
X7058094Y-14359428D01*
X7058094Y-14378476D01*
X7248570Y-14178476D02*
X7153332Y-14178476D01*
X7143808Y-14273714D01*
X7153332Y-14264190D01*
X7172380Y-14254667D01*
X7219999Y-14254667D01*
X7239046Y-14264190D01*
X7248570Y-14273714D01*
X7258094Y-14292762D01*
X7258094Y-14340381D01*
X7248570Y-14359428D01*
X7239046Y-14368952D01*
X7219999Y-14378476D01*
X7172380Y-14378476D01*
X7153332Y-14368952D01*
X7143808Y-14359428D01*
X7381903Y-14178476D02*
X7400951Y-14178476D01*
X7419999Y-14188000D01*
X7429522Y-14197524D01*
X7439046Y-14216571D01*
X7448570Y-14254667D01*
X7448570Y-14302286D01*
X7439046Y-14340381D01*
X7429522Y-14359428D01*
X7419999Y-14368952D01*
X7400951Y-14378476D01*
X7381903Y-14378476D01*
X7362856Y-14368952D01*
X7353332Y-14359428D01*
X7343808Y-14340381D01*
X7334284Y-14302286D01*
X7334284Y-14254667D01*
X7343808Y-14216571D01*
X7353332Y-14197524D01*
X7362856Y-14188000D01*
X7381903Y-14178476D01*
X7572380Y-14178476D02*
X7591427Y-14178476D01*
X7610475Y-14188000D01*
X7619999Y-14197524D01*
X7629522Y-14216571D01*
X7639046Y-14254667D01*
X7639046Y-14302286D01*
X7629522Y-14340381D01*
X7619999Y-14359428D01*
X7610475Y-14368952D01*
X7591427Y-14378476D01*
X7572380Y-14378476D01*
X7553332Y-14368952D01*
X7543808Y-14359428D01*
X7534284Y-14340381D01*
X7524761Y-14302286D01*
X7524761Y-14254667D01*
X7534284Y-14216571D01*
X7543808Y-14197524D01*
X7553332Y-14188000D01*
X7572380Y-14178476D01*
X7724761Y-14378476D02*
X7724761Y-14245143D01*
X7724761Y-14264190D02*
X7734284Y-14254667D01*
X7753332Y-14245143D01*
X7781903Y-14245143D01*
X7800951Y-14254667D01*
X7810475Y-14273714D01*
X7810475Y-14378476D01*
X7810475Y-14273714D02*
X7819999Y-14254667D01*
X7839046Y-14245143D01*
X7867618Y-14245143D01*
X7886665Y-14254667D01*
X7896189Y-14273714D01*
X7896189Y-14378476D01*
X7991427Y-14378476D02*
X7991427Y-14245143D01*
X7991427Y-14264190D02*
X8000951Y-14254667D01*
X8019999Y-14245143D01*
X8048570Y-14245143D01*
X8067618Y-14254667D01*
X8077141Y-14273714D01*
X8077141Y-14378476D01*
X8077141Y-14273714D02*
X8086665Y-14254667D01*
X8105713Y-14245143D01*
X8134284Y-14245143D01*
X8153332Y-14254667D01*
X8162856Y-14273714D01*
X8162856Y-14378476D01*
X8553332Y-14168952D02*
X8381903Y-14426095D01*
X8810475Y-14178476D02*
X8829523Y-14178476D01*
X8848570Y-14188000D01*
X8858094Y-14197524D01*
X8867618Y-14216571D01*
X8877142Y-14254667D01*
X8877142Y-14302286D01*
X8867618Y-14340381D01*
X8858094Y-14359428D01*
X8848570Y-14368952D01*
X8829523Y-14378476D01*
X8810475Y-14378476D01*
X8791427Y-14368952D01*
X8781903Y-14359428D01*
X8772380Y-14340381D01*
X8762856Y-14302286D01*
X8762856Y-14254667D01*
X8772380Y-14216571D01*
X8781903Y-14197524D01*
X8791427Y-14188000D01*
X8810475Y-14178476D01*
X8962856Y-14359428D02*
X8972380Y-14368952D01*
X8962856Y-14378476D01*
X8953332Y-14368952D01*
X8962856Y-14359428D01*
X8962856Y-14378476D01*
X9096189Y-14178476D02*
X9115237Y-14178476D01*
X9134284Y-14188000D01*
X9143808Y-14197524D01*
X9153332Y-14216571D01*
X9162856Y-14254667D01*
X9162856Y-14302286D01*
X9153332Y-14340381D01*
X9143808Y-14359428D01*
X9134284Y-14368952D01*
X9115237Y-14378476D01*
X9096189Y-14378476D01*
X9077142Y-14368952D01*
X9067618Y-14359428D01*
X9058094Y-14340381D01*
X9048570Y-14302286D01*
X9048570Y-14254667D01*
X9058094Y-14216571D01*
X9067618Y-14197524D01*
X9077142Y-14188000D01*
X9096189Y-14178476D01*
X9353332Y-14378476D02*
X9239046Y-14378476D01*
X9296189Y-14378476D02*
X9296189Y-14178476D01*
X9277142Y-14207048D01*
X9258094Y-14226095D01*
X9239046Y-14235619D01*
X9448570Y-14378476D02*
X9486665Y-14378476D01*
X9505713Y-14368952D01*
X9515237Y-14359428D01*
X9534284Y-14330857D01*
X9543808Y-14292762D01*
X9543808Y-14216571D01*
X9534284Y-14197524D01*
X9524761Y-14188000D01*
X9505713Y-14178476D01*
X9467618Y-14178476D01*
X9448570Y-14188000D01*
X9439046Y-14197524D01*
X9429523Y-14216571D01*
X9429523Y-14264190D01*
X9439046Y-14283238D01*
X9448570Y-14292762D01*
X9467618Y-14302286D01*
X9505713Y-14302286D01*
X9524761Y-14292762D01*
X9534284Y-14283238D01*
X9543808Y-14264190D01*
X9610475Y-14178476D02*
X9743808Y-14178476D01*
X9658094Y-14378476D01*
X9810475Y-14178476D02*
X9810475Y-14216571D01*
X9886665Y-14178476D02*
X9886665Y-14216571D01*
X10181903Y-14454667D02*
X10172380Y-14445143D01*
X10153332Y-14416571D01*
X10143808Y-14397524D01*
X10134284Y-14368952D01*
X10124761Y-14321333D01*
X10124761Y-14283238D01*
X10134284Y-14235619D01*
X10143808Y-14207048D01*
X10153332Y-14188000D01*
X10172380Y-14159428D01*
X10181903Y-14149905D01*
X10296189Y-14178476D02*
X10315237Y-14178476D01*
X10334284Y-14188000D01*
X10343808Y-14197524D01*
X10353332Y-14216571D01*
X10362856Y-14254667D01*
X10362856Y-14302286D01*
X10353332Y-14340381D01*
X10343808Y-14359428D01*
X10334284Y-14368952D01*
X10315237Y-14378476D01*
X10296189Y-14378476D01*
X10277142Y-14368952D01*
X10267618Y-14359428D01*
X10258094Y-14340381D01*
X10248570Y-14302286D01*
X10248570Y-14254667D01*
X10258094Y-14216571D01*
X10267618Y-14197524D01*
X10277142Y-14188000D01*
X10296189Y-14178476D01*
X10600951Y-14378476D02*
X10600951Y-14178476D01*
X10686665Y-14378476D02*
X10686665Y-14273714D01*
X10677142Y-14254667D01*
X10658094Y-14245143D01*
X10629523Y-14245143D01*
X10610475Y-14254667D01*
X10600951Y-14264190D01*
X10810475Y-14378476D02*
X10791427Y-14368952D01*
X10781903Y-14359428D01*
X10772380Y-14340381D01*
X10772380Y-14283238D01*
X10781903Y-14264190D01*
X10791427Y-14254667D01*
X10810475Y-14245143D01*
X10839046Y-14245143D01*
X10858094Y-14254667D01*
X10867618Y-14264190D01*
X10877142Y-14283238D01*
X10877142Y-14340381D01*
X10867618Y-14359428D01*
X10858094Y-14368952D01*
X10839046Y-14378476D01*
X10810475Y-14378476D01*
X10991427Y-14378476D02*
X10972380Y-14368952D01*
X10962856Y-14349905D01*
X10962856Y-14178476D01*
X11143808Y-14368952D02*
X11124761Y-14378476D01*
X11086665Y-14378476D01*
X11067618Y-14368952D01*
X11058094Y-14349905D01*
X11058094Y-14273714D01*
X11067618Y-14254667D01*
X11086665Y-14245143D01*
X11124761Y-14245143D01*
X11143808Y-14254667D01*
X11153332Y-14273714D01*
X11153332Y-14292762D01*
X11058094Y-14311809D01*
X11229522Y-14368952D02*
X11248570Y-14378476D01*
X11286665Y-14378476D01*
X11305713Y-14368952D01*
X11315237Y-14349905D01*
X11315237Y-14340381D01*
X11305713Y-14321333D01*
X11286665Y-14311809D01*
X11258094Y-14311809D01*
X11239046Y-14302286D01*
X11229522Y-14283238D01*
X11229522Y-14273714D01*
X11239046Y-14254667D01*
X11258094Y-14245143D01*
X11286665Y-14245143D01*
X11305713Y-14254667D01*
X11553332Y-14302286D02*
X11705713Y-14302286D01*
X11629522Y-14378476D02*
X11629522Y-14226095D01*
X11943808Y-14197524D02*
X11953332Y-14188000D01*
X11972380Y-14178476D01*
X12019999Y-14178476D01*
X12039046Y-14188000D01*
X12048570Y-14197524D01*
X12058094Y-14216571D01*
X12058094Y-14235619D01*
X12048570Y-14264190D01*
X11934284Y-14378476D01*
X12058094Y-14378476D01*
X12286665Y-14368952D02*
X12305713Y-14378476D01*
X12343808Y-14378476D01*
X12362856Y-14368952D01*
X12372380Y-14349905D01*
X12372380Y-14340381D01*
X12362856Y-14321333D01*
X12343808Y-14311809D01*
X12315237Y-14311809D01*
X12296189Y-14302286D01*
X12286665Y-14283238D01*
X12286665Y-14273714D01*
X12296189Y-14254667D01*
X12315237Y-14245143D01*
X12343808Y-14245143D01*
X12362856Y-14254667D01*
X12486665Y-14378476D02*
X12467618Y-14368952D01*
X12458094Y-14349905D01*
X12458094Y-14178476D01*
X12591427Y-14378476D02*
X12572380Y-14368952D01*
X12562856Y-14359428D01*
X12553332Y-14340381D01*
X12553332Y-14283238D01*
X12562856Y-14264190D01*
X12572380Y-14254667D01*
X12591427Y-14245143D01*
X12619999Y-14245143D01*
X12639046Y-14254667D01*
X12648570Y-14264190D01*
X12658094Y-14283238D01*
X12658094Y-14340381D01*
X12648570Y-14359428D01*
X12639046Y-14368952D01*
X12619999Y-14378476D01*
X12591427Y-14378476D01*
X12715237Y-14245143D02*
X12791427Y-14245143D01*
X12743808Y-14178476D02*
X12743808Y-14349905D01*
X12753332Y-14368952D01*
X12772380Y-14378476D01*
X12791427Y-14378476D01*
X12848570Y-14368952D02*
X12867618Y-14378476D01*
X12905713Y-14378476D01*
X12924761Y-14368952D01*
X12934284Y-14349905D01*
X12934284Y-14340381D01*
X12924761Y-14321333D01*
X12905713Y-14311809D01*
X12877141Y-14311809D01*
X12858094Y-14302286D01*
X12848570Y-14283238D01*
X12848570Y-14273714D01*
X12858094Y-14254667D01*
X12877141Y-14245143D01*
X12905713Y-14245143D01*
X12924761Y-14254667D01*
X13000951Y-14454667D02*
X13010475Y-14445143D01*
X13029522Y-14416571D01*
X13039046Y-14397524D01*
X13048570Y-14368952D01*
X13058094Y-14321333D01*
X13058094Y-14283238D01*
X13048570Y-14235619D01*
X13039046Y-14207048D01*
X13029522Y-14188000D01*
X13010475Y-14159428D01*
X13000951Y-14149905D01*
D15*
X6579999Y-14582000D02*
X6609999Y-14552000D01*
X6579999Y-14522000D01*
X6549999Y-14552000D01*
X6579999Y-14582000D01*
D11*
X6905713Y-14442476D02*
X6924761Y-14442476D01*
X6943808Y-14452000D01*
X6953332Y-14461524D01*
X6962856Y-14480571D01*
X6972380Y-14518667D01*
X6972380Y-14566286D01*
X6962856Y-14604381D01*
X6953332Y-14623428D01*
X6943808Y-14632952D01*
X6924761Y-14642476D01*
X6905713Y-14642476D01*
X6886665Y-14632952D01*
X6877141Y-14623428D01*
X6867618Y-14604381D01*
X6858094Y-14566286D01*
X6858094Y-14518667D01*
X6867618Y-14480571D01*
X6877141Y-14461524D01*
X6886665Y-14452000D01*
X6905713Y-14442476D01*
X7058094Y-14623428D02*
X7067618Y-14632952D01*
X7058094Y-14642476D01*
X7048570Y-14632952D01*
X7058094Y-14623428D01*
X7058094Y-14642476D01*
X7239046Y-14442476D02*
X7200951Y-14442476D01*
X7181903Y-14452000D01*
X7172380Y-14461524D01*
X7153332Y-14490095D01*
X7143808Y-14528190D01*
X7143808Y-14604381D01*
X7153332Y-14623428D01*
X7162856Y-14632952D01*
X7181903Y-14642476D01*
X7219999Y-14642476D01*
X7239046Y-14632952D01*
X7248570Y-14623428D01*
X7258094Y-14604381D01*
X7258094Y-14556762D01*
X7248570Y-14537714D01*
X7239046Y-14528190D01*
X7219999Y-14518667D01*
X7181903Y-14518667D01*
X7162856Y-14528190D01*
X7153332Y-14537714D01*
X7143808Y-14556762D01*
X7381903Y-14442476D02*
X7400951Y-14442476D01*
X7419999Y-14452000D01*
X7429522Y-14461524D01*
X7439046Y-14480571D01*
X7448570Y-14518667D01*
X7448570Y-14566286D01*
X7439046Y-14604381D01*
X7429522Y-14623428D01*
X7419999Y-14632952D01*
X7400951Y-14642476D01*
X7381903Y-14642476D01*
X7362856Y-14632952D01*
X7353332Y-14623428D01*
X7343808Y-14604381D01*
X7334284Y-14566286D01*
X7334284Y-14518667D01*
X7343808Y-14480571D01*
X7353332Y-14461524D01*
X7362856Y-14452000D01*
X7381903Y-14442476D01*
X7572380Y-14442476D02*
X7591427Y-14442476D01*
X7610475Y-14452000D01*
X7619999Y-14461524D01*
X7629522Y-14480571D01*
X7639046Y-14518667D01*
X7639046Y-14566286D01*
X7629522Y-14604381D01*
X7619999Y-14623428D01*
X7610475Y-14632952D01*
X7591427Y-14642476D01*
X7572380Y-14642476D01*
X7553332Y-14632952D01*
X7543808Y-14623428D01*
X7534284Y-14604381D01*
X7524761Y-14566286D01*
X7524761Y-14518667D01*
X7534284Y-14480571D01*
X7543808Y-14461524D01*
X7553332Y-14452000D01*
X7572380Y-14442476D01*
X7724761Y-14642476D02*
X7724761Y-14509143D01*
X7724761Y-14528190D02*
X7734284Y-14518667D01*
X7753332Y-14509143D01*
X7781903Y-14509143D01*
X7800951Y-14518667D01*
X7810475Y-14537714D01*
X7810475Y-14642476D01*
X7810475Y-14537714D02*
X7819999Y-14518667D01*
X7839046Y-14509143D01*
X7867618Y-14509143D01*
X7886665Y-14518667D01*
X7896189Y-14537714D01*
X7896189Y-14642476D01*
X7991427Y-14642476D02*
X7991427Y-14509143D01*
X7991427Y-14528190D02*
X8000951Y-14518667D01*
X8019999Y-14509143D01*
X8048570Y-14509143D01*
X8067618Y-14518667D01*
X8077141Y-14537714D01*
X8077141Y-14642476D01*
X8077141Y-14537714D02*
X8086665Y-14518667D01*
X8105713Y-14509143D01*
X8134284Y-14509143D01*
X8153332Y-14518667D01*
X8162856Y-14537714D01*
X8162856Y-14642476D01*
X8553332Y-14432952D02*
X8381903Y-14690095D01*
X8810475Y-14442476D02*
X8829523Y-14442476D01*
X8848570Y-14452000D01*
X8858094Y-14461524D01*
X8867618Y-14480571D01*
X8877142Y-14518667D01*
X8877142Y-14566286D01*
X8867618Y-14604381D01*
X8858094Y-14623428D01*
X8848570Y-14632952D01*
X8829523Y-14642476D01*
X8810475Y-14642476D01*
X8791427Y-14632952D01*
X8781903Y-14623428D01*
X8772380Y-14604381D01*
X8762856Y-14566286D01*
X8762856Y-14518667D01*
X8772380Y-14480571D01*
X8781903Y-14461524D01*
X8791427Y-14452000D01*
X8810475Y-14442476D01*
X8962856Y-14623428D02*
X8972380Y-14632952D01*
X8962856Y-14642476D01*
X8953332Y-14632952D01*
X8962856Y-14623428D01*
X8962856Y-14642476D01*
X9096189Y-14442476D02*
X9115237Y-14442476D01*
X9134284Y-14452000D01*
X9143808Y-14461524D01*
X9153332Y-14480571D01*
X9162856Y-14518667D01*
X9162856Y-14566286D01*
X9153332Y-14604381D01*
X9143808Y-14623428D01*
X9134284Y-14632952D01*
X9115237Y-14642476D01*
X9096189Y-14642476D01*
X9077142Y-14632952D01*
X9067618Y-14623428D01*
X9058094Y-14604381D01*
X9048570Y-14566286D01*
X9048570Y-14518667D01*
X9058094Y-14480571D01*
X9067618Y-14461524D01*
X9077142Y-14452000D01*
X9096189Y-14442476D01*
X9239046Y-14461524D02*
X9248570Y-14452000D01*
X9267618Y-14442476D01*
X9315237Y-14442476D01*
X9334284Y-14452000D01*
X9343808Y-14461524D01*
X9353332Y-14480571D01*
X9353332Y-14499619D01*
X9343808Y-14528190D01*
X9229523Y-14642476D01*
X9353332Y-14642476D01*
X9419999Y-14442476D02*
X9543808Y-14442476D01*
X9477142Y-14518667D01*
X9505713Y-14518667D01*
X9524761Y-14528190D01*
X9534284Y-14537714D01*
X9543808Y-14556762D01*
X9543808Y-14604381D01*
X9534284Y-14623428D01*
X9524761Y-14632952D01*
X9505713Y-14642476D01*
X9448570Y-14642476D01*
X9429523Y-14632952D01*
X9419999Y-14623428D01*
X9715237Y-14442476D02*
X9677142Y-14442476D01*
X9658094Y-14452000D01*
X9648570Y-14461524D01*
X9629523Y-14490095D01*
X9619999Y-14528190D01*
X9619999Y-14604381D01*
X9629523Y-14623428D01*
X9639046Y-14632952D01*
X9658094Y-14642476D01*
X9696189Y-14642476D01*
X9715237Y-14632952D01*
X9724761Y-14623428D01*
X9734284Y-14604381D01*
X9734284Y-14556762D01*
X9724761Y-14537714D01*
X9715237Y-14528190D01*
X9696189Y-14518667D01*
X9658094Y-14518667D01*
X9639046Y-14528190D01*
X9629523Y-14537714D01*
X9619999Y-14556762D01*
X9810475Y-14442476D02*
X9810475Y-14480571D01*
X9886665Y-14442476D02*
X9886665Y-14480571D01*
X10181903Y-14718667D02*
X10172380Y-14709143D01*
X10153332Y-14680571D01*
X10143808Y-14661524D01*
X10134284Y-14632952D01*
X10124761Y-14585333D01*
X10124761Y-14547238D01*
X10134284Y-14499619D01*
X10143808Y-14471048D01*
X10153332Y-14452000D01*
X10172380Y-14423428D01*
X10181903Y-14413905D01*
X10343808Y-14509143D02*
X10343808Y-14642476D01*
X10296189Y-14432952D02*
X10248570Y-14575809D01*
X10372380Y-14575809D01*
X10429523Y-14442476D02*
X10562856Y-14442476D01*
X10477142Y-14642476D01*
X10791427Y-14642476D02*
X10791427Y-14442476D01*
X10877142Y-14642476D02*
X10877142Y-14537714D01*
X10867618Y-14518667D01*
X10848570Y-14509143D01*
X10819999Y-14509143D01*
X10800951Y-14518667D01*
X10791427Y-14528190D01*
X11000951Y-14642476D02*
X10981903Y-14632952D01*
X10972380Y-14623428D01*
X10962856Y-14604381D01*
X10962856Y-14547238D01*
X10972380Y-14528190D01*
X10981903Y-14518667D01*
X11000951Y-14509143D01*
X11029523Y-14509143D01*
X11048570Y-14518667D01*
X11058094Y-14528190D01*
X11067618Y-14547238D01*
X11067618Y-14604381D01*
X11058094Y-14623428D01*
X11048570Y-14632952D01*
X11029523Y-14642476D01*
X11000951Y-14642476D01*
X11181903Y-14642476D02*
X11162856Y-14632952D01*
X11153332Y-14613905D01*
X11153332Y-14442476D01*
X11334284Y-14632952D02*
X11315237Y-14642476D01*
X11277141Y-14642476D01*
X11258094Y-14632952D01*
X11248570Y-14613905D01*
X11248570Y-14537714D01*
X11258094Y-14518667D01*
X11277141Y-14509143D01*
X11315237Y-14509143D01*
X11334284Y-14518667D01*
X11343808Y-14537714D01*
X11343808Y-14556762D01*
X11248570Y-14575809D01*
X11419999Y-14632952D02*
X11439046Y-14642476D01*
X11477141Y-14642476D01*
X11496189Y-14632952D01*
X11505713Y-14613905D01*
X11505713Y-14604381D01*
X11496189Y-14585333D01*
X11477141Y-14575809D01*
X11448570Y-14575809D01*
X11429522Y-14566286D01*
X11419999Y-14547238D01*
X11419999Y-14537714D01*
X11429522Y-14518667D01*
X11448570Y-14509143D01*
X11477141Y-14509143D01*
X11496189Y-14518667D01*
X11572380Y-14718667D02*
X11581903Y-14709143D01*
X11600951Y-14680571D01*
X11610475Y-14661524D01*
X11619999Y-14632952D01*
X11629522Y-14585333D01*
X11629522Y-14547238D01*
X11619999Y-14499619D01*
X11610475Y-14471048D01*
X11600951Y-14452000D01*
X11581903Y-14423428D01*
X11572380Y-14413905D01*
D15*
X6549999Y-14786000D02*
X6609999Y-14846000D01*
X6609999Y-14786000D02*
X6549999Y-14846000D01*
X6609999Y-14816000D02*
G75*
G03*
X6609999Y-14816000I-30000J0D01*
G01*
D11*
X6905713Y-14706476D02*
X6924761Y-14706476D01*
X6943808Y-14716000D01*
X6953332Y-14725524D01*
X6962856Y-14744571D01*
X6972380Y-14782667D01*
X6972380Y-14830286D01*
X6962856Y-14868381D01*
X6953332Y-14887428D01*
X6943808Y-14896952D01*
X6924761Y-14906476D01*
X6905713Y-14906476D01*
X6886665Y-14896952D01*
X6877141Y-14887428D01*
X6867618Y-14868381D01*
X6858094Y-14830286D01*
X6858094Y-14782667D01*
X6867618Y-14744571D01*
X6877141Y-14725524D01*
X6886665Y-14716000D01*
X6905713Y-14706476D01*
X7058094Y-14887428D02*
X7067618Y-14896952D01*
X7058094Y-14906476D01*
X7048570Y-14896952D01*
X7058094Y-14887428D01*
X7058094Y-14906476D01*
X7239046Y-14706476D02*
X7200951Y-14706476D01*
X7181903Y-14716000D01*
X7172380Y-14725524D01*
X7153332Y-14754095D01*
X7143808Y-14792190D01*
X7143808Y-14868381D01*
X7153332Y-14887428D01*
X7162856Y-14896952D01*
X7181903Y-14906476D01*
X7219999Y-14906476D01*
X7239046Y-14896952D01*
X7248570Y-14887428D01*
X7258094Y-14868381D01*
X7258094Y-14820762D01*
X7248570Y-14801714D01*
X7239046Y-14792190D01*
X7219999Y-14782667D01*
X7181903Y-14782667D01*
X7162856Y-14792190D01*
X7153332Y-14801714D01*
X7143808Y-14820762D01*
X7381903Y-14706476D02*
X7400951Y-14706476D01*
X7419999Y-14716000D01*
X7429522Y-14725524D01*
X7439046Y-14744571D01*
X7448570Y-14782667D01*
X7448570Y-14830286D01*
X7439046Y-14868381D01*
X7429522Y-14887428D01*
X7419999Y-14896952D01*
X7400951Y-14906476D01*
X7381903Y-14906476D01*
X7362856Y-14896952D01*
X7353332Y-14887428D01*
X7343808Y-14868381D01*
X7334284Y-14830286D01*
X7334284Y-14782667D01*
X7343808Y-14744571D01*
X7353332Y-14725524D01*
X7362856Y-14716000D01*
X7381903Y-14706476D01*
X7572380Y-14706476D02*
X7591427Y-14706476D01*
X7610475Y-14716000D01*
X7619999Y-14725524D01*
X7629522Y-14744571D01*
X7639046Y-14782667D01*
X7639046Y-14830286D01*
X7629522Y-14868381D01*
X7619999Y-14887428D01*
X7610475Y-14896952D01*
X7591427Y-14906476D01*
X7572380Y-14906476D01*
X7553332Y-14896952D01*
X7543808Y-14887428D01*
X7534284Y-14868381D01*
X7524761Y-14830286D01*
X7524761Y-14782667D01*
X7534284Y-14744571D01*
X7543808Y-14725524D01*
X7553332Y-14716000D01*
X7572380Y-14706476D01*
X7724761Y-14906476D02*
X7724761Y-14773143D01*
X7724761Y-14792190D02*
X7734284Y-14782667D01*
X7753332Y-14773143D01*
X7781903Y-14773143D01*
X7800951Y-14782667D01*
X7810475Y-14801714D01*
X7810475Y-14906476D01*
X7810475Y-14801714D02*
X7819999Y-14782667D01*
X7839046Y-14773143D01*
X7867618Y-14773143D01*
X7886665Y-14782667D01*
X7896189Y-14801714D01*
X7896189Y-14906476D01*
X7991427Y-14906476D02*
X7991427Y-14773143D01*
X7991427Y-14792190D02*
X8000951Y-14782667D01*
X8019999Y-14773143D01*
X8048570Y-14773143D01*
X8067618Y-14782667D01*
X8077141Y-14801714D01*
X8077141Y-14906476D01*
X8077141Y-14801714D02*
X8086665Y-14782667D01*
X8105713Y-14773143D01*
X8134284Y-14773143D01*
X8153332Y-14782667D01*
X8162856Y-14801714D01*
X8162856Y-14906476D01*
X8553332Y-14696952D02*
X8381903Y-14954095D01*
X8810475Y-14706476D02*
X8829523Y-14706476D01*
X8848570Y-14716000D01*
X8858094Y-14725524D01*
X8867618Y-14744571D01*
X8877142Y-14782667D01*
X8877142Y-14830286D01*
X8867618Y-14868381D01*
X8858094Y-14887428D01*
X8848570Y-14896952D01*
X8829523Y-14906476D01*
X8810475Y-14906476D01*
X8791427Y-14896952D01*
X8781903Y-14887428D01*
X8772380Y-14868381D01*
X8762856Y-14830286D01*
X8762856Y-14782667D01*
X8772380Y-14744571D01*
X8781903Y-14725524D01*
X8791427Y-14716000D01*
X8810475Y-14706476D01*
X8962856Y-14887428D02*
X8972380Y-14896952D01*
X8962856Y-14906476D01*
X8953332Y-14896952D01*
X8962856Y-14887428D01*
X8962856Y-14906476D01*
X9096189Y-14706476D02*
X9115237Y-14706476D01*
X9134284Y-14716000D01*
X9143808Y-14725524D01*
X9153332Y-14744571D01*
X9162856Y-14782667D01*
X9162856Y-14830286D01*
X9153332Y-14868381D01*
X9143808Y-14887428D01*
X9134284Y-14896952D01*
X9115237Y-14906476D01*
X9096189Y-14906476D01*
X9077142Y-14896952D01*
X9067618Y-14887428D01*
X9058094Y-14868381D01*
X9048570Y-14830286D01*
X9048570Y-14782667D01*
X9058094Y-14744571D01*
X9067618Y-14725524D01*
X9077142Y-14716000D01*
X9096189Y-14706476D01*
X9239046Y-14725524D02*
X9248570Y-14716000D01*
X9267618Y-14706476D01*
X9315237Y-14706476D01*
X9334284Y-14716000D01*
X9343808Y-14725524D01*
X9353332Y-14744571D01*
X9353332Y-14763619D01*
X9343808Y-14792190D01*
X9229523Y-14906476D01*
X9353332Y-14906476D01*
X9419999Y-14706476D02*
X9543808Y-14706476D01*
X9477142Y-14782667D01*
X9505713Y-14782667D01*
X9524761Y-14792190D01*
X9534284Y-14801714D01*
X9543808Y-14820762D01*
X9543808Y-14868381D01*
X9534284Y-14887428D01*
X9524761Y-14896952D01*
X9505713Y-14906476D01*
X9448570Y-14906476D01*
X9429523Y-14896952D01*
X9419999Y-14887428D01*
X9715237Y-14706476D02*
X9677142Y-14706476D01*
X9658094Y-14716000D01*
X9648570Y-14725524D01*
X9629523Y-14754095D01*
X9619999Y-14792190D01*
X9619999Y-14868381D01*
X9629523Y-14887428D01*
X9639046Y-14896952D01*
X9658094Y-14906476D01*
X9696189Y-14906476D01*
X9715237Y-14896952D01*
X9724761Y-14887428D01*
X9734284Y-14868381D01*
X9734284Y-14820762D01*
X9724761Y-14801714D01*
X9715237Y-14792190D01*
X9696189Y-14782667D01*
X9658094Y-14782667D01*
X9639046Y-14792190D01*
X9629523Y-14801714D01*
X9619999Y-14820762D01*
X9810475Y-14706476D02*
X9810475Y-14744571D01*
X9886665Y-14706476D02*
X9886665Y-14744571D01*
X10181903Y-14982667D02*
X10172380Y-14973143D01*
X10153332Y-14944571D01*
X10143808Y-14925524D01*
X10134284Y-14896952D01*
X10124761Y-14849333D01*
X10124761Y-14811238D01*
X10134284Y-14763619D01*
X10143808Y-14735048D01*
X10153332Y-14716000D01*
X10172380Y-14687428D01*
X10181903Y-14677905D01*
X10296189Y-14706476D02*
X10315237Y-14706476D01*
X10334284Y-14716000D01*
X10343808Y-14725524D01*
X10353332Y-14744571D01*
X10362856Y-14782667D01*
X10362856Y-14830286D01*
X10353332Y-14868381D01*
X10343808Y-14887428D01*
X10334284Y-14896952D01*
X10315237Y-14906476D01*
X10296189Y-14906476D01*
X10277142Y-14896952D01*
X10267618Y-14887428D01*
X10258094Y-14868381D01*
X10248570Y-14830286D01*
X10248570Y-14782667D01*
X10258094Y-14744571D01*
X10267618Y-14725524D01*
X10277142Y-14716000D01*
X10296189Y-14706476D01*
X10600951Y-14906476D02*
X10600951Y-14706476D01*
X10686665Y-14906476D02*
X10686665Y-14801714D01*
X10677142Y-14782667D01*
X10658094Y-14773143D01*
X10629523Y-14773143D01*
X10610475Y-14782667D01*
X10600951Y-14792190D01*
X10810475Y-14906476D02*
X10791427Y-14896952D01*
X10781903Y-14887428D01*
X10772380Y-14868381D01*
X10772380Y-14811238D01*
X10781903Y-14792190D01*
X10791427Y-14782667D01*
X10810475Y-14773143D01*
X10839046Y-14773143D01*
X10858094Y-14782667D01*
X10867618Y-14792190D01*
X10877142Y-14811238D01*
X10877142Y-14868381D01*
X10867618Y-14887428D01*
X10858094Y-14896952D01*
X10839046Y-14906476D01*
X10810475Y-14906476D01*
X10991427Y-14906476D02*
X10972380Y-14896952D01*
X10962856Y-14877905D01*
X10962856Y-14706476D01*
X11143808Y-14896952D02*
X11124761Y-14906476D01*
X11086665Y-14906476D01*
X11067618Y-14896952D01*
X11058094Y-14877905D01*
X11058094Y-14801714D01*
X11067618Y-14782667D01*
X11086665Y-14773143D01*
X11124761Y-14773143D01*
X11143808Y-14782667D01*
X11153332Y-14801714D01*
X11153332Y-14820762D01*
X11058094Y-14839809D01*
X11229522Y-14896952D02*
X11248570Y-14906476D01*
X11286665Y-14906476D01*
X11305713Y-14896952D01*
X11315237Y-14877905D01*
X11315237Y-14868381D01*
X11305713Y-14849333D01*
X11286665Y-14839809D01*
X11258094Y-14839809D01*
X11239046Y-14830286D01*
X11229522Y-14811238D01*
X11229522Y-14801714D01*
X11239046Y-14782667D01*
X11258094Y-14773143D01*
X11286665Y-14773143D01*
X11305713Y-14782667D01*
X11553332Y-14830286D02*
X11705713Y-14830286D01*
X11629522Y-14906476D02*
X11629522Y-14754095D01*
X12039046Y-14773143D02*
X12039046Y-14906476D01*
X11991427Y-14696952D02*
X11943808Y-14839809D01*
X12067618Y-14839809D01*
X12286665Y-14896952D02*
X12305713Y-14906476D01*
X12343808Y-14906476D01*
X12362856Y-14896952D01*
X12372380Y-14877905D01*
X12372380Y-14868381D01*
X12362856Y-14849333D01*
X12343808Y-14839809D01*
X12315237Y-14839809D01*
X12296189Y-14830286D01*
X12286665Y-14811238D01*
X12286665Y-14801714D01*
X12296189Y-14782667D01*
X12315237Y-14773143D01*
X12343808Y-14773143D01*
X12362856Y-14782667D01*
X12486665Y-14906476D02*
X12467618Y-14896952D01*
X12458094Y-14877905D01*
X12458094Y-14706476D01*
X12591427Y-14906476D02*
X12572380Y-14896952D01*
X12562856Y-14887428D01*
X12553332Y-14868381D01*
X12553332Y-14811238D01*
X12562856Y-14792190D01*
X12572380Y-14782667D01*
X12591427Y-14773143D01*
X12619999Y-14773143D01*
X12639046Y-14782667D01*
X12648570Y-14792190D01*
X12658094Y-14811238D01*
X12658094Y-14868381D01*
X12648570Y-14887428D01*
X12639046Y-14896952D01*
X12619999Y-14906476D01*
X12591427Y-14906476D01*
X12715237Y-14773143D02*
X12791427Y-14773143D01*
X12743808Y-14706476D02*
X12743808Y-14877905D01*
X12753332Y-14896952D01*
X12772380Y-14906476D01*
X12791427Y-14906476D01*
X12848570Y-14896952D02*
X12867618Y-14906476D01*
X12905713Y-14906476D01*
X12924761Y-14896952D01*
X12934284Y-14877905D01*
X12934284Y-14868381D01*
X12924761Y-14849333D01*
X12905713Y-14839809D01*
X12877141Y-14839809D01*
X12858094Y-14830286D01*
X12848570Y-14811238D01*
X12848570Y-14801714D01*
X12858094Y-14782667D01*
X12877141Y-14773143D01*
X12905713Y-14773143D01*
X12924761Y-14782667D01*
X13000951Y-14982667D02*
X13010475Y-14973143D01*
X13029522Y-14944571D01*
X13039046Y-14925524D01*
X13048570Y-14896952D01*
X13058094Y-14849333D01*
X13058094Y-14811238D01*
X13048570Y-14763619D01*
X13039046Y-14735048D01*
X13029522Y-14716000D01*
X13010475Y-14687428D01*
X13000951Y-14677905D01*
D16*
X6539999Y-15045000D02*
X6609999Y-15115000D01*
X6609999Y-15045000D02*
X6539999Y-15115000D01*
X6574999Y-15045000D02*
X6574999Y-15115000D01*
X6539999Y-15080000D02*
X6609999Y-15080000D01*
D11*
X6905713Y-14970476D02*
X6924761Y-14970476D01*
X6943808Y-14980000D01*
X6953332Y-14989524D01*
X6962856Y-15008571D01*
X6972380Y-15046667D01*
X6972380Y-15094286D01*
X6962856Y-15132381D01*
X6953332Y-15151428D01*
X6943808Y-15160952D01*
X6924761Y-15170476D01*
X6905713Y-15170476D01*
X6886665Y-15160952D01*
X6877141Y-15151428D01*
X6867618Y-15132381D01*
X6858094Y-15094286D01*
X6858094Y-15046667D01*
X6867618Y-15008571D01*
X6877141Y-14989524D01*
X6886665Y-14980000D01*
X6905713Y-14970476D01*
X7058094Y-15151428D02*
X7067618Y-15160952D01*
X7058094Y-15170476D01*
X7048570Y-15160952D01*
X7058094Y-15151428D01*
X7058094Y-15170476D01*
X7134284Y-14970476D02*
X7267618Y-14970476D01*
X7181903Y-15170476D01*
X7381903Y-14970476D02*
X7400951Y-14970476D01*
X7419999Y-14980000D01*
X7429522Y-14989524D01*
X7439046Y-15008571D01*
X7448570Y-15046667D01*
X7448570Y-15094286D01*
X7439046Y-15132381D01*
X7429522Y-15151428D01*
X7419999Y-15160952D01*
X7400951Y-15170476D01*
X7381903Y-15170476D01*
X7362856Y-15160952D01*
X7353332Y-15151428D01*
X7343808Y-15132381D01*
X7334284Y-15094286D01*
X7334284Y-15046667D01*
X7343808Y-15008571D01*
X7353332Y-14989524D01*
X7362856Y-14980000D01*
X7381903Y-14970476D01*
X7572380Y-14970476D02*
X7591427Y-14970476D01*
X7610475Y-14980000D01*
X7619999Y-14989524D01*
X7629522Y-15008571D01*
X7639046Y-15046667D01*
X7639046Y-15094286D01*
X7629522Y-15132381D01*
X7619999Y-15151428D01*
X7610475Y-15160952D01*
X7591427Y-15170476D01*
X7572380Y-15170476D01*
X7553332Y-15160952D01*
X7543808Y-15151428D01*
X7534284Y-15132381D01*
X7524761Y-15094286D01*
X7524761Y-15046667D01*
X7534284Y-15008571D01*
X7543808Y-14989524D01*
X7553332Y-14980000D01*
X7572380Y-14970476D01*
X7724761Y-15170476D02*
X7724761Y-15037143D01*
X7724761Y-15056190D02*
X7734284Y-15046667D01*
X7753332Y-15037143D01*
X7781903Y-15037143D01*
X7800951Y-15046667D01*
X7810475Y-15065714D01*
X7810475Y-15170476D01*
X7810475Y-15065714D02*
X7819999Y-15046667D01*
X7839046Y-15037143D01*
X7867618Y-15037143D01*
X7886665Y-15046667D01*
X7896189Y-15065714D01*
X7896189Y-15170476D01*
X7991427Y-15170476D02*
X7991427Y-15037143D01*
X7991427Y-15056190D02*
X8000951Y-15046667D01*
X8019999Y-15037143D01*
X8048570Y-15037143D01*
X8067618Y-15046667D01*
X8077141Y-15065714D01*
X8077141Y-15170476D01*
X8077141Y-15065714D02*
X8086665Y-15046667D01*
X8105713Y-15037143D01*
X8134284Y-15037143D01*
X8153332Y-15046667D01*
X8162856Y-15065714D01*
X8162856Y-15170476D01*
X8553332Y-14960952D02*
X8381903Y-15218095D01*
X8810475Y-14970476D02*
X8829523Y-14970476D01*
X8848570Y-14980000D01*
X8858094Y-14989524D01*
X8867618Y-15008571D01*
X8877142Y-15046667D01*
X8877142Y-15094286D01*
X8867618Y-15132381D01*
X8858094Y-15151428D01*
X8848570Y-15160952D01*
X8829523Y-15170476D01*
X8810475Y-15170476D01*
X8791427Y-15160952D01*
X8781903Y-15151428D01*
X8772380Y-15132381D01*
X8762856Y-15094286D01*
X8762856Y-15046667D01*
X8772380Y-15008571D01*
X8781903Y-14989524D01*
X8791427Y-14980000D01*
X8810475Y-14970476D01*
X8962856Y-15151428D02*
X8972380Y-15160952D01*
X8962856Y-15170476D01*
X8953332Y-15160952D01*
X8962856Y-15151428D01*
X8962856Y-15170476D01*
X9096189Y-14970476D02*
X9115237Y-14970476D01*
X9134284Y-14980000D01*
X9143808Y-14989524D01*
X9153332Y-15008571D01*
X9162856Y-15046667D01*
X9162856Y-15094286D01*
X9153332Y-15132381D01*
X9143808Y-15151428D01*
X9134284Y-15160952D01*
X9115237Y-15170476D01*
X9096189Y-15170476D01*
X9077142Y-15160952D01*
X9067618Y-15151428D01*
X9058094Y-15132381D01*
X9048570Y-15094286D01*
X9048570Y-15046667D01*
X9058094Y-15008571D01*
X9067618Y-14989524D01*
X9077142Y-14980000D01*
X9096189Y-14970476D01*
X9239046Y-14989524D02*
X9248570Y-14980000D01*
X9267618Y-14970476D01*
X9315237Y-14970476D01*
X9334284Y-14980000D01*
X9343808Y-14989524D01*
X9353332Y-15008571D01*
X9353332Y-15027619D01*
X9343808Y-15056190D01*
X9229523Y-15170476D01*
X9353332Y-15170476D01*
X9419999Y-14970476D02*
X9553332Y-14970476D01*
X9467618Y-15170476D01*
X9715237Y-14970476D02*
X9677142Y-14970476D01*
X9658094Y-14980000D01*
X9648570Y-14989524D01*
X9629523Y-15018095D01*
X9619999Y-15056190D01*
X9619999Y-15132381D01*
X9629523Y-15151428D01*
X9639046Y-15160952D01*
X9658094Y-15170476D01*
X9696189Y-15170476D01*
X9715237Y-15160952D01*
X9724761Y-15151428D01*
X9734284Y-15132381D01*
X9734284Y-15084762D01*
X9724761Y-15065714D01*
X9715237Y-15056190D01*
X9696189Y-15046667D01*
X9658094Y-15046667D01*
X9639046Y-15056190D01*
X9629523Y-15065714D01*
X9619999Y-15084762D01*
X9810475Y-14970476D02*
X9810475Y-15008571D01*
X9886665Y-14970476D02*
X9886665Y-15008571D01*
X10181903Y-15246667D02*
X10172380Y-15237143D01*
X10153332Y-15208571D01*
X10143808Y-15189524D01*
X10134284Y-15160952D01*
X10124761Y-15113333D01*
X10124761Y-15075238D01*
X10134284Y-15027619D01*
X10143808Y-14999048D01*
X10153332Y-14980000D01*
X10172380Y-14951428D01*
X10181903Y-14941905D01*
X10343808Y-14970476D02*
X10305713Y-14970476D01*
X10286665Y-14980000D01*
X10277142Y-14989524D01*
X10258094Y-15018095D01*
X10248570Y-15056190D01*
X10248570Y-15132381D01*
X10258094Y-15151428D01*
X10267618Y-15160952D01*
X10286665Y-15170476D01*
X10324761Y-15170476D01*
X10343808Y-15160952D01*
X10353332Y-15151428D01*
X10362856Y-15132381D01*
X10362856Y-15084762D01*
X10353332Y-15065714D01*
X10343808Y-15056190D01*
X10324761Y-15046667D01*
X10286665Y-15046667D01*
X10267618Y-15056190D01*
X10258094Y-15065714D01*
X10248570Y-15084762D01*
X10600951Y-15170476D02*
X10600951Y-14970476D01*
X10686665Y-15170476D02*
X10686665Y-15065714D01*
X10677142Y-15046667D01*
X10658094Y-15037143D01*
X10629523Y-15037143D01*
X10610475Y-15046667D01*
X10600951Y-15056190D01*
X10810475Y-15170476D02*
X10791427Y-15160952D01*
X10781903Y-15151428D01*
X10772380Y-15132381D01*
X10772380Y-15075238D01*
X10781903Y-15056190D01*
X10791427Y-15046667D01*
X10810475Y-15037143D01*
X10839046Y-15037143D01*
X10858094Y-15046667D01*
X10867618Y-15056190D01*
X10877142Y-15075238D01*
X10877142Y-15132381D01*
X10867618Y-15151428D01*
X10858094Y-15160952D01*
X10839046Y-15170476D01*
X10810475Y-15170476D01*
X10991427Y-15170476D02*
X10972380Y-15160952D01*
X10962856Y-15141905D01*
X10962856Y-14970476D01*
X11143808Y-15160952D02*
X11124761Y-15170476D01*
X11086665Y-15170476D01*
X11067618Y-15160952D01*
X11058094Y-15141905D01*
X11058094Y-15065714D01*
X11067618Y-15046667D01*
X11086665Y-15037143D01*
X11124761Y-15037143D01*
X11143808Y-15046667D01*
X11153332Y-15065714D01*
X11153332Y-15084762D01*
X11058094Y-15103809D01*
X11229522Y-15160952D02*
X11248570Y-15170476D01*
X11286665Y-15170476D01*
X11305713Y-15160952D01*
X11315237Y-15141905D01*
X11315237Y-15132381D01*
X11305713Y-15113333D01*
X11286665Y-15103809D01*
X11258094Y-15103809D01*
X11239046Y-15094286D01*
X11229522Y-15075238D01*
X11229522Y-15065714D01*
X11239046Y-15046667D01*
X11258094Y-15037143D01*
X11286665Y-15037143D01*
X11305713Y-15046667D01*
X11381903Y-15246667D02*
X11391427Y-15237143D01*
X11410475Y-15208571D01*
X11419999Y-15189524D01*
X11429522Y-15160952D01*
X11439046Y-15113333D01*
X11439046Y-15075238D01*
X11429522Y-15027619D01*
X11419999Y-14999048D01*
X11410475Y-14980000D01*
X11391427Y-14951428D01*
X11381903Y-14941905D01*
D17*
X6534999Y-15306500D02*
X6609999Y-15381500D01*
X6609999Y-15306500D02*
X6534999Y-15381500D01*
X6599015Y-15370517D02*
X6599015Y-15317483D01*
X6545982Y-15317483D01*
X6545982Y-15370517D01*
X6599015Y-15370517D01*
D11*
X6905713Y-15234476D02*
X6924761Y-15234476D01*
X6943808Y-15244000D01*
X6953332Y-15253524D01*
X6962856Y-15272571D01*
X6972380Y-15310667D01*
X6972380Y-15358286D01*
X6962856Y-15396381D01*
X6953332Y-15415428D01*
X6943808Y-15424952D01*
X6924761Y-15434476D01*
X6905713Y-15434476D01*
X6886665Y-15424952D01*
X6877141Y-15415428D01*
X6867618Y-15396381D01*
X6858094Y-15358286D01*
X6858094Y-15310667D01*
X6867618Y-15272571D01*
X6877141Y-15253524D01*
X6886665Y-15244000D01*
X6905713Y-15234476D01*
X7058094Y-15415428D02*
X7067618Y-15424952D01*
X7058094Y-15434476D01*
X7048570Y-15424952D01*
X7058094Y-15415428D01*
X7058094Y-15434476D01*
X7134284Y-15234476D02*
X7267618Y-15234476D01*
X7181903Y-15434476D01*
X7439046Y-15234476D02*
X7343808Y-15234476D01*
X7334284Y-15329714D01*
X7343808Y-15320190D01*
X7362856Y-15310667D01*
X7410475Y-15310667D01*
X7429522Y-15320190D01*
X7439046Y-15329714D01*
X7448570Y-15348762D01*
X7448570Y-15396381D01*
X7439046Y-15415428D01*
X7429522Y-15424952D01*
X7410475Y-15434476D01*
X7362856Y-15434476D01*
X7343808Y-15424952D01*
X7334284Y-15415428D01*
X7572380Y-15234476D02*
X7591427Y-15234476D01*
X7610475Y-15244000D01*
X7619999Y-15253524D01*
X7629522Y-15272571D01*
X7639046Y-15310667D01*
X7639046Y-15358286D01*
X7629522Y-15396381D01*
X7619999Y-15415428D01*
X7610475Y-15424952D01*
X7591427Y-15434476D01*
X7572380Y-15434476D01*
X7553332Y-15424952D01*
X7543808Y-15415428D01*
X7534284Y-15396381D01*
X7524761Y-15358286D01*
X7524761Y-15310667D01*
X7534284Y-15272571D01*
X7543808Y-15253524D01*
X7553332Y-15244000D01*
X7572380Y-15234476D01*
X7724761Y-15434476D02*
X7724761Y-15301143D01*
X7724761Y-15320190D02*
X7734284Y-15310667D01*
X7753332Y-15301143D01*
X7781903Y-15301143D01*
X7800951Y-15310667D01*
X7810475Y-15329714D01*
X7810475Y-15434476D01*
X7810475Y-15329714D02*
X7819999Y-15310667D01*
X7839046Y-15301143D01*
X7867618Y-15301143D01*
X7886665Y-15310667D01*
X7896189Y-15329714D01*
X7896189Y-15434476D01*
X7991427Y-15434476D02*
X7991427Y-15301143D01*
X7991427Y-15320190D02*
X8000951Y-15310667D01*
X8019999Y-15301143D01*
X8048570Y-15301143D01*
X8067618Y-15310667D01*
X8077141Y-15329714D01*
X8077141Y-15434476D01*
X8077141Y-15329714D02*
X8086665Y-15310667D01*
X8105713Y-15301143D01*
X8134284Y-15301143D01*
X8153332Y-15310667D01*
X8162856Y-15329714D01*
X8162856Y-15434476D01*
X8553332Y-15224952D02*
X8381903Y-15482095D01*
X8810475Y-15234476D02*
X8829523Y-15234476D01*
X8848570Y-15244000D01*
X8858094Y-15253524D01*
X8867618Y-15272571D01*
X8877142Y-15310667D01*
X8877142Y-15358286D01*
X8867618Y-15396381D01*
X8858094Y-15415428D01*
X8848570Y-15424952D01*
X8829523Y-15434476D01*
X8810475Y-15434476D01*
X8791427Y-15424952D01*
X8781903Y-15415428D01*
X8772380Y-15396381D01*
X8762856Y-15358286D01*
X8762856Y-15310667D01*
X8772380Y-15272571D01*
X8781903Y-15253524D01*
X8791427Y-15244000D01*
X8810475Y-15234476D01*
X8962856Y-15415428D02*
X8972380Y-15424952D01*
X8962856Y-15434476D01*
X8953332Y-15424952D01*
X8962856Y-15415428D01*
X8962856Y-15434476D01*
X9096189Y-15234476D02*
X9115237Y-15234476D01*
X9134284Y-15244000D01*
X9143808Y-15253524D01*
X9153332Y-15272571D01*
X9162856Y-15310667D01*
X9162856Y-15358286D01*
X9153332Y-15396381D01*
X9143808Y-15415428D01*
X9134284Y-15424952D01*
X9115237Y-15434476D01*
X9096189Y-15434476D01*
X9077142Y-15424952D01*
X9067618Y-15415428D01*
X9058094Y-15396381D01*
X9048570Y-15358286D01*
X9048570Y-15310667D01*
X9058094Y-15272571D01*
X9067618Y-15253524D01*
X9077142Y-15244000D01*
X9096189Y-15234476D01*
X9239046Y-15253524D02*
X9248570Y-15244000D01*
X9267618Y-15234476D01*
X9315237Y-15234476D01*
X9334284Y-15244000D01*
X9343808Y-15253524D01*
X9353332Y-15272571D01*
X9353332Y-15291619D01*
X9343808Y-15320190D01*
X9229523Y-15434476D01*
X9353332Y-15434476D01*
X9448570Y-15434476D02*
X9486665Y-15434476D01*
X9505713Y-15424952D01*
X9515237Y-15415428D01*
X9534284Y-15386857D01*
X9543808Y-15348762D01*
X9543808Y-15272571D01*
X9534284Y-15253524D01*
X9524761Y-15244000D01*
X9505713Y-15234476D01*
X9467618Y-15234476D01*
X9448570Y-15244000D01*
X9439046Y-15253524D01*
X9429523Y-15272571D01*
X9429523Y-15320190D01*
X9439046Y-15339238D01*
X9448570Y-15348762D01*
X9467618Y-15358286D01*
X9505713Y-15358286D01*
X9524761Y-15348762D01*
X9534284Y-15339238D01*
X9543808Y-15320190D01*
X9724761Y-15234476D02*
X9629523Y-15234476D01*
X9619999Y-15329714D01*
X9629523Y-15320190D01*
X9648570Y-15310667D01*
X9696189Y-15310667D01*
X9715237Y-15320190D01*
X9724761Y-15329714D01*
X9734284Y-15348762D01*
X9734284Y-15396381D01*
X9724761Y-15415428D01*
X9715237Y-15424952D01*
X9696189Y-15434476D01*
X9648570Y-15434476D01*
X9629523Y-15424952D01*
X9619999Y-15415428D01*
X9810475Y-15234476D02*
X9810475Y-15272571D01*
X9886665Y-15234476D02*
X9886665Y-15272571D01*
X10181903Y-15510667D02*
X10172380Y-15501143D01*
X10153332Y-15472571D01*
X10143808Y-15453524D01*
X10134284Y-15424952D01*
X10124761Y-15377333D01*
X10124761Y-15339238D01*
X10134284Y-15291619D01*
X10143808Y-15263048D01*
X10153332Y-15244000D01*
X10172380Y-15215428D01*
X10181903Y-15205905D01*
X10343808Y-15301143D02*
X10343808Y-15434476D01*
X10296189Y-15224952D02*
X10248570Y-15367809D01*
X10372380Y-15367809D01*
X10600951Y-15434476D02*
X10600951Y-15234476D01*
X10686665Y-15434476D02*
X10686665Y-15329714D01*
X10677142Y-15310667D01*
X10658094Y-15301143D01*
X10629523Y-15301143D01*
X10610475Y-15310667D01*
X10600951Y-15320190D01*
X10810475Y-15434476D02*
X10791427Y-15424952D01*
X10781903Y-15415428D01*
X10772380Y-15396381D01*
X10772380Y-15339238D01*
X10781903Y-15320190D01*
X10791427Y-15310667D01*
X10810475Y-15301143D01*
X10839046Y-15301143D01*
X10858094Y-15310667D01*
X10867618Y-15320190D01*
X10877142Y-15339238D01*
X10877142Y-15396381D01*
X10867618Y-15415428D01*
X10858094Y-15424952D01*
X10839046Y-15434476D01*
X10810475Y-15434476D01*
X10991427Y-15434476D02*
X10972380Y-15424952D01*
X10962856Y-15405905D01*
X10962856Y-15234476D01*
X11143808Y-15424952D02*
X11124761Y-15434476D01*
X11086665Y-15434476D01*
X11067618Y-15424952D01*
X11058094Y-15405905D01*
X11058094Y-15329714D01*
X11067618Y-15310667D01*
X11086665Y-15301143D01*
X11124761Y-15301143D01*
X11143808Y-15310667D01*
X11153332Y-15329714D01*
X11153332Y-15348762D01*
X11058094Y-15367809D01*
X11229522Y-15424952D02*
X11248570Y-15434476D01*
X11286665Y-15434476D01*
X11305713Y-15424952D01*
X11315237Y-15405905D01*
X11315237Y-15396381D01*
X11305713Y-15377333D01*
X11286665Y-15367809D01*
X11258094Y-15367809D01*
X11239046Y-15358286D01*
X11229522Y-15339238D01*
X11229522Y-15329714D01*
X11239046Y-15310667D01*
X11258094Y-15301143D01*
X11286665Y-15301143D01*
X11305713Y-15310667D01*
X11381903Y-15510667D02*
X11391427Y-15501143D01*
X11410475Y-15472571D01*
X11419999Y-15453524D01*
X11429522Y-15424952D01*
X11439046Y-15377333D01*
X11439046Y-15339238D01*
X11429522Y-15291619D01*
X11419999Y-15263048D01*
X11410475Y-15244000D01*
X11391427Y-15215428D01*
X11381903Y-15205905D01*
D18*
X6519999Y-15563000D02*
X6609999Y-15653000D01*
X6609999Y-15563000D02*
X6519999Y-15653000D01*
X6564999Y-15653000D02*
X6609999Y-15608000D01*
X6564999Y-15563000D01*
X6519999Y-15608000D01*
X6564999Y-15653000D01*
D11*
X6905713Y-15498476D02*
X6924761Y-15498476D01*
X6943808Y-15508000D01*
X6953332Y-15517524D01*
X6962856Y-15536571D01*
X6972380Y-15574667D01*
X6972380Y-15622286D01*
X6962856Y-15660381D01*
X6953332Y-15679428D01*
X6943808Y-15688952D01*
X6924761Y-15698476D01*
X6905713Y-15698476D01*
X6886665Y-15688952D01*
X6877141Y-15679428D01*
X6867618Y-15660381D01*
X6858094Y-15622286D01*
X6858094Y-15574667D01*
X6867618Y-15536571D01*
X6877141Y-15517524D01*
X6886665Y-15508000D01*
X6905713Y-15498476D01*
X7058094Y-15679428D02*
X7067618Y-15688952D01*
X7058094Y-15698476D01*
X7048570Y-15688952D01*
X7058094Y-15679428D01*
X7058094Y-15698476D01*
X7162856Y-15698476D02*
X7200951Y-15698476D01*
X7219999Y-15688952D01*
X7229522Y-15679428D01*
X7248570Y-15650857D01*
X7258094Y-15612762D01*
X7258094Y-15536571D01*
X7248570Y-15517524D01*
X7239046Y-15508000D01*
X7219999Y-15498476D01*
X7181903Y-15498476D01*
X7162856Y-15508000D01*
X7153332Y-15517524D01*
X7143808Y-15536571D01*
X7143808Y-15584190D01*
X7153332Y-15603238D01*
X7162856Y-15612762D01*
X7181903Y-15622286D01*
X7219999Y-15622286D01*
X7239046Y-15612762D01*
X7248570Y-15603238D01*
X7258094Y-15584190D01*
X7381903Y-15498476D02*
X7400951Y-15498476D01*
X7419999Y-15508000D01*
X7429522Y-15517524D01*
X7439046Y-15536571D01*
X7448570Y-15574667D01*
X7448570Y-15622286D01*
X7439046Y-15660381D01*
X7429522Y-15679428D01*
X7419999Y-15688952D01*
X7400951Y-15698476D01*
X7381903Y-15698476D01*
X7362856Y-15688952D01*
X7353332Y-15679428D01*
X7343808Y-15660381D01*
X7334284Y-15622286D01*
X7334284Y-15574667D01*
X7343808Y-15536571D01*
X7353332Y-15517524D01*
X7362856Y-15508000D01*
X7381903Y-15498476D01*
X7572380Y-15498476D02*
X7591427Y-15498476D01*
X7610475Y-15508000D01*
X7619999Y-15517524D01*
X7629522Y-15536571D01*
X7639046Y-15574667D01*
X7639046Y-15622286D01*
X7629522Y-15660381D01*
X7619999Y-15679428D01*
X7610475Y-15688952D01*
X7591427Y-15698476D01*
X7572380Y-15698476D01*
X7553332Y-15688952D01*
X7543808Y-15679428D01*
X7534284Y-15660381D01*
X7524761Y-15622286D01*
X7524761Y-15574667D01*
X7534284Y-15536571D01*
X7543808Y-15517524D01*
X7553332Y-15508000D01*
X7572380Y-15498476D01*
X7724761Y-15698476D02*
X7724761Y-15565143D01*
X7724761Y-15584190D02*
X7734284Y-15574667D01*
X7753332Y-15565143D01*
X7781903Y-15565143D01*
X7800951Y-15574667D01*
X7810475Y-15593714D01*
X7810475Y-15698476D01*
X7810475Y-15593714D02*
X7819999Y-15574667D01*
X7839046Y-15565143D01*
X7867618Y-15565143D01*
X7886665Y-15574667D01*
X7896189Y-15593714D01*
X7896189Y-15698476D01*
X7991427Y-15698476D02*
X7991427Y-15565143D01*
X7991427Y-15584190D02*
X8000951Y-15574667D01*
X8019999Y-15565143D01*
X8048570Y-15565143D01*
X8067618Y-15574667D01*
X8077141Y-15593714D01*
X8077141Y-15698476D01*
X8077141Y-15593714D02*
X8086665Y-15574667D01*
X8105713Y-15565143D01*
X8134284Y-15565143D01*
X8153332Y-15574667D01*
X8162856Y-15593714D01*
X8162856Y-15698476D01*
X8553332Y-15488952D02*
X8381903Y-15746095D01*
X8810475Y-15498476D02*
X8829523Y-15498476D01*
X8848570Y-15508000D01*
X8858094Y-15517524D01*
X8867618Y-15536571D01*
X8877142Y-15574667D01*
X8877142Y-15622286D01*
X8867618Y-15660381D01*
X8858094Y-15679428D01*
X8848570Y-15688952D01*
X8829523Y-15698476D01*
X8810475Y-15698476D01*
X8791427Y-15688952D01*
X8781903Y-15679428D01*
X8772380Y-15660381D01*
X8762856Y-15622286D01*
X8762856Y-15574667D01*
X8772380Y-15536571D01*
X8781903Y-15517524D01*
X8791427Y-15508000D01*
X8810475Y-15498476D01*
X8962856Y-15679428D02*
X8972380Y-15688952D01*
X8962856Y-15698476D01*
X8953332Y-15688952D01*
X8962856Y-15679428D01*
X8962856Y-15698476D01*
X9096189Y-15498476D02*
X9115237Y-15498476D01*
X9134284Y-15508000D01*
X9143808Y-15517524D01*
X9153332Y-15536571D01*
X9162856Y-15574667D01*
X9162856Y-15622286D01*
X9153332Y-15660381D01*
X9143808Y-15679428D01*
X9134284Y-15688952D01*
X9115237Y-15698476D01*
X9096189Y-15698476D01*
X9077142Y-15688952D01*
X9067618Y-15679428D01*
X9058094Y-15660381D01*
X9048570Y-15622286D01*
X9048570Y-15574667D01*
X9058094Y-15536571D01*
X9067618Y-15517524D01*
X9077142Y-15508000D01*
X9096189Y-15498476D01*
X9229523Y-15498476D02*
X9353332Y-15498476D01*
X9286665Y-15574667D01*
X9315237Y-15574667D01*
X9334284Y-15584190D01*
X9343808Y-15593714D01*
X9353332Y-15612762D01*
X9353332Y-15660381D01*
X9343808Y-15679428D01*
X9334284Y-15688952D01*
X9315237Y-15698476D01*
X9258094Y-15698476D01*
X9239046Y-15688952D01*
X9229523Y-15679428D01*
X9534284Y-15498476D02*
X9439046Y-15498476D01*
X9429523Y-15593714D01*
X9439046Y-15584190D01*
X9458094Y-15574667D01*
X9505713Y-15574667D01*
X9524761Y-15584190D01*
X9534284Y-15593714D01*
X9543808Y-15612762D01*
X9543808Y-15660381D01*
X9534284Y-15679428D01*
X9524761Y-15688952D01*
X9505713Y-15698476D01*
X9458094Y-15698476D01*
X9439046Y-15688952D01*
X9429523Y-15679428D01*
X9715237Y-15565143D02*
X9715237Y-15698476D01*
X9667618Y-15488952D02*
X9619999Y-15631809D01*
X9743808Y-15631809D01*
X9810475Y-15498476D02*
X9810475Y-15536571D01*
X9886665Y-15498476D02*
X9886665Y-15536571D01*
X10181903Y-15774667D02*
X10172380Y-15765143D01*
X10153332Y-15736571D01*
X10143808Y-15717524D01*
X10134284Y-15688952D01*
X10124761Y-15641333D01*
X10124761Y-15603238D01*
X10134284Y-15555619D01*
X10143808Y-15527048D01*
X10153332Y-15508000D01*
X10172380Y-15479428D01*
X10181903Y-15469905D01*
X10343808Y-15498476D02*
X10305713Y-15498476D01*
X10286665Y-15508000D01*
X10277142Y-15517524D01*
X10258094Y-15546095D01*
X10248570Y-15584190D01*
X10248570Y-15660381D01*
X10258094Y-15679428D01*
X10267618Y-15688952D01*
X10286665Y-15698476D01*
X10324761Y-15698476D01*
X10343808Y-15688952D01*
X10353332Y-15679428D01*
X10362856Y-15660381D01*
X10362856Y-15612762D01*
X10353332Y-15593714D01*
X10343808Y-15584190D01*
X10324761Y-15574667D01*
X10286665Y-15574667D01*
X10267618Y-15584190D01*
X10258094Y-15593714D01*
X10248570Y-15612762D01*
X10600951Y-15698476D02*
X10600951Y-15498476D01*
X10686665Y-15698476D02*
X10686665Y-15593714D01*
X10677142Y-15574667D01*
X10658094Y-15565143D01*
X10629523Y-15565143D01*
X10610475Y-15574667D01*
X10600951Y-15584190D01*
X10810475Y-15698476D02*
X10791427Y-15688952D01*
X10781903Y-15679428D01*
X10772380Y-15660381D01*
X10772380Y-15603238D01*
X10781903Y-15584190D01*
X10791427Y-15574667D01*
X10810475Y-15565143D01*
X10839046Y-15565143D01*
X10858094Y-15574667D01*
X10867618Y-15584190D01*
X10877142Y-15603238D01*
X10877142Y-15660381D01*
X10867618Y-15679428D01*
X10858094Y-15688952D01*
X10839046Y-15698476D01*
X10810475Y-15698476D01*
X10991427Y-15698476D02*
X10972380Y-15688952D01*
X10962856Y-15669905D01*
X10962856Y-15498476D01*
X11143808Y-15688952D02*
X11124761Y-15698476D01*
X11086665Y-15698476D01*
X11067618Y-15688952D01*
X11058094Y-15669905D01*
X11058094Y-15593714D01*
X11067618Y-15574667D01*
X11086665Y-15565143D01*
X11124761Y-15565143D01*
X11143808Y-15574667D01*
X11153332Y-15593714D01*
X11153332Y-15612762D01*
X11058094Y-15631809D01*
X11229522Y-15688952D02*
X11248570Y-15698476D01*
X11286665Y-15698476D01*
X11305713Y-15688952D01*
X11315237Y-15669905D01*
X11315237Y-15660381D01*
X11305713Y-15641333D01*
X11286665Y-15631809D01*
X11258094Y-15631809D01*
X11239046Y-15622286D01*
X11229522Y-15603238D01*
X11229522Y-15593714D01*
X11239046Y-15574667D01*
X11258094Y-15565143D01*
X11286665Y-15565143D01*
X11305713Y-15574667D01*
X11381903Y-15774667D02*
X11391427Y-15765143D01*
X11410475Y-15736571D01*
X11419999Y-15717524D01*
X11429522Y-15688952D01*
X11439046Y-15641333D01*
X11439046Y-15603238D01*
X11429522Y-15555619D01*
X11419999Y-15527048D01*
X11410475Y-15508000D01*
X11391427Y-15479428D01*
X11381903Y-15469905D01*
D19*
X6560499Y-15822500D02*
X6560499Y-15921500D01*
X6510999Y-15872000D02*
X6609999Y-15872000D01*
X6609999Y-15872000D02*
G75*
G03*
X6609999Y-15872000I-49500J0D01*
G01*
D11*
X6905713Y-15762476D02*
X6924761Y-15762476D01*
X6943808Y-15772000D01*
X6953332Y-15781524D01*
X6962856Y-15800571D01*
X6972380Y-15838667D01*
X6972380Y-15886286D01*
X6962856Y-15924381D01*
X6953332Y-15943428D01*
X6943808Y-15952952D01*
X6924761Y-15962476D01*
X6905713Y-15962476D01*
X6886665Y-15952952D01*
X6877141Y-15943428D01*
X6867618Y-15924381D01*
X6858094Y-15886286D01*
X6858094Y-15838667D01*
X6867618Y-15800571D01*
X6877141Y-15781524D01*
X6886665Y-15772000D01*
X6905713Y-15762476D01*
X7058094Y-15943428D02*
X7067618Y-15952952D01*
X7058094Y-15962476D01*
X7048570Y-15952952D01*
X7058094Y-15943428D01*
X7058094Y-15962476D01*
X7162856Y-15962476D02*
X7200951Y-15962476D01*
X7219999Y-15952952D01*
X7229522Y-15943428D01*
X7248570Y-15914857D01*
X7258094Y-15876762D01*
X7258094Y-15800571D01*
X7248570Y-15781524D01*
X7239046Y-15772000D01*
X7219999Y-15762476D01*
X7181903Y-15762476D01*
X7162856Y-15772000D01*
X7153332Y-15781524D01*
X7143808Y-15800571D01*
X7143808Y-15848190D01*
X7153332Y-15867238D01*
X7162856Y-15876762D01*
X7181903Y-15886286D01*
X7219999Y-15886286D01*
X7239046Y-15876762D01*
X7248570Y-15867238D01*
X7258094Y-15848190D01*
X7353332Y-15962476D02*
X7391427Y-15962476D01*
X7410475Y-15952952D01*
X7419999Y-15943428D01*
X7439046Y-15914857D01*
X7448570Y-15876762D01*
X7448570Y-15800571D01*
X7439046Y-15781524D01*
X7429522Y-15772000D01*
X7410475Y-15762476D01*
X7372380Y-15762476D01*
X7353332Y-15772000D01*
X7343808Y-15781524D01*
X7334284Y-15800571D01*
X7334284Y-15848190D01*
X7343808Y-15867238D01*
X7353332Y-15876762D01*
X7372380Y-15886286D01*
X7410475Y-15886286D01*
X7429522Y-15876762D01*
X7439046Y-15867238D01*
X7448570Y-15848190D01*
X7572380Y-15762476D02*
X7591427Y-15762476D01*
X7610475Y-15772000D01*
X7619999Y-15781524D01*
X7629522Y-15800571D01*
X7639046Y-15838667D01*
X7639046Y-15886286D01*
X7629522Y-15924381D01*
X7619999Y-15943428D01*
X7610475Y-15952952D01*
X7591427Y-15962476D01*
X7572380Y-15962476D01*
X7553332Y-15952952D01*
X7543808Y-15943428D01*
X7534284Y-15924381D01*
X7524761Y-15886286D01*
X7524761Y-15838667D01*
X7534284Y-15800571D01*
X7543808Y-15781524D01*
X7553332Y-15772000D01*
X7572380Y-15762476D01*
X7724761Y-15962476D02*
X7724761Y-15829143D01*
X7724761Y-15848190D02*
X7734284Y-15838667D01*
X7753332Y-15829143D01*
X7781903Y-15829143D01*
X7800951Y-15838667D01*
X7810475Y-15857714D01*
X7810475Y-15962476D01*
X7810475Y-15857714D02*
X7819999Y-15838667D01*
X7839046Y-15829143D01*
X7867618Y-15829143D01*
X7886665Y-15838667D01*
X7896189Y-15857714D01*
X7896189Y-15962476D01*
X7991427Y-15962476D02*
X7991427Y-15829143D01*
X7991427Y-15848190D02*
X8000951Y-15838667D01*
X8019999Y-15829143D01*
X8048570Y-15829143D01*
X8067618Y-15838667D01*
X8077141Y-15857714D01*
X8077141Y-15962476D01*
X8077141Y-15857714D02*
X8086665Y-15838667D01*
X8105713Y-15829143D01*
X8134284Y-15829143D01*
X8153332Y-15838667D01*
X8162856Y-15857714D01*
X8162856Y-15962476D01*
X8553332Y-15752952D02*
X8381903Y-16010095D01*
X8810475Y-15762476D02*
X8829523Y-15762476D01*
X8848570Y-15772000D01*
X8858094Y-15781524D01*
X8867618Y-15800571D01*
X8877142Y-15838667D01*
X8877142Y-15886286D01*
X8867618Y-15924381D01*
X8858094Y-15943428D01*
X8848570Y-15952952D01*
X8829523Y-15962476D01*
X8810475Y-15962476D01*
X8791427Y-15952952D01*
X8781903Y-15943428D01*
X8772380Y-15924381D01*
X8762856Y-15886286D01*
X8762856Y-15838667D01*
X8772380Y-15800571D01*
X8781903Y-15781524D01*
X8791427Y-15772000D01*
X8810475Y-15762476D01*
X8962856Y-15943428D02*
X8972380Y-15952952D01*
X8962856Y-15962476D01*
X8953332Y-15952952D01*
X8962856Y-15943428D01*
X8962856Y-15962476D01*
X9096189Y-15762476D02*
X9115237Y-15762476D01*
X9134284Y-15772000D01*
X9143808Y-15781524D01*
X9153332Y-15800571D01*
X9162856Y-15838667D01*
X9162856Y-15886286D01*
X9153332Y-15924381D01*
X9143808Y-15943428D01*
X9134284Y-15952952D01*
X9115237Y-15962476D01*
X9096189Y-15962476D01*
X9077142Y-15952952D01*
X9067618Y-15943428D01*
X9058094Y-15924381D01*
X9048570Y-15886286D01*
X9048570Y-15838667D01*
X9058094Y-15800571D01*
X9067618Y-15781524D01*
X9077142Y-15772000D01*
X9096189Y-15762476D01*
X9229523Y-15762476D02*
X9353332Y-15762476D01*
X9286665Y-15838667D01*
X9315237Y-15838667D01*
X9334284Y-15848190D01*
X9343808Y-15857714D01*
X9353332Y-15876762D01*
X9353332Y-15924381D01*
X9343808Y-15943428D01*
X9334284Y-15952952D01*
X9315237Y-15962476D01*
X9258094Y-15962476D01*
X9239046Y-15952952D01*
X9229523Y-15943428D01*
X9448570Y-15962476D02*
X9486665Y-15962476D01*
X9505713Y-15952952D01*
X9515237Y-15943428D01*
X9534284Y-15914857D01*
X9543808Y-15876762D01*
X9543808Y-15800571D01*
X9534284Y-15781524D01*
X9524761Y-15772000D01*
X9505713Y-15762476D01*
X9467618Y-15762476D01*
X9448570Y-15772000D01*
X9439046Y-15781524D01*
X9429523Y-15800571D01*
X9429523Y-15848190D01*
X9439046Y-15867238D01*
X9448570Y-15876762D01*
X9467618Y-15886286D01*
X9505713Y-15886286D01*
X9524761Y-15876762D01*
X9534284Y-15867238D01*
X9543808Y-15848190D01*
X9667618Y-15762476D02*
X9686665Y-15762476D01*
X9705713Y-15772000D01*
X9715237Y-15781524D01*
X9724761Y-15800571D01*
X9734284Y-15838667D01*
X9734284Y-15886286D01*
X9724761Y-15924381D01*
X9715237Y-15943428D01*
X9705713Y-15952952D01*
X9686665Y-15962476D01*
X9667618Y-15962476D01*
X9648570Y-15952952D01*
X9639046Y-15943428D01*
X9629523Y-15924381D01*
X9619999Y-15886286D01*
X9619999Y-15838667D01*
X9629523Y-15800571D01*
X9639046Y-15781524D01*
X9648570Y-15772000D01*
X9667618Y-15762476D01*
X9810475Y-15762476D02*
X9810475Y-15800571D01*
X9886665Y-15762476D02*
X9886665Y-15800571D01*
X10181903Y-16038667D02*
X10172380Y-16029143D01*
X10153332Y-16000571D01*
X10143808Y-15981524D01*
X10134284Y-15952952D01*
X10124761Y-15905333D01*
X10124761Y-15867238D01*
X10134284Y-15819619D01*
X10143808Y-15791048D01*
X10153332Y-15772000D01*
X10172380Y-15743428D01*
X10181903Y-15733905D01*
X10286665Y-15848190D02*
X10267618Y-15838667D01*
X10258094Y-15829143D01*
X10248570Y-15810095D01*
X10248570Y-15800571D01*
X10258094Y-15781524D01*
X10267618Y-15772000D01*
X10286665Y-15762476D01*
X10324761Y-15762476D01*
X10343808Y-15772000D01*
X10353332Y-15781524D01*
X10362856Y-15800571D01*
X10362856Y-15810095D01*
X10353332Y-15829143D01*
X10343808Y-15838667D01*
X10324761Y-15848190D01*
X10286665Y-15848190D01*
X10267618Y-15857714D01*
X10258094Y-15867238D01*
X10248570Y-15886286D01*
X10248570Y-15924381D01*
X10258094Y-15943428D01*
X10267618Y-15952952D01*
X10286665Y-15962476D01*
X10324761Y-15962476D01*
X10343808Y-15952952D01*
X10353332Y-15943428D01*
X10362856Y-15924381D01*
X10362856Y-15886286D01*
X10353332Y-15867238D01*
X10343808Y-15857714D01*
X10324761Y-15848190D01*
X10600951Y-15962476D02*
X10600951Y-15762476D01*
X10686665Y-15962476D02*
X10686665Y-15857714D01*
X10677142Y-15838667D01*
X10658094Y-15829143D01*
X10629523Y-15829143D01*
X10610475Y-15838667D01*
X10600951Y-15848190D01*
X10810475Y-15962476D02*
X10791427Y-15952952D01*
X10781903Y-15943428D01*
X10772380Y-15924381D01*
X10772380Y-15867238D01*
X10781903Y-15848190D01*
X10791427Y-15838667D01*
X10810475Y-15829143D01*
X10839046Y-15829143D01*
X10858094Y-15838667D01*
X10867618Y-15848190D01*
X10877142Y-15867238D01*
X10877142Y-15924381D01*
X10867618Y-15943428D01*
X10858094Y-15952952D01*
X10839046Y-15962476D01*
X10810475Y-15962476D01*
X10991427Y-15962476D02*
X10972380Y-15952952D01*
X10962856Y-15933905D01*
X10962856Y-15762476D01*
X11143808Y-15952952D02*
X11124761Y-15962476D01*
X11086665Y-15962476D01*
X11067618Y-15952952D01*
X11058094Y-15933905D01*
X11058094Y-15857714D01*
X11067618Y-15838667D01*
X11086665Y-15829143D01*
X11124761Y-15829143D01*
X11143808Y-15838667D01*
X11153332Y-15857714D01*
X11153332Y-15876762D01*
X11058094Y-15895809D01*
X11229522Y-15952952D02*
X11248570Y-15962476D01*
X11286665Y-15962476D01*
X11305713Y-15952952D01*
X11315237Y-15933905D01*
X11315237Y-15924381D01*
X11305713Y-15905333D01*
X11286665Y-15895809D01*
X11258094Y-15895809D01*
X11239046Y-15886286D01*
X11229522Y-15867238D01*
X11229522Y-15857714D01*
X11239046Y-15838667D01*
X11258094Y-15829143D01*
X11286665Y-15829143D01*
X11305713Y-15838667D01*
X11381903Y-16038667D02*
X11391427Y-16029143D01*
X11410475Y-16000571D01*
X11419999Y-15981524D01*
X11429522Y-15952952D01*
X11439046Y-15905333D01*
X11439046Y-15867238D01*
X11429522Y-15819619D01*
X11419999Y-15791048D01*
X11410475Y-15772000D01*
X11391427Y-15743428D01*
X11381903Y-15733905D01*
D10*
X6595354Y-16171356D02*
X6595354Y-16100644D01*
X6524643Y-16100644D01*
X6524643Y-16171356D01*
X6595354Y-16171356D01*
X6609999Y-16136000D02*
G75*
G03*
X6609999Y-16136000I-50000J0D01*
G01*
D11*
X6972380Y-16226476D02*
X6858094Y-16226476D01*
X6915237Y-16226476D02*
X6915237Y-16026476D01*
X6896189Y-16055048D01*
X6877141Y-16074095D01*
X6858094Y-16083619D01*
X7058094Y-16207428D02*
X7067618Y-16216952D01*
X7058094Y-16226476D01*
X7048570Y-16216952D01*
X7058094Y-16207428D01*
X7058094Y-16226476D01*
X7191427Y-16026476D02*
X7210475Y-16026476D01*
X7229522Y-16036000D01*
X7239046Y-16045524D01*
X7248570Y-16064571D01*
X7258094Y-16102667D01*
X7258094Y-16150286D01*
X7248570Y-16188381D01*
X7239046Y-16207428D01*
X7229522Y-16216952D01*
X7210475Y-16226476D01*
X7191427Y-16226476D01*
X7172380Y-16216952D01*
X7162856Y-16207428D01*
X7153332Y-16188381D01*
X7143808Y-16150286D01*
X7143808Y-16102667D01*
X7153332Y-16064571D01*
X7162856Y-16045524D01*
X7172380Y-16036000D01*
X7191427Y-16026476D01*
X7381903Y-16026476D02*
X7400951Y-16026476D01*
X7419999Y-16036000D01*
X7429522Y-16045524D01*
X7439046Y-16064571D01*
X7448570Y-16102667D01*
X7448570Y-16150286D01*
X7439046Y-16188381D01*
X7429522Y-16207428D01*
X7419999Y-16216952D01*
X7400951Y-16226476D01*
X7381903Y-16226476D01*
X7362856Y-16216952D01*
X7353332Y-16207428D01*
X7343808Y-16188381D01*
X7334284Y-16150286D01*
X7334284Y-16102667D01*
X7343808Y-16064571D01*
X7353332Y-16045524D01*
X7362856Y-16036000D01*
X7381903Y-16026476D01*
X7572380Y-16026476D02*
X7591427Y-16026476D01*
X7610475Y-16036000D01*
X7619999Y-16045524D01*
X7629522Y-16064571D01*
X7639046Y-16102667D01*
X7639046Y-16150286D01*
X7629522Y-16188381D01*
X7619999Y-16207428D01*
X7610475Y-16216952D01*
X7591427Y-16226476D01*
X7572380Y-16226476D01*
X7553332Y-16216952D01*
X7543808Y-16207428D01*
X7534284Y-16188381D01*
X7524761Y-16150286D01*
X7524761Y-16102667D01*
X7534284Y-16064571D01*
X7543808Y-16045524D01*
X7553332Y-16036000D01*
X7572380Y-16026476D01*
X7724761Y-16226476D02*
X7724761Y-16093143D01*
X7724761Y-16112190D02*
X7734284Y-16102667D01*
X7753332Y-16093143D01*
X7781903Y-16093143D01*
X7800951Y-16102667D01*
X7810475Y-16121714D01*
X7810475Y-16226476D01*
X7810475Y-16121714D02*
X7819999Y-16102667D01*
X7839046Y-16093143D01*
X7867618Y-16093143D01*
X7886665Y-16102667D01*
X7896189Y-16121714D01*
X7896189Y-16226476D01*
X7991427Y-16226476D02*
X7991427Y-16093143D01*
X7991427Y-16112190D02*
X8000951Y-16102667D01*
X8019999Y-16093143D01*
X8048570Y-16093143D01*
X8067618Y-16102667D01*
X8077141Y-16121714D01*
X8077141Y-16226476D01*
X8077141Y-16121714D02*
X8086665Y-16102667D01*
X8105713Y-16093143D01*
X8134284Y-16093143D01*
X8153332Y-16102667D01*
X8162856Y-16121714D01*
X8162856Y-16226476D01*
X8553332Y-16016952D02*
X8381903Y-16274095D01*
X8810475Y-16026476D02*
X8829523Y-16026476D01*
X8848570Y-16036000D01*
X8858094Y-16045524D01*
X8867618Y-16064571D01*
X8877142Y-16102667D01*
X8877142Y-16150286D01*
X8867618Y-16188381D01*
X8858094Y-16207428D01*
X8848570Y-16216952D01*
X8829523Y-16226476D01*
X8810475Y-16226476D01*
X8791427Y-16216952D01*
X8781903Y-16207428D01*
X8772380Y-16188381D01*
X8762856Y-16150286D01*
X8762856Y-16102667D01*
X8772380Y-16064571D01*
X8781903Y-16045524D01*
X8791427Y-16036000D01*
X8810475Y-16026476D01*
X8962856Y-16207428D02*
X8972380Y-16216952D01*
X8962856Y-16226476D01*
X8953332Y-16216952D01*
X8962856Y-16207428D01*
X8962856Y-16226476D01*
X9096189Y-16026476D02*
X9115237Y-16026476D01*
X9134284Y-16036000D01*
X9143808Y-16045524D01*
X9153332Y-16064571D01*
X9162856Y-16102667D01*
X9162856Y-16150286D01*
X9153332Y-16188381D01*
X9143808Y-16207428D01*
X9134284Y-16216952D01*
X9115237Y-16226476D01*
X9096189Y-16226476D01*
X9077142Y-16216952D01*
X9067618Y-16207428D01*
X9058094Y-16188381D01*
X9048570Y-16150286D01*
X9048570Y-16102667D01*
X9058094Y-16064571D01*
X9067618Y-16045524D01*
X9077142Y-16036000D01*
X9096189Y-16026476D01*
X9229523Y-16026476D02*
X9353332Y-16026476D01*
X9286665Y-16102667D01*
X9315237Y-16102667D01*
X9334284Y-16112190D01*
X9343808Y-16121714D01*
X9353332Y-16140762D01*
X9353332Y-16188381D01*
X9343808Y-16207428D01*
X9334284Y-16216952D01*
X9315237Y-16226476D01*
X9258094Y-16226476D01*
X9239046Y-16216952D01*
X9229523Y-16207428D01*
X9448570Y-16226476D02*
X9486665Y-16226476D01*
X9505713Y-16216952D01*
X9515237Y-16207428D01*
X9534284Y-16178857D01*
X9543808Y-16140762D01*
X9543808Y-16064571D01*
X9534284Y-16045524D01*
X9524761Y-16036000D01*
X9505713Y-16026476D01*
X9467618Y-16026476D01*
X9448570Y-16036000D01*
X9439046Y-16045524D01*
X9429523Y-16064571D01*
X9429523Y-16112190D01*
X9439046Y-16131238D01*
X9448570Y-16140762D01*
X9467618Y-16150286D01*
X9505713Y-16150286D01*
X9524761Y-16140762D01*
X9534284Y-16131238D01*
X9543808Y-16112190D01*
X9715237Y-16093143D02*
X9715237Y-16226476D01*
X9667618Y-16016952D02*
X9619999Y-16159809D01*
X9743808Y-16159809D01*
X9810475Y-16026476D02*
X9810475Y-16064571D01*
X9886665Y-16026476D02*
X9886665Y-16064571D01*
X10181903Y-16302667D02*
X10172380Y-16293143D01*
X10153332Y-16264571D01*
X10143808Y-16245524D01*
X10134284Y-16216952D01*
X10124761Y-16169333D01*
X10124761Y-16131238D01*
X10134284Y-16083619D01*
X10143808Y-16055048D01*
X10153332Y-16036000D01*
X10172380Y-16007428D01*
X10181903Y-15997905D01*
X10353332Y-16026476D02*
X10258094Y-16026476D01*
X10248570Y-16121714D01*
X10258094Y-16112190D01*
X10277142Y-16102667D01*
X10324761Y-16102667D01*
X10343808Y-16112190D01*
X10353332Y-16121714D01*
X10362856Y-16140762D01*
X10362856Y-16188381D01*
X10353332Y-16207428D01*
X10343808Y-16216952D01*
X10324761Y-16226476D01*
X10277142Y-16226476D01*
X10258094Y-16216952D01*
X10248570Y-16207428D01*
X10486665Y-16026476D02*
X10505713Y-16026476D01*
X10524761Y-16036000D01*
X10534284Y-16045524D01*
X10543808Y-16064571D01*
X10553332Y-16102667D01*
X10553332Y-16150286D01*
X10543808Y-16188381D01*
X10534284Y-16207428D01*
X10524761Y-16216952D01*
X10505713Y-16226476D01*
X10486665Y-16226476D01*
X10467618Y-16216952D01*
X10458094Y-16207428D01*
X10448570Y-16188381D01*
X10439046Y-16150286D01*
X10439046Y-16102667D01*
X10448570Y-16064571D01*
X10458094Y-16045524D01*
X10467618Y-16036000D01*
X10486665Y-16026476D01*
X10791427Y-16226476D02*
X10791427Y-16026476D01*
X10877142Y-16226476D02*
X10877142Y-16121714D01*
X10867618Y-16102667D01*
X10848570Y-16093143D01*
X10819999Y-16093143D01*
X10800951Y-16102667D01*
X10791427Y-16112190D01*
X11000951Y-16226476D02*
X10981903Y-16216952D01*
X10972380Y-16207428D01*
X10962856Y-16188381D01*
X10962856Y-16131238D01*
X10972380Y-16112190D01*
X10981903Y-16102667D01*
X11000951Y-16093143D01*
X11029523Y-16093143D01*
X11048570Y-16102667D01*
X11058094Y-16112190D01*
X11067618Y-16131238D01*
X11067618Y-16188381D01*
X11058094Y-16207428D01*
X11048570Y-16216952D01*
X11029523Y-16226476D01*
X11000951Y-16226476D01*
X11181903Y-16226476D02*
X11162856Y-16216952D01*
X11153332Y-16197905D01*
X11153332Y-16026476D01*
X11334284Y-16216952D02*
X11315237Y-16226476D01*
X11277141Y-16226476D01*
X11258094Y-16216952D01*
X11248570Y-16197905D01*
X11248570Y-16121714D01*
X11258094Y-16102667D01*
X11277141Y-16093143D01*
X11315237Y-16093143D01*
X11334284Y-16102667D01*
X11343808Y-16121714D01*
X11343808Y-16140762D01*
X11248570Y-16159809D01*
X11419999Y-16216952D02*
X11439046Y-16226476D01*
X11477141Y-16226476D01*
X11496189Y-16216952D01*
X11505713Y-16197905D01*
X11505713Y-16188381D01*
X11496189Y-16169333D01*
X11477141Y-16159809D01*
X11448570Y-16159809D01*
X11429522Y-16150286D01*
X11419999Y-16131238D01*
X11419999Y-16121714D01*
X11429522Y-16102667D01*
X11448570Y-16093143D01*
X11477141Y-16093143D01*
X11496189Y-16102667D01*
X11572380Y-16302667D02*
X11581903Y-16293143D01*
X11600951Y-16264571D01*
X11610475Y-16245524D01*
X11619999Y-16216952D01*
X11629522Y-16169333D01*
X11629522Y-16131238D01*
X11619999Y-16083619D01*
X11610475Y-16055048D01*
X11600951Y-16036000D01*
X11581903Y-16007428D01*
X11572380Y-15997905D01*
D20*
X6544999Y-16465000D02*
X6609999Y-16400000D01*
X6544999Y-16335000D01*
X6479999Y-16400000D01*
X6544999Y-16465000D01*
X6609999Y-16400000D02*
G75*
G03*
X6609999Y-16400000I-65000J0D01*
G01*
D11*
X6972380Y-16490476D02*
X6858094Y-16490476D01*
X6915237Y-16490476D02*
X6915237Y-16290476D01*
X6896189Y-16319048D01*
X6877141Y-16338095D01*
X6858094Y-16347619D01*
X7058094Y-16471428D02*
X7067618Y-16480952D01*
X7058094Y-16490476D01*
X7048570Y-16480952D01*
X7058094Y-16471428D01*
X7058094Y-16490476D01*
X7134284Y-16290476D02*
X7258094Y-16290476D01*
X7191427Y-16366667D01*
X7219999Y-16366667D01*
X7239046Y-16376190D01*
X7248570Y-16385714D01*
X7258094Y-16404762D01*
X7258094Y-16452381D01*
X7248570Y-16471428D01*
X7239046Y-16480952D01*
X7219999Y-16490476D01*
X7162856Y-16490476D01*
X7143808Y-16480952D01*
X7134284Y-16471428D01*
X7381903Y-16290476D02*
X7400951Y-16290476D01*
X7419999Y-16300000D01*
X7429522Y-16309524D01*
X7439046Y-16328571D01*
X7448570Y-16366667D01*
X7448570Y-16414286D01*
X7439046Y-16452381D01*
X7429522Y-16471428D01*
X7419999Y-16480952D01*
X7400951Y-16490476D01*
X7381903Y-16490476D01*
X7362856Y-16480952D01*
X7353332Y-16471428D01*
X7343808Y-16452381D01*
X7334284Y-16414286D01*
X7334284Y-16366667D01*
X7343808Y-16328571D01*
X7353332Y-16309524D01*
X7362856Y-16300000D01*
X7381903Y-16290476D01*
X7572380Y-16290476D02*
X7591427Y-16290476D01*
X7610475Y-16300000D01*
X7619999Y-16309524D01*
X7629522Y-16328571D01*
X7639046Y-16366667D01*
X7639046Y-16414286D01*
X7629522Y-16452381D01*
X7619999Y-16471428D01*
X7610475Y-16480952D01*
X7591427Y-16490476D01*
X7572380Y-16490476D01*
X7553332Y-16480952D01*
X7543808Y-16471428D01*
X7534284Y-16452381D01*
X7524761Y-16414286D01*
X7524761Y-16366667D01*
X7534284Y-16328571D01*
X7543808Y-16309524D01*
X7553332Y-16300000D01*
X7572380Y-16290476D01*
X7724761Y-16490476D02*
X7724761Y-16357143D01*
X7724761Y-16376190D02*
X7734284Y-16366667D01*
X7753332Y-16357143D01*
X7781903Y-16357143D01*
X7800951Y-16366667D01*
X7810475Y-16385714D01*
X7810475Y-16490476D01*
X7810475Y-16385714D02*
X7819999Y-16366667D01*
X7839046Y-16357143D01*
X7867618Y-16357143D01*
X7886665Y-16366667D01*
X7896189Y-16385714D01*
X7896189Y-16490476D01*
X7991427Y-16490476D02*
X7991427Y-16357143D01*
X7991427Y-16376190D02*
X8000951Y-16366667D01*
X8019999Y-16357143D01*
X8048570Y-16357143D01*
X8067618Y-16366667D01*
X8077141Y-16385714D01*
X8077141Y-16490476D01*
X8077141Y-16385714D02*
X8086665Y-16366667D01*
X8105713Y-16357143D01*
X8134284Y-16357143D01*
X8153332Y-16366667D01*
X8162856Y-16385714D01*
X8162856Y-16490476D01*
X8553332Y-16280952D02*
X8381903Y-16538095D01*
X8810475Y-16290476D02*
X8829523Y-16290476D01*
X8848570Y-16300000D01*
X8858094Y-16309524D01*
X8867618Y-16328571D01*
X8877142Y-16366667D01*
X8877142Y-16414286D01*
X8867618Y-16452381D01*
X8858094Y-16471428D01*
X8848570Y-16480952D01*
X8829523Y-16490476D01*
X8810475Y-16490476D01*
X8791427Y-16480952D01*
X8781903Y-16471428D01*
X8772380Y-16452381D01*
X8762856Y-16414286D01*
X8762856Y-16366667D01*
X8772380Y-16328571D01*
X8781903Y-16309524D01*
X8791427Y-16300000D01*
X8810475Y-16290476D01*
X8962856Y-16471428D02*
X8972380Y-16480952D01*
X8962856Y-16490476D01*
X8953332Y-16480952D01*
X8962856Y-16471428D01*
X8962856Y-16490476D01*
X9096189Y-16290476D02*
X9115237Y-16290476D01*
X9134284Y-16300000D01*
X9143808Y-16309524D01*
X9153332Y-16328571D01*
X9162856Y-16366667D01*
X9162856Y-16414286D01*
X9153332Y-16452381D01*
X9143808Y-16471428D01*
X9134284Y-16480952D01*
X9115237Y-16490476D01*
X9096189Y-16490476D01*
X9077142Y-16480952D01*
X9067618Y-16471428D01*
X9058094Y-16452381D01*
X9048570Y-16414286D01*
X9048570Y-16366667D01*
X9058094Y-16328571D01*
X9067618Y-16309524D01*
X9077142Y-16300000D01*
X9096189Y-16290476D01*
X9343808Y-16290476D02*
X9248570Y-16290476D01*
X9239046Y-16385714D01*
X9248570Y-16376190D01*
X9267618Y-16366667D01*
X9315237Y-16366667D01*
X9334284Y-16376190D01*
X9343808Y-16385714D01*
X9353332Y-16404762D01*
X9353332Y-16452381D01*
X9343808Y-16471428D01*
X9334284Y-16480952D01*
X9315237Y-16490476D01*
X9267618Y-16490476D01*
X9248570Y-16480952D01*
X9239046Y-16471428D01*
X9543808Y-16490476D02*
X9429523Y-16490476D01*
X9486665Y-16490476D02*
X9486665Y-16290476D01*
X9467618Y-16319048D01*
X9448570Y-16338095D01*
X9429523Y-16347619D01*
X9619999Y-16309524D02*
X9629523Y-16300000D01*
X9648570Y-16290476D01*
X9696189Y-16290476D01*
X9715237Y-16300000D01*
X9724761Y-16309524D01*
X9734284Y-16328571D01*
X9734284Y-16347619D01*
X9724761Y-16376190D01*
X9610475Y-16490476D01*
X9734284Y-16490476D01*
X9810475Y-16290476D02*
X9810475Y-16328571D01*
X9886665Y-16290476D02*
X9886665Y-16328571D01*
X10181903Y-16566667D02*
X10172380Y-16557143D01*
X10153332Y-16528571D01*
X10143808Y-16509524D01*
X10134284Y-16480952D01*
X10124761Y-16433333D01*
X10124761Y-16395238D01*
X10134284Y-16347619D01*
X10143808Y-16319048D01*
X10153332Y-16300000D01*
X10172380Y-16271428D01*
X10181903Y-16261905D01*
X10286665Y-16376190D02*
X10267618Y-16366667D01*
X10258094Y-16357143D01*
X10248570Y-16338095D01*
X10248570Y-16328571D01*
X10258094Y-16309524D01*
X10267618Y-16300000D01*
X10286665Y-16290476D01*
X10324761Y-16290476D01*
X10343808Y-16300000D01*
X10353332Y-16309524D01*
X10362856Y-16328571D01*
X10362856Y-16338095D01*
X10353332Y-16357143D01*
X10343808Y-16366667D01*
X10324761Y-16376190D01*
X10286665Y-16376190D01*
X10267618Y-16385714D01*
X10258094Y-16395238D01*
X10248570Y-16414286D01*
X10248570Y-16452381D01*
X10258094Y-16471428D01*
X10267618Y-16480952D01*
X10286665Y-16490476D01*
X10324761Y-16490476D01*
X10343808Y-16480952D01*
X10353332Y-16471428D01*
X10362856Y-16452381D01*
X10362856Y-16414286D01*
X10353332Y-16395238D01*
X10343808Y-16385714D01*
X10324761Y-16376190D01*
X10600951Y-16490476D02*
X10600951Y-16290476D01*
X10686665Y-16490476D02*
X10686665Y-16385714D01*
X10677142Y-16366667D01*
X10658094Y-16357143D01*
X10629523Y-16357143D01*
X10610475Y-16366667D01*
X10600951Y-16376190D01*
X10810475Y-16490476D02*
X10791427Y-16480952D01*
X10781903Y-16471428D01*
X10772380Y-16452381D01*
X10772380Y-16395238D01*
X10781903Y-16376190D01*
X10791427Y-16366667D01*
X10810475Y-16357143D01*
X10839046Y-16357143D01*
X10858094Y-16366667D01*
X10867618Y-16376190D01*
X10877142Y-16395238D01*
X10877142Y-16452381D01*
X10867618Y-16471428D01*
X10858094Y-16480952D01*
X10839046Y-16490476D01*
X10810475Y-16490476D01*
X10991427Y-16490476D02*
X10972380Y-16480952D01*
X10962856Y-16461905D01*
X10962856Y-16290476D01*
X11143808Y-16480952D02*
X11124761Y-16490476D01*
X11086665Y-16490476D01*
X11067618Y-16480952D01*
X11058094Y-16461905D01*
X11058094Y-16385714D01*
X11067618Y-16366667D01*
X11086665Y-16357143D01*
X11124761Y-16357143D01*
X11143808Y-16366667D01*
X11153332Y-16385714D01*
X11153332Y-16404762D01*
X11058094Y-16423809D01*
X11229522Y-16480952D02*
X11248570Y-16490476D01*
X11286665Y-16490476D01*
X11305713Y-16480952D01*
X11315237Y-16461905D01*
X11315237Y-16452381D01*
X11305713Y-16433333D01*
X11286665Y-16423809D01*
X11258094Y-16423809D01*
X11239046Y-16414286D01*
X11229522Y-16395238D01*
X11229522Y-16385714D01*
X11239046Y-16366667D01*
X11258094Y-16357143D01*
X11286665Y-16357143D01*
X11305713Y-16366667D01*
X11381903Y-16566667D02*
X11391427Y-16557143D01*
X11410475Y-16528571D01*
X11419999Y-16509524D01*
X11429522Y-16480952D01*
X11439046Y-16433333D01*
X11439046Y-16395238D01*
X11429522Y-16347619D01*
X11419999Y-16319048D01*
X11410475Y-16300000D01*
X11391427Y-16271428D01*
X11381903Y-16261905D01*
D21*
X6534999Y-16589000D02*
X6534999Y-16739000D01*
X6459999Y-16664000D02*
X6609999Y-16664000D01*
X6588032Y-16717033D02*
X6588032Y-16610966D01*
X6481965Y-16610966D01*
X6481965Y-16717033D01*
X6588032Y-16717033D01*
D11*
X6972380Y-16754476D02*
X6858094Y-16754476D01*
X6915237Y-16754476D02*
X6915237Y-16554476D01*
X6896189Y-16583048D01*
X6877141Y-16602095D01*
X6858094Y-16611619D01*
X7058094Y-16735428D02*
X7067618Y-16744952D01*
X7058094Y-16754476D01*
X7048570Y-16744952D01*
X7058094Y-16735428D01*
X7058094Y-16754476D01*
X7248570Y-16554476D02*
X7153332Y-16554476D01*
X7143808Y-16649714D01*
X7153332Y-16640190D01*
X7172380Y-16630667D01*
X7219999Y-16630667D01*
X7239046Y-16640190D01*
X7248570Y-16649714D01*
X7258094Y-16668762D01*
X7258094Y-16716381D01*
X7248570Y-16735428D01*
X7239046Y-16744952D01*
X7219999Y-16754476D01*
X7172380Y-16754476D01*
X7153332Y-16744952D01*
X7143808Y-16735428D01*
X7381903Y-16554476D02*
X7400951Y-16554476D01*
X7419999Y-16564000D01*
X7429522Y-16573524D01*
X7439046Y-16592571D01*
X7448570Y-16630667D01*
X7448570Y-16678286D01*
X7439046Y-16716381D01*
X7429522Y-16735428D01*
X7419999Y-16744952D01*
X7400951Y-16754476D01*
X7381903Y-16754476D01*
X7362856Y-16744952D01*
X7353332Y-16735428D01*
X7343808Y-16716381D01*
X7334284Y-16678286D01*
X7334284Y-16630667D01*
X7343808Y-16592571D01*
X7353332Y-16573524D01*
X7362856Y-16564000D01*
X7381903Y-16554476D01*
X7572380Y-16554476D02*
X7591427Y-16554476D01*
X7610475Y-16564000D01*
X7619999Y-16573524D01*
X7629522Y-16592571D01*
X7639046Y-16630667D01*
X7639046Y-16678286D01*
X7629522Y-16716381D01*
X7619999Y-16735428D01*
X7610475Y-16744952D01*
X7591427Y-16754476D01*
X7572380Y-16754476D01*
X7553332Y-16744952D01*
X7543808Y-16735428D01*
X7534284Y-16716381D01*
X7524761Y-16678286D01*
X7524761Y-16630667D01*
X7534284Y-16592571D01*
X7543808Y-16573524D01*
X7553332Y-16564000D01*
X7572380Y-16554476D01*
X7724761Y-16754476D02*
X7724761Y-16621143D01*
X7724761Y-16640190D02*
X7734284Y-16630667D01*
X7753332Y-16621143D01*
X7781903Y-16621143D01*
X7800951Y-16630667D01*
X7810475Y-16649714D01*
X7810475Y-16754476D01*
X7810475Y-16649714D02*
X7819999Y-16630667D01*
X7839046Y-16621143D01*
X7867618Y-16621143D01*
X7886665Y-16630667D01*
X7896189Y-16649714D01*
X7896189Y-16754476D01*
X7991427Y-16754476D02*
X7991427Y-16621143D01*
X7991427Y-16640190D02*
X8000951Y-16630667D01*
X8019999Y-16621143D01*
X8048570Y-16621143D01*
X8067618Y-16630667D01*
X8077141Y-16649714D01*
X8077141Y-16754476D01*
X8077141Y-16649714D02*
X8086665Y-16630667D01*
X8105713Y-16621143D01*
X8134284Y-16621143D01*
X8153332Y-16630667D01*
X8162856Y-16649714D01*
X8162856Y-16754476D01*
X8553332Y-16544952D02*
X8381903Y-16802095D01*
X8810475Y-16554476D02*
X8829523Y-16554476D01*
X8848570Y-16564000D01*
X8858094Y-16573524D01*
X8867618Y-16592571D01*
X8877142Y-16630667D01*
X8877142Y-16678286D01*
X8867618Y-16716381D01*
X8858094Y-16735428D01*
X8848570Y-16744952D01*
X8829523Y-16754476D01*
X8810475Y-16754476D01*
X8791427Y-16744952D01*
X8781903Y-16735428D01*
X8772380Y-16716381D01*
X8762856Y-16678286D01*
X8762856Y-16630667D01*
X8772380Y-16592571D01*
X8781903Y-16573524D01*
X8791427Y-16564000D01*
X8810475Y-16554476D01*
X8962856Y-16735428D02*
X8972380Y-16744952D01*
X8962856Y-16754476D01*
X8953332Y-16744952D01*
X8962856Y-16735428D01*
X8962856Y-16754476D01*
X9096189Y-16554476D02*
X9115237Y-16554476D01*
X9134284Y-16564000D01*
X9143808Y-16573524D01*
X9153332Y-16592571D01*
X9162856Y-16630667D01*
X9162856Y-16678286D01*
X9153332Y-16716381D01*
X9143808Y-16735428D01*
X9134284Y-16744952D01*
X9115237Y-16754476D01*
X9096189Y-16754476D01*
X9077142Y-16744952D01*
X9067618Y-16735428D01*
X9058094Y-16716381D01*
X9048570Y-16678286D01*
X9048570Y-16630667D01*
X9058094Y-16592571D01*
X9067618Y-16573524D01*
X9077142Y-16564000D01*
X9096189Y-16554476D01*
X9343808Y-16554476D02*
X9248570Y-16554476D01*
X9239046Y-16649714D01*
X9248570Y-16640190D01*
X9267618Y-16630667D01*
X9315237Y-16630667D01*
X9334284Y-16640190D01*
X9343808Y-16649714D01*
X9353332Y-16668762D01*
X9353332Y-16716381D01*
X9343808Y-16735428D01*
X9334284Y-16744952D01*
X9315237Y-16754476D01*
X9267618Y-16754476D01*
X9248570Y-16744952D01*
X9239046Y-16735428D01*
X9448570Y-16754476D02*
X9486665Y-16754476D01*
X9505713Y-16744952D01*
X9515237Y-16735428D01*
X9534284Y-16706857D01*
X9543808Y-16668762D01*
X9543808Y-16592571D01*
X9534284Y-16573524D01*
X9524761Y-16564000D01*
X9505713Y-16554476D01*
X9467618Y-16554476D01*
X9448570Y-16564000D01*
X9439046Y-16573524D01*
X9429523Y-16592571D01*
X9429523Y-16640190D01*
X9439046Y-16659238D01*
X9448570Y-16668762D01*
X9467618Y-16678286D01*
X9505713Y-16678286D01*
X9524761Y-16668762D01*
X9534284Y-16659238D01*
X9543808Y-16640190D01*
X9734284Y-16754476D02*
X9619999Y-16754476D01*
X9677142Y-16754476D02*
X9677142Y-16554476D01*
X9658094Y-16583048D01*
X9639046Y-16602095D01*
X9619999Y-16611619D01*
X9810475Y-16554476D02*
X9810475Y-16592571D01*
X9886665Y-16554476D02*
X9886665Y-16592571D01*
X10181903Y-16830667D02*
X10172380Y-16821143D01*
X10153332Y-16792571D01*
X10143808Y-16773524D01*
X10134284Y-16744952D01*
X10124761Y-16697333D01*
X10124761Y-16659238D01*
X10134284Y-16611619D01*
X10143808Y-16583048D01*
X10153332Y-16564000D01*
X10172380Y-16535428D01*
X10181903Y-16525905D01*
X10248570Y-16573524D02*
X10258094Y-16564000D01*
X10277142Y-16554476D01*
X10324761Y-16554476D01*
X10343808Y-16564000D01*
X10353332Y-16573524D01*
X10362856Y-16592571D01*
X10362856Y-16611619D01*
X10353332Y-16640190D01*
X10239046Y-16754476D01*
X10362856Y-16754476D01*
X10600951Y-16754476D02*
X10600951Y-16554476D01*
X10686665Y-16754476D02*
X10686665Y-16649714D01*
X10677142Y-16630667D01*
X10658094Y-16621143D01*
X10629523Y-16621143D01*
X10610475Y-16630667D01*
X10600951Y-16640190D01*
X10810475Y-16754476D02*
X10791427Y-16744952D01*
X10781903Y-16735428D01*
X10772380Y-16716381D01*
X10772380Y-16659238D01*
X10781903Y-16640190D01*
X10791427Y-16630667D01*
X10810475Y-16621143D01*
X10839046Y-16621143D01*
X10858094Y-16630667D01*
X10867618Y-16640190D01*
X10877142Y-16659238D01*
X10877142Y-16716381D01*
X10867618Y-16735428D01*
X10858094Y-16744952D01*
X10839046Y-16754476D01*
X10810475Y-16754476D01*
X10991427Y-16754476D02*
X10972380Y-16744952D01*
X10962856Y-16725905D01*
X10962856Y-16554476D01*
X11143808Y-16744952D02*
X11124761Y-16754476D01*
X11086665Y-16754476D01*
X11067618Y-16744952D01*
X11058094Y-16725905D01*
X11058094Y-16649714D01*
X11067618Y-16630667D01*
X11086665Y-16621143D01*
X11124761Y-16621143D01*
X11143808Y-16630667D01*
X11153332Y-16649714D01*
X11153332Y-16668762D01*
X11058094Y-16687809D01*
X11229522Y-16744952D02*
X11248570Y-16754476D01*
X11286665Y-16754476D01*
X11305713Y-16744952D01*
X11315237Y-16725905D01*
X11315237Y-16716381D01*
X11305713Y-16697333D01*
X11286665Y-16687809D01*
X11258094Y-16687809D01*
X11239046Y-16678286D01*
X11229522Y-16659238D01*
X11229522Y-16649714D01*
X11239046Y-16630667D01*
X11258094Y-16621143D01*
X11286665Y-16621143D01*
X11305713Y-16630667D01*
X11381903Y-16830667D02*
X11391427Y-16821143D01*
X11410475Y-16792571D01*
X11419999Y-16773524D01*
X11429522Y-16744952D01*
X11439046Y-16697333D01*
X11439046Y-16659238D01*
X11429522Y-16611619D01*
X11419999Y-16583048D01*
X11410475Y-16564000D01*
X11391427Y-16535428D01*
X11381903Y-16525905D01*
X6509999Y-16834000D02*
X6509999Y-17034000D01*
X6409999Y-16934000D02*
X6609999Y-16934000D01*
X6509999Y-17034000D02*
X6609999Y-16934000D01*
X6509999Y-16834000D01*
X6409999Y-16934000D01*
X6509999Y-17034000D01*
X6858094Y-16843524D02*
X6867618Y-16834000D01*
X6886665Y-16824476D01*
X6934284Y-16824476D01*
X6953332Y-16834000D01*
X6962856Y-16843524D01*
X6972380Y-16862571D01*
X6972380Y-16881619D01*
X6962856Y-16910190D01*
X6848570Y-17024476D01*
X6972380Y-17024476D01*
X7058094Y-17005429D02*
X7067618Y-17014952D01*
X7058094Y-17024476D01*
X7048570Y-17014952D01*
X7058094Y-17005429D01*
X7058094Y-17024476D01*
X7134284Y-16824476D02*
X7267618Y-16824476D01*
X7181903Y-17024476D01*
X7381903Y-16824476D02*
X7400951Y-16824476D01*
X7419999Y-16834000D01*
X7429522Y-16843524D01*
X7439046Y-16862571D01*
X7448570Y-16900667D01*
X7448570Y-16948286D01*
X7439046Y-16986381D01*
X7429522Y-17005429D01*
X7419999Y-17014952D01*
X7400951Y-17024476D01*
X7381903Y-17024476D01*
X7362856Y-17014952D01*
X7353332Y-17005429D01*
X7343808Y-16986381D01*
X7334284Y-16948286D01*
X7334284Y-16900667D01*
X7343808Y-16862571D01*
X7353332Y-16843524D01*
X7362856Y-16834000D01*
X7381903Y-16824476D01*
X7572380Y-16824476D02*
X7591427Y-16824476D01*
X7610475Y-16834000D01*
X7619999Y-16843524D01*
X7629522Y-16862571D01*
X7639046Y-16900667D01*
X7639046Y-16948286D01*
X7629522Y-16986381D01*
X7619999Y-17005429D01*
X7610475Y-17014952D01*
X7591427Y-17024476D01*
X7572380Y-17024476D01*
X7553332Y-17014952D01*
X7543808Y-17005429D01*
X7534284Y-16986381D01*
X7524761Y-16948286D01*
X7524761Y-16900667D01*
X7534284Y-16862571D01*
X7543808Y-16843524D01*
X7553332Y-16834000D01*
X7572380Y-16824476D01*
X7724761Y-17024476D02*
X7724761Y-16891143D01*
X7724761Y-16910190D02*
X7734284Y-16900667D01*
X7753332Y-16891143D01*
X7781903Y-16891143D01*
X7800951Y-16900667D01*
X7810475Y-16919714D01*
X7810475Y-17024476D01*
X7810475Y-16919714D02*
X7819999Y-16900667D01*
X7839046Y-16891143D01*
X7867618Y-16891143D01*
X7886665Y-16900667D01*
X7896189Y-16919714D01*
X7896189Y-17024476D01*
X7991427Y-17024476D02*
X7991427Y-16891143D01*
X7991427Y-16910190D02*
X8000951Y-16900667D01*
X8019999Y-16891143D01*
X8048570Y-16891143D01*
X8067618Y-16900667D01*
X8077141Y-16919714D01*
X8077141Y-17024476D01*
X8077141Y-16919714D02*
X8086665Y-16900667D01*
X8105713Y-16891143D01*
X8134284Y-16891143D01*
X8153332Y-16900667D01*
X8162856Y-16919714D01*
X8162856Y-17024476D01*
X8553332Y-16814952D02*
X8381903Y-17072095D01*
X8810475Y-16824476D02*
X8829523Y-16824476D01*
X8848570Y-16834000D01*
X8858094Y-16843524D01*
X8867618Y-16862571D01*
X8877142Y-16900667D01*
X8877142Y-16948286D01*
X8867618Y-16986381D01*
X8858094Y-17005429D01*
X8848570Y-17014952D01*
X8829523Y-17024476D01*
X8810475Y-17024476D01*
X8791427Y-17014952D01*
X8781903Y-17005429D01*
X8772380Y-16986381D01*
X8762856Y-16948286D01*
X8762856Y-16900667D01*
X8772380Y-16862571D01*
X8781903Y-16843524D01*
X8791427Y-16834000D01*
X8810475Y-16824476D01*
X8962856Y-17005429D02*
X8972380Y-17014952D01*
X8962856Y-17024476D01*
X8953332Y-17014952D01*
X8962856Y-17005429D01*
X8962856Y-17024476D01*
X9162856Y-17024476D02*
X9048570Y-17024476D01*
X9105713Y-17024476D02*
X9105713Y-16824476D01*
X9086665Y-16853048D01*
X9067618Y-16872095D01*
X9048570Y-16881619D01*
X9286665Y-16824476D02*
X9305713Y-16824476D01*
X9324761Y-16834000D01*
X9334284Y-16843524D01*
X9343808Y-16862571D01*
X9353332Y-16900667D01*
X9353332Y-16948286D01*
X9343808Y-16986381D01*
X9334284Y-17005429D01*
X9324761Y-17014952D01*
X9305713Y-17024476D01*
X9286665Y-17024476D01*
X9267618Y-17014952D01*
X9258094Y-17005429D01*
X9248570Y-16986381D01*
X9239046Y-16948286D01*
X9239046Y-16900667D01*
X9248570Y-16862571D01*
X9258094Y-16843524D01*
X9267618Y-16834000D01*
X9286665Y-16824476D01*
X9524761Y-16824476D02*
X9486665Y-16824476D01*
X9467618Y-16834000D01*
X9458094Y-16843524D01*
X9439046Y-16872095D01*
X9429523Y-16910190D01*
X9429523Y-16986381D01*
X9439046Y-17005429D01*
X9448570Y-17014952D01*
X9467618Y-17024476D01*
X9505713Y-17024476D01*
X9524761Y-17014952D01*
X9534284Y-17005429D01*
X9543808Y-16986381D01*
X9543808Y-16938762D01*
X9534284Y-16919714D01*
X9524761Y-16910190D01*
X9505713Y-16900667D01*
X9467618Y-16900667D01*
X9448570Y-16910190D01*
X9439046Y-16919714D01*
X9429523Y-16938762D01*
X9610475Y-16824476D02*
X9734284Y-16824476D01*
X9667618Y-16900667D01*
X9696189Y-16900667D01*
X9715237Y-16910190D01*
X9724761Y-16919714D01*
X9734284Y-16938762D01*
X9734284Y-16986381D01*
X9724761Y-17005429D01*
X9715237Y-17014952D01*
X9696189Y-17024476D01*
X9639046Y-17024476D01*
X9619999Y-17014952D01*
X9610475Y-17005429D01*
X9810475Y-16824476D02*
X9810475Y-16862571D01*
X9886665Y-16824476D02*
X9886665Y-16862571D01*
X10181903Y-17100667D02*
X10172380Y-17091143D01*
X10153332Y-17062571D01*
X10143808Y-17043524D01*
X10134284Y-17014952D01*
X10124761Y-16967333D01*
X10124761Y-16929238D01*
X10134284Y-16881619D01*
X10143808Y-16853048D01*
X10153332Y-16834000D01*
X10172380Y-16805429D01*
X10181903Y-16795905D01*
X10343808Y-16891143D02*
X10343808Y-17024476D01*
X10296189Y-16814952D02*
X10248570Y-16957810D01*
X10372380Y-16957810D01*
X10600951Y-17024476D02*
X10600951Y-16824476D01*
X10686665Y-17024476D02*
X10686665Y-16919714D01*
X10677142Y-16900667D01*
X10658094Y-16891143D01*
X10629523Y-16891143D01*
X10610475Y-16900667D01*
X10600951Y-16910190D01*
X10810475Y-17024476D02*
X10791427Y-17014952D01*
X10781903Y-17005429D01*
X10772380Y-16986381D01*
X10772380Y-16929238D01*
X10781903Y-16910190D01*
X10791427Y-16900667D01*
X10810475Y-16891143D01*
X10839046Y-16891143D01*
X10858094Y-16900667D01*
X10867618Y-16910190D01*
X10877142Y-16929238D01*
X10877142Y-16986381D01*
X10867618Y-17005429D01*
X10858094Y-17014952D01*
X10839046Y-17024476D01*
X10810475Y-17024476D01*
X10991427Y-17024476D02*
X10972380Y-17014952D01*
X10962856Y-16995905D01*
X10962856Y-16824476D01*
X11143808Y-17014952D02*
X11124761Y-17024476D01*
X11086665Y-17024476D01*
X11067618Y-17014952D01*
X11058094Y-16995905D01*
X11058094Y-16919714D01*
X11067618Y-16900667D01*
X11086665Y-16891143D01*
X11124761Y-16891143D01*
X11143808Y-16900667D01*
X11153332Y-16919714D01*
X11153332Y-16938762D01*
X11058094Y-16957810D01*
X11229522Y-17014952D02*
X11248570Y-17024476D01*
X11286665Y-17024476D01*
X11305713Y-17014952D01*
X11315237Y-16995905D01*
X11315237Y-16986381D01*
X11305713Y-16967333D01*
X11286665Y-16957810D01*
X11258094Y-16957810D01*
X11239046Y-16948286D01*
X11229522Y-16929238D01*
X11229522Y-16919714D01*
X11239046Y-16900667D01*
X11258094Y-16891143D01*
X11286665Y-16891143D01*
X11305713Y-16900667D01*
X11381903Y-17100667D02*
X11391427Y-17091143D01*
X11410475Y-17062571D01*
X11419999Y-17043524D01*
X11429522Y-17014952D01*
X11439046Y-16967333D01*
X11439046Y-16929238D01*
X11429522Y-16881619D01*
X11419999Y-16853048D01*
X11410475Y-16834000D01*
X11391427Y-16805429D01*
X11381903Y-16795905D01*
M02*
