M48
; DRILL file {KiCad (6.0.7)} date Fri Mar 31 21:07:47 2023
; FORMAT={-:-/ absolute / metric / decimal}
; #@! TF.CreationDate,2023-03-31T21:07:47+02:00
; #@! TF.GenerationSoftware,Kicad,Pcbnew,(6.0.7)
; #@! TF.FileFunction,Plated,1,4,PTH
FMAT,2
METRIC
; #@! TA.AperFunction,Plated,PTH,ViaDrill
T1C0.300
; #@! TA.AperFunction,Plated,PTH,ViaDrill
T2C0.400
; #@! TA.AperFunction,Plated,PTH,ComponentDrill
T3C0.400
; #@! TA.AperFunction,Plated,PTH,ComponentDrill
T4C0.500
; #@! TA.AperFunction,Plated,PTH,ViaDrill
T5C0.600
; #@! TA.AperFunction,Plated,PTH,ComponentDrill
T6C0.600
; #@! TA.AperFunction,Plated,PTH,ComponentDrill
T7C0.700
; #@! TA.AperFunction,Plated,PTH,ComponentDrill
T8C0.750
; #@! TA.AperFunction,Plated,PTH,ComponentDrill
T9C0.900
; #@! TA.AperFunction,Plated,PTH,ComponentDrill
T10C0.990
; #@! TA.AperFunction,Plated,PTH,ComponentDrill
T11C1.000
; #@! TA.AperFunction,Plated,PTH,ComponentDrill
T12C1.300
; #@! TA.AperFunction,Plated,PTH,ComponentDrill
T13C1.500
; #@! TA.AperFunction,Plated,PTH,ComponentDrill
T14C2.700
%
G90
G05
T1
X82.511Y-94.375
X82.55Y-93.218
X83.566Y-103.124
X83.566Y-105.664
X84.074Y-94.437
X84.582Y-88.29
X84.633Y-92.05
X86.36Y-103.124
X90.018Y-100.432
X90.018Y-106.274
X90.78Y-101.092
X91.345Y-110.991
X91.345Y-112.007
X91.345Y-113.023
X91.389Y-106.274
X91.491Y-100.432
X92.361Y-110.991
X92.361Y-112.007
X92.361Y-113.023
X92.532Y-116.301
X92.964Y-93.828
X93.504Y-110.991
X93.504Y-112.007
X93.504Y-113.023
X93.574Y-95.148
X93.828Y-107.696
X94.234Y-93.218
X94.488Y-116.301
X94.647Y-110.991
X94.647Y-112.007
X94.647Y-113.023
X95.656Y-110.998
X95.663Y-112.007
X95.667Y-113.023
X95.758Y-96.012
X96.063Y-120.65
X96.266Y-103.734
X99.974Y-113.67
X101.854Y-100.838
X101.854Y-102.616
X102.362Y-113.792
X102.489Y-110.744
X103.886Y-96.012
X104.775Y-107.315
X105.41Y-71.628
X105.41Y-72.644
X105.41Y-73.66
X105.918Y-96.012
X106.426Y-71.628
X106.426Y-72.644
X106.426Y-73.66
X107.188Y-109.22
X108.966Y-109.22
X112.587Y-101.535
X113.284Y-87.935
X114.046Y-85.236
X114.046Y-85.871
X114.681Y-85.236
X114.681Y-85.871
X117.069Y-86.131
X121.768Y-102.514
X122.428Y-89.814
X132.791Y-79.502
X134.061Y-79.502
X135.331Y-71.476
X136.601Y-71.476
X137.871Y-71.476
X138.278Y-109.271
X141.675Y-71.469
X142.951Y-71.476
X144.221Y-71.476
X149.2Y-74.784
X149.2Y-75.584
X149.555Y-85.242
X149.555Y-86.258
X149.555Y-87.274
X149.555Y-88.24
X149.708Y-95.25
X149.708Y-96.266
X150.546Y-75.743
X151.994Y-95.758
X152.146Y-85.75
X152.146Y-86.716
X152.146Y-87.732
X153.365Y-84.684
X153.619Y-85.7
X153.772Y-71.577
X154.33Y-83.922
X154.508Y-84.988
X154.508Y-86.055
X155.372Y-83.109
X155.575Y-84.277
X155.575Y-85.344
X156.413Y-82.398
X156.642Y-83.566
X156.642Y-84.633
X157.709Y-82.855
X157.709Y-83.922
X162.077Y-75.743
X162.687Y-99.924
X162.687Y-100.99
X164.109Y-99.212
X164.109Y-100.279
X164.49Y-75.743
X165.532Y-98.501
X165.532Y-99.568
X166.776Y-108.509
X166.954Y-97.79
X166.954Y-98.857
X168.25Y-75.743
X168.377Y-97.079
X168.377Y-98.146
X169.799Y-96.368
X169.799Y-97.434
X171.221Y-95.656
X171.221Y-96.723
X172.644Y-96.012
X177.089Y-101.879
X178.257Y-112.928
X179.781Y-84.938
X179.781Y-86.766
X180.619Y-91.364
X181.534Y-91.33
X181.915Y-90.627
X184.912Y-101.702
X185.166Y-91.44
X185.166Y-92.71
X185.166Y-93.98
X185.166Y-95.25
X185.674Y-102.87
X186.436Y-91.44
X186.436Y-92.71
X186.436Y-93.98
X186.436Y-95.25
X186.955Y-99.477
X187.35Y-115.265
X187.505Y-87.76
X187.706Y-91.44
X187.706Y-92.71
X187.706Y-93.98
X187.706Y-95.25
X188.29Y-99.492
X188.294Y-87.63
X188.976Y-91.44
X188.976Y-92.71
X188.976Y-93.98
X188.976Y-95.25
X190.729Y-122.504
X192.491Y-89.514
X193.243Y-90.246
X193.624Y-81.366
X193.624Y-82.144
X193.624Y-83.566
X193.624Y-84.455
X193.624Y-85.344
X194.31Y-93.288
X194.738Y-91.133
X194.894Y-92.329
X194.93Y-90.332
X195.123Y-93.552
X195.485Y-91.688
X195.758Y-115.316
X195.758Y-120.904
X198.577Y-84.455
X198.603Y-83.566
X198.603Y-85.7
X198.603Y-86.589
X198.882Y-102.616
X199.898Y-99.314
X200.346Y-66.34
X201.117Y-90.373
X202.057Y-90.373
X203.048Y-97.282
X203.708Y-69.85
X204.064Y-98.603
X205.486Y-94.031
X205.486Y-106.782
X206.248Y-93.167
X206.604Y-116.434
X217.17Y-98.603
X218.948Y-94.59
X219.71Y-93.929
T2
X69.0Y-85.0
X69.0Y-88.0
X71.0Y-99.0
X71.0Y-102.0
X71.0Y-105.0
X71.0Y-108.0
X72.0Y-82.0
X72.0Y-85.0
X72.0Y-88.0
X73.0Y-93.0
X74.0Y-105.0
X74.0Y-108.0
X74.0Y-111.0
X74.828Y-98.4
X75.0Y-72.0
X75.0Y-82.0
X75.0Y-85.0
X75.0Y-88.0
X76.0Y-93.0
X76.2Y-96.926
X76.2Y-102.565
X77.0Y-105.0
X77.0Y-108.0
X77.0Y-111.0
X77.0Y-114.0
X78.0Y-69.0
X78.0Y-72.0
X78.0Y-82.0
X78.0Y-85.0
X78.0Y-88.0
X78.486Y-100.99
X80.0Y-111.0
X80.0Y-114.0
X80.0Y-123.0
X80.0Y-126.0
X82.296Y-88.189
X83.0Y-111.0
X83.0Y-114.0
X83.0Y-123.0
X83.0Y-126.0
X83.363Y-86.614
X83.363Y-91.999
X85.09Y-78.283
X85.598Y-86.868
X85.598Y-110.338
X85.598Y-113.182
X86.0Y-123.0
X86.0Y-126.0
X86.462Y-117.754
X86.462Y-119.482
X87.071Y-99.72
X88.138Y-110.338
X88.163Y-114.884
X88.189Y-113.182
X88.24Y-98.857
X89.0Y-112.0
X89.0Y-126.0
X89.052Y-97.688
X89.154Y-102.819
X89.154Y-104.089
X89.256Y-107.493
X89.408Y-118.085
X90.0Y-69.0
X90.0Y-72.0
X90.0Y-75.0
X90.0Y-78.0
X92.0Y-126.0
X92.157Y-101.295
X92.202Y-103.581
X92.964Y-120.701
X93.0Y-69.0
X93.0Y-72.0
X93.0Y-75.0
X93.0Y-78.0
X93.0Y-81.0
X96.0Y-78.0
X96.0Y-81.0
X96.0Y-88.0
X97.739Y-111.811
X97.739Y-118.669
X98.552Y-107.645
X98.904Y-116.59
X99.0Y-78.0
X99.0Y-81.0
X99.0Y-88.0
X99.06Y-115.233
X100.584Y-91.186
X100.838Y-125.882
X101.6Y-123.698
X103.0Y-78.0
X103.0Y-81.0
X103.378Y-89.408
X104.242Y-67.97
X106.0Y-78.0
X106.0Y-81.0
X106.0Y-84.0
X108.407Y-102.87
X109.0Y-61.0
X109.0Y-64.0
X110.134Y-107.391
X110.185Y-82.042
X110.896Y-91.694
X111.1Y-83.363
X111.354Y-106.426
X111.404Y-110.642
X111.404Y-112.37
X111.912Y-84.277
X112.0Y-61.0
X112.0Y-64.0
X112.0Y-67.0
X112.065Y-78.537
X112.522Y-113.538
X112.573Y-96.012
X112.928Y-83.414
X113.233Y-94.996
X113.792Y-90.932
X114.3Y-96.672
X114.427Y-91.821
X114.656Y-93.624
X115.0Y-61.0
X115.0Y-64.0
X115.062Y-90.932
X116.332Y-123.698
X116.434Y-103.988
X116.942Y-91.44
X117.0Y-126.0
X117.399Y-89.408
X118.0Y-61.0
X118.161Y-103.683
X118.923Y-102.159
X119.126Y-67.818
X119.38Y-75.692
X119.888Y-90.297
X120.0Y-126.0
X120.142Y-76.708
X120.294Y-83.515
X120.701Y-79.756
X120.752Y-69.139
X120.904Y-75.692
X121.0Y-61.0
X121.006Y-91.44
X121.209Y-85.344
X121.209Y-87.122
X121.768Y-82.042
X121.818Y-98.45
X122.174Y-113.487
X122.326Y-84.43
X123.0Y-126.0
X123.241Y-106.426
X123.292Y-110.642
X123.292Y-112.37
X123.495Y-114.808
X124.206Y-114.097
X124.612Y-107.442
X124.663Y-115.214
X124.816Y-104.546
X125.374Y-114.503
X126.0Y-126.0
X127.0Y-61.0
X128.0Y-83.0
X128.0Y-86.0
X128.0Y-89.0
X128.0Y-92.0
X128.0Y-98.0
X129.0Y-126.0
X130.0Y-61.0
X130.0Y-120.0
X130.0Y-123.5
X130.251Y-71.882
X131.0Y-80.0
X131.0Y-83.0
X131.0Y-86.0
X131.0Y-89.0
X131.0Y-92.0
X131.0Y-98.0
X131.521Y-71.882
X132.0Y-126.0
X132.334Y-118.872
X133.0Y-61.0
X133.0Y-108.0
X135.128Y-109.931
X135.636Y-111.049
X136.0Y-73.0
X136.0Y-75.0
X136.0Y-80.0
X136.0Y-83.0
X136.0Y-86.0
X136.0Y-89.0
X136.0Y-92.0
X136.144Y-109.931
X136.5Y-100.0
X136.652Y-111.049
X139.0Y-80.0
X139.0Y-83.0
X139.0Y-86.0
X139.0Y-89.0
X139.0Y-92.0
X139.0Y-101.5
X140.0Y-106.0
X141.0Y-62.0
X141.478Y-118.872
X142.0Y-126.0
X143.0Y-80.0
X143.0Y-83.0
X143.0Y-86.0
X143.0Y-89.0
X143.0Y-92.0
X143.5Y-120.0
X143.5Y-123.5
X144.0Y-106.0
X145.0Y-64.0
X145.0Y-126.0
X145.491Y-71.628
X145.796Y-75.647
X146.0Y-80.0
X146.0Y-83.0
X146.0Y-86.0
X146.0Y-89.0
X146.0Y-92.0
X148.0Y-106.0
X149.0Y-62.0
X149.0Y-126.0
X149.301Y-71.577
X149.352Y-79.248
X149.352Y-80.264
X149.555Y-84.226
X149.555Y-93.269
X149.555Y-94.234
X149.606Y-82.753
X151.841Y-71.628
X152.0Y-98.0
X152.0Y-100.0
X152.0Y-106.0
X152.146Y-94.742
X152.248Y-78.765
X153.0Y-62.0
X153.0Y-126.0
X155.0Y-98.0
X155.0Y-100.0
X155.651Y-71.628
X156.0Y-106.0
X157.0Y-64.0
X157.0Y-126.0
X158.191Y-71.628
X158.5Y-120.0
X158.5Y-123.5
X160.0Y-106.0
X160.0Y-126.0
X160.731Y-71.628
X160.909Y-118.872
X161.0Y-62.0
X164.0Y-106.0
X164.592Y-71.628
X166.167Y-106.629
X167.0Y-84.0
X168.0Y-106.0
X168.402Y-71.628
X169.0Y-61.0
X169.926Y-118.872
X170.0Y-84.0
X170.0Y-87.0
X172.0Y-61.0
X172.0Y-106.0
X172.0Y-120.0
X172.0Y-123.0
X172.0Y-126.0
X172.517Y-72.187
X173.0Y-84.0
X173.0Y-87.0
X173.787Y-72.187
X175.0Y-61.0
X175.0Y-126.0
X176.0Y-84.0
X176.0Y-87.0
X176.0Y-106.0
X176.784Y-94.59
X178.0Y-126.0
X179.0Y-106.0
X180.848Y-94.615
X181.0Y-126.0
X181.102Y-68.732
X182.524Y-62.738
X182.524Y-64.262
X182.575Y-66.192
X183.134Y-112.725
X183.591Y-60.706
X184.0Y-126.0
X184.709Y-68.777
X187.0Y-118.0
X187.0Y-121.0
X188.0Y-71.0
X190.0Y-118.0
X190.0Y-121.0
X191.0Y-72.0
X191.821Y-67.64
X191.821Y-68.758
X192.532Y-68.199
X193.396Y-87.427
X193.396Y-89.154
X195.326Y-94.488
X196.0Y-118.0
X197.154Y-90.954
X197.5Y-73.5
X199.0Y-71.5
X199.0Y-88.0
X199.0Y-115.0
X199.0Y-118.0
X199.0Y-121.0
X199.034Y-80.01
X199.39Y-96.368
X199.39Y-98.298
X200.0Y-60.0
X200.0Y-73.5
X200.0Y-90.0
X200.0Y-94.0
X202.0Y-112.0
X202.0Y-115.0
X202.0Y-118.0
X202.0Y-121.0
X203.0Y-60.0
X203.0Y-63.0
X203.352Y-80.01
X203.911Y-85.75
X205.0Y-72.0
X205.0Y-75.0
X205.0Y-88.0
X205.0Y-112.0
X205.0Y-115.0
X205.0Y-118.0
X205.0Y-121.0
X205.105Y-109.474
X207.264Y-112.674
X208.0Y-72.0
X208.0Y-75.0
X208.0Y-78.0
X208.0Y-88.0
X208.0Y-90.0
X208.0Y-118.0
X208.0Y-121.0
X208.382Y-106.68
X209.55Y-69.596
X210.972Y-80.518
X210.972Y-83.312
X210.972Y-86.106
X211.0Y-72.0
X211.0Y-75.0
X211.0Y-78.0
X211.0Y-118.0
X211.0Y-121.0
X211.201Y-107.696
X212.278Y-108.458
X214.0Y-75.0
X214.0Y-78.0
X214.0Y-115.0
X214.0Y-118.0
X214.0Y-121.0
X216.0Y-83.0
X217.0Y-112.0
X217.0Y-115.0
X217.17Y-78.232
X218.0Y-87.5
X218.5Y-103.5
X218.821Y-98.806
X219.0Y-83.0
X220.0Y-109.0
X220.0Y-112.0
X223.0Y-109.0
X223.0Y-112.0
X223.774Y-86.157
X224.0Y-68.0
X224.0Y-71.0
X224.0Y-74.0
X226.0Y-93.0
X226.0Y-100.0
X226.0Y-103.0
X226.0Y-106.0
X226.0Y-109.0
X226.0Y-112.0
X226.06Y-84.531
X226.06Y-90.221
X227.0Y-68.0
X227.482Y-85.954
X227.584Y-88.798
X229.0Y-81.0
X229.0Y-84.0
X229.0Y-87.0
X229.0Y-100.0
X229.0Y-103.0
X229.0Y-106.0
X229.0Y-109.0
X229.0Y-112.0
X229.0Y-115.0
X230.0Y-93.0
X232.0Y-81.0
X232.0Y-84.0
X232.0Y-87.0
X232.0Y-100.0
X232.0Y-103.0
T5
X97.028Y-68.936
X97.028Y-73.965
X98.552Y-73.965
X98.806Y-68.936
X100.076Y-73.965
X101.092Y-67.615
X101.6Y-73.965
X102.718Y-69.24
X108.407Y-69.494
X109.982Y-70.739
X113.741Y-73.152
X113.741Y-74.93
X115.189Y-77.216
X116.281Y-72.187
X117.602Y-71.402
X117.602Y-72.898
X145.618Y-98.146
X147.574Y-99.924
X149.53Y-98.146
X177.292Y-90.296
X181.61Y-103.886
X183.134Y-103.886
X183.134Y-105.664
X183.134Y-107.442
X184.861Y-70.917
X184.861Y-72.413
X186.182Y-71.628
X186.385Y-112.166
X186.564Y-101.981
X188.214Y-105.664
X188.214Y-107.442
X189.941Y-112.217
X191.237Y-101.981
X193.04Y-101.981
X193.345Y-104.038
X194.691Y-97.79
X194.691Y-99.314
X195.072Y-71.374
X196.85Y-66.548
X196.85Y-71.374
X198.78Y-69.621
X198.781Y-68.225
X201.93Y-67.056
X205.105Y-68.123
X205.74Y-66.548
X206.375Y-68.123
X214.986Y-99.771
T7
X125.057Y-93.43
X125.057Y-95.97
X205.93Y-103.5
X207.18Y-103.5
X208.43Y-103.5
X209.68Y-103.5
T8
X104.4Y-101.0
X106.4Y-101.0
X197.9Y-101.0
X199.9Y-101.0
T9
X99.775Y-61.2
X101.775Y-61.2
X103.775Y-61.2
X189.66Y-65.7
X192.2Y-65.7
X194.74Y-65.7
T10
X81.8Y-69.5
X86.3Y-69.5
X134.65Y-124.5
X139.15Y-124.5
X163.15Y-124.5
X167.65Y-124.5
X216.0Y-69.5
X220.5Y-69.5
T11
X70.5Y-91.25
X70.5Y-95.75
X78.5Y-91.25
X78.5Y-95.75
X80.5Y-81.25
X80.5Y-85.75
X80.5Y-101.25
X80.5Y-105.75
X88.5Y-81.25
X88.5Y-85.75
X88.5Y-101.25
X88.5Y-105.75
X90.5Y-91.25
X90.5Y-95.75
X92.0Y-83.2
X92.0Y-85.7
X98.5Y-91.25
X98.5Y-95.75
X118.65Y-118.75
X118.65Y-123.25
X123.952Y-74.178
X123.952Y-76.718
X123.952Y-79.258
X123.952Y-81.798
X126.65Y-118.75
X126.65Y-123.25
X147.15Y-118.75
X147.15Y-123.25
X155.15Y-118.75
X155.15Y-123.25
X175.65Y-118.75
X175.65Y-123.25
X183.65Y-118.75
X183.65Y-123.25
X203.8Y-91.25
X203.8Y-95.75
X211.8Y-91.25
X211.8Y-95.75
X213.8Y-81.25
X213.8Y-85.75
X213.8Y-101.25
X213.8Y-105.75
X221.8Y-81.25
X221.8Y-85.75
X221.8Y-101.25
X221.8Y-105.75
X223.8Y-91.25
X223.8Y-95.75
X231.8Y-91.25
X231.8Y-95.75
T12
X80.54Y-71.99
X87.55Y-71.99
X133.4Y-122.01
X140.41Y-122.01
X161.9Y-122.01
X168.91Y-122.01
X214.74Y-71.99
X221.75Y-71.99
T13
X97.675Y-61.2
X105.875Y-61.2
T14
X75.0Y-77.0
X80.6Y-118.8
X221.7Y-118.8
X227.3Y-77.0
T3
X104.05Y-118.5G85X104.05Y-119.5
G05
X106.55Y-118.5G85X106.55Y-119.5
G05
X109.55Y-124.0G85X108.55Y-124.0
G05
X111.55Y-119.5G85X111.55Y-118.5
G05
X114.05Y-119.5G85X114.05Y-118.5
G05
T4
X124.2Y-61.82G85X124.2Y-60.52
G05
X178.2Y-61.82G85X178.2Y-60.52
G05
T6
X197.58Y-59.935G85X197.58Y-60.735
G05
X197.58Y-63.955G85X197.58Y-65.055
G05
X206.22Y-59.935G85X206.22Y-60.735
G05
X206.22Y-63.955G85X206.22Y-65.055
G05
T0
M30
