%TF.GenerationSoftware,KiCad,Pcbnew,(6.0.7)*%
%TF.CreationDate,2023-03-31T21:07:47+02:00*%
%TF.ProjectId,airboy,61697262-6f79-42e6-9b69-6361645f7063,rev?*%
%TF.SameCoordinates,Original*%
%TF.FileFunction,Drillmap*%
%TF.FilePolarity,Positive*%
%FSLAX45Y45*%
G04 Gerber Fmt 4.5, Leading zero omitted, Abs format (unit mm)*
G04 Created by KiCad (PCBNEW (6.0.7)) date 2023-03-31 21:07:47*
%MOMM*%
%LPD*%
G01*
G04 APERTURE LIST*
%ADD10C,0.100000*%
%ADD11C,0.200000*%
%ADD12C,0.060000*%
%ADD13C,0.120000*%
G04 APERTURE END LIST*
D10*
X20825000Y-5850000D02*
X17955000Y-5850000D01*
X11555000Y-12850000D02*
X22200000Y-12850000D01*
X23614999Y-9350000D02*
G75*
G03*
X22825000Y-6650000I-4996729J3570D01*
G01*
X20825000Y-6650000D02*
X20825000Y-5850000D01*
X6615000Y-9350000D02*
G75*
G03*
X8030000Y-12850000I4995745J-16324D01*
G01*
X9405000Y-6650000D02*
X7405000Y-6650000D01*
X10255000Y-12850000D02*
X8030000Y-12850000D01*
X7405000Y-6650000D02*
G75*
G03*
X6615000Y-9350000I4206729J-2696432D01*
G01*
X22200000Y-12850000D02*
G75*
G03*
X23615000Y-9350000I-3580743J3483676D01*
G01*
X17955000Y-5850000D02*
X9405000Y-5850000D01*
X22825000Y-6650000D02*
X20825000Y-6650000D01*
X9405000Y-6650000D02*
X9405000Y-5850000D01*
D11*
D12*
X19871000Y-6372500D02*
X19931000Y-6432500D01*
X19931000Y-6372500D02*
X19871000Y-6432500D01*
X20449000Y-6372500D02*
X20509000Y-6432500D01*
X20509000Y-6372500D02*
X20449000Y-6432500D01*
D13*
X10465000Y-12400000D02*
G75*
G03*
X10465000Y-12400000I-60000J0D01*
G01*
X10465000Y-12650000D02*
G75*
G03*
X10465000Y-12650000I-60000J0D01*
G01*
X10965000Y-11900000D02*
G75*
G03*
X10965000Y-11900000I-60000J0D01*
G01*
X11465000Y-12400000D02*
G75*
G03*
X11465000Y-12400000I-60000J0D01*
G01*
X11465000Y-12650000D02*
G75*
G03*
X11465000Y-12650000I-60000J0D01*
G01*
D11*
X6867618Y-13166476D02*
X6867618Y-12966476D01*
X6915237Y-12966476D01*
X6943808Y-12976000D01*
X6962856Y-12995048D01*
X6972380Y-13014095D01*
X6981903Y-13052190D01*
X6981903Y-13080762D01*
X6972380Y-13118857D01*
X6962856Y-13137905D01*
X6943808Y-13156952D01*
X6915237Y-13166476D01*
X6867618Y-13166476D01*
X7067618Y-13166476D02*
X7067618Y-13033143D01*
X7067618Y-13071238D02*
X7077141Y-13052190D01*
X7086665Y-13042667D01*
X7105713Y-13033143D01*
X7124761Y-13033143D01*
X7191427Y-13166476D02*
X7191427Y-13033143D01*
X7191427Y-12966476D02*
X7181903Y-12976000D01*
X7191427Y-12985524D01*
X7200951Y-12976000D01*
X7191427Y-12966476D01*
X7191427Y-12985524D01*
X7315237Y-13166476D02*
X7296189Y-13156952D01*
X7286665Y-13137905D01*
X7286665Y-12966476D01*
X7419999Y-13166476D02*
X7400951Y-13156952D01*
X7391427Y-13137905D01*
X7391427Y-12966476D01*
X7648570Y-13166476D02*
X7648570Y-12966476D01*
X7715237Y-13109333D01*
X7781903Y-12966476D01*
X7781903Y-13166476D01*
X7962856Y-13166476D02*
X7962856Y-13061714D01*
X7953332Y-13042667D01*
X7934284Y-13033143D01*
X7896189Y-13033143D01*
X7877141Y-13042667D01*
X7962856Y-13156952D02*
X7943808Y-13166476D01*
X7896189Y-13166476D01*
X7877141Y-13156952D01*
X7867618Y-13137905D01*
X7867618Y-13118857D01*
X7877141Y-13099809D01*
X7896189Y-13090286D01*
X7943808Y-13090286D01*
X7962856Y-13080762D01*
X8058094Y-13033143D02*
X8058094Y-13233143D01*
X8058094Y-13042667D02*
X8077141Y-13033143D01*
X8115237Y-13033143D01*
X8134284Y-13042667D01*
X8143808Y-13052190D01*
X8153332Y-13071238D01*
X8153332Y-13128381D01*
X8143808Y-13147428D01*
X8134284Y-13156952D01*
X8115237Y-13166476D01*
X8077141Y-13166476D01*
X8058094Y-13156952D01*
X8239046Y-13147428D02*
X8248570Y-13156952D01*
X8239046Y-13166476D01*
X8229522Y-13156952D01*
X8239046Y-13147428D01*
X8239046Y-13166476D01*
X8239046Y-13042667D02*
X8248570Y-13052190D01*
X8239046Y-13061714D01*
X8229522Y-13052190D01*
X8239046Y-13042667D01*
X8239046Y-13061714D01*
D12*
X6549999Y-13466000D02*
X6609999Y-13526000D01*
X6609999Y-13466000D02*
X6549999Y-13526000D01*
D11*
X6905713Y-13386476D02*
X6924761Y-13386476D01*
X6943808Y-13396000D01*
X6953332Y-13405524D01*
X6962856Y-13424571D01*
X6972380Y-13462667D01*
X6972380Y-13510286D01*
X6962856Y-13548381D01*
X6953332Y-13567428D01*
X6943808Y-13576952D01*
X6924761Y-13586476D01*
X6905713Y-13586476D01*
X6886665Y-13576952D01*
X6877141Y-13567428D01*
X6867618Y-13548381D01*
X6858094Y-13510286D01*
X6858094Y-13462667D01*
X6867618Y-13424571D01*
X6877141Y-13405524D01*
X6886665Y-13396000D01*
X6905713Y-13386476D01*
X7058094Y-13567428D02*
X7067618Y-13576952D01*
X7058094Y-13586476D01*
X7048570Y-13576952D01*
X7058094Y-13567428D01*
X7058094Y-13586476D01*
X7239046Y-13386476D02*
X7200951Y-13386476D01*
X7181903Y-13396000D01*
X7172380Y-13405524D01*
X7153332Y-13434095D01*
X7143808Y-13472190D01*
X7143808Y-13548381D01*
X7153332Y-13567428D01*
X7162856Y-13576952D01*
X7181903Y-13586476D01*
X7219999Y-13586476D01*
X7239046Y-13576952D01*
X7248570Y-13567428D01*
X7258094Y-13548381D01*
X7258094Y-13500762D01*
X7248570Y-13481714D01*
X7239046Y-13472190D01*
X7219999Y-13462667D01*
X7181903Y-13462667D01*
X7162856Y-13472190D01*
X7153332Y-13481714D01*
X7143808Y-13500762D01*
X7381903Y-13386476D02*
X7400951Y-13386476D01*
X7419999Y-13396000D01*
X7429522Y-13405524D01*
X7439046Y-13424571D01*
X7448570Y-13462667D01*
X7448570Y-13510286D01*
X7439046Y-13548381D01*
X7429522Y-13567428D01*
X7419999Y-13576952D01*
X7400951Y-13586476D01*
X7381903Y-13586476D01*
X7362856Y-13576952D01*
X7353332Y-13567428D01*
X7343808Y-13548381D01*
X7334284Y-13510286D01*
X7334284Y-13462667D01*
X7343808Y-13424571D01*
X7353332Y-13405524D01*
X7362856Y-13396000D01*
X7381903Y-13386476D01*
X7572380Y-13386476D02*
X7591427Y-13386476D01*
X7610475Y-13396000D01*
X7619999Y-13405524D01*
X7629522Y-13424571D01*
X7639046Y-13462667D01*
X7639046Y-13510286D01*
X7629522Y-13548381D01*
X7619999Y-13567428D01*
X7610475Y-13576952D01*
X7591427Y-13586476D01*
X7572380Y-13586476D01*
X7553332Y-13576952D01*
X7543808Y-13567428D01*
X7534284Y-13548381D01*
X7524761Y-13510286D01*
X7524761Y-13462667D01*
X7534284Y-13424571D01*
X7543808Y-13405524D01*
X7553332Y-13396000D01*
X7572380Y-13386476D01*
X7724761Y-13586476D02*
X7724761Y-13453143D01*
X7724761Y-13472190D02*
X7734284Y-13462667D01*
X7753332Y-13453143D01*
X7781903Y-13453143D01*
X7800951Y-13462667D01*
X7810475Y-13481714D01*
X7810475Y-13586476D01*
X7810475Y-13481714D02*
X7819999Y-13462667D01*
X7839046Y-13453143D01*
X7867618Y-13453143D01*
X7886665Y-13462667D01*
X7896189Y-13481714D01*
X7896189Y-13586476D01*
X7991427Y-13586476D02*
X7991427Y-13453143D01*
X7991427Y-13472190D02*
X8000951Y-13462667D01*
X8019999Y-13453143D01*
X8048570Y-13453143D01*
X8067618Y-13462667D01*
X8077141Y-13481714D01*
X8077141Y-13586476D01*
X8077141Y-13481714D02*
X8086665Y-13462667D01*
X8105713Y-13453143D01*
X8134284Y-13453143D01*
X8153332Y-13462667D01*
X8162856Y-13481714D01*
X8162856Y-13586476D01*
X8553332Y-13376952D02*
X8381903Y-13634095D01*
X8810475Y-13386476D02*
X8829523Y-13386476D01*
X8848570Y-13396000D01*
X8858094Y-13405524D01*
X8867618Y-13424571D01*
X8877142Y-13462667D01*
X8877142Y-13510286D01*
X8867618Y-13548381D01*
X8858094Y-13567428D01*
X8848570Y-13576952D01*
X8829523Y-13586476D01*
X8810475Y-13586476D01*
X8791427Y-13576952D01*
X8781903Y-13567428D01*
X8772380Y-13548381D01*
X8762856Y-13510286D01*
X8762856Y-13462667D01*
X8772380Y-13424571D01*
X8781903Y-13405524D01*
X8791427Y-13396000D01*
X8810475Y-13386476D01*
X8962856Y-13567428D02*
X8972380Y-13576952D01*
X8962856Y-13586476D01*
X8953332Y-13576952D01*
X8962856Y-13567428D01*
X8962856Y-13586476D01*
X9096189Y-13386476D02*
X9115237Y-13386476D01*
X9134284Y-13396000D01*
X9143808Y-13405524D01*
X9153332Y-13424571D01*
X9162856Y-13462667D01*
X9162856Y-13510286D01*
X9153332Y-13548381D01*
X9143808Y-13567428D01*
X9134284Y-13576952D01*
X9115237Y-13586476D01*
X9096189Y-13586476D01*
X9077142Y-13576952D01*
X9067618Y-13567428D01*
X9058094Y-13548381D01*
X9048570Y-13510286D01*
X9048570Y-13462667D01*
X9058094Y-13424571D01*
X9067618Y-13405524D01*
X9077142Y-13396000D01*
X9096189Y-13386476D01*
X9239046Y-13405524D02*
X9248570Y-13396000D01*
X9267618Y-13386476D01*
X9315237Y-13386476D01*
X9334284Y-13396000D01*
X9343808Y-13405524D01*
X9353332Y-13424571D01*
X9353332Y-13443619D01*
X9343808Y-13472190D01*
X9229523Y-13586476D01*
X9353332Y-13586476D01*
X9419999Y-13386476D02*
X9543808Y-13386476D01*
X9477142Y-13462667D01*
X9505713Y-13462667D01*
X9524761Y-13472190D01*
X9534284Y-13481714D01*
X9543808Y-13500762D01*
X9543808Y-13548381D01*
X9534284Y-13567428D01*
X9524761Y-13576952D01*
X9505713Y-13586476D01*
X9448570Y-13586476D01*
X9429523Y-13576952D01*
X9419999Y-13567428D01*
X9715237Y-13386476D02*
X9677142Y-13386476D01*
X9658094Y-13396000D01*
X9648570Y-13405524D01*
X9629523Y-13434095D01*
X9619999Y-13472190D01*
X9619999Y-13548381D01*
X9629523Y-13567428D01*
X9639046Y-13576952D01*
X9658094Y-13586476D01*
X9696189Y-13586476D01*
X9715237Y-13576952D01*
X9724761Y-13567428D01*
X9734284Y-13548381D01*
X9734284Y-13500762D01*
X9724761Y-13481714D01*
X9715237Y-13472190D01*
X9696189Y-13462667D01*
X9658094Y-13462667D01*
X9639046Y-13472190D01*
X9629523Y-13481714D01*
X9619999Y-13500762D01*
X9810475Y-13386476D02*
X9810475Y-13424571D01*
X9886665Y-13386476D02*
X9886665Y-13424571D01*
X10181903Y-13662667D02*
X10172380Y-13653143D01*
X10153332Y-13624571D01*
X10143808Y-13605524D01*
X10134284Y-13576952D01*
X10124761Y-13529333D01*
X10124761Y-13491238D01*
X10134284Y-13443619D01*
X10143808Y-13415048D01*
X10153332Y-13396000D01*
X10172380Y-13367428D01*
X10181903Y-13357905D01*
X10248570Y-13405524D02*
X10258094Y-13396000D01*
X10277142Y-13386476D01*
X10324761Y-13386476D01*
X10343808Y-13396000D01*
X10353332Y-13405524D01*
X10362856Y-13424571D01*
X10362856Y-13443619D01*
X10353332Y-13472190D01*
X10239046Y-13586476D01*
X10362856Y-13586476D01*
X10600951Y-13586476D02*
X10600951Y-13386476D01*
X10686665Y-13586476D02*
X10686665Y-13481714D01*
X10677142Y-13462667D01*
X10658094Y-13453143D01*
X10629523Y-13453143D01*
X10610475Y-13462667D01*
X10600951Y-13472190D01*
X10810475Y-13586476D02*
X10791427Y-13576952D01*
X10781903Y-13567428D01*
X10772380Y-13548381D01*
X10772380Y-13491238D01*
X10781903Y-13472190D01*
X10791427Y-13462667D01*
X10810475Y-13453143D01*
X10839046Y-13453143D01*
X10858094Y-13462667D01*
X10867618Y-13472190D01*
X10877142Y-13491238D01*
X10877142Y-13548381D01*
X10867618Y-13567428D01*
X10858094Y-13576952D01*
X10839046Y-13586476D01*
X10810475Y-13586476D01*
X10991427Y-13586476D02*
X10972380Y-13576952D01*
X10962856Y-13557905D01*
X10962856Y-13386476D01*
X11143808Y-13576952D02*
X11124761Y-13586476D01*
X11086665Y-13586476D01*
X11067618Y-13576952D01*
X11058094Y-13557905D01*
X11058094Y-13481714D01*
X11067618Y-13462667D01*
X11086665Y-13453143D01*
X11124761Y-13453143D01*
X11143808Y-13462667D01*
X11153332Y-13481714D01*
X11153332Y-13500762D01*
X11058094Y-13519809D01*
X11229522Y-13576952D02*
X11248570Y-13586476D01*
X11286665Y-13586476D01*
X11305713Y-13576952D01*
X11315237Y-13557905D01*
X11315237Y-13548381D01*
X11305713Y-13529333D01*
X11286665Y-13519809D01*
X11258094Y-13519809D01*
X11239046Y-13510286D01*
X11229522Y-13491238D01*
X11229522Y-13481714D01*
X11239046Y-13462667D01*
X11258094Y-13453143D01*
X11286665Y-13453143D01*
X11305713Y-13462667D01*
X11381903Y-13662667D02*
X11391427Y-13653143D01*
X11410475Y-13624571D01*
X11419999Y-13605524D01*
X11429522Y-13576952D01*
X11439046Y-13529333D01*
X11439046Y-13491238D01*
X11429522Y-13443619D01*
X11419999Y-13415048D01*
X11410475Y-13396000D01*
X11391427Y-13367428D01*
X11381903Y-13357905D01*
X11743808Y-13662667D02*
X11734284Y-13653143D01*
X11715237Y-13624571D01*
X11705713Y-13605524D01*
X11696189Y-13576952D01*
X11686665Y-13529333D01*
X11686665Y-13491238D01*
X11696189Y-13443619D01*
X11705713Y-13415048D01*
X11715237Y-13396000D01*
X11734284Y-13367428D01*
X11743808Y-13357905D01*
X11819999Y-13453143D02*
X11819999Y-13586476D01*
X11819999Y-13472190D02*
X11829522Y-13462667D01*
X11848570Y-13453143D01*
X11877141Y-13453143D01*
X11896189Y-13462667D01*
X11905713Y-13481714D01*
X11905713Y-13586476D01*
X12029522Y-13586476D02*
X12010475Y-13576952D01*
X12000951Y-13567428D01*
X11991427Y-13548381D01*
X11991427Y-13491238D01*
X12000951Y-13472190D01*
X12010475Y-13462667D01*
X12029522Y-13453143D01*
X12058094Y-13453143D01*
X12077141Y-13462667D01*
X12086665Y-13472190D01*
X12096189Y-13491238D01*
X12096189Y-13548381D01*
X12086665Y-13567428D01*
X12077141Y-13576952D01*
X12058094Y-13586476D01*
X12029522Y-13586476D01*
X12153332Y-13453143D02*
X12229522Y-13453143D01*
X12181903Y-13386476D02*
X12181903Y-13557905D01*
X12191427Y-13576952D01*
X12210475Y-13586476D01*
X12229522Y-13586476D01*
X12448570Y-13453143D02*
X12448570Y-13653143D01*
X12448570Y-13462667D02*
X12467618Y-13453143D01*
X12505713Y-13453143D01*
X12524761Y-13462667D01*
X12534284Y-13472190D01*
X12543808Y-13491238D01*
X12543808Y-13548381D01*
X12534284Y-13567428D01*
X12524761Y-13576952D01*
X12505713Y-13586476D01*
X12467618Y-13586476D01*
X12448570Y-13576952D01*
X12658094Y-13586476D02*
X12639046Y-13576952D01*
X12629522Y-13557905D01*
X12629522Y-13386476D01*
X12819999Y-13586476D02*
X12819999Y-13481714D01*
X12810475Y-13462667D01*
X12791427Y-13453143D01*
X12753332Y-13453143D01*
X12734284Y-13462667D01*
X12819999Y-13576952D02*
X12800951Y-13586476D01*
X12753332Y-13586476D01*
X12734284Y-13576952D01*
X12724761Y-13557905D01*
X12724761Y-13538857D01*
X12734284Y-13519809D01*
X12753332Y-13510286D01*
X12800951Y-13510286D01*
X12819999Y-13500762D01*
X12886665Y-13453143D02*
X12962856Y-13453143D01*
X12915237Y-13386476D02*
X12915237Y-13557905D01*
X12924761Y-13576952D01*
X12943808Y-13586476D01*
X12962856Y-13586476D01*
X13105713Y-13576952D02*
X13086665Y-13586476D01*
X13048570Y-13586476D01*
X13029522Y-13576952D01*
X13019999Y-13557905D01*
X13019999Y-13481714D01*
X13029522Y-13462667D01*
X13048570Y-13453143D01*
X13086665Y-13453143D01*
X13105713Y-13462667D01*
X13115237Y-13481714D01*
X13115237Y-13500762D01*
X13019999Y-13519809D01*
X13286665Y-13586476D02*
X13286665Y-13386476D01*
X13286665Y-13576952D02*
X13267618Y-13586476D01*
X13229522Y-13586476D01*
X13210475Y-13576952D01*
X13200951Y-13567428D01*
X13191427Y-13548381D01*
X13191427Y-13491238D01*
X13200951Y-13472190D01*
X13210475Y-13462667D01*
X13229522Y-13453143D01*
X13267618Y-13453143D01*
X13286665Y-13462667D01*
X13362856Y-13662667D02*
X13372380Y-13653143D01*
X13391427Y-13624571D01*
X13400951Y-13605524D01*
X13410475Y-13576952D01*
X13419999Y-13529333D01*
X13419999Y-13491238D01*
X13410475Y-13443619D01*
X13400951Y-13415048D01*
X13391427Y-13396000D01*
X13372380Y-13367428D01*
X13362856Y-13357905D01*
D13*
X6609999Y-13760000D02*
G75*
G03*
X6609999Y-13760000I-60000J0D01*
G01*
D11*
X6972380Y-13850476D02*
X6858094Y-13850476D01*
X6915237Y-13850476D02*
X6915237Y-13650476D01*
X6896189Y-13679048D01*
X6877141Y-13698095D01*
X6858094Y-13707619D01*
X7058094Y-13831428D02*
X7067618Y-13840952D01*
X7058094Y-13850476D01*
X7048570Y-13840952D01*
X7058094Y-13831428D01*
X7058094Y-13850476D01*
X7143808Y-13669524D02*
X7153332Y-13660000D01*
X7172380Y-13650476D01*
X7219999Y-13650476D01*
X7239046Y-13660000D01*
X7248570Y-13669524D01*
X7258094Y-13688571D01*
X7258094Y-13707619D01*
X7248570Y-13736190D01*
X7134284Y-13850476D01*
X7258094Y-13850476D01*
X7381903Y-13650476D02*
X7400951Y-13650476D01*
X7419999Y-13660000D01*
X7429522Y-13669524D01*
X7439046Y-13688571D01*
X7448570Y-13726667D01*
X7448570Y-13774286D01*
X7439046Y-13812381D01*
X7429522Y-13831428D01*
X7419999Y-13840952D01*
X7400951Y-13850476D01*
X7381903Y-13850476D01*
X7362856Y-13840952D01*
X7353332Y-13831428D01*
X7343808Y-13812381D01*
X7334284Y-13774286D01*
X7334284Y-13726667D01*
X7343808Y-13688571D01*
X7353332Y-13669524D01*
X7362856Y-13660000D01*
X7381903Y-13650476D01*
X7572380Y-13650476D02*
X7591427Y-13650476D01*
X7610475Y-13660000D01*
X7619999Y-13669524D01*
X7629522Y-13688571D01*
X7639046Y-13726667D01*
X7639046Y-13774286D01*
X7629522Y-13812381D01*
X7619999Y-13831428D01*
X7610475Y-13840952D01*
X7591427Y-13850476D01*
X7572380Y-13850476D01*
X7553332Y-13840952D01*
X7543808Y-13831428D01*
X7534284Y-13812381D01*
X7524761Y-13774286D01*
X7524761Y-13726667D01*
X7534284Y-13688571D01*
X7543808Y-13669524D01*
X7553332Y-13660000D01*
X7572380Y-13650476D01*
X7724761Y-13850476D02*
X7724761Y-13717143D01*
X7724761Y-13736190D02*
X7734284Y-13726667D01*
X7753332Y-13717143D01*
X7781903Y-13717143D01*
X7800951Y-13726667D01*
X7810475Y-13745714D01*
X7810475Y-13850476D01*
X7810475Y-13745714D02*
X7819999Y-13726667D01*
X7839046Y-13717143D01*
X7867618Y-13717143D01*
X7886665Y-13726667D01*
X7896189Y-13745714D01*
X7896189Y-13850476D01*
X7991427Y-13850476D02*
X7991427Y-13717143D01*
X7991427Y-13736190D02*
X8000951Y-13726667D01*
X8019999Y-13717143D01*
X8048570Y-13717143D01*
X8067618Y-13726667D01*
X8077141Y-13745714D01*
X8077141Y-13850476D01*
X8077141Y-13745714D02*
X8086665Y-13726667D01*
X8105713Y-13717143D01*
X8134284Y-13717143D01*
X8153332Y-13726667D01*
X8162856Y-13745714D01*
X8162856Y-13850476D01*
X8553332Y-13640952D02*
X8381903Y-13898095D01*
X8810475Y-13650476D02*
X8829523Y-13650476D01*
X8848570Y-13660000D01*
X8858094Y-13669524D01*
X8867618Y-13688571D01*
X8877142Y-13726667D01*
X8877142Y-13774286D01*
X8867618Y-13812381D01*
X8858094Y-13831428D01*
X8848570Y-13840952D01*
X8829523Y-13850476D01*
X8810475Y-13850476D01*
X8791427Y-13840952D01*
X8781903Y-13831428D01*
X8772380Y-13812381D01*
X8762856Y-13774286D01*
X8762856Y-13726667D01*
X8772380Y-13688571D01*
X8781903Y-13669524D01*
X8791427Y-13660000D01*
X8810475Y-13650476D01*
X8962856Y-13831428D02*
X8972380Y-13840952D01*
X8962856Y-13850476D01*
X8953332Y-13840952D01*
X8962856Y-13831428D01*
X8962856Y-13850476D01*
X9096189Y-13650476D02*
X9115237Y-13650476D01*
X9134284Y-13660000D01*
X9143808Y-13669524D01*
X9153332Y-13688571D01*
X9162856Y-13726667D01*
X9162856Y-13774286D01*
X9153332Y-13812381D01*
X9143808Y-13831428D01*
X9134284Y-13840952D01*
X9115237Y-13850476D01*
X9096189Y-13850476D01*
X9077142Y-13840952D01*
X9067618Y-13831428D01*
X9058094Y-13812381D01*
X9048570Y-13774286D01*
X9048570Y-13726667D01*
X9058094Y-13688571D01*
X9067618Y-13669524D01*
X9077142Y-13660000D01*
X9096189Y-13650476D01*
X9334284Y-13717143D02*
X9334284Y-13850476D01*
X9286665Y-13640952D02*
X9239046Y-13783809D01*
X9362856Y-13783809D01*
X9419999Y-13650476D02*
X9553332Y-13650476D01*
X9467618Y-13850476D01*
X9619999Y-13669524D02*
X9629523Y-13660000D01*
X9648570Y-13650476D01*
X9696189Y-13650476D01*
X9715237Y-13660000D01*
X9724761Y-13669524D01*
X9734284Y-13688571D01*
X9734284Y-13707619D01*
X9724761Y-13736190D01*
X9610475Y-13850476D01*
X9734284Y-13850476D01*
X9810475Y-13650476D02*
X9810475Y-13688571D01*
X9886665Y-13650476D02*
X9886665Y-13688571D01*
X10181903Y-13926667D02*
X10172380Y-13917143D01*
X10153332Y-13888571D01*
X10143808Y-13869524D01*
X10134284Y-13840952D01*
X10124761Y-13793333D01*
X10124761Y-13755238D01*
X10134284Y-13707619D01*
X10143808Y-13679048D01*
X10153332Y-13660000D01*
X10172380Y-13631428D01*
X10181903Y-13621905D01*
X10353332Y-13650476D02*
X10258094Y-13650476D01*
X10248570Y-13745714D01*
X10258094Y-13736190D01*
X10277142Y-13726667D01*
X10324761Y-13726667D01*
X10343808Y-13736190D01*
X10353332Y-13745714D01*
X10362856Y-13764762D01*
X10362856Y-13812381D01*
X10353332Y-13831428D01*
X10343808Y-13840952D01*
X10324761Y-13850476D01*
X10277142Y-13850476D01*
X10258094Y-13840952D01*
X10248570Y-13831428D01*
X10600951Y-13850476D02*
X10600951Y-13650476D01*
X10686665Y-13850476D02*
X10686665Y-13745714D01*
X10677142Y-13726667D01*
X10658094Y-13717143D01*
X10629523Y-13717143D01*
X10610475Y-13726667D01*
X10600951Y-13736190D01*
X10810475Y-13850476D02*
X10791427Y-13840952D01*
X10781903Y-13831428D01*
X10772380Y-13812381D01*
X10772380Y-13755238D01*
X10781903Y-13736190D01*
X10791427Y-13726667D01*
X10810475Y-13717143D01*
X10839046Y-13717143D01*
X10858094Y-13726667D01*
X10867618Y-13736190D01*
X10877142Y-13755238D01*
X10877142Y-13812381D01*
X10867618Y-13831428D01*
X10858094Y-13840952D01*
X10839046Y-13850476D01*
X10810475Y-13850476D01*
X10991427Y-13850476D02*
X10972380Y-13840952D01*
X10962856Y-13821905D01*
X10962856Y-13650476D01*
X11143808Y-13840952D02*
X11124761Y-13850476D01*
X11086665Y-13850476D01*
X11067618Y-13840952D01*
X11058094Y-13821905D01*
X11058094Y-13745714D01*
X11067618Y-13726667D01*
X11086665Y-13717143D01*
X11124761Y-13717143D01*
X11143808Y-13726667D01*
X11153332Y-13745714D01*
X11153332Y-13764762D01*
X11058094Y-13783809D01*
X11229522Y-13840952D02*
X11248570Y-13850476D01*
X11286665Y-13850476D01*
X11305713Y-13840952D01*
X11315237Y-13821905D01*
X11315237Y-13812381D01*
X11305713Y-13793333D01*
X11286665Y-13783809D01*
X11258094Y-13783809D01*
X11239046Y-13774286D01*
X11229522Y-13755238D01*
X11229522Y-13745714D01*
X11239046Y-13726667D01*
X11258094Y-13717143D01*
X11286665Y-13717143D01*
X11305713Y-13726667D01*
X11381903Y-13926667D02*
X11391427Y-13917143D01*
X11410475Y-13888571D01*
X11419999Y-13869524D01*
X11429522Y-13840952D01*
X11439046Y-13793333D01*
X11439046Y-13755238D01*
X11429522Y-13707619D01*
X11419999Y-13679048D01*
X11410475Y-13660000D01*
X11391427Y-13631428D01*
X11381903Y-13621905D01*
X11743808Y-13926667D02*
X11734284Y-13917143D01*
X11715237Y-13888571D01*
X11705713Y-13869524D01*
X11696189Y-13840952D01*
X11686665Y-13793333D01*
X11686665Y-13755238D01*
X11696189Y-13707619D01*
X11705713Y-13679048D01*
X11715237Y-13660000D01*
X11734284Y-13631428D01*
X11743808Y-13621905D01*
X11819999Y-13717143D02*
X11819999Y-13850476D01*
X11819999Y-13736190D02*
X11829522Y-13726667D01*
X11848570Y-13717143D01*
X11877141Y-13717143D01*
X11896189Y-13726667D01*
X11905713Y-13745714D01*
X11905713Y-13850476D01*
X12029522Y-13850476D02*
X12010475Y-13840952D01*
X12000951Y-13831428D01*
X11991427Y-13812381D01*
X11991427Y-13755238D01*
X12000951Y-13736190D01*
X12010475Y-13726667D01*
X12029522Y-13717143D01*
X12058094Y-13717143D01*
X12077141Y-13726667D01*
X12086665Y-13736190D01*
X12096189Y-13755238D01*
X12096189Y-13812381D01*
X12086665Y-13831428D01*
X12077141Y-13840952D01*
X12058094Y-13850476D01*
X12029522Y-13850476D01*
X12153332Y-13717143D02*
X12229522Y-13717143D01*
X12181903Y-13650476D02*
X12181903Y-13821905D01*
X12191427Y-13840952D01*
X12210475Y-13850476D01*
X12229522Y-13850476D01*
X12448570Y-13717143D02*
X12448570Y-13917143D01*
X12448570Y-13726667D02*
X12467618Y-13717143D01*
X12505713Y-13717143D01*
X12524761Y-13726667D01*
X12534284Y-13736190D01*
X12543808Y-13755238D01*
X12543808Y-13812381D01*
X12534284Y-13831428D01*
X12524761Y-13840952D01*
X12505713Y-13850476D01*
X12467618Y-13850476D01*
X12448570Y-13840952D01*
X12658094Y-13850476D02*
X12639046Y-13840952D01*
X12629522Y-13821905D01*
X12629522Y-13650476D01*
X12819999Y-13850476D02*
X12819999Y-13745714D01*
X12810475Y-13726667D01*
X12791427Y-13717143D01*
X12753332Y-13717143D01*
X12734284Y-13726667D01*
X12819999Y-13840952D02*
X12800951Y-13850476D01*
X12753332Y-13850476D01*
X12734284Y-13840952D01*
X12724761Y-13821905D01*
X12724761Y-13802857D01*
X12734284Y-13783809D01*
X12753332Y-13774286D01*
X12800951Y-13774286D01*
X12819999Y-13764762D01*
X12886665Y-13717143D02*
X12962856Y-13717143D01*
X12915237Y-13650476D02*
X12915237Y-13821905D01*
X12924761Y-13840952D01*
X12943808Y-13850476D01*
X12962856Y-13850476D01*
X13105713Y-13840952D02*
X13086665Y-13850476D01*
X13048570Y-13850476D01*
X13029522Y-13840952D01*
X13019999Y-13821905D01*
X13019999Y-13745714D01*
X13029522Y-13726667D01*
X13048570Y-13717143D01*
X13086665Y-13717143D01*
X13105713Y-13726667D01*
X13115237Y-13745714D01*
X13115237Y-13764762D01*
X13019999Y-13783809D01*
X13286665Y-13850476D02*
X13286665Y-13650476D01*
X13286665Y-13840952D02*
X13267618Y-13850476D01*
X13229522Y-13850476D01*
X13210475Y-13840952D01*
X13200951Y-13831428D01*
X13191427Y-13812381D01*
X13191427Y-13755238D01*
X13200951Y-13736190D01*
X13210475Y-13726667D01*
X13229522Y-13717143D01*
X13267618Y-13717143D01*
X13286665Y-13726667D01*
X13362856Y-13926667D02*
X13372380Y-13917143D01*
X13391427Y-13888571D01*
X13400951Y-13869524D01*
X13410475Y-13840952D01*
X13419999Y-13793333D01*
X13419999Y-13755238D01*
X13410475Y-13707619D01*
X13400951Y-13679048D01*
X13391427Y-13660000D01*
X13372380Y-13631428D01*
X13362856Y-13621905D01*
M02*
