%TF.GenerationSoftware,KiCad,Pcbnew,(6.0.7)*%
%TF.CreationDate,2023-03-31T21:06:09+02:00*%
%TF.ProjectId,airboy,61697262-6f79-42e6-9b69-6361645f7063,rev?*%
%TF.SameCoordinates,Original*%
%TF.FileFunction,Paste,Bot*%
%TF.FilePolarity,Positive*%
%FSLAX46Y46*%
G04 Gerber Fmt 4.6, Leading zero omitted, Abs format (unit mm)*
G04 Created by KiCad (PCBNEW (6.0.7)) date 2023-03-31 21:06:09*
%MOMM*%
%LPD*%
G01*
G04 APERTURE LIST*
G04 Aperture macros list*
%AMRoundRect*
0 Rectangle with rounded corners*
0 $1 Rounding radius*
0 $2 $3 $4 $5 $6 $7 $8 $9 X,Y pos of 4 corners*
0 Add a 4 corners polygon primitive as box body*
4,1,4,$2,$3,$4,$5,$6,$7,$8,$9,$2,$3,0*
0 Add four circle primitives for the rounded corners*
1,1,$1+$1,$2,$3*
1,1,$1+$1,$4,$5*
1,1,$1+$1,$6,$7*
1,1,$1+$1,$8,$9*
0 Add four rect primitives between the rounded corners*
20,1,$1+$1,$2,$3,$4,$5,0*
20,1,$1+$1,$4,$5,$6,$7,0*
20,1,$1+$1,$6,$7,$8,$9,0*
20,1,$1+$1,$8,$9,$2,$3,0*%
G04 Aperture macros list end*
%ADD10RoundRect,0.237500X0.300000X0.237500X-0.300000X0.237500X-0.300000X-0.237500X0.300000X-0.237500X0*%
%ADD11RoundRect,0.237500X-0.237500X0.287500X-0.237500X-0.287500X0.237500X-0.287500X0.237500X0.287500X0*%
%ADD12RoundRect,0.237500X-0.250000X-0.237500X0.250000X-0.237500X0.250000X0.237500X-0.250000X0.237500X0*%
%ADD13RoundRect,0.237500X0.237500X-0.250000X0.237500X0.250000X-0.237500X0.250000X-0.237500X-0.250000X0*%
%ADD14R,0.450000X1.500000*%
%ADD15R,5.500000X3.000000*%
%ADD16RoundRect,0.237500X-0.300000X-0.237500X0.300000X-0.237500X0.300000X0.237500X-0.300000X0.237500X0*%
%ADD17RoundRect,0.237500X-0.237500X0.250000X-0.237500X-0.250000X0.237500X-0.250000X0.237500X0.250000X0*%
%ADD18RoundRect,0.237500X0.250000X0.237500X-0.250000X0.237500X-0.250000X-0.237500X0.250000X-0.237500X0*%
%ADD19RoundRect,0.250000X0.425000X-0.537500X0.425000X0.537500X-0.425000X0.537500X-0.425000X-0.537500X0*%
%ADD20RoundRect,0.237500X0.237500X-0.300000X0.237500X0.300000X-0.237500X0.300000X-0.237500X-0.300000X0*%
%ADD21RoundRect,0.237500X-0.237500X0.300000X-0.237500X-0.300000X0.237500X-0.300000X0.237500X0.300000X0*%
%ADD22RoundRect,0.250000X0.315000X-0.315000X0.315000X0.315000X-0.315000X0.315000X-0.315000X-0.315000X0*%
%ADD23RoundRect,0.050000X0.050000X-0.387500X0.050000X0.387500X-0.050000X0.387500X-0.050000X-0.387500X0*%
%ADD24RoundRect,0.050000X0.387500X-0.050000X0.387500X0.050000X-0.387500X0.050000X-0.387500X-0.050000X0*%
%ADD25RoundRect,0.100000X-0.637500X-0.100000X0.637500X-0.100000X0.637500X0.100000X-0.637500X0.100000X0*%
%ADD26RoundRect,0.237500X0.237500X-0.287500X0.237500X0.287500X-0.237500X0.287500X-0.237500X-0.287500X0*%
%ADD27RoundRect,0.125000X-0.125000X0.825000X-0.125000X-0.825000X0.125000X-0.825000X0.125000X0.825000X0*%
%ADD28R,0.600000X1.160000*%
%ADD29R,0.300000X1.160000*%
%ADD30RoundRect,0.125000X0.125000X-0.825000X0.125000X0.825000X-0.125000X0.825000X-0.125000X-0.825000X0*%
%ADD31R,0.800000X0.500000*%
%ADD32R,0.800000X0.400000*%
%ADD33RoundRect,0.150000X-0.150000X0.512500X-0.150000X-0.512500X0.150000X-0.512500X0.150000X0.512500X0*%
%ADD34R,0.800000X2.500000*%
%ADD35R,0.500000X0.800000*%
%ADD36R,0.400000X0.800000*%
%ADD37RoundRect,0.250000X-1.250000X-0.550000X1.250000X-0.550000X1.250000X0.550000X-1.250000X0.550000X0*%
%ADD38RoundRect,0.250000X-0.537500X-0.425000X0.537500X-0.425000X0.537500X0.425000X-0.537500X0.425000X0*%
%ADD39RoundRect,0.160000X0.160000X-0.160000X0.160000X0.160000X-0.160000X0.160000X-0.160000X-0.160000X0*%
%ADD40RoundRect,0.062500X0.062500X-0.375000X0.062500X0.375000X-0.062500X0.375000X-0.062500X-0.375000X0*%
%ADD41RoundRect,0.062500X0.375000X-0.062500X0.375000X0.062500X-0.375000X0.062500X-0.375000X-0.062500X0*%
%ADD42RoundRect,0.250000X0.537500X0.425000X-0.537500X0.425000X-0.537500X-0.425000X0.537500X-0.425000X0*%
%ADD43R,0.650000X1.560000*%
%ADD44RoundRect,0.250000X-0.425000X0.537500X-0.425000X-0.537500X0.425000X-0.537500X0.425000X0.537500X0*%
%ADD45R,1.505000X0.802000*%
%ADD46R,1.567800X2.101200*%
%ADD47RoundRect,0.150000X0.587500X0.150000X-0.587500X0.150000X-0.587500X-0.150000X0.587500X-0.150000X0*%
%ADD48RoundRect,0.150000X0.675000X0.150000X-0.675000X0.150000X-0.675000X-0.150000X0.675000X-0.150000X0*%
%ADD49R,1.200000X1.400000*%
G04 APERTURE END LIST*
D10*
%TO.C,C52*%
X112368500Y-74930000D03*
X110643500Y-74930000D03*
%TD*%
D11*
%TO.C,L2*%
X192938400Y-117235000D03*
X192938400Y-118985000D03*
%TD*%
D10*
%TO.C,C12*%
X194664500Y-115316000D03*
X192939500Y-115316000D03*
%TD*%
D12*
%TO.C,R8*%
X192381500Y-96266000D03*
X194206500Y-96266000D03*
%TD*%
D13*
%TO.C,R35*%
X115189000Y-81100300D03*
X115189000Y-79275300D03*
%TD*%
D14*
%TO.C,U7*%
X89279400Y-109107400D03*
X89929400Y-109107400D03*
X90579400Y-109107400D03*
X91229400Y-109107400D03*
X91879400Y-109107400D03*
X92529400Y-109107400D03*
X93179400Y-109107400D03*
X93829400Y-109107400D03*
X94479400Y-109107400D03*
X95129400Y-109107400D03*
X95779400Y-109107400D03*
X96429400Y-109107400D03*
X97079400Y-109107400D03*
X97729400Y-109107400D03*
X97729400Y-114907400D03*
X97079400Y-114907400D03*
X96429400Y-114907400D03*
X95779400Y-114907400D03*
X95129400Y-114907400D03*
X94479400Y-114907400D03*
X93829400Y-114907400D03*
X93179400Y-114907400D03*
X92529400Y-114907400D03*
X91879400Y-114907400D03*
X91229400Y-114907400D03*
X90579400Y-114907400D03*
X89929400Y-114907400D03*
X89279400Y-114907400D03*
D15*
X93504400Y-112007400D03*
%TD*%
D10*
%TO.C,C10*%
X179678500Y-94615000D03*
X177953500Y-94615000D03*
%TD*%
D16*
%TO.C,C53*%
X110643500Y-73152000D03*
X112368500Y-73152000D03*
%TD*%
D17*
%TO.C,R13*%
X116332000Y-117197500D03*
X116332000Y-119022500D03*
%TD*%
D18*
%TO.C,R23*%
X111402500Y-97536000D03*
X109577500Y-97536000D03*
%TD*%
D19*
%TO.C,C69*%
X183134000Y-71998700D03*
X183134000Y-69123700D03*
%TD*%
D16*
%TO.C,C33*%
X123089500Y-103479600D03*
X124814500Y-103479600D03*
%TD*%
D18*
%TO.C,R24*%
X99718500Y-125878000D03*
X97893500Y-125878000D03*
%TD*%
D10*
%TO.C,C15*%
X198220500Y-92202000D03*
X196495500Y-92202000D03*
%TD*%
D20*
%TO.C,C45*%
X87630000Y-123798500D03*
X87630000Y-122073500D03*
%TD*%
D12*
%TO.C,R47*%
X116332000Y-114808000D03*
X118157000Y-114808000D03*
%TD*%
D10*
%TO.C,C3*%
X186536500Y-107442000D03*
X184811500Y-107442000D03*
%TD*%
D17*
%TO.C,R48*%
X105410000Y-66143500D03*
X105410000Y-67968500D03*
%TD*%
D10*
%TO.C,C35*%
X109627500Y-95758000D03*
X111352500Y-95758000D03*
%TD*%
D17*
%TO.C,R4*%
X180594000Y-105259500D03*
X180594000Y-107084500D03*
%TD*%
D20*
%TO.C,C39*%
X92964000Y-119480500D03*
X92964000Y-117755500D03*
%TD*%
D21*
%TO.C,C21*%
X78486000Y-98197500D03*
X78486000Y-99922500D03*
%TD*%
D20*
%TO.C,C66*%
X121285000Y-71982500D03*
X121285000Y-70257500D03*
%TD*%
%TO.C,C58*%
X195072000Y-69950500D03*
X195072000Y-68225500D03*
%TD*%
D12*
%TO.C,R6*%
X162155500Y-118872000D03*
X163980500Y-118872000D03*
%TD*%
D22*
%TO.C,U2*%
X189200000Y-91372000D03*
X185000000Y-92772000D03*
X189200000Y-95572000D03*
X185000000Y-94172000D03*
X186400000Y-92772000D03*
X189200000Y-94172000D03*
X185000000Y-91372000D03*
X189200000Y-92772000D03*
X185000000Y-95572000D03*
X186400000Y-94172000D03*
X186400000Y-91372000D03*
X186400000Y-95572000D03*
X187800000Y-95572000D03*
X187800000Y-91372000D03*
X187800000Y-92772000D03*
X187800000Y-94172000D03*
D23*
X189700000Y-96909500D03*
X189300000Y-96909500D03*
X188900000Y-96909500D03*
X188500000Y-96909500D03*
X188100000Y-96909500D03*
X187700000Y-96909500D03*
X187300000Y-96909500D03*
X186900000Y-96909500D03*
X186500000Y-96909500D03*
X186100000Y-96909500D03*
X185700000Y-96909500D03*
X185300000Y-96909500D03*
X184900000Y-96909500D03*
X184500000Y-96909500D03*
D24*
X183662500Y-96072000D03*
X183662500Y-95672000D03*
X183662500Y-95272000D03*
X183662500Y-94872000D03*
X183662500Y-94472000D03*
X183662500Y-94072000D03*
X183662500Y-93672000D03*
X183662500Y-93272000D03*
X183662500Y-92872000D03*
X183662500Y-92472000D03*
X183662500Y-92072000D03*
X183662500Y-91672000D03*
X183662500Y-91272000D03*
X183662500Y-90872000D03*
D23*
X184500000Y-90034500D03*
X184900000Y-90034500D03*
X185300000Y-90034500D03*
X185700000Y-90034500D03*
X186100000Y-90034500D03*
X186500000Y-90034500D03*
X186900000Y-90034500D03*
X187300000Y-90034500D03*
X187700000Y-90034500D03*
X188100000Y-90034500D03*
X188500000Y-90034500D03*
X188900000Y-90034500D03*
X189300000Y-90034500D03*
X189700000Y-90034500D03*
D24*
X190537500Y-90872000D03*
X190537500Y-91272000D03*
X190537500Y-91672000D03*
X190537500Y-92072000D03*
X190537500Y-92472000D03*
X190537500Y-92872000D03*
X190537500Y-93272000D03*
X190537500Y-93672000D03*
X190537500Y-94072000D03*
X190537500Y-94472000D03*
X190537500Y-94872000D03*
X190537500Y-95272000D03*
X190537500Y-95672000D03*
X190537500Y-96072000D03*
%TD*%
D10*
%TO.C,C41*%
X92048500Y-104648000D03*
X90323500Y-104648000D03*
%TD*%
D25*
%TO.C,U6*%
X114485500Y-104779000D03*
X114485500Y-104129000D03*
X114485500Y-103479000D03*
X114485500Y-102829000D03*
X114485500Y-102179000D03*
X114485500Y-101529000D03*
X114485500Y-100879000D03*
X114485500Y-100229000D03*
X114485500Y-99579000D03*
X114485500Y-98929000D03*
X120210500Y-98929000D03*
X120210500Y-99579000D03*
X120210500Y-100229000D03*
X120210500Y-100879000D03*
X120210500Y-101529000D03*
X120210500Y-102179000D03*
X120210500Y-102829000D03*
X120210500Y-103479000D03*
X120210500Y-104129000D03*
X120210500Y-104779000D03*
%TD*%
D26*
%TO.C,FB2*%
X120142000Y-112381000D03*
X120142000Y-110631000D03*
%TD*%
D17*
%TO.C,R34*%
X110886000Y-88734500D03*
X110886000Y-90559500D03*
%TD*%
D13*
%TO.C,R20*%
X219456000Y-77112500D03*
X219456000Y-75287500D03*
%TD*%
D16*
%TO.C,C46*%
X117755500Y-79756000D03*
X119480500Y-79756000D03*
%TD*%
D18*
%TO.C,R22*%
X111402500Y-99314000D03*
X109577500Y-99314000D03*
%TD*%
D19*
%TO.C,C43*%
X86868000Y-113197500D03*
X86868000Y-110322500D03*
%TD*%
D27*
%TO.C,U4*%
X81403000Y-90226000D03*
X82053000Y-90226000D03*
X82703000Y-90226000D03*
X83353000Y-90226000D03*
X84003000Y-90226000D03*
X84653000Y-90226000D03*
X85303000Y-90226000D03*
X85953000Y-90226000D03*
X86603000Y-90226000D03*
X87253000Y-90226000D03*
X87253000Y-97226000D03*
X86603000Y-97226000D03*
X85953000Y-97226000D03*
X85303000Y-97226000D03*
X84653000Y-97226000D03*
X84003000Y-97226000D03*
X83353000Y-97226000D03*
X82703000Y-97226000D03*
X82053000Y-97226000D03*
X81403000Y-97226000D03*
%TD*%
D17*
%TO.C,R28*%
X91186000Y-117705500D03*
X91186000Y-119530500D03*
%TD*%
D16*
%TO.C,C14*%
X196495500Y-98298000D03*
X198220500Y-98298000D03*
%TD*%
D21*
%TO.C,C48*%
X196850000Y-68225500D03*
X196850000Y-69950500D03*
%TD*%
D28*
%TO.C,J6*%
X198700000Y-65085000D03*
X199500000Y-65085000D03*
D29*
X200650000Y-65085000D03*
X201650000Y-65085000D03*
X202150000Y-65085000D03*
X203150000Y-65085000D03*
D28*
X204300000Y-65085000D03*
X205100000Y-65085000D03*
X205100000Y-65085000D03*
X204300000Y-65085000D03*
D29*
X203650000Y-65085000D03*
X202650000Y-65085000D03*
X201150000Y-65085000D03*
X200150000Y-65085000D03*
D28*
X199500000Y-65085000D03*
X198700000Y-65085000D03*
%TD*%
D11*
%TO.C,FB3*%
X119888000Y-93257400D03*
X119888000Y-95007400D03*
%TD*%
D18*
%TO.C,R38*%
X186586500Y-60706000D03*
X184761500Y-60706000D03*
%TD*%
D30*
%TO.C,U5*%
X220766071Y-96972000D03*
X220116071Y-96972000D03*
X219466071Y-96972000D03*
X218816071Y-96972000D03*
X218166071Y-96972000D03*
X217516071Y-96972000D03*
X216866071Y-96972000D03*
X216216071Y-96972000D03*
X215566071Y-96972000D03*
X214916071Y-96972000D03*
X214916071Y-89972000D03*
X215566071Y-89972000D03*
X216216071Y-89972000D03*
X216866071Y-89972000D03*
X217516071Y-89972000D03*
X218166071Y-89972000D03*
X218816071Y-89972000D03*
X219466071Y-89972000D03*
X220116071Y-89972000D03*
X220766071Y-89972000D03*
%TD*%
D21*
%TO.C,C17*%
X179070000Y-88545500D03*
X179070000Y-90270500D03*
%TD*%
D26*
%TO.C,L1*%
X188341000Y-104112000D03*
X188341000Y-102362000D03*
%TD*%
D12*
%TO.C,R36*%
X206351500Y-69596000D03*
X208176500Y-69596000D03*
%TD*%
D17*
%TO.C,R14*%
X116332000Y-120753500D03*
X116332000Y-122578500D03*
%TD*%
D13*
%TO.C,R43*%
X123444000Y-86256500D03*
X123444000Y-84431500D03*
%TD*%
D17*
%TO.C,R29*%
X94996000Y-117705500D03*
X94996000Y-119530500D03*
%TD*%
D31*
%TO.C,RN4*%
X123052000Y-101834800D03*
D32*
X123052000Y-101034800D03*
X123052000Y-100234800D03*
D31*
X123052000Y-99434800D03*
X124852000Y-99434800D03*
D32*
X124852000Y-100234800D03*
X124852000Y-101034800D03*
D31*
X124852000Y-101834800D03*
%TD*%
D10*
%TO.C,C65*%
X119861500Y-91440000D03*
X118136500Y-91440000D03*
%TD*%
D20*
%TO.C,C64*%
X122174000Y-112368500D03*
X122174000Y-110643500D03*
%TD*%
D17*
%TO.C,R31*%
X94996000Y-122023500D03*
X94996000Y-123848500D03*
%TD*%
D33*
%TO.C,U9*%
X200980000Y-68712500D03*
X201930000Y-68712500D03*
X202880000Y-68712500D03*
X202880000Y-70987500D03*
X201930000Y-70987500D03*
X200980000Y-70987500D03*
%TD*%
D21*
%TO.C,C23*%
X217170000Y-75337500D03*
X217170000Y-77062500D03*
%TD*%
D19*
%TO.C,C20*%
X226060000Y-88813500D03*
X226060000Y-85938500D03*
%TD*%
D12*
%TO.C,R39*%
X184761500Y-65684400D03*
X186586500Y-65684400D03*
%TD*%
D17*
%TO.C,R41*%
X122936000Y-93829500D03*
X122936000Y-95654500D03*
%TD*%
D21*
%TO.C,C57*%
X98806000Y-70308300D03*
X98806000Y-72033300D03*
%TD*%
D20*
%TO.C,C59*%
X98552000Y-123798500D03*
X98552000Y-122073500D03*
%TD*%
D34*
%TO.C,J1*%
X175965000Y-69680000D03*
X174695000Y-69680000D03*
X173425000Y-69680000D03*
X172155000Y-69680000D03*
X170885000Y-69680000D03*
X169615000Y-69680000D03*
X168345000Y-69680000D03*
X167075000Y-69680000D03*
X165805000Y-69680000D03*
X164535000Y-69680000D03*
X163265000Y-69680000D03*
X161995000Y-69680000D03*
X160725000Y-69680000D03*
X159455000Y-69680000D03*
X158185000Y-69680000D03*
X156915000Y-69680000D03*
X155645000Y-69680000D03*
X154375000Y-69680000D03*
X153105000Y-69680000D03*
X151835000Y-69680000D03*
X150565000Y-69680000D03*
X149295000Y-69680000D03*
X148025000Y-69680000D03*
X146755000Y-69680000D03*
X145485000Y-69680000D03*
X144215000Y-69680000D03*
X142945000Y-69680000D03*
X141675000Y-69680000D03*
X140405000Y-69680000D03*
X139135000Y-69680000D03*
X137865000Y-69680000D03*
X136595000Y-69680000D03*
X135325000Y-69680000D03*
X134055000Y-69680000D03*
X132785000Y-69680000D03*
X131515000Y-69680000D03*
X130245000Y-69680000D03*
X128975000Y-69680000D03*
X127705000Y-69680000D03*
X126435000Y-69680000D03*
%TD*%
D35*
%TO.C,RN3*%
X190062000Y-84952000D03*
D36*
X190862000Y-84952000D03*
X191662000Y-84952000D03*
D35*
X192462000Y-84952000D03*
X192462000Y-86752000D03*
D36*
X191662000Y-86752000D03*
X190862000Y-86752000D03*
D35*
X190062000Y-86752000D03*
%TD*%
D17*
%TO.C,R15*%
X101600000Y-117197500D03*
X101600000Y-119022500D03*
%TD*%
D21*
%TO.C,C44*%
X98552000Y-117755500D03*
X98552000Y-119480500D03*
%TD*%
D10*
%TO.C,C36*%
X111352500Y-101092000D03*
X109627500Y-101092000D03*
%TD*%
D12*
%TO.C,R33*%
X118213500Y-85344000D03*
X120038500Y-85344000D03*
%TD*%
D13*
%TO.C,R42*%
X123444000Y-89812500D03*
X123444000Y-87987500D03*
%TD*%
D21*
%TO.C,C42*%
X87630000Y-117755500D03*
X87630000Y-119480500D03*
%TD*%
D19*
%TO.C,C56*%
X101092000Y-72100300D03*
X101092000Y-69225300D03*
%TD*%
D17*
%TO.C,R30*%
X91186000Y-122023500D03*
X91186000Y-123848500D03*
%TD*%
D19*
%TO.C,C67*%
X119126000Y-71998700D03*
X119126000Y-69123700D03*
%TD*%
D20*
%TO.C,C34*%
X112522000Y-112368500D03*
X112522000Y-110643500D03*
%TD*%
D21*
%TO.C,C7*%
X193040000Y-98705500D03*
X193040000Y-100430500D03*
%TD*%
D12*
%TO.C,R40*%
X184761500Y-62738000D03*
X186586500Y-62738000D03*
%TD*%
D20*
%TO.C,C11*%
X194564000Y-89154000D03*
X194564000Y-87429000D03*
%TD*%
D13*
%TO.C,R5*%
X183134000Y-111656500D03*
X183134000Y-109831500D03*
%TD*%
D37*
%TO.C,C61*%
X101432000Y-112268000D03*
X105832000Y-112268000D03*
%TD*%
D38*
%TO.C,C47*%
X117434500Y-82042000D03*
X120309500Y-82042000D03*
%TD*%
D39*
%TO.C,U8*%
X114808000Y-85198000D03*
X114008000Y-85998000D03*
X114008000Y-85198000D03*
X114808000Y-85998000D03*
D40*
X115158000Y-87035500D03*
X114658000Y-87035500D03*
X114158000Y-87035500D03*
X113658000Y-87035500D03*
D41*
X112970500Y-86348000D03*
X112970500Y-85848000D03*
X112970500Y-85348000D03*
X112970500Y-84848000D03*
D40*
X113658000Y-84160500D03*
X114158000Y-84160500D03*
X114658000Y-84160500D03*
X115158000Y-84160500D03*
D41*
X115845500Y-84848000D03*
X115845500Y-85348000D03*
X115845500Y-85848000D03*
X115845500Y-86348000D03*
%TD*%
D13*
%TO.C,R21*%
X82804000Y-77112500D03*
X82804000Y-75287500D03*
%TD*%
D42*
%TO.C,C27*%
X114467500Y-108458000D03*
X111592500Y-108458000D03*
%TD*%
D17*
%TO.C,R32*%
X105298000Y-88734500D03*
X105298000Y-90559500D03*
%TD*%
%TO.C,R10*%
X212278000Y-109483500D03*
X212278000Y-111308500D03*
%TD*%
D16*
%TO.C,C1*%
X200220500Y-80010000D03*
X201945500Y-80010000D03*
%TD*%
D10*
%TO.C,C29*%
X117448500Y-97282000D03*
X115723500Y-97282000D03*
%TD*%
D43*
%TO.C,U3*%
X210180000Y-112682000D03*
X209230000Y-112682000D03*
X208280000Y-112682000D03*
X208280000Y-109982000D03*
X210180000Y-109982000D03*
%TD*%
D10*
%TO.C,C18*%
X210092500Y-107696000D03*
X208367500Y-107696000D03*
%TD*%
D16*
%TO.C,C26*%
X120295500Y-106426000D03*
X122020500Y-106426000D03*
%TD*%
D10*
%TO.C,C49*%
X113130500Y-82042000D03*
X111405500Y-82042000D03*
%TD*%
%TO.C,C4*%
X186536500Y-105664000D03*
X184811500Y-105664000D03*
%TD*%
%TO.C,C51*%
X184123500Y-102362000D03*
X182398500Y-102362000D03*
%TD*%
D26*
%TO.C,FB1*%
X114554000Y-112381000D03*
X114554000Y-110631000D03*
%TD*%
D20*
%TO.C,C38*%
X94488000Y-102208500D03*
X94488000Y-100483500D03*
%TD*%
D12*
%TO.C,R37*%
X118213500Y-87122000D03*
X120038500Y-87122000D03*
%TD*%
D20*
%TO.C,C68*%
X181102000Y-71982500D03*
X181102000Y-70257500D03*
%TD*%
D17*
%TO.C,R27*%
X96266000Y-100433500D03*
X96266000Y-102258500D03*
%TD*%
D44*
%TO.C,C19*%
X76200000Y-98384500D03*
X76200000Y-101259500D03*
%TD*%
D35*
%TO.C,RN1*%
X180918000Y-84952000D03*
D36*
X181718000Y-84952000D03*
X182518000Y-84952000D03*
D35*
X183318000Y-84952000D03*
X183318000Y-86752000D03*
D36*
X182518000Y-86752000D03*
X181718000Y-86752000D03*
D35*
X180918000Y-86752000D03*
%TD*%
D17*
%TO.C,R18*%
X209804000Y-99671500D03*
X209804000Y-101496500D03*
%TD*%
%TO.C,R16*%
X205740000Y-99671500D03*
X205740000Y-101496500D03*
%TD*%
%TO.C,R17*%
X207772000Y-99671500D03*
X207772000Y-101496500D03*
%TD*%
D16*
%TO.C,C30*%
X109627500Y-102870000D03*
X111352500Y-102870000D03*
%TD*%
D45*
%TO.C,U10*%
X108415500Y-70739000D03*
X108415500Y-72009000D03*
X108415500Y-73279000D03*
X108415500Y-74549000D03*
X103420500Y-74549000D03*
X103420500Y-73279000D03*
X103420500Y-72009000D03*
X103420500Y-70739000D03*
D46*
X105918000Y-72644000D03*
%TD*%
D10*
%TO.C,C2*%
X186536500Y-103886000D03*
X184811500Y-103886000D03*
%TD*%
D12*
%TO.C,R1*%
X184126500Y-115697000D03*
X185951500Y-115697000D03*
%TD*%
D21*
%TO.C,C9*%
X191262000Y-98705500D03*
X191262000Y-100430500D03*
%TD*%
D13*
%TO.C,R45*%
X96774000Y-123848500D03*
X96774000Y-122023500D03*
%TD*%
D17*
%TO.C,R11*%
X206182000Y-109483500D03*
X206182000Y-111308500D03*
%TD*%
D12*
%TO.C,R46*%
X108053500Y-114808000D03*
X109878500Y-114808000D03*
%TD*%
D17*
%TO.C,R26*%
X98044000Y-100433500D03*
X98044000Y-102258500D03*
%TD*%
D18*
%TO.C,R2*%
X182268500Y-115697000D03*
X180443500Y-115697000D03*
%TD*%
%TO.C,R7*%
X140104500Y-118872000D03*
X138279500Y-118872000D03*
%TD*%
D47*
%TO.C,Q1*%
X180617100Y-109794000D03*
X180617100Y-111694000D03*
X178742100Y-110744000D03*
%TD*%
D37*
%TO.C,C60*%
X101432000Y-105918000D03*
X105832000Y-105918000D03*
%TD*%
D21*
%TO.C,C24*%
X85090000Y-75337500D03*
X85090000Y-77062500D03*
%TD*%
D38*
%TO.C,C54*%
X110830500Y-77216000D03*
X113705500Y-77216000D03*
%TD*%
D17*
%TO.C,R12*%
X94488000Y-104243500D03*
X94488000Y-106068500D03*
%TD*%
D10*
%TO.C,C25*%
X114400500Y-106426000D03*
X112675500Y-106426000D03*
%TD*%
%TO.C,C8*%
X135482500Y-118872000D03*
X133757500Y-118872000D03*
%TD*%
D17*
%TO.C,R9*%
X98044000Y-104243500D03*
X98044000Y-106068500D03*
%TD*%
D38*
%TO.C,C28*%
X120228500Y-108458000D03*
X123103500Y-108458000D03*
%TD*%
D48*
%TO.C,U1*%
X205486000Y-81915000D03*
X205486000Y-83185000D03*
X205486000Y-84455000D03*
X205486000Y-85725000D03*
X200236000Y-85725000D03*
X200236000Y-84455000D03*
X200236000Y-83185000D03*
X200236000Y-81915000D03*
%TD*%
D21*
%TO.C,C16*%
X180721000Y-88545500D03*
X180721000Y-90270500D03*
%TD*%
D18*
%TO.C,R25*%
X95654500Y-125878000D03*
X93829500Y-125878000D03*
%TD*%
D10*
%TO.C,C5*%
X188314500Y-100584000D03*
X186589500Y-100584000D03*
%TD*%
%TO.C,C31*%
X111352500Y-104648000D03*
X109627500Y-104648000D03*
%TD*%
%TO.C,C70*%
X148030100Y-72542400D03*
X146305100Y-72542400D03*
%TD*%
D20*
%TO.C,C55*%
X97028000Y-72033300D03*
X97028000Y-70308300D03*
%TD*%
D49*
%TO.C,Y1*%
X196508000Y-96350000D03*
X196508000Y-94150000D03*
X198208000Y-94150000D03*
X198208000Y-96350000D03*
%TD*%
D13*
%TO.C,R44*%
X89408000Y-123848500D03*
X89408000Y-122023500D03*
%TD*%
D42*
%TO.C,C32*%
X117515500Y-94996000D03*
X114640500Y-94996000D03*
%TD*%
D35*
%TO.C,RN2*%
X185490000Y-84952000D03*
D36*
X186290000Y-84952000D03*
X187090000Y-84952000D03*
D35*
X187890000Y-84952000D03*
X187890000Y-86752000D03*
D36*
X187090000Y-86752000D03*
X186290000Y-86752000D03*
D35*
X185490000Y-86752000D03*
%TD*%
D10*
%TO.C,C40*%
X92048500Y-102362000D03*
X90323500Y-102362000D03*
%TD*%
D16*
%TO.C,C6*%
X166777500Y-118872000D03*
X168502500Y-118872000D03*
%TD*%
D44*
%TO.C,C63*%
X195326000Y-101178500D03*
X195326000Y-104053500D03*
%TD*%
D20*
%TO.C,C37*%
X99822000Y-102208500D03*
X99822000Y-100483500D03*
%TD*%
D16*
%TO.C,C50*%
X114453500Y-89408000D03*
X116178500Y-89408000D03*
%TD*%
D44*
%TO.C,C62*%
X188214000Y-109306500D03*
X188214000Y-112181500D03*
%TD*%
D20*
%TO.C,C22*%
X223774000Y-89000500D03*
X223774000Y-87275500D03*
%TD*%
D10*
%TO.C,C13*%
X194664500Y-120904000D03*
X192939500Y-120904000D03*
%TD*%
D17*
%TO.C,R19*%
X101600000Y-120753500D03*
X101600000Y-122578500D03*
%TD*%
M02*
