%TF.GenerationSoftware,KiCad,Pcbnew,(6.0.7)*%
%TF.CreationDate,2023-03-31T21:15:41+02:00*%
%TF.ProjectId,airboy_cartridge,61697262-6f79-45f6-9361-727472696467,rev?*%
%TF.SameCoordinates,Original*%
%TF.FileFunction,Drillmap*%
%TF.FilePolarity,Positive*%
%FSLAX45Y45*%
G04 Gerber Fmt 4.5, Leading zero omitted, Abs format (unit mm)*
G04 Created by KiCad (PCBNEW (6.0.7)) date 2023-03-31 21:15:41*
%MOMM*%
%LPD*%
G01*
G04 APERTURE LIST*
%ADD10C,0.100000*%
%ADD11C,0.200000*%
%ADD12C,0.030000*%
%ADD13C,0.040000*%
%ADD14C,0.060000*%
%ADD15C,0.270000*%
G04 APERTURE END LIST*
D10*
X12420000Y-8600000D02*
X12420000Y-12130000D01*
X17580000Y-8600000D02*
X17580000Y-12130000D01*
X12420000Y-8600000D02*
X17580000Y-8600000D01*
X12470000Y-12180000D02*
X17530000Y-12180000D01*
X17530000Y-12180000D02*
X17580000Y-12130000D01*
X12420000Y-12130000D02*
X12470000Y-12180000D01*
D11*
D12*
X12568160Y-9637000D02*
X12598160Y-9667000D01*
X12598160Y-9637000D02*
X12568160Y-9667000D01*
X12812000Y-8951200D02*
X12842000Y-8981200D01*
X12842000Y-8951200D02*
X12812000Y-8981200D01*
X12908520Y-9383000D02*
X12938520Y-9413000D01*
X12938520Y-9383000D02*
X12908520Y-9413000D01*
X12959320Y-9144240D02*
X12989320Y-9174240D01*
X12989320Y-9144240D02*
X12959320Y-9174240D01*
X13076160Y-9418560D02*
X13106160Y-9448560D01*
X13106160Y-9418560D02*
X13076160Y-9448560D01*
X13119340Y-9659860D02*
X13149340Y-9689860D01*
X13149340Y-9659860D02*
X13119340Y-9689860D01*
X13170140Y-9408400D02*
X13200140Y-9438400D01*
X13200140Y-9408400D02*
X13170140Y-9438400D01*
X13243800Y-8951200D02*
X13273800Y-8981200D01*
X13273800Y-8951200D02*
X13243800Y-8981200D01*
X14158200Y-11366740D02*
X14188200Y-11396740D01*
X14188200Y-11366740D02*
X14158200Y-11396740D01*
X14529040Y-11348960D02*
X14559040Y-11378960D01*
X14559040Y-11348960D02*
X14529040Y-11378960D01*
X14569680Y-11039080D02*
X14599680Y-11069080D01*
X14599680Y-11039080D02*
X14569680Y-11069080D01*
X14572220Y-10818100D02*
X14602220Y-10848100D01*
X14602220Y-10818100D02*
X14572220Y-10848100D01*
X14584920Y-9598900D02*
X14614920Y-9628900D01*
X14614920Y-9598900D02*
X14584920Y-9628900D01*
X14584920Y-9725900D02*
X14614920Y-9755900D01*
X14614920Y-9725900D02*
X14584920Y-9755900D01*
X14625560Y-11125440D02*
X14655560Y-11155440D01*
X14655560Y-11125440D02*
X14625560Y-11155440D01*
X14663660Y-9050260D02*
X14693660Y-9080260D01*
X14693660Y-9050260D02*
X14663660Y-9080260D01*
X14666200Y-9271240D02*
X14696200Y-9301240D01*
X14696200Y-9271240D02*
X14666200Y-9301240D01*
X14770340Y-9662400D02*
X14800340Y-9692400D01*
X14800340Y-9662400D02*
X14770340Y-9692400D01*
X14793200Y-11412460D02*
X14823200Y-11442460D01*
X14823200Y-11412460D02*
X14793200Y-11442460D01*
X14920200Y-11072100D02*
X14950200Y-11102100D01*
X14950200Y-11072100D02*
X14920200Y-11102100D01*
X15405340Y-9883380D02*
X15435340Y-9913380D01*
X15435340Y-9883380D02*
X15405340Y-9913380D01*
X15479000Y-9997680D02*
X15509000Y-10027680D01*
X15509000Y-9997680D02*
X15479000Y-10027680D01*
X15618700Y-9238220D02*
X15648700Y-9268220D01*
X15648700Y-9238220D02*
X15618700Y-9268220D01*
X15656800Y-10383200D02*
X15686800Y-10413200D01*
X15686800Y-10383200D02*
X15656800Y-10413200D01*
X15720300Y-11237200D02*
X15750300Y-11267200D01*
X15750300Y-11237200D02*
X15720300Y-11267200D01*
X15748240Y-11486120D02*
X15778240Y-11516120D01*
X15778240Y-11486120D02*
X15748240Y-11516120D01*
X15776180Y-10599660D02*
X15806180Y-10629660D01*
X15806180Y-10599660D02*
X15776180Y-10629660D01*
X15875240Y-11486120D02*
X15905240Y-11516120D01*
X15905240Y-11486120D02*
X15875240Y-11516120D01*
X15885400Y-11237200D02*
X15915400Y-11267200D01*
X15915400Y-11237200D02*
X15885400Y-11267200D01*
X15890000Y-10615000D02*
X15920000Y-10645000D01*
X15920000Y-10615000D02*
X15890000Y-10645000D01*
X16002240Y-11486120D02*
X16032240Y-11516120D01*
X16032240Y-11486120D02*
X16002240Y-11516120D01*
X16050500Y-11237200D02*
X16080500Y-11267200D01*
X16080500Y-11237200D02*
X16050500Y-11267200D01*
X16095000Y-10610000D02*
X16125000Y-10640000D01*
X16125000Y-10610000D02*
X16095000Y-10640000D01*
X16129240Y-11486120D02*
X16159240Y-11516120D01*
X16159240Y-11486120D02*
X16129240Y-11516120D01*
X16215600Y-11237200D02*
X16245600Y-11267200D01*
X16245600Y-11237200D02*
X16215600Y-11267200D01*
X16256240Y-11486120D02*
X16286240Y-11516120D01*
X16286240Y-11486120D02*
X16256240Y-11516120D01*
X16322280Y-8887700D02*
X16352280Y-8917700D01*
X16352280Y-8887700D02*
X16322280Y-8917700D01*
X16380700Y-11237200D02*
X16410700Y-11267200D01*
X16410700Y-11237200D02*
X16380700Y-11267200D01*
X16385780Y-11486120D02*
X16415780Y-11516120D01*
X16415780Y-11486120D02*
X16385780Y-11516120D01*
X16431500Y-8887700D02*
X16461500Y-8917700D01*
X16461500Y-8887700D02*
X16431500Y-8917700D01*
X16545800Y-9484600D02*
X16575800Y-9514600D01*
X16575800Y-9484600D02*
X16545800Y-9514600D01*
X16545800Y-11237200D02*
X16575800Y-11267200D01*
X16575800Y-11237200D02*
X16545800Y-11267200D01*
X16652480Y-8887700D02*
X16682480Y-8917700D01*
X16682480Y-8887700D02*
X16652480Y-8917700D01*
X16698200Y-11468340D02*
X16728200Y-11498340D01*
X16728200Y-11468340D02*
X16698200Y-11498340D01*
X16715980Y-11234660D02*
X16745980Y-11264660D01*
X16745980Y-11234660D02*
X16715980Y-11264660D01*
X16774400Y-9484600D02*
X16804400Y-9514600D01*
X16804400Y-9484600D02*
X16774400Y-9514600D01*
X16825200Y-11468340D02*
X16855200Y-11498340D01*
X16855200Y-11468340D02*
X16825200Y-11498340D01*
X16873460Y-8887700D02*
X16903460Y-8917700D01*
X16903460Y-8887700D02*
X16873460Y-8917700D01*
X16903940Y-10076420D02*
X16933940Y-10106420D01*
X16933940Y-10076420D02*
X16903940Y-10106420D01*
X16982680Y-8887700D02*
X17012680Y-8917700D01*
X17012680Y-8887700D02*
X16982680Y-8917700D01*
X17041100Y-11008600D02*
X17071100Y-11038600D01*
X17071100Y-11008600D02*
X17041100Y-11038600D01*
X17053800Y-9484600D02*
X17083800Y-9514600D01*
X17083800Y-9484600D02*
X17053800Y-9514600D01*
X17157940Y-10076420D02*
X17187940Y-10106420D01*
X17187940Y-10076420D02*
X17157940Y-10106420D01*
X17380000Y-10720000D02*
X17410000Y-10750000D01*
X17410000Y-10720000D02*
X17380000Y-10750000D01*
D13*
X12542200Y-11435080D02*
G75*
G03*
X12542200Y-11435080I-20000J0D01*
G01*
X12618400Y-10261600D02*
G75*
G03*
X12618400Y-10261600I-20000J0D01*
G01*
X12618400Y-10566400D02*
G75*
G03*
X12618400Y-10566400I-20000J0D01*
G01*
X12669200Y-11435080D02*
G75*
G03*
X12669200Y-11435080I-20000J0D01*
G01*
X12681900Y-9438640D02*
G75*
G03*
X12681900Y-9438640I-20000J0D01*
G01*
X12770800Y-10109200D02*
G75*
G03*
X12770800Y-10109200I-20000J0D01*
G01*
X12783500Y-10906760D02*
G75*
G03*
X12783500Y-10906760I-20000J0D01*
G01*
X12786040Y-9900920D02*
G75*
G03*
X12786040Y-9900920I-20000J0D01*
G01*
X12796200Y-11435080D02*
G75*
G03*
X12796200Y-11435080I-20000J0D01*
G01*
X12902880Y-11023600D02*
G75*
G03*
X12902880Y-11023600I-20000J0D01*
G01*
X12923200Y-11435080D02*
G75*
G03*
X12923200Y-11435080I-20000J0D01*
G01*
X12933360Y-9517380D02*
G75*
G03*
X12933360Y-9517380I-20000J0D01*
G01*
X12971460Y-9900920D02*
G75*
G03*
X12971460Y-9900920I-20000J0D01*
G01*
X13042580Y-11229340D02*
G75*
G03*
X13042580Y-11229340I-20000J0D01*
G01*
X13126400Y-10109200D02*
G75*
G03*
X13126400Y-10109200I-20000J0D01*
G01*
X13177200Y-10820400D02*
G75*
G03*
X13177200Y-10820400I-20000J0D01*
G01*
X13177200Y-11074400D02*
G75*
G03*
X13177200Y-11074400I-20000J0D01*
G01*
X13177200Y-11328400D02*
G75*
G03*
X13177200Y-11328400I-20000J0D01*
G01*
X13250860Y-9517380D02*
G75*
G03*
X13250860Y-9517380I-20000J0D01*
G01*
X13304200Y-11503660D02*
G75*
G03*
X13304200Y-11503660I-20000J0D01*
G01*
X13421040Y-10246360D02*
G75*
G03*
X13421040Y-10246360I-20000J0D01*
G01*
X13431200Y-10820400D02*
G75*
G03*
X13431200Y-10820400I-20000J0D01*
G01*
X13431200Y-11074400D02*
G75*
G03*
X13431200Y-11074400I-20000J0D01*
G01*
X13431200Y-11328400D02*
G75*
G03*
X13431200Y-11328400I-20000J0D01*
G01*
X13441360Y-9438640D02*
G75*
G03*
X13441360Y-9438640I-20000J0D01*
G01*
X13591220Y-9804400D02*
G75*
G03*
X13591220Y-9804400I-20000J0D01*
G01*
X13685200Y-10210800D02*
G75*
G03*
X13685200Y-10210800I-20000J0D01*
G01*
X13685200Y-10464800D02*
G75*
G03*
X13685200Y-10464800I-20000J0D01*
G01*
X13685200Y-10820400D02*
G75*
G03*
X13685200Y-10820400I-20000J0D01*
G01*
X13685200Y-11074400D02*
G75*
G03*
X13685200Y-11074400I-20000J0D01*
G01*
X13685200Y-11328400D02*
G75*
G03*
X13685200Y-11328400I-20000J0D01*
G01*
X13685200Y-11503660D02*
G75*
G03*
X13685200Y-11503660I-20000J0D01*
G01*
X13730920Y-8953500D02*
G75*
G03*
X13730920Y-8953500I-20000J0D01*
G01*
X13761400Y-8737600D02*
G75*
G03*
X13761400Y-8737600I-20000J0D01*
G01*
X13906180Y-10632440D02*
G75*
G03*
X13906180Y-10632440I-20000J0D01*
G01*
X13926500Y-10820400D02*
G75*
G03*
X13926500Y-10820400I-20000J0D01*
G01*
X14066200Y-11503660D02*
G75*
G03*
X14066200Y-11503660I-20000J0D01*
G01*
X14122080Y-9624060D02*
G75*
G03*
X14122080Y-9624060I-20000J0D01*
G01*
X14134780Y-10312400D02*
G75*
G03*
X14134780Y-10312400I-20000J0D01*
G01*
X14236380Y-9197340D02*
G75*
G03*
X14236380Y-9197340I-20000J0D01*
G01*
X14254160Y-11049000D02*
G75*
G03*
X14254160Y-11049000I-20000J0D01*
G01*
X14282100Y-9867900D02*
G75*
G03*
X14282100Y-9867900I-20000J0D01*
G01*
X14320200Y-11503660D02*
G75*
G03*
X14320200Y-11503660I-20000J0D01*
G01*
X14371000Y-10058400D02*
G75*
G03*
X14371000Y-10058400I-20000J0D01*
G01*
X14396400Y-8788400D02*
G75*
G03*
X14396400Y-8788400I-20000J0D01*
G01*
X14576740Y-11503660D02*
G75*
G03*
X14576740Y-11503660I-20000J0D01*
G01*
X14650400Y-10642600D02*
G75*
G03*
X14650400Y-10642600I-20000J0D01*
G01*
X14701200Y-8788400D02*
G75*
G03*
X14701200Y-8788400I-20000J0D01*
G01*
X14853600Y-10007600D02*
G75*
G03*
X14853600Y-10007600I-20000J0D01*
G01*
X14955200Y-8788400D02*
G75*
G03*
X14955200Y-8788400I-20000J0D01*
G01*
X14957740Y-11501120D02*
G75*
G03*
X14957740Y-11501120I-20000J0D01*
G01*
X15209200Y-8788400D02*
G75*
G03*
X15209200Y-8788400I-20000J0D01*
G01*
X15209200Y-9042400D02*
G75*
G03*
X15209200Y-9042400I-20000J0D01*
G01*
X15211740Y-11501120D02*
G75*
G03*
X15211740Y-11501120I-20000J0D01*
G01*
X15219360Y-9278620D02*
G75*
G03*
X15219360Y-9278620I-20000J0D01*
G01*
X15310800Y-9804400D02*
G75*
G03*
X15310800Y-9804400I-20000J0D01*
G01*
X15338740Y-11333480D02*
G75*
G03*
X15338740Y-11333480I-20000J0D01*
G01*
X15404780Y-10612120D02*
G75*
G03*
X15404780Y-10612120I-20000J0D01*
G01*
X15463200Y-8788400D02*
G75*
G03*
X15463200Y-8788400I-20000J0D01*
G01*
X15590200Y-11501120D02*
G75*
G03*
X15590200Y-11501120I-20000J0D01*
G01*
X15691800Y-10612120D02*
G75*
G03*
X15691800Y-10612120I-20000J0D01*
G01*
X15717200Y-8788400D02*
G75*
G03*
X15717200Y-8788400I-20000J0D01*
G01*
X15737520Y-10134600D02*
G75*
G03*
X15737520Y-10134600I-20000J0D01*
G01*
X15768000Y-10744200D02*
G75*
G03*
X15768000Y-10744200I-20000J0D01*
G01*
X15869600Y-10007600D02*
G75*
G03*
X15869600Y-10007600I-20000J0D01*
G01*
X15996600Y-8712200D02*
G75*
G03*
X15996600Y-8712200I-20000J0D01*
G01*
X16022000Y-9288780D02*
G75*
G03*
X16022000Y-9288780I-20000J0D01*
G01*
X16022000Y-10198100D02*
G75*
G03*
X16022000Y-10198100I-20000J0D01*
G01*
X16174400Y-9906000D02*
G75*
G03*
X16174400Y-9906000I-20000J0D01*
G01*
X16530000Y-9906000D02*
G75*
G03*
X16530000Y-9906000I-20000J0D01*
G01*
X16578260Y-8902700D02*
G75*
G03*
X16578260Y-8902700I-20000J0D01*
G01*
X16578260Y-9141460D02*
G75*
G03*
X16578260Y-9141460I-20000J0D01*
G01*
X16938940Y-11297920D02*
G75*
G03*
X16938940Y-11297920I-20000J0D01*
G01*
X16989740Y-11435080D02*
G75*
G03*
X16989740Y-11435080I-20000J0D01*
G01*
X17116740Y-11435080D02*
G75*
G03*
X17116740Y-11435080I-20000J0D01*
G01*
X17139600Y-9042400D02*
G75*
G03*
X17139600Y-9042400I-20000J0D01*
G01*
X17233320Y-9141460D02*
G75*
G03*
X17233320Y-9141460I-20000J0D01*
G01*
X17241200Y-11435080D02*
G75*
G03*
X17241200Y-11435080I-20000J0D01*
G01*
X17368200Y-11435080D02*
G75*
G03*
X17368200Y-11435080I-20000J0D01*
G01*
X17393600Y-10007600D02*
G75*
G03*
X17393600Y-10007600I-20000J0D01*
G01*
X17406300Y-9316720D02*
G75*
G03*
X17406300Y-9316720I-20000J0D01*
G01*
X17495200Y-11435080D02*
G75*
G03*
X17495200Y-11435080I-20000J0D01*
G01*
D14*
X12618000Y-8778500D02*
X12618000Y-8838500D01*
X12588000Y-8808500D02*
X12648000Y-8808500D01*
D11*
X12588000Y-8768500D02*
X12588000Y-8848500D01*
X12648000Y-8768500D02*
X12648000Y-8848500D01*
X12588000Y-8848500D02*
G75*
G03*
X12648000Y-8848500I30000J0D01*
G01*
X12648000Y-8768500D02*
G75*
G03*
X12588000Y-8768500I-30000J0D01*
G01*
D14*
X12618000Y-9195500D02*
X12618000Y-9255500D01*
X12588000Y-9225500D02*
X12648000Y-9225500D01*
D11*
X12588000Y-9170500D02*
X12588000Y-9280500D01*
X12648000Y-9170500D02*
X12648000Y-9280500D01*
X12588000Y-9280500D02*
G75*
G03*
X12648000Y-9280500I30000J0D01*
G01*
X12648000Y-9170500D02*
G75*
G03*
X12588000Y-9170500I-30000J0D01*
G01*
D14*
X13482000Y-8778500D02*
X13482000Y-8838500D01*
X13452000Y-8808500D02*
X13512000Y-8808500D01*
D11*
X13452000Y-8768500D02*
X13452000Y-8848500D01*
X13512000Y-8768500D02*
X13512000Y-8848500D01*
X13452000Y-8848500D02*
G75*
G03*
X13512000Y-8848500I30000J0D01*
G01*
X13512000Y-8768500D02*
G75*
G03*
X13452000Y-8768500I-30000J0D01*
G01*
D14*
X13482000Y-9195500D02*
X13482000Y-9255500D01*
X13452000Y-9225500D02*
X13512000Y-9225500D01*
D11*
X13452000Y-9170500D02*
X13452000Y-9280500D01*
X13512000Y-9170500D02*
X13512000Y-9280500D01*
X13452000Y-9280500D02*
G75*
G03*
X13512000Y-9280500I30000J0D01*
G01*
X13512000Y-9170500D02*
G75*
G03*
X13452000Y-9170500I-30000J0D01*
G01*
D10*
X16318856Y-10297856D02*
X16318856Y-10227144D01*
X16248144Y-10227144D01*
X16248144Y-10297856D01*
X16318856Y-10297856D01*
X16318856Y-10551856D02*
X16318856Y-10481144D01*
X16248144Y-10481144D01*
X16248144Y-10551856D01*
X16318856Y-10551856D01*
X16572856Y-10297856D02*
X16572856Y-10227144D01*
X16502144Y-10227144D01*
X16502144Y-10297856D01*
X16572856Y-10297856D01*
X16572856Y-10551856D02*
X16572856Y-10481144D01*
X16502144Y-10481144D01*
X16502144Y-10551856D01*
X16572856Y-10551856D01*
X16826856Y-10297856D02*
X16826856Y-10227144D01*
X16756144Y-10227144D01*
X16756144Y-10297856D01*
X16826856Y-10297856D01*
X16826856Y-10551856D02*
X16826856Y-10481144D01*
X16756144Y-10481144D01*
X16756144Y-10551856D01*
X16826856Y-10551856D01*
X17080856Y-10297856D02*
X17080856Y-10227144D01*
X17010144Y-10227144D01*
X17010144Y-10297856D01*
X17080856Y-10297856D01*
X17080856Y-10551856D02*
X17080856Y-10481144D01*
X17010144Y-10481144D01*
X17010144Y-10551856D01*
X17080856Y-10551856D01*
X17334856Y-10297856D02*
X17334856Y-10227144D01*
X17264144Y-10227144D01*
X17264144Y-10297856D01*
X17334856Y-10297856D01*
X17334856Y-10551856D02*
X17334856Y-10481144D01*
X17264144Y-10481144D01*
X17264144Y-10551856D01*
X17334856Y-10551856D01*
D15*
X15000000Y-10535000D02*
X15135000Y-10400000D01*
X15000000Y-10265000D01*
X14865000Y-10400000D01*
X15000000Y-10535000D01*
D11*
X12672619Y-12495476D02*
X12672619Y-12295476D01*
X12720238Y-12295476D01*
X12748809Y-12305000D01*
X12767857Y-12324048D01*
X12777381Y-12343095D01*
X12786905Y-12381190D01*
X12786905Y-12409762D01*
X12777381Y-12447857D01*
X12767857Y-12466905D01*
X12748809Y-12485952D01*
X12720238Y-12495476D01*
X12672619Y-12495476D01*
X12872619Y-12495476D02*
X12872619Y-12362143D01*
X12872619Y-12400238D02*
X12882143Y-12381190D01*
X12891667Y-12371667D01*
X12910714Y-12362143D01*
X12929762Y-12362143D01*
X12996428Y-12495476D02*
X12996428Y-12362143D01*
X12996428Y-12295476D02*
X12986905Y-12305000D01*
X12996428Y-12314524D01*
X13005952Y-12305000D01*
X12996428Y-12295476D01*
X12996428Y-12314524D01*
X13120238Y-12495476D02*
X13101190Y-12485952D01*
X13091667Y-12466905D01*
X13091667Y-12295476D01*
X13225000Y-12495476D02*
X13205952Y-12485952D01*
X13196428Y-12466905D01*
X13196428Y-12295476D01*
X13453571Y-12495476D02*
X13453571Y-12295476D01*
X13520238Y-12438333D01*
X13586905Y-12295476D01*
X13586905Y-12495476D01*
X13767857Y-12495476D02*
X13767857Y-12390714D01*
X13758333Y-12371667D01*
X13739286Y-12362143D01*
X13701190Y-12362143D01*
X13682143Y-12371667D01*
X13767857Y-12485952D02*
X13748809Y-12495476D01*
X13701190Y-12495476D01*
X13682143Y-12485952D01*
X13672619Y-12466905D01*
X13672619Y-12447857D01*
X13682143Y-12428809D01*
X13701190Y-12419286D01*
X13748809Y-12419286D01*
X13767857Y-12409762D01*
X13863095Y-12362143D02*
X13863095Y-12562143D01*
X13863095Y-12371667D02*
X13882143Y-12362143D01*
X13920238Y-12362143D01*
X13939286Y-12371667D01*
X13948809Y-12381190D01*
X13958333Y-12400238D01*
X13958333Y-12457381D01*
X13948809Y-12476428D01*
X13939286Y-12485952D01*
X13920238Y-12495476D01*
X13882143Y-12495476D01*
X13863095Y-12485952D01*
X14044048Y-12476428D02*
X14053571Y-12485952D01*
X14044048Y-12495476D01*
X14034524Y-12485952D01*
X14044048Y-12476428D01*
X14044048Y-12495476D01*
X14044048Y-12371667D02*
X14053571Y-12381190D01*
X14044048Y-12390714D01*
X14034524Y-12381190D01*
X14044048Y-12371667D01*
X14044048Y-12390714D01*
D12*
X12385000Y-12810000D02*
X12415000Y-12840000D01*
X12415000Y-12810000D02*
X12385000Y-12840000D01*
D11*
X12710714Y-12715476D02*
X12729762Y-12715476D01*
X12748809Y-12725000D01*
X12758333Y-12734524D01*
X12767857Y-12753571D01*
X12777381Y-12791667D01*
X12777381Y-12839286D01*
X12767857Y-12877381D01*
X12758333Y-12896428D01*
X12748809Y-12905952D01*
X12729762Y-12915476D01*
X12710714Y-12915476D01*
X12691667Y-12905952D01*
X12682143Y-12896428D01*
X12672619Y-12877381D01*
X12663095Y-12839286D01*
X12663095Y-12791667D01*
X12672619Y-12753571D01*
X12682143Y-12734524D01*
X12691667Y-12725000D01*
X12710714Y-12715476D01*
X12863095Y-12896428D02*
X12872619Y-12905952D01*
X12863095Y-12915476D01*
X12853571Y-12905952D01*
X12863095Y-12896428D01*
X12863095Y-12915476D01*
X12939286Y-12715476D02*
X13063095Y-12715476D01*
X12996428Y-12791667D01*
X13025000Y-12791667D01*
X13044048Y-12801190D01*
X13053571Y-12810714D01*
X13063095Y-12829762D01*
X13063095Y-12877381D01*
X13053571Y-12896428D01*
X13044048Y-12905952D01*
X13025000Y-12915476D01*
X12967857Y-12915476D01*
X12948809Y-12905952D01*
X12939286Y-12896428D01*
X13186905Y-12715476D02*
X13205952Y-12715476D01*
X13225000Y-12725000D01*
X13234524Y-12734524D01*
X13244048Y-12753571D01*
X13253571Y-12791667D01*
X13253571Y-12839286D01*
X13244048Y-12877381D01*
X13234524Y-12896428D01*
X13225000Y-12905952D01*
X13205952Y-12915476D01*
X13186905Y-12915476D01*
X13167857Y-12905952D01*
X13158333Y-12896428D01*
X13148809Y-12877381D01*
X13139286Y-12839286D01*
X13139286Y-12791667D01*
X13148809Y-12753571D01*
X13158333Y-12734524D01*
X13167857Y-12725000D01*
X13186905Y-12715476D01*
X13377381Y-12715476D02*
X13396428Y-12715476D01*
X13415476Y-12725000D01*
X13425000Y-12734524D01*
X13434524Y-12753571D01*
X13444048Y-12791667D01*
X13444048Y-12839286D01*
X13434524Y-12877381D01*
X13425000Y-12896428D01*
X13415476Y-12905952D01*
X13396428Y-12915476D01*
X13377381Y-12915476D01*
X13358333Y-12905952D01*
X13348809Y-12896428D01*
X13339286Y-12877381D01*
X13329762Y-12839286D01*
X13329762Y-12791667D01*
X13339286Y-12753571D01*
X13348809Y-12734524D01*
X13358333Y-12725000D01*
X13377381Y-12715476D01*
X13529762Y-12915476D02*
X13529762Y-12782143D01*
X13529762Y-12801190D02*
X13539286Y-12791667D01*
X13558333Y-12782143D01*
X13586905Y-12782143D01*
X13605952Y-12791667D01*
X13615476Y-12810714D01*
X13615476Y-12915476D01*
X13615476Y-12810714D02*
X13625000Y-12791667D01*
X13644048Y-12782143D01*
X13672619Y-12782143D01*
X13691667Y-12791667D01*
X13701190Y-12810714D01*
X13701190Y-12915476D01*
X13796428Y-12915476D02*
X13796428Y-12782143D01*
X13796428Y-12801190D02*
X13805952Y-12791667D01*
X13825000Y-12782143D01*
X13853571Y-12782143D01*
X13872619Y-12791667D01*
X13882143Y-12810714D01*
X13882143Y-12915476D01*
X13882143Y-12810714D02*
X13891667Y-12791667D01*
X13910714Y-12782143D01*
X13939286Y-12782143D01*
X13958333Y-12791667D01*
X13967857Y-12810714D01*
X13967857Y-12915476D01*
X14358333Y-12705952D02*
X14186905Y-12963095D01*
X14615476Y-12715476D02*
X14634524Y-12715476D01*
X14653571Y-12725000D01*
X14663095Y-12734524D01*
X14672619Y-12753571D01*
X14682143Y-12791667D01*
X14682143Y-12839286D01*
X14672619Y-12877381D01*
X14663095Y-12896428D01*
X14653571Y-12905952D01*
X14634524Y-12915476D01*
X14615476Y-12915476D01*
X14596428Y-12905952D01*
X14586905Y-12896428D01*
X14577381Y-12877381D01*
X14567857Y-12839286D01*
X14567857Y-12791667D01*
X14577381Y-12753571D01*
X14586905Y-12734524D01*
X14596428Y-12725000D01*
X14615476Y-12715476D01*
X14767857Y-12896428D02*
X14777381Y-12905952D01*
X14767857Y-12915476D01*
X14758333Y-12905952D01*
X14767857Y-12896428D01*
X14767857Y-12915476D01*
X14901190Y-12715476D02*
X14920238Y-12715476D01*
X14939286Y-12725000D01*
X14948809Y-12734524D01*
X14958333Y-12753571D01*
X14967857Y-12791667D01*
X14967857Y-12839286D01*
X14958333Y-12877381D01*
X14948809Y-12896428D01*
X14939286Y-12905952D01*
X14920238Y-12915476D01*
X14901190Y-12915476D01*
X14882143Y-12905952D01*
X14872619Y-12896428D01*
X14863095Y-12877381D01*
X14853571Y-12839286D01*
X14853571Y-12791667D01*
X14863095Y-12753571D01*
X14872619Y-12734524D01*
X14882143Y-12725000D01*
X14901190Y-12715476D01*
X15158333Y-12915476D02*
X15044048Y-12915476D01*
X15101190Y-12915476D02*
X15101190Y-12715476D01*
X15082143Y-12744048D01*
X15063095Y-12763095D01*
X15044048Y-12772619D01*
X15348809Y-12915476D02*
X15234524Y-12915476D01*
X15291667Y-12915476D02*
X15291667Y-12715476D01*
X15272619Y-12744048D01*
X15253571Y-12763095D01*
X15234524Y-12772619D01*
X15463095Y-12801190D02*
X15444048Y-12791667D01*
X15434524Y-12782143D01*
X15425000Y-12763095D01*
X15425000Y-12753571D01*
X15434524Y-12734524D01*
X15444048Y-12725000D01*
X15463095Y-12715476D01*
X15501190Y-12715476D01*
X15520238Y-12725000D01*
X15529762Y-12734524D01*
X15539286Y-12753571D01*
X15539286Y-12763095D01*
X15529762Y-12782143D01*
X15520238Y-12791667D01*
X15501190Y-12801190D01*
X15463095Y-12801190D01*
X15444048Y-12810714D01*
X15434524Y-12820238D01*
X15425000Y-12839286D01*
X15425000Y-12877381D01*
X15434524Y-12896428D01*
X15444048Y-12905952D01*
X15463095Y-12915476D01*
X15501190Y-12915476D01*
X15520238Y-12905952D01*
X15529762Y-12896428D01*
X15539286Y-12877381D01*
X15539286Y-12839286D01*
X15529762Y-12820238D01*
X15520238Y-12810714D01*
X15501190Y-12801190D01*
X15615476Y-12715476D02*
X15615476Y-12753571D01*
X15691667Y-12715476D02*
X15691667Y-12753571D01*
X15986905Y-12991667D02*
X15977381Y-12982143D01*
X15958333Y-12953571D01*
X15948809Y-12934524D01*
X15939286Y-12905952D01*
X15929762Y-12858333D01*
X15929762Y-12820238D01*
X15939286Y-12772619D01*
X15948809Y-12744048D01*
X15958333Y-12725000D01*
X15977381Y-12696428D01*
X15986905Y-12686905D01*
X16158333Y-12715476D02*
X16063095Y-12715476D01*
X16053571Y-12810714D01*
X16063095Y-12801190D01*
X16082143Y-12791667D01*
X16129762Y-12791667D01*
X16148809Y-12801190D01*
X16158333Y-12810714D01*
X16167857Y-12829762D01*
X16167857Y-12877381D01*
X16158333Y-12896428D01*
X16148809Y-12905952D01*
X16129762Y-12915476D01*
X16082143Y-12915476D01*
X16063095Y-12905952D01*
X16053571Y-12896428D01*
X16339286Y-12782143D02*
X16339286Y-12915476D01*
X16291667Y-12705952D02*
X16244048Y-12848809D01*
X16367857Y-12848809D01*
X16596428Y-12915476D02*
X16596428Y-12715476D01*
X16682143Y-12915476D02*
X16682143Y-12810714D01*
X16672619Y-12791667D01*
X16653571Y-12782143D01*
X16625000Y-12782143D01*
X16605952Y-12791667D01*
X16596428Y-12801190D01*
X16805952Y-12915476D02*
X16786905Y-12905952D01*
X16777381Y-12896428D01*
X16767857Y-12877381D01*
X16767857Y-12820238D01*
X16777381Y-12801190D01*
X16786905Y-12791667D01*
X16805952Y-12782143D01*
X16834524Y-12782143D01*
X16853571Y-12791667D01*
X16863095Y-12801190D01*
X16872619Y-12820238D01*
X16872619Y-12877381D01*
X16863095Y-12896428D01*
X16853571Y-12905952D01*
X16834524Y-12915476D01*
X16805952Y-12915476D01*
X16986905Y-12915476D02*
X16967857Y-12905952D01*
X16958333Y-12886905D01*
X16958333Y-12715476D01*
X17139286Y-12905952D02*
X17120238Y-12915476D01*
X17082143Y-12915476D01*
X17063095Y-12905952D01*
X17053571Y-12886905D01*
X17053571Y-12810714D01*
X17063095Y-12791667D01*
X17082143Y-12782143D01*
X17120238Y-12782143D01*
X17139286Y-12791667D01*
X17148810Y-12810714D01*
X17148810Y-12829762D01*
X17053571Y-12848809D01*
X17225000Y-12905952D02*
X17244048Y-12915476D01*
X17282143Y-12915476D01*
X17301190Y-12905952D01*
X17310714Y-12886905D01*
X17310714Y-12877381D01*
X17301190Y-12858333D01*
X17282143Y-12848809D01*
X17253571Y-12848809D01*
X17234524Y-12839286D01*
X17225000Y-12820238D01*
X17225000Y-12810714D01*
X17234524Y-12791667D01*
X17253571Y-12782143D01*
X17282143Y-12782143D01*
X17301190Y-12791667D01*
X17377381Y-12991667D02*
X17386905Y-12982143D01*
X17405952Y-12953571D01*
X17415476Y-12934524D01*
X17425000Y-12905952D01*
X17434524Y-12858333D01*
X17434524Y-12820238D01*
X17425000Y-12772619D01*
X17415476Y-12744048D01*
X17405952Y-12725000D01*
X17386905Y-12696428D01*
X17377381Y-12686905D01*
D13*
X12415000Y-13089000D02*
G75*
G03*
X12415000Y-13089000I-20000J0D01*
G01*
D11*
X12710714Y-12979476D02*
X12729762Y-12979476D01*
X12748809Y-12989000D01*
X12758333Y-12998524D01*
X12767857Y-13017571D01*
X12777381Y-13055667D01*
X12777381Y-13103286D01*
X12767857Y-13141381D01*
X12758333Y-13160428D01*
X12748809Y-13169952D01*
X12729762Y-13179476D01*
X12710714Y-13179476D01*
X12691667Y-13169952D01*
X12682143Y-13160428D01*
X12672619Y-13141381D01*
X12663095Y-13103286D01*
X12663095Y-13055667D01*
X12672619Y-13017571D01*
X12682143Y-12998524D01*
X12691667Y-12989000D01*
X12710714Y-12979476D01*
X12863095Y-13160428D02*
X12872619Y-13169952D01*
X12863095Y-13179476D01*
X12853571Y-13169952D01*
X12863095Y-13160428D01*
X12863095Y-13179476D01*
X13044048Y-13046143D02*
X13044048Y-13179476D01*
X12996428Y-12969952D02*
X12948809Y-13112809D01*
X13072619Y-13112809D01*
X13186905Y-12979476D02*
X13205952Y-12979476D01*
X13225000Y-12989000D01*
X13234524Y-12998524D01*
X13244048Y-13017571D01*
X13253571Y-13055667D01*
X13253571Y-13103286D01*
X13244048Y-13141381D01*
X13234524Y-13160428D01*
X13225000Y-13169952D01*
X13205952Y-13179476D01*
X13186905Y-13179476D01*
X13167857Y-13169952D01*
X13158333Y-13160428D01*
X13148809Y-13141381D01*
X13139286Y-13103286D01*
X13139286Y-13055667D01*
X13148809Y-13017571D01*
X13158333Y-12998524D01*
X13167857Y-12989000D01*
X13186905Y-12979476D01*
X13377381Y-12979476D02*
X13396428Y-12979476D01*
X13415476Y-12989000D01*
X13425000Y-12998524D01*
X13434524Y-13017571D01*
X13444048Y-13055667D01*
X13444048Y-13103286D01*
X13434524Y-13141381D01*
X13425000Y-13160428D01*
X13415476Y-13169952D01*
X13396428Y-13179476D01*
X13377381Y-13179476D01*
X13358333Y-13169952D01*
X13348809Y-13160428D01*
X13339286Y-13141381D01*
X13329762Y-13103286D01*
X13329762Y-13055667D01*
X13339286Y-13017571D01*
X13348809Y-12998524D01*
X13358333Y-12989000D01*
X13377381Y-12979476D01*
X13529762Y-13179476D02*
X13529762Y-13046143D01*
X13529762Y-13065190D02*
X13539286Y-13055667D01*
X13558333Y-13046143D01*
X13586905Y-13046143D01*
X13605952Y-13055667D01*
X13615476Y-13074714D01*
X13615476Y-13179476D01*
X13615476Y-13074714D02*
X13625000Y-13055667D01*
X13644048Y-13046143D01*
X13672619Y-13046143D01*
X13691667Y-13055667D01*
X13701190Y-13074714D01*
X13701190Y-13179476D01*
X13796428Y-13179476D02*
X13796428Y-13046143D01*
X13796428Y-13065190D02*
X13805952Y-13055667D01*
X13825000Y-13046143D01*
X13853571Y-13046143D01*
X13872619Y-13055667D01*
X13882143Y-13074714D01*
X13882143Y-13179476D01*
X13882143Y-13074714D02*
X13891667Y-13055667D01*
X13910714Y-13046143D01*
X13939286Y-13046143D01*
X13958333Y-13055667D01*
X13967857Y-13074714D01*
X13967857Y-13179476D01*
X14358333Y-12969952D02*
X14186905Y-13227095D01*
X14615476Y-12979476D02*
X14634524Y-12979476D01*
X14653571Y-12989000D01*
X14663095Y-12998524D01*
X14672619Y-13017571D01*
X14682143Y-13055667D01*
X14682143Y-13103286D01*
X14672619Y-13141381D01*
X14663095Y-13160428D01*
X14653571Y-13169952D01*
X14634524Y-13179476D01*
X14615476Y-13179476D01*
X14596428Y-13169952D01*
X14586905Y-13160428D01*
X14577381Y-13141381D01*
X14567857Y-13103286D01*
X14567857Y-13055667D01*
X14577381Y-13017571D01*
X14586905Y-12998524D01*
X14596428Y-12989000D01*
X14615476Y-12979476D01*
X14767857Y-13160428D02*
X14777381Y-13169952D01*
X14767857Y-13179476D01*
X14758333Y-13169952D01*
X14767857Y-13160428D01*
X14767857Y-13179476D01*
X14901190Y-12979476D02*
X14920238Y-12979476D01*
X14939286Y-12989000D01*
X14948809Y-12998524D01*
X14958333Y-13017571D01*
X14967857Y-13055667D01*
X14967857Y-13103286D01*
X14958333Y-13141381D01*
X14948809Y-13160428D01*
X14939286Y-13169952D01*
X14920238Y-13179476D01*
X14901190Y-13179476D01*
X14882143Y-13169952D01*
X14872619Y-13160428D01*
X14863095Y-13141381D01*
X14853571Y-13103286D01*
X14853571Y-13055667D01*
X14863095Y-13017571D01*
X14872619Y-12998524D01*
X14882143Y-12989000D01*
X14901190Y-12979476D01*
X15158333Y-13179476D02*
X15044048Y-13179476D01*
X15101190Y-13179476D02*
X15101190Y-12979476D01*
X15082143Y-13008048D01*
X15063095Y-13027095D01*
X15044048Y-13036619D01*
X15339286Y-12979476D02*
X15244048Y-12979476D01*
X15234524Y-13074714D01*
X15244048Y-13065190D01*
X15263095Y-13055667D01*
X15310714Y-13055667D01*
X15329762Y-13065190D01*
X15339286Y-13074714D01*
X15348809Y-13093762D01*
X15348809Y-13141381D01*
X15339286Y-13160428D01*
X15329762Y-13169952D01*
X15310714Y-13179476D01*
X15263095Y-13179476D01*
X15244048Y-13169952D01*
X15234524Y-13160428D01*
X15415476Y-12979476D02*
X15548809Y-12979476D01*
X15463095Y-13179476D01*
X15615476Y-12979476D02*
X15615476Y-13017571D01*
X15691667Y-12979476D02*
X15691667Y-13017571D01*
X15986905Y-13255667D02*
X15977381Y-13246143D01*
X15958333Y-13217571D01*
X15948809Y-13198524D01*
X15939286Y-13169952D01*
X15929762Y-13122333D01*
X15929762Y-13084238D01*
X15939286Y-13036619D01*
X15948809Y-13008048D01*
X15958333Y-12989000D01*
X15977381Y-12960428D01*
X15986905Y-12950905D01*
X16091667Y-13065190D02*
X16072619Y-13055667D01*
X16063095Y-13046143D01*
X16053571Y-13027095D01*
X16053571Y-13017571D01*
X16063095Y-12998524D01*
X16072619Y-12989000D01*
X16091667Y-12979476D01*
X16129762Y-12979476D01*
X16148809Y-12989000D01*
X16158333Y-12998524D01*
X16167857Y-13017571D01*
X16167857Y-13027095D01*
X16158333Y-13046143D01*
X16148809Y-13055667D01*
X16129762Y-13065190D01*
X16091667Y-13065190D01*
X16072619Y-13074714D01*
X16063095Y-13084238D01*
X16053571Y-13103286D01*
X16053571Y-13141381D01*
X16063095Y-13160428D01*
X16072619Y-13169952D01*
X16091667Y-13179476D01*
X16129762Y-13179476D01*
X16148809Y-13169952D01*
X16158333Y-13160428D01*
X16167857Y-13141381D01*
X16167857Y-13103286D01*
X16158333Y-13084238D01*
X16148809Y-13074714D01*
X16129762Y-13065190D01*
X16244048Y-12998524D02*
X16253571Y-12989000D01*
X16272619Y-12979476D01*
X16320238Y-12979476D01*
X16339286Y-12989000D01*
X16348809Y-12998524D01*
X16358333Y-13017571D01*
X16358333Y-13036619D01*
X16348809Y-13065190D01*
X16234524Y-13179476D01*
X16358333Y-13179476D01*
X16596428Y-13179476D02*
X16596428Y-12979476D01*
X16682143Y-13179476D02*
X16682143Y-13074714D01*
X16672619Y-13055667D01*
X16653571Y-13046143D01*
X16625000Y-13046143D01*
X16605952Y-13055667D01*
X16596428Y-13065190D01*
X16805952Y-13179476D02*
X16786905Y-13169952D01*
X16777381Y-13160428D01*
X16767857Y-13141381D01*
X16767857Y-13084238D01*
X16777381Y-13065190D01*
X16786905Y-13055667D01*
X16805952Y-13046143D01*
X16834524Y-13046143D01*
X16853571Y-13055667D01*
X16863095Y-13065190D01*
X16872619Y-13084238D01*
X16872619Y-13141381D01*
X16863095Y-13160428D01*
X16853571Y-13169952D01*
X16834524Y-13179476D01*
X16805952Y-13179476D01*
X16986905Y-13179476D02*
X16967857Y-13169952D01*
X16958333Y-13150905D01*
X16958333Y-12979476D01*
X17139286Y-13169952D02*
X17120238Y-13179476D01*
X17082143Y-13179476D01*
X17063095Y-13169952D01*
X17053571Y-13150905D01*
X17053571Y-13074714D01*
X17063095Y-13055667D01*
X17082143Y-13046143D01*
X17120238Y-13046143D01*
X17139286Y-13055667D01*
X17148810Y-13074714D01*
X17148810Y-13093762D01*
X17053571Y-13112809D01*
X17225000Y-13169952D02*
X17244048Y-13179476D01*
X17282143Y-13179476D01*
X17301190Y-13169952D01*
X17310714Y-13150905D01*
X17310714Y-13141381D01*
X17301190Y-13122333D01*
X17282143Y-13112809D01*
X17253571Y-13112809D01*
X17234524Y-13103286D01*
X17225000Y-13084238D01*
X17225000Y-13074714D01*
X17234524Y-13055667D01*
X17253571Y-13046143D01*
X17282143Y-13046143D01*
X17301190Y-13055667D01*
X17377381Y-13255667D02*
X17386905Y-13246143D01*
X17405952Y-13217571D01*
X17415476Y-13198524D01*
X17425000Y-13169952D01*
X17434524Y-13122333D01*
X17434524Y-13084238D01*
X17425000Y-13036619D01*
X17415476Y-13008048D01*
X17405952Y-12989000D01*
X17386905Y-12960428D01*
X17377381Y-12950905D01*
D14*
X12385000Y-13323000D02*
X12385000Y-13383000D01*
X12355000Y-13353000D02*
X12415000Y-13353000D01*
D11*
X12710714Y-13243476D02*
X12729762Y-13243476D01*
X12748809Y-13253000D01*
X12758333Y-13262524D01*
X12767857Y-13281571D01*
X12777381Y-13319667D01*
X12777381Y-13367286D01*
X12767857Y-13405381D01*
X12758333Y-13424428D01*
X12748809Y-13433952D01*
X12729762Y-13443476D01*
X12710714Y-13443476D01*
X12691667Y-13433952D01*
X12682143Y-13424428D01*
X12672619Y-13405381D01*
X12663095Y-13367286D01*
X12663095Y-13319667D01*
X12672619Y-13281571D01*
X12682143Y-13262524D01*
X12691667Y-13253000D01*
X12710714Y-13243476D01*
X12863095Y-13424428D02*
X12872619Y-13433952D01*
X12863095Y-13443476D01*
X12853571Y-13433952D01*
X12863095Y-13424428D01*
X12863095Y-13443476D01*
X13044048Y-13243476D02*
X13005952Y-13243476D01*
X12986905Y-13253000D01*
X12977381Y-13262524D01*
X12958333Y-13291095D01*
X12948809Y-13329190D01*
X12948809Y-13405381D01*
X12958333Y-13424428D01*
X12967857Y-13433952D01*
X12986905Y-13443476D01*
X13025000Y-13443476D01*
X13044048Y-13433952D01*
X13053571Y-13424428D01*
X13063095Y-13405381D01*
X13063095Y-13357762D01*
X13053571Y-13338714D01*
X13044048Y-13329190D01*
X13025000Y-13319667D01*
X12986905Y-13319667D01*
X12967857Y-13329190D01*
X12958333Y-13338714D01*
X12948809Y-13357762D01*
X13186905Y-13243476D02*
X13205952Y-13243476D01*
X13225000Y-13253000D01*
X13234524Y-13262524D01*
X13244048Y-13281571D01*
X13253571Y-13319667D01*
X13253571Y-13367286D01*
X13244048Y-13405381D01*
X13234524Y-13424428D01*
X13225000Y-13433952D01*
X13205952Y-13443476D01*
X13186905Y-13443476D01*
X13167857Y-13433952D01*
X13158333Y-13424428D01*
X13148809Y-13405381D01*
X13139286Y-13367286D01*
X13139286Y-13319667D01*
X13148809Y-13281571D01*
X13158333Y-13262524D01*
X13167857Y-13253000D01*
X13186905Y-13243476D01*
X13377381Y-13243476D02*
X13396428Y-13243476D01*
X13415476Y-13253000D01*
X13425000Y-13262524D01*
X13434524Y-13281571D01*
X13444048Y-13319667D01*
X13444048Y-13367286D01*
X13434524Y-13405381D01*
X13425000Y-13424428D01*
X13415476Y-13433952D01*
X13396428Y-13443476D01*
X13377381Y-13443476D01*
X13358333Y-13433952D01*
X13348809Y-13424428D01*
X13339286Y-13405381D01*
X13329762Y-13367286D01*
X13329762Y-13319667D01*
X13339286Y-13281571D01*
X13348809Y-13262524D01*
X13358333Y-13253000D01*
X13377381Y-13243476D01*
X13529762Y-13443476D02*
X13529762Y-13310143D01*
X13529762Y-13329190D02*
X13539286Y-13319667D01*
X13558333Y-13310143D01*
X13586905Y-13310143D01*
X13605952Y-13319667D01*
X13615476Y-13338714D01*
X13615476Y-13443476D01*
X13615476Y-13338714D02*
X13625000Y-13319667D01*
X13644048Y-13310143D01*
X13672619Y-13310143D01*
X13691667Y-13319667D01*
X13701190Y-13338714D01*
X13701190Y-13443476D01*
X13796428Y-13443476D02*
X13796428Y-13310143D01*
X13796428Y-13329190D02*
X13805952Y-13319667D01*
X13825000Y-13310143D01*
X13853571Y-13310143D01*
X13872619Y-13319667D01*
X13882143Y-13338714D01*
X13882143Y-13443476D01*
X13882143Y-13338714D02*
X13891667Y-13319667D01*
X13910714Y-13310143D01*
X13939286Y-13310143D01*
X13958333Y-13319667D01*
X13967857Y-13338714D01*
X13967857Y-13443476D01*
X14358333Y-13233952D02*
X14186905Y-13491095D01*
X14615476Y-13243476D02*
X14634524Y-13243476D01*
X14653571Y-13253000D01*
X14663095Y-13262524D01*
X14672619Y-13281571D01*
X14682143Y-13319667D01*
X14682143Y-13367286D01*
X14672619Y-13405381D01*
X14663095Y-13424428D01*
X14653571Y-13433952D01*
X14634524Y-13443476D01*
X14615476Y-13443476D01*
X14596428Y-13433952D01*
X14586905Y-13424428D01*
X14577381Y-13405381D01*
X14567857Y-13367286D01*
X14567857Y-13319667D01*
X14577381Y-13281571D01*
X14586905Y-13262524D01*
X14596428Y-13253000D01*
X14615476Y-13243476D01*
X14767857Y-13424428D02*
X14777381Y-13433952D01*
X14767857Y-13443476D01*
X14758333Y-13433952D01*
X14767857Y-13424428D01*
X14767857Y-13443476D01*
X14901190Y-13243476D02*
X14920238Y-13243476D01*
X14939286Y-13253000D01*
X14948809Y-13262524D01*
X14958333Y-13281571D01*
X14967857Y-13319667D01*
X14967857Y-13367286D01*
X14958333Y-13405381D01*
X14948809Y-13424428D01*
X14939286Y-13433952D01*
X14920238Y-13443476D01*
X14901190Y-13443476D01*
X14882143Y-13433952D01*
X14872619Y-13424428D01*
X14863095Y-13405381D01*
X14853571Y-13367286D01*
X14853571Y-13319667D01*
X14863095Y-13281571D01*
X14872619Y-13262524D01*
X14882143Y-13253000D01*
X14901190Y-13243476D01*
X15044048Y-13262524D02*
X15053571Y-13253000D01*
X15072619Y-13243476D01*
X15120238Y-13243476D01*
X15139286Y-13253000D01*
X15148809Y-13262524D01*
X15158333Y-13281571D01*
X15158333Y-13300619D01*
X15148809Y-13329190D01*
X15034524Y-13443476D01*
X15158333Y-13443476D01*
X15225000Y-13243476D02*
X15348809Y-13243476D01*
X15282143Y-13319667D01*
X15310714Y-13319667D01*
X15329762Y-13329190D01*
X15339286Y-13338714D01*
X15348809Y-13357762D01*
X15348809Y-13405381D01*
X15339286Y-13424428D01*
X15329762Y-13433952D01*
X15310714Y-13443476D01*
X15253571Y-13443476D01*
X15234524Y-13433952D01*
X15225000Y-13424428D01*
X15520238Y-13243476D02*
X15482143Y-13243476D01*
X15463095Y-13253000D01*
X15453571Y-13262524D01*
X15434524Y-13291095D01*
X15425000Y-13329190D01*
X15425000Y-13405381D01*
X15434524Y-13424428D01*
X15444048Y-13433952D01*
X15463095Y-13443476D01*
X15501190Y-13443476D01*
X15520238Y-13433952D01*
X15529762Y-13424428D01*
X15539286Y-13405381D01*
X15539286Y-13357762D01*
X15529762Y-13338714D01*
X15520238Y-13329190D01*
X15501190Y-13319667D01*
X15463095Y-13319667D01*
X15444048Y-13329190D01*
X15434524Y-13338714D01*
X15425000Y-13357762D01*
X15615476Y-13243476D02*
X15615476Y-13281571D01*
X15691667Y-13243476D02*
X15691667Y-13281571D01*
X15986905Y-13519667D02*
X15977381Y-13510143D01*
X15958333Y-13481571D01*
X15948809Y-13462524D01*
X15939286Y-13433952D01*
X15929762Y-13386333D01*
X15929762Y-13348238D01*
X15939286Y-13300619D01*
X15948809Y-13272048D01*
X15958333Y-13253000D01*
X15977381Y-13224428D01*
X15986905Y-13214905D01*
X16101190Y-13243476D02*
X16120238Y-13243476D01*
X16139286Y-13253000D01*
X16148809Y-13262524D01*
X16158333Y-13281571D01*
X16167857Y-13319667D01*
X16167857Y-13367286D01*
X16158333Y-13405381D01*
X16148809Y-13424428D01*
X16139286Y-13433952D01*
X16120238Y-13443476D01*
X16101190Y-13443476D01*
X16082143Y-13433952D01*
X16072619Y-13424428D01*
X16063095Y-13405381D01*
X16053571Y-13367286D01*
X16053571Y-13319667D01*
X16063095Y-13281571D01*
X16072619Y-13262524D01*
X16082143Y-13253000D01*
X16101190Y-13243476D01*
X16405952Y-13443476D02*
X16405952Y-13243476D01*
X16491667Y-13443476D02*
X16491667Y-13338714D01*
X16482143Y-13319667D01*
X16463095Y-13310143D01*
X16434524Y-13310143D01*
X16415476Y-13319667D01*
X16405952Y-13329190D01*
X16615476Y-13443476D02*
X16596428Y-13433952D01*
X16586905Y-13424428D01*
X16577381Y-13405381D01*
X16577381Y-13348238D01*
X16586905Y-13329190D01*
X16596428Y-13319667D01*
X16615476Y-13310143D01*
X16644048Y-13310143D01*
X16663095Y-13319667D01*
X16672619Y-13329190D01*
X16682143Y-13348238D01*
X16682143Y-13405381D01*
X16672619Y-13424428D01*
X16663095Y-13433952D01*
X16644048Y-13443476D01*
X16615476Y-13443476D01*
X16796429Y-13443476D02*
X16777381Y-13433952D01*
X16767857Y-13414905D01*
X16767857Y-13243476D01*
X16948810Y-13433952D02*
X16929762Y-13443476D01*
X16891667Y-13443476D01*
X16872619Y-13433952D01*
X16863095Y-13414905D01*
X16863095Y-13338714D01*
X16872619Y-13319667D01*
X16891667Y-13310143D01*
X16929762Y-13310143D01*
X16948810Y-13319667D01*
X16958333Y-13338714D01*
X16958333Y-13357762D01*
X16863095Y-13376809D01*
X17034524Y-13433952D02*
X17053571Y-13443476D01*
X17091667Y-13443476D01*
X17110714Y-13433952D01*
X17120238Y-13414905D01*
X17120238Y-13405381D01*
X17110714Y-13386333D01*
X17091667Y-13376809D01*
X17063095Y-13376809D01*
X17044048Y-13367286D01*
X17034524Y-13348238D01*
X17034524Y-13338714D01*
X17044048Y-13319667D01*
X17063095Y-13310143D01*
X17091667Y-13310143D01*
X17110714Y-13319667D01*
X17358333Y-13367286D02*
X17510714Y-13367286D01*
X17434524Y-13443476D02*
X17434524Y-13291095D01*
X17844048Y-13310143D02*
X17844048Y-13443476D01*
X17796429Y-13233952D02*
X17748810Y-13376809D01*
X17872619Y-13376809D01*
X18091667Y-13433952D02*
X18110714Y-13443476D01*
X18148810Y-13443476D01*
X18167857Y-13433952D01*
X18177381Y-13414905D01*
X18177381Y-13405381D01*
X18167857Y-13386333D01*
X18148810Y-13376809D01*
X18120238Y-13376809D01*
X18101190Y-13367286D01*
X18091667Y-13348238D01*
X18091667Y-13338714D01*
X18101190Y-13319667D01*
X18120238Y-13310143D01*
X18148810Y-13310143D01*
X18167857Y-13319667D01*
X18291667Y-13443476D02*
X18272619Y-13433952D01*
X18263095Y-13414905D01*
X18263095Y-13243476D01*
X18396429Y-13443476D02*
X18377381Y-13433952D01*
X18367857Y-13424428D01*
X18358333Y-13405381D01*
X18358333Y-13348238D01*
X18367857Y-13329190D01*
X18377381Y-13319667D01*
X18396429Y-13310143D01*
X18425000Y-13310143D01*
X18444048Y-13319667D01*
X18453571Y-13329190D01*
X18463095Y-13348238D01*
X18463095Y-13405381D01*
X18453571Y-13424428D01*
X18444048Y-13433952D01*
X18425000Y-13443476D01*
X18396429Y-13443476D01*
X18520238Y-13310143D02*
X18596429Y-13310143D01*
X18548810Y-13243476D02*
X18548810Y-13414905D01*
X18558333Y-13433952D01*
X18577381Y-13443476D01*
X18596429Y-13443476D01*
X18653571Y-13433952D02*
X18672619Y-13443476D01*
X18710714Y-13443476D01*
X18729762Y-13433952D01*
X18739286Y-13414905D01*
X18739286Y-13405381D01*
X18729762Y-13386333D01*
X18710714Y-13376809D01*
X18682143Y-13376809D01*
X18663095Y-13367286D01*
X18653571Y-13348238D01*
X18653571Y-13338714D01*
X18663095Y-13319667D01*
X18682143Y-13310143D01*
X18710714Y-13310143D01*
X18729762Y-13319667D01*
X18805952Y-13519667D02*
X18815476Y-13510143D01*
X18834524Y-13481571D01*
X18844048Y-13462524D01*
X18853571Y-13433952D01*
X18863095Y-13386333D01*
X18863095Y-13348238D01*
X18853571Y-13300619D01*
X18844048Y-13272048D01*
X18834524Y-13253000D01*
X18815476Y-13224428D01*
X18805952Y-13214905D01*
D10*
X12400356Y-13652356D02*
X12400356Y-13581644D01*
X12329644Y-13581644D01*
X12329644Y-13652356D01*
X12400356Y-13652356D01*
D11*
X12777381Y-13707476D02*
X12663095Y-13707476D01*
X12720238Y-13707476D02*
X12720238Y-13507476D01*
X12701190Y-13536048D01*
X12682143Y-13555095D01*
X12663095Y-13564619D01*
X12863095Y-13688428D02*
X12872619Y-13697952D01*
X12863095Y-13707476D01*
X12853571Y-13697952D01*
X12863095Y-13688428D01*
X12863095Y-13707476D01*
X12996428Y-13507476D02*
X13015476Y-13507476D01*
X13034524Y-13517000D01*
X13044048Y-13526524D01*
X13053571Y-13545571D01*
X13063095Y-13583667D01*
X13063095Y-13631286D01*
X13053571Y-13669381D01*
X13044048Y-13688428D01*
X13034524Y-13697952D01*
X13015476Y-13707476D01*
X12996428Y-13707476D01*
X12977381Y-13697952D01*
X12967857Y-13688428D01*
X12958333Y-13669381D01*
X12948809Y-13631286D01*
X12948809Y-13583667D01*
X12958333Y-13545571D01*
X12967857Y-13526524D01*
X12977381Y-13517000D01*
X12996428Y-13507476D01*
X13186905Y-13507476D02*
X13205952Y-13507476D01*
X13225000Y-13517000D01*
X13234524Y-13526524D01*
X13244048Y-13545571D01*
X13253571Y-13583667D01*
X13253571Y-13631286D01*
X13244048Y-13669381D01*
X13234524Y-13688428D01*
X13225000Y-13697952D01*
X13205952Y-13707476D01*
X13186905Y-13707476D01*
X13167857Y-13697952D01*
X13158333Y-13688428D01*
X13148809Y-13669381D01*
X13139286Y-13631286D01*
X13139286Y-13583667D01*
X13148809Y-13545571D01*
X13158333Y-13526524D01*
X13167857Y-13517000D01*
X13186905Y-13507476D01*
X13377381Y-13507476D02*
X13396428Y-13507476D01*
X13415476Y-13517000D01*
X13425000Y-13526524D01*
X13434524Y-13545571D01*
X13444048Y-13583667D01*
X13444048Y-13631286D01*
X13434524Y-13669381D01*
X13425000Y-13688428D01*
X13415476Y-13697952D01*
X13396428Y-13707476D01*
X13377381Y-13707476D01*
X13358333Y-13697952D01*
X13348809Y-13688428D01*
X13339286Y-13669381D01*
X13329762Y-13631286D01*
X13329762Y-13583667D01*
X13339286Y-13545571D01*
X13348809Y-13526524D01*
X13358333Y-13517000D01*
X13377381Y-13507476D01*
X13529762Y-13707476D02*
X13529762Y-13574143D01*
X13529762Y-13593190D02*
X13539286Y-13583667D01*
X13558333Y-13574143D01*
X13586905Y-13574143D01*
X13605952Y-13583667D01*
X13615476Y-13602714D01*
X13615476Y-13707476D01*
X13615476Y-13602714D02*
X13625000Y-13583667D01*
X13644048Y-13574143D01*
X13672619Y-13574143D01*
X13691667Y-13583667D01*
X13701190Y-13602714D01*
X13701190Y-13707476D01*
X13796428Y-13707476D02*
X13796428Y-13574143D01*
X13796428Y-13593190D02*
X13805952Y-13583667D01*
X13825000Y-13574143D01*
X13853571Y-13574143D01*
X13872619Y-13583667D01*
X13882143Y-13602714D01*
X13882143Y-13707476D01*
X13882143Y-13602714D02*
X13891667Y-13583667D01*
X13910714Y-13574143D01*
X13939286Y-13574143D01*
X13958333Y-13583667D01*
X13967857Y-13602714D01*
X13967857Y-13707476D01*
X14358333Y-13497952D02*
X14186905Y-13755095D01*
X14615476Y-13507476D02*
X14634524Y-13507476D01*
X14653571Y-13517000D01*
X14663095Y-13526524D01*
X14672619Y-13545571D01*
X14682143Y-13583667D01*
X14682143Y-13631286D01*
X14672619Y-13669381D01*
X14663095Y-13688428D01*
X14653571Y-13697952D01*
X14634524Y-13707476D01*
X14615476Y-13707476D01*
X14596428Y-13697952D01*
X14586905Y-13688428D01*
X14577381Y-13669381D01*
X14567857Y-13631286D01*
X14567857Y-13583667D01*
X14577381Y-13545571D01*
X14586905Y-13526524D01*
X14596428Y-13517000D01*
X14615476Y-13507476D01*
X14767857Y-13688428D02*
X14777381Y-13697952D01*
X14767857Y-13707476D01*
X14758333Y-13697952D01*
X14767857Y-13688428D01*
X14767857Y-13707476D01*
X14901190Y-13507476D02*
X14920238Y-13507476D01*
X14939286Y-13517000D01*
X14948809Y-13526524D01*
X14958333Y-13545571D01*
X14967857Y-13583667D01*
X14967857Y-13631286D01*
X14958333Y-13669381D01*
X14948809Y-13688428D01*
X14939286Y-13697952D01*
X14920238Y-13707476D01*
X14901190Y-13707476D01*
X14882143Y-13697952D01*
X14872619Y-13688428D01*
X14863095Y-13669381D01*
X14853571Y-13631286D01*
X14853571Y-13583667D01*
X14863095Y-13545571D01*
X14872619Y-13526524D01*
X14882143Y-13517000D01*
X14901190Y-13507476D01*
X15034524Y-13507476D02*
X15158333Y-13507476D01*
X15091667Y-13583667D01*
X15120238Y-13583667D01*
X15139286Y-13593190D01*
X15148809Y-13602714D01*
X15158333Y-13621762D01*
X15158333Y-13669381D01*
X15148809Y-13688428D01*
X15139286Y-13697952D01*
X15120238Y-13707476D01*
X15063095Y-13707476D01*
X15044048Y-13697952D01*
X15034524Y-13688428D01*
X15253571Y-13707476D02*
X15291667Y-13707476D01*
X15310714Y-13697952D01*
X15320238Y-13688428D01*
X15339286Y-13659857D01*
X15348809Y-13621762D01*
X15348809Y-13545571D01*
X15339286Y-13526524D01*
X15329762Y-13517000D01*
X15310714Y-13507476D01*
X15272619Y-13507476D01*
X15253571Y-13517000D01*
X15244048Y-13526524D01*
X15234524Y-13545571D01*
X15234524Y-13593190D01*
X15244048Y-13612238D01*
X15253571Y-13621762D01*
X15272619Y-13631286D01*
X15310714Y-13631286D01*
X15329762Y-13621762D01*
X15339286Y-13612238D01*
X15348809Y-13593190D01*
X15520238Y-13574143D02*
X15520238Y-13707476D01*
X15472619Y-13497952D02*
X15425000Y-13640809D01*
X15548809Y-13640809D01*
X15615476Y-13507476D02*
X15615476Y-13545571D01*
X15691667Y-13507476D02*
X15691667Y-13545571D01*
X15986905Y-13783667D02*
X15977381Y-13774143D01*
X15958333Y-13745571D01*
X15948809Y-13726524D01*
X15939286Y-13697952D01*
X15929762Y-13650333D01*
X15929762Y-13612238D01*
X15939286Y-13564619D01*
X15948809Y-13536048D01*
X15958333Y-13517000D01*
X15977381Y-13488428D01*
X15986905Y-13478905D01*
X16167857Y-13707476D02*
X16053571Y-13707476D01*
X16110714Y-13707476D02*
X16110714Y-13507476D01*
X16091667Y-13536048D01*
X16072619Y-13555095D01*
X16053571Y-13564619D01*
X16291667Y-13507476D02*
X16310714Y-13507476D01*
X16329762Y-13517000D01*
X16339286Y-13526524D01*
X16348809Y-13545571D01*
X16358333Y-13583667D01*
X16358333Y-13631286D01*
X16348809Y-13669381D01*
X16339286Y-13688428D01*
X16329762Y-13697952D01*
X16310714Y-13707476D01*
X16291667Y-13707476D01*
X16272619Y-13697952D01*
X16263095Y-13688428D01*
X16253571Y-13669381D01*
X16244048Y-13631286D01*
X16244048Y-13583667D01*
X16253571Y-13545571D01*
X16263095Y-13526524D01*
X16272619Y-13517000D01*
X16291667Y-13507476D01*
X16596428Y-13707476D02*
X16596428Y-13507476D01*
X16682143Y-13707476D02*
X16682143Y-13602714D01*
X16672619Y-13583667D01*
X16653571Y-13574143D01*
X16625000Y-13574143D01*
X16605952Y-13583667D01*
X16596428Y-13593190D01*
X16805952Y-13707476D02*
X16786905Y-13697952D01*
X16777381Y-13688428D01*
X16767857Y-13669381D01*
X16767857Y-13612238D01*
X16777381Y-13593190D01*
X16786905Y-13583667D01*
X16805952Y-13574143D01*
X16834524Y-13574143D01*
X16853571Y-13583667D01*
X16863095Y-13593190D01*
X16872619Y-13612238D01*
X16872619Y-13669381D01*
X16863095Y-13688428D01*
X16853571Y-13697952D01*
X16834524Y-13707476D01*
X16805952Y-13707476D01*
X16986905Y-13707476D02*
X16967857Y-13697952D01*
X16958333Y-13678905D01*
X16958333Y-13507476D01*
X17139286Y-13697952D02*
X17120238Y-13707476D01*
X17082143Y-13707476D01*
X17063095Y-13697952D01*
X17053571Y-13678905D01*
X17053571Y-13602714D01*
X17063095Y-13583667D01*
X17082143Y-13574143D01*
X17120238Y-13574143D01*
X17139286Y-13583667D01*
X17148810Y-13602714D01*
X17148810Y-13621762D01*
X17053571Y-13640809D01*
X17225000Y-13697952D02*
X17244048Y-13707476D01*
X17282143Y-13707476D01*
X17301190Y-13697952D01*
X17310714Y-13678905D01*
X17310714Y-13669381D01*
X17301190Y-13650333D01*
X17282143Y-13640809D01*
X17253571Y-13640809D01*
X17234524Y-13631286D01*
X17225000Y-13612238D01*
X17225000Y-13602714D01*
X17234524Y-13583667D01*
X17253571Y-13574143D01*
X17282143Y-13574143D01*
X17301190Y-13583667D01*
X17377381Y-13783667D02*
X17386905Y-13774143D01*
X17405952Y-13745571D01*
X17415476Y-13726524D01*
X17425000Y-13697952D01*
X17434524Y-13650333D01*
X17434524Y-13612238D01*
X17425000Y-13564619D01*
X17415476Y-13536048D01*
X17405952Y-13517000D01*
X17386905Y-13488428D01*
X17377381Y-13478905D01*
X12315000Y-13981000D02*
X12415000Y-13881000D01*
X12315000Y-13781000D01*
X12215000Y-13881000D01*
X12315000Y-13981000D01*
X12663095Y-13790524D02*
X12672619Y-13781000D01*
X12691667Y-13771476D01*
X12739286Y-13771476D01*
X12758333Y-13781000D01*
X12767857Y-13790524D01*
X12777381Y-13809571D01*
X12777381Y-13828619D01*
X12767857Y-13857190D01*
X12653571Y-13971476D01*
X12777381Y-13971476D01*
X12863095Y-13952428D02*
X12872619Y-13961952D01*
X12863095Y-13971476D01*
X12853571Y-13961952D01*
X12863095Y-13952428D01*
X12863095Y-13971476D01*
X12939286Y-13771476D02*
X13072619Y-13771476D01*
X12986905Y-13971476D01*
X13186905Y-13771476D02*
X13205952Y-13771476D01*
X13225000Y-13781000D01*
X13234524Y-13790524D01*
X13244048Y-13809571D01*
X13253571Y-13847667D01*
X13253571Y-13895286D01*
X13244048Y-13933381D01*
X13234524Y-13952428D01*
X13225000Y-13961952D01*
X13205952Y-13971476D01*
X13186905Y-13971476D01*
X13167857Y-13961952D01*
X13158333Y-13952428D01*
X13148809Y-13933381D01*
X13139286Y-13895286D01*
X13139286Y-13847667D01*
X13148809Y-13809571D01*
X13158333Y-13790524D01*
X13167857Y-13781000D01*
X13186905Y-13771476D01*
X13377381Y-13771476D02*
X13396428Y-13771476D01*
X13415476Y-13781000D01*
X13425000Y-13790524D01*
X13434524Y-13809571D01*
X13444048Y-13847667D01*
X13444048Y-13895286D01*
X13434524Y-13933381D01*
X13425000Y-13952428D01*
X13415476Y-13961952D01*
X13396428Y-13971476D01*
X13377381Y-13971476D01*
X13358333Y-13961952D01*
X13348809Y-13952428D01*
X13339286Y-13933381D01*
X13329762Y-13895286D01*
X13329762Y-13847667D01*
X13339286Y-13809571D01*
X13348809Y-13790524D01*
X13358333Y-13781000D01*
X13377381Y-13771476D01*
X13529762Y-13971476D02*
X13529762Y-13838143D01*
X13529762Y-13857190D02*
X13539286Y-13847667D01*
X13558333Y-13838143D01*
X13586905Y-13838143D01*
X13605952Y-13847667D01*
X13615476Y-13866714D01*
X13615476Y-13971476D01*
X13615476Y-13866714D02*
X13625000Y-13847667D01*
X13644048Y-13838143D01*
X13672619Y-13838143D01*
X13691667Y-13847667D01*
X13701190Y-13866714D01*
X13701190Y-13971476D01*
X13796428Y-13971476D02*
X13796428Y-13838143D01*
X13796428Y-13857190D02*
X13805952Y-13847667D01*
X13825000Y-13838143D01*
X13853571Y-13838143D01*
X13872619Y-13847667D01*
X13882143Y-13866714D01*
X13882143Y-13971476D01*
X13882143Y-13866714D02*
X13891667Y-13847667D01*
X13910714Y-13838143D01*
X13939286Y-13838143D01*
X13958333Y-13847667D01*
X13967857Y-13866714D01*
X13967857Y-13971476D01*
X14358333Y-13761952D02*
X14186905Y-14019095D01*
X14615476Y-13771476D02*
X14634524Y-13771476D01*
X14653571Y-13781000D01*
X14663095Y-13790524D01*
X14672619Y-13809571D01*
X14682143Y-13847667D01*
X14682143Y-13895286D01*
X14672619Y-13933381D01*
X14663095Y-13952428D01*
X14653571Y-13961952D01*
X14634524Y-13971476D01*
X14615476Y-13971476D01*
X14596428Y-13961952D01*
X14586905Y-13952428D01*
X14577381Y-13933381D01*
X14567857Y-13895286D01*
X14567857Y-13847667D01*
X14577381Y-13809571D01*
X14586905Y-13790524D01*
X14596428Y-13781000D01*
X14615476Y-13771476D01*
X14767857Y-13952428D02*
X14777381Y-13961952D01*
X14767857Y-13971476D01*
X14758333Y-13961952D01*
X14767857Y-13952428D01*
X14767857Y-13971476D01*
X14967857Y-13971476D02*
X14853571Y-13971476D01*
X14910714Y-13971476D02*
X14910714Y-13771476D01*
X14891667Y-13800048D01*
X14872619Y-13819095D01*
X14853571Y-13828619D01*
X15091667Y-13771476D02*
X15110714Y-13771476D01*
X15129762Y-13781000D01*
X15139286Y-13790524D01*
X15148809Y-13809571D01*
X15158333Y-13847667D01*
X15158333Y-13895286D01*
X15148809Y-13933381D01*
X15139286Y-13952428D01*
X15129762Y-13961952D01*
X15110714Y-13971476D01*
X15091667Y-13971476D01*
X15072619Y-13961952D01*
X15063095Y-13952428D01*
X15053571Y-13933381D01*
X15044048Y-13895286D01*
X15044048Y-13847667D01*
X15053571Y-13809571D01*
X15063095Y-13790524D01*
X15072619Y-13781000D01*
X15091667Y-13771476D01*
X15329762Y-13771476D02*
X15291667Y-13771476D01*
X15272619Y-13781000D01*
X15263095Y-13790524D01*
X15244048Y-13819095D01*
X15234524Y-13857190D01*
X15234524Y-13933381D01*
X15244048Y-13952428D01*
X15253571Y-13961952D01*
X15272619Y-13971476D01*
X15310714Y-13971476D01*
X15329762Y-13961952D01*
X15339286Y-13952428D01*
X15348809Y-13933381D01*
X15348809Y-13885762D01*
X15339286Y-13866714D01*
X15329762Y-13857190D01*
X15310714Y-13847667D01*
X15272619Y-13847667D01*
X15253571Y-13857190D01*
X15244048Y-13866714D01*
X15234524Y-13885762D01*
X15415476Y-13771476D02*
X15539286Y-13771476D01*
X15472619Y-13847667D01*
X15501190Y-13847667D01*
X15520238Y-13857190D01*
X15529762Y-13866714D01*
X15539286Y-13885762D01*
X15539286Y-13933381D01*
X15529762Y-13952428D01*
X15520238Y-13961952D01*
X15501190Y-13971476D01*
X15444048Y-13971476D01*
X15425000Y-13961952D01*
X15415476Y-13952428D01*
X15615476Y-13771476D02*
X15615476Y-13809571D01*
X15691667Y-13771476D02*
X15691667Y-13809571D01*
X15986905Y-14047667D02*
X15977381Y-14038143D01*
X15958333Y-14009571D01*
X15948809Y-13990524D01*
X15939286Y-13961952D01*
X15929762Y-13914333D01*
X15929762Y-13876238D01*
X15939286Y-13828619D01*
X15948809Y-13800048D01*
X15958333Y-13781000D01*
X15977381Y-13752428D01*
X15986905Y-13742905D01*
X16167857Y-13971476D02*
X16053571Y-13971476D01*
X16110714Y-13971476D02*
X16110714Y-13771476D01*
X16091667Y-13800048D01*
X16072619Y-13819095D01*
X16053571Y-13828619D01*
X16405952Y-13971476D02*
X16405952Y-13771476D01*
X16491667Y-13971476D02*
X16491667Y-13866714D01*
X16482143Y-13847667D01*
X16463095Y-13838143D01*
X16434524Y-13838143D01*
X16415476Y-13847667D01*
X16405952Y-13857190D01*
X16615476Y-13971476D02*
X16596428Y-13961952D01*
X16586905Y-13952428D01*
X16577381Y-13933381D01*
X16577381Y-13876238D01*
X16586905Y-13857190D01*
X16596428Y-13847667D01*
X16615476Y-13838143D01*
X16644048Y-13838143D01*
X16663095Y-13847667D01*
X16672619Y-13857190D01*
X16682143Y-13876238D01*
X16682143Y-13933381D01*
X16672619Y-13952428D01*
X16663095Y-13961952D01*
X16644048Y-13971476D01*
X16615476Y-13971476D01*
X16796429Y-13971476D02*
X16777381Y-13961952D01*
X16767857Y-13942905D01*
X16767857Y-13771476D01*
X16948810Y-13961952D02*
X16929762Y-13971476D01*
X16891667Y-13971476D01*
X16872619Y-13961952D01*
X16863095Y-13942905D01*
X16863095Y-13866714D01*
X16872619Y-13847667D01*
X16891667Y-13838143D01*
X16929762Y-13838143D01*
X16948810Y-13847667D01*
X16958333Y-13866714D01*
X16958333Y-13885762D01*
X16863095Y-13904809D01*
X17025000Y-14047667D02*
X17034524Y-14038143D01*
X17053571Y-14009571D01*
X17063095Y-13990524D01*
X17072619Y-13961952D01*
X17082143Y-13914333D01*
X17082143Y-13876238D01*
X17072619Y-13828619D01*
X17063095Y-13800048D01*
X17053571Y-13781000D01*
X17034524Y-13752428D01*
X17025000Y-13742905D01*
M02*
