%TF.GenerationSoftware,KiCad,Pcbnew,(6.0.7)*%
%TF.CreationDate,2023-03-31T21:15:27+02:00*%
%TF.ProjectId,airboy_cartridge,61697262-6f79-45f6-9361-727472696467,rev?*%
%TF.SameCoordinates,Original*%
%TF.FileFunction,Soldermask,Bot*%
%TF.FilePolarity,Negative*%
%FSLAX46Y46*%
G04 Gerber Fmt 4.6, Leading zero omitted, Abs format (unit mm)*
G04 Created by KiCad (PCBNEW (6.0.7)) date 2023-03-31 21:15:27*
%MOMM*%
%LPD*%
G01*
G04 APERTURE LIST*
G04 Aperture macros list*
%AMRoundRect*
0 Rectangle with rounded corners*
0 $1 Rounding radius*
0 $2 $3 $4 $5 $6 $7 $8 $9 X,Y pos of 4 corners*
0 Add a 4 corners polygon primitive as box body*
4,1,4,$2,$3,$4,$5,$6,$7,$8,$9,$2,$3,0*
0 Add four circle primitives for the rounded corners*
1,1,$1+$1,$2,$3*
1,1,$1+$1,$4,$5*
1,1,$1+$1,$6,$7*
1,1,$1+$1,$8,$9*
0 Add four rect primitives between the rounded corners*
20,1,$1+$1,$2,$3,$4,$5,0*
20,1,$1+$1,$4,$5,$6,$7,0*
20,1,$1+$1,$6,$7,$8,$9,0*
20,1,$1+$1,$8,$9,$2,$3,0*%
G04 Aperture macros list end*
%ADD10C,0.120000*%
%ADD11RoundRect,0.250000X0.425000X-0.537500X0.425000X0.537500X-0.425000X0.537500X-0.425000X-0.537500X0*%
%ADD12C,0.600000*%
%ADD13R,0.600000X1.160000*%
%ADD14R,0.300000X1.160000*%
%ADD15O,0.900000X1.700000*%
%ADD16O,0.900000X2.000000*%
%ADD17RoundRect,0.150000X-0.150000X0.587500X-0.150000X-0.587500X0.150000X-0.587500X0.150000X0.587500X0*%
%ADD18RoundRect,0.237500X0.300000X0.237500X-0.300000X0.237500X-0.300000X-0.237500X0.300000X-0.237500X0*%
%ADD19R,1.300000X1.600000*%
%ADD20RoundRect,0.237500X0.237500X-0.250000X0.237500X0.250000X-0.237500X0.250000X-0.237500X-0.250000X0*%
%ADD21RoundRect,0.237500X-0.250000X-0.237500X0.250000X-0.237500X0.250000X0.237500X-0.250000X0.237500X0*%
%ADD22RoundRect,0.237500X-0.300000X-0.237500X0.300000X-0.237500X0.300000X0.237500X-0.300000X0.237500X0*%
%ADD23RoundRect,0.150000X-0.650000X-0.150000X0.650000X-0.150000X0.650000X0.150000X-0.650000X0.150000X0*%
%ADD24RoundRect,0.250000X0.537500X0.425000X-0.537500X0.425000X-0.537500X-0.425000X0.537500X-0.425000X0*%
%ADD25R,1.700000X1.700000*%
%ADD26O,1.700000X1.700000*%
%ADD27R,0.700000X1.750000*%
%ADD28R,1.450000X1.000000*%
%ADD29R,1.000000X1.550000*%
%ADD30R,0.800000X1.500000*%
%ADD31R,1.300000X1.500000*%
%ADD32R,1.500000X1.500000*%
%ADD33R,0.800000X1.400000*%
%ADD34C,5.400000*%
%ADD35RoundRect,0.150000X-0.512500X-0.150000X0.512500X-0.150000X0.512500X0.150000X-0.512500X0.150000X0*%
%ADD36RoundRect,0.237500X0.237500X-0.300000X0.237500X0.300000X-0.237500X0.300000X-0.237500X-0.300000X0*%
%ADD37RoundRect,0.237500X0.250000X0.237500X-0.250000X0.237500X-0.250000X-0.237500X0.250000X-0.237500X0*%
%ADD38RoundRect,0.150000X-0.825000X-0.150000X0.825000X-0.150000X0.825000X0.150000X-0.825000X0.150000X0*%
%ADD39RoundRect,0.250000X-0.537500X-0.425000X0.537500X-0.425000X0.537500X0.425000X-0.537500X0.425000X0*%
%ADD40RoundRect,0.237500X-0.237500X0.250000X-0.237500X-0.250000X0.237500X-0.250000X0.237500X0.250000X0*%
%ADD41RoundRect,0.150000X0.150000X-0.587500X0.150000X0.587500X-0.150000X0.587500X-0.150000X-0.587500X0*%
%ADD42RoundRect,0.237500X0.287500X0.237500X-0.287500X0.237500X-0.287500X-0.237500X0.287500X-0.237500X0*%
G04 APERTURE END LIST*
%TO.C,J4*%
G36*
X176035000Y-122275000D02*
G01*
X123965000Y-122275000D01*
X123965000Y-115661600D01*
X176035000Y-115661600D01*
X176035000Y-122275000D01*
G37*
D10*
X176035000Y-122275000D02*
X123965000Y-122275000D01*
X123965000Y-115661600D01*
X176035000Y-115661600D01*
X176035000Y-122275000D01*
%TD*%
D11*
%TO.C,C8*%
X153162000Y-111927500D03*
X153162000Y-109052500D03*
%TD*%
D12*
%TO.C,J1*%
X127610000Y-91775000D03*
X133390000Y-91775000D03*
D13*
X127300000Y-92835000D03*
X128100000Y-92835000D03*
D14*
X129250000Y-92835000D03*
X130250000Y-92835000D03*
X130750000Y-92835000D03*
X131750000Y-92835000D03*
D13*
X132900000Y-92835000D03*
X133700000Y-92835000D03*
X133700000Y-92835000D03*
X132900000Y-92835000D03*
D14*
X132250000Y-92835000D03*
X131250000Y-92835000D03*
X129750000Y-92835000D03*
X128750000Y-92835000D03*
D13*
X128100000Y-92835000D03*
X127300000Y-92835000D03*
D15*
X126180000Y-88085000D03*
D16*
X126180000Y-92255000D03*
D15*
X134820000Y-88085000D03*
D16*
X134820000Y-92255000D03*
%TD*%
D17*
%TO.C,Q1*%
X154686000Y-97106500D03*
X156586000Y-97106500D03*
X155636000Y-98981500D03*
%TD*%
D18*
%TO.C,C2*%
X140308500Y-87376000D03*
X138583500Y-87376000D03*
%TD*%
D19*
%TO.C,Y1*%
X140446000Y-89536000D03*
X140446000Y-92836000D03*
X138446000Y-92836000D03*
X138446000Y-89536000D03*
%TD*%
D20*
%TO.C,R11*%
X168148000Y-110894500D03*
X168148000Y-109069500D03*
%TD*%
D21*
%TO.C,R9*%
X129516500Y-97790000D03*
X131341500Y-97790000D03*
%TD*%
D20*
%TO.C,R7*%
X157480000Y-110894500D03*
X157480000Y-109069500D03*
%TD*%
D22*
%TO.C,C1*%
X138583500Y-94996000D03*
X140308500Y-94996000D03*
%TD*%
D23*
%TO.C,U2*%
X140672000Y-112141000D03*
X140672000Y-110871000D03*
X140672000Y-109601000D03*
X140672000Y-108331000D03*
X147872000Y-108331000D03*
X147872000Y-109601000D03*
X147872000Y-110871000D03*
X147872000Y-112141000D03*
%TD*%
D24*
%TO.C,C3*%
X145455500Y-103124000D03*
X142580500Y-103124000D03*
%TD*%
D25*
%TO.C,J3*%
X162835000Y-102625000D03*
D26*
X162835000Y-105165000D03*
X165375000Y-102625000D03*
X165375000Y-105165000D03*
X167915000Y-102625000D03*
X167915000Y-105165000D03*
X170455000Y-102625000D03*
X170455000Y-105165000D03*
X172995000Y-102625000D03*
X172995000Y-105165000D03*
%TD*%
D20*
%TO.C,R3*%
X166370000Y-110894500D03*
X166370000Y-109069500D03*
%TD*%
D27*
%TO.C,J2*%
X171075000Y-87450000D03*
X169975000Y-87450000D03*
X168875000Y-87450000D03*
X167775000Y-87450000D03*
X166675000Y-87450000D03*
X165575000Y-87450000D03*
X164475000Y-87450000D03*
X163375000Y-87450000D03*
D28*
X162250000Y-96675000D03*
D29*
X173475000Y-98250000D03*
D30*
X161925000Y-95175000D03*
D31*
X162175000Y-87575000D03*
D32*
X173525000Y-87575000D03*
D33*
X173875000Y-95825000D03*
%TD*%
D20*
%TO.C,R6*%
X161036000Y-110894500D03*
X161036000Y-109069500D03*
%TD*%
D34*
%TO.C,H1*%
X150000000Y-104000000D03*
%TD*%
D22*
%TO.C,C9*%
X171730500Y-110236000D03*
X173455500Y-110236000D03*
%TD*%
D35*
%TO.C,U4*%
X137292500Y-98994000D03*
X137292500Y-98044000D03*
X137292500Y-97094000D03*
X139567500Y-97094000D03*
X139567500Y-98044000D03*
X139567500Y-98994000D03*
%TD*%
D18*
%TO.C,C10*%
X127608500Y-110236000D03*
X125883500Y-110236000D03*
%TD*%
D36*
%TO.C,C6*%
X160020000Y-105129500D03*
X160020000Y-103404500D03*
%TD*%
D37*
%TO.C,R10*%
X127658500Y-97790000D03*
X125833500Y-97790000D03*
%TD*%
D38*
%TO.C,U1*%
X144337000Y-98679000D03*
X144337000Y-97409000D03*
X144337000Y-96139000D03*
X144337000Y-94869000D03*
X144337000Y-93599000D03*
X144337000Y-92329000D03*
X144337000Y-91059000D03*
X144337000Y-89789000D03*
X149287000Y-89789000D03*
X149287000Y-91059000D03*
X149287000Y-92329000D03*
X149287000Y-93599000D03*
X149287000Y-94869000D03*
X149287000Y-96139000D03*
X149287000Y-97409000D03*
X149287000Y-98679000D03*
%TD*%
D18*
%TO.C,C4*%
X146404500Y-100584000D03*
X144679500Y-100584000D03*
%TD*%
D24*
%TO.C,C12*%
X173471700Y-112268000D03*
X170596700Y-112268000D03*
%TD*%
D39*
%TO.C,C11*%
X125892700Y-112268000D03*
X128767700Y-112268000D03*
%TD*%
D20*
%TO.C,R8*%
X159258000Y-110894500D03*
X159258000Y-109069500D03*
%TD*%
D40*
%TO.C,R2*%
X158750000Y-94845500D03*
X158750000Y-96670500D03*
%TD*%
D41*
%TO.C,Q2*%
X156586000Y-94409500D03*
X154686000Y-94409500D03*
X155636000Y-92534500D03*
%TD*%
D37*
%TO.C,R12*%
X134008500Y-103632000D03*
X132183500Y-103632000D03*
%TD*%
D36*
%TO.C,C7*%
X150876000Y-111936700D03*
X150876000Y-110211700D03*
%TD*%
D40*
%TO.C,R1*%
X152588000Y-94845500D03*
X152588000Y-96670500D03*
%TD*%
D36*
%TO.C,C5*%
X159766000Y-90016500D03*
X159766000Y-88291500D03*
%TD*%
D20*
%TO.C,R4*%
X164592000Y-110894500D03*
X164592000Y-109069500D03*
%TD*%
D42*
%TO.C,D1*%
X129653000Y-103632000D03*
X127903000Y-103632000D03*
%TD*%
D20*
%TO.C,R5*%
X162814000Y-110894500D03*
X162814000Y-109069500D03*
%TD*%
M02*
