M48
; DRILL file {KiCad (6.0.7)} date Fri Mar 31 21:15:40 2023
; FORMAT={-:-/ absolute / metric / decimal}
; #@! TF.CreationDate,2023-03-31T21:15:40+02:00
; #@! TF.GenerationSoftware,Kicad,Pcbnew,(6.0.7)
; #@! TF.FileFunction,Plated,1,2,PTH
FMAT,2
METRIC
; #@! TA.AperFunction,Plated,PTH,ViaDrill
T1C0.300
; #@! TA.AperFunction,Plated,PTH,ViaDrill
T2C0.400
; #@! TA.AperFunction,Plated,PTH,ComponentDrill
T3C0.600
; #@! TA.AperFunction,Plated,PTH,ComponentDrill
T4C1.000
; #@! TA.AperFunction,Plated,PTH,ComponentDrill
T5C2.700
%
G90
G05
T1
X125.832Y-96.52
X128.27Y-89.662
X129.235Y-93.98
X129.743Y-91.592
X130.912Y-94.336
X131.343Y-96.749
X131.851Y-94.234
X132.588Y-89.662
X141.732Y-113.817
X145.44Y-113.64
X145.847Y-110.541
X145.872Y-108.331
X145.999Y-96.139
X145.999Y-97.409
X146.406Y-111.404
X146.787Y-90.653
X146.812Y-92.862
X147.853Y-96.774
X148.082Y-114.275
X149.352Y-110.871
X154.203Y-98.984
X154.94Y-100.127
X156.337Y-92.532
X156.718Y-103.982
X157.353Y-112.522
X157.632Y-115.011
X157.912Y-106.147
X158.902Y-115.011
X159.004Y-112.522
X159.05Y-106.3
X160.172Y-115.011
X160.655Y-112.522
X161.1Y-106.25
X161.442Y-115.011
X162.306Y-112.522
X162.712Y-115.011
X163.373Y-89.027
X163.957Y-112.522
X164.008Y-115.011
X164.465Y-89.027
X165.608Y-94.996
X165.608Y-112.522
X166.675Y-89.027
X167.132Y-114.833
X167.31Y-112.497
X167.894Y-94.996
X168.402Y-114.833
X168.885Y-89.027
X169.189Y-100.914
X169.977Y-89.027
X170.561Y-110.236
X170.688Y-94.996
X171.729Y-100.914
X173.95Y-107.35
T2
X125.222Y-114.351
X125.984Y-102.616
X125.984Y-105.664
X126.492Y-114.351
X126.619Y-94.386
X127.508Y-101.092
X127.635Y-109.068
X127.66Y-99.009
X127.762Y-114.351
X128.829Y-110.236
X129.032Y-114.351
X129.134Y-95.174
X129.515Y-99.009
X130.226Y-112.293
X131.064Y-101.092
X131.572Y-108.204
X131.572Y-110.744
X131.572Y-113.284
X132.309Y-95.174
X132.842Y-115.037
X134.01Y-102.464
X134.112Y-108.204
X134.112Y-110.744
X134.112Y-113.284
X134.214Y-94.386
X135.712Y-98.044
X136.652Y-102.108
X136.652Y-104.648
X136.652Y-108.204
X136.652Y-110.744
X136.652Y-113.284
X136.652Y-115.037
X137.109Y-89.535
X137.414Y-87.376
X138.862Y-106.324
X139.065Y-108.204
X140.462Y-115.037
X141.021Y-96.241
X141.148Y-103.124
X142.164Y-91.973
X142.342Y-110.49
X142.621Y-98.679
X143.002Y-115.037
X143.51Y-100.584
X143.764Y-87.884
X145.567Y-115.037
X146.304Y-106.426
X146.812Y-87.884
X148.336Y-100.076
X149.352Y-87.884
X149.377Y-115.011
X151.892Y-87.884
X151.892Y-90.424
X151.917Y-115.011
X151.994Y-92.786
X152.908Y-98.044
X153.187Y-113.335
X153.848Y-106.121
X154.432Y-87.884
X155.702Y-115.011
X156.718Y-106.121
X156.972Y-87.884
X157.175Y-101.346
X157.48Y-107.442
X158.496Y-100.076
X159.766Y-87.122
X160.02Y-92.888
X160.02Y-101.981
X161.544Y-99.06
X165.1Y-99.06
X165.583Y-89.027
X165.583Y-91.415
X169.189Y-112.979
X169.697Y-114.351
X170.967Y-114.351
X171.196Y-90.424
X172.133Y-91.415
X172.212Y-114.351
X173.482Y-114.351
X173.736Y-100.076
X173.863Y-93.167
X174.752Y-114.351
T4
X162.835Y-102.625
X162.835Y-105.165
X165.375Y-102.625
X165.375Y-105.165
X167.915Y-102.625
X167.915Y-105.165
X170.455Y-102.625
X170.455Y-105.165
X172.995Y-102.625
X172.995Y-105.165
T5
X150.0Y-104.0
T3
X126.18Y-87.685G85X126.18Y-88.485
G05
X126.18Y-91.705G85X126.18Y-92.805
G05
X134.82Y-87.685G85X134.82Y-88.485
G05
X134.82Y-91.705G85X134.82Y-92.805
G05
T0
M30
